<?xml version="1.0" encoding="utf-8"?>
<!-- Generator: Adobe Illustrator 24.1.0, SVG Export Plug-In . SVG Version: 6.00 Build 0)  -->
<svg version="1.1" xmlns="http://www.w3.org/2000/svg" xmlns:xlink="http://www.w3.org/1999/xlink" x="0px" y="0px"
	 viewBox="0 0 361.49 383.06" enable-background="new 0 0 361.49 383.06" xml:space="preserve">
<g id="Layer_4">
	<g>
		<defs>
			<rect id="SVGID_7_" width="361.49" height="383.06"/>
		</defs>
		<clipPath id="SVGID_2_">
			<use xlink:href="#SVGID_7_"  overflow="visible"/>
		</clipPath>
		<g clip-path="url(#SVGID_2_)">
			<rect x="1.21" y="13.33" fill="#FFFFFF" width="545.2" height="369.73"/>
		</g>
		<g clip-path="url(#SVGID_2_)">
			<path fill="#282829" d="M539.32,0H8.3C4.38,0,1.21,3.17,1.21,7.09v6.24h545.2V7.09C546.41,3.17,543.24,0,539.32,0z"/>
		</g>
		<g clip-path="url(#SVGID_2_)">
			<circle fill="#ED1C24" cx="10.23" cy="6.67" r="3.14"/>
		</g>
		<g clip-path="url(#SVGID_2_)">
			<circle fill="#42B649" cx="29.99" cy="6.67" r="3.14"/>
		</g>
		<g clip-path="url(#SVGID_2_)">
			<circle fill="#FEC00F" cx="20.11" cy="6.67" r="3.14"/>
		</g>
		<g clip-path="url(#SVGID_2_)">
			<rect x="14.44" y="87.06" width="74.27" height="30.85"/>
		</g>
		<g clip-path="url(#SVGID_2_)">
			<path d="M16.09,55.65l-2.2,5.79h-3.37l8.12-20.64h3.82l8.03,20.64h-3.33l-2.18-5.79H16.09z M20.53,43.26
				c-0.15,0.5-0.32,1.06-0.53,1.69s-0.39,1.15-0.55,1.56l-2.48,6.61h7.13l-2.52-6.71c-0.14-0.36-0.3-0.82-0.48-1.37
				S20.72,43.89,20.53,43.26z"/>
			<path d="M36.4,53.11v8.32h-3.3V40.79h9.9c2.37,0,4.2,0.52,5.49,1.57s1.93,2.52,1.93,4.42c0,1.5-0.43,2.78-1.3,3.82
				s-2.06,1.71-3.57,2.01l5.77,8.82h-3.78l-5.17-8.32H36.4z M47.11,46.86c0-1.13-0.38-1.99-1.13-2.58s-1.86-0.88-3.3-0.88H36.4v7.12
				h6.39c1.39,0,2.45-0.32,3.2-0.97S47.11,48.01,47.11,46.86z"/>
			<path d="M64.15,59.06c2.8,0,4.86-1.39,6.17-4.17l2.77,1.25c-0.83,1.85-2.02,3.24-3.57,4.18s-3.37,1.41-5.46,1.41
				c-2.13,0-3.95-0.43-5.47-1.29s-2.68-2.09-3.49-3.7s-1.22-3.51-1.22-5.72c0-2.22,0.4-4.11,1.19-5.68s1.95-2.77,3.46-3.6
				s3.33-1.25,5.46-1.25c2.28,0,4.16,0.45,5.65,1.35s2.57,2.22,3.24,3.97l-3.05,0.94c-0.42-1.14-1.14-2.03-2.16-2.66
				s-2.23-0.94-3.63-0.94c-2.18,0-3.86,0.69-5.04,2.08s-1.77,3.32-1.77,5.8c0,1.65,0.28,3.08,0.83,4.28s1.34,2.13,2.38,2.78
				S62.71,59.06,64.15,59.06z"/>
			<path d="M79.73,52.1v9.33h-3.3V40.79h3.3v8.55h10.44v-8.55h3.31v20.64h-3.31V52.1H79.73z"/>
			<path d="M101.6,40.79v20.64h-3.3V40.79H101.6z"/>
			<path d="M114.94,43.43v18h-3.3v-18h-6.96v-2.64h17.2v2.64H114.94z"/>
			<path d="M141.21,58.8v2.64h-16.45V40.79h15.85v2.64h-12.55v6.14h11.66v2.62h-11.66v6.61H141.21z"/>
			<path d="M154.15,59.06c2.8,0,4.86-1.39,6.17-4.17l2.77,1.25c-0.83,1.85-2.02,3.24-3.57,4.18s-3.37,1.41-5.46,1.41
				c-2.13,0-3.95-0.43-5.47-1.29s-2.68-2.09-3.49-3.7s-1.22-3.51-1.22-5.72c0-2.22,0.4-4.11,1.19-5.68s1.95-2.77,3.46-3.6
				s3.33-1.25,5.46-1.25c2.28,0,4.16,0.45,5.65,1.35s2.57,2.22,3.24,3.97l-3.05,0.94c-0.42-1.14-1.14-2.03-2.16-2.66
				s-2.23-0.94-3.63-0.94c-2.18,0-3.86,0.69-5.04,2.08s-1.77,3.32-1.77,5.8c0,1.65,0.28,3.08,0.83,4.28s1.34,2.13,2.38,2.78
				S152.71,59.06,154.15,59.06z"/>
			<path d="M174.94,43.43v18h-3.3v-18h-6.96v-2.64h17.2v2.64H174.94z"/>
			<path d="M193.11,61.73c-1.76,0-3.27-0.31-4.55-0.94s-2.26-1.52-2.94-2.7s-1.03-2.58-1.03-4.23V40.79h3.31v12.79
				c0,1.81,0.45,3.18,1.35,4.11s2.2,1.4,3.9,1.4c1.76,0,3.12-0.49,4.08-1.46s1.44-2.38,1.44-4.23V40.79h3.3v12.82
				c0,1.69-0.36,3.14-1.07,4.35s-1.73,2.14-3.05,2.79S194.94,61.73,193.11,61.73z"/>
			<path d="M209.73,53.11v8.32h-3.3V40.79h9.9c2.37,0,4.2,0.52,5.49,1.57s1.93,2.52,1.93,4.42c0,1.5-0.43,2.78-1.3,3.82
				s-2.06,1.71-3.57,2.01l5.77,8.82h-3.78l-5.17-8.32H209.73z M220.43,46.86c0-1.13-0.38-1.99-1.13-2.58s-1.86-0.88-3.3-0.88h-6.27
				v7.12h6.39c1.39,0,2.45-0.32,3.2-0.97S220.43,48.01,220.43,46.86z"/>
			<path d="M244.54,58.8v2.64h-16.45V40.79h15.85v2.64h-12.55v6.14h11.66v2.62h-11.66v6.61H244.54z"/>
		</g>
		<g clip-path="url(#SVGID_2_)">
			<path fill="#FFFFFF" d="M23.23,98.55l-0.73,1.93h-1.12l2.71-6.88h1.28l2.68,6.88h-1.11l-0.73-1.93H23.23z M24.71,94.42
				c-0.05,0.17-0.11,0.35-0.18,0.56s-0.13,0.38-0.18,0.52l-0.83,2.2h2.38l-0.84-2.24c-0.05-0.12-0.1-0.27-0.16-0.46
				C24.84,94.83,24.78,94.63,24.71,94.42z"/>
			<path fill="#FFFFFF" d="M34.34,95.7c0,0.44-0.1,0.82-0.3,1.15s-0.48,0.58-0.83,0.76s-0.79,0.27-1.29,0.27h-1.92v2.59h-1.1V93.6
				h2.96c0.79,0,1.4,0.18,1.83,0.55S34.34,95.04,34.34,95.7z M33.23,95.72c0-0.83-0.5-1.25-1.49-1.25h-1.73v2.55h1.77
				c0.48,0,0.84-0.11,1.09-0.33S33.23,96.15,33.23,95.72z"/>
			<path fill="#FFFFFF" d="M36.75,93.6v6.88h-1.1V93.6H36.75z"/>
		</g>
		<g clip-path="url(#SVGID_2_)">
			<path d="M28.04,299.66c0,0.73-0.14,1.36-0.43,1.88s-0.68,0.93-1.18,1.21s-1.08,0.42-1.75,0.42h-2.64v-6.88h2.34
				c1.17,0,2.06,0.29,2.7,0.88S28.04,298.58,28.04,299.66z M26.94,299.66c0-0.81-0.22-1.43-0.66-1.86s-1.07-0.64-1.9-0.64h-1.22
				v5.14h1.43c0.48,0,0.89-0.11,1.25-0.32s0.62-0.52,0.82-0.91S26.94,300.2,26.94,299.66z"/>
			<path d="M33.92,302.28v0.88h-4.65v-6.88h1.1v6H33.92z"/>
			<path d="M39.67,302.28v0.88h-4.65v-6.88h1.1v6H39.67z"/>
		</g>
		<g clip-path="url(#SVGID_2_)">
			<path d="M27.9,343.56l-2.71,6.88h-1.13l-2.72-6.88h1.15l1.74,4.7c0.07,0.18,0.13,0.37,0.2,0.58c0.06,0.21,0.13,0.43,0.2,0.66
				c0.08-0.27,0.15-0.51,0.21-0.72s0.12-0.38,0.18-0.53l1.73-4.7H27.9z"/>
			<path d="M29.82,347.74v2.7h-1.1v-6.88h4.95v0.88h-3.85v2.42h3.74v0.88H29.82z"/>
			<path d="M23.03,357.99v4.45h-0.98v-6.88h1.46l1.63,4.46c0.06,0.2,0.12,0.41,0.18,0.63s0.1,0.4,0.14,0.53
				c0.03-0.1,0.06-0.22,0.1-0.37c0.04-0.14,0.08-0.28,0.12-0.42c0.04-0.14,0.08-0.24,0.1-0.31l1.62-4.53h1.44v6.88h-0.99v-4.45
				c0-0.2,0-0.43,0.01-0.69c0.01-0.26,0.02-0.52,0.04-0.79c-0.09,0.34-0.18,0.64-0.25,0.89c-0.07,0.26-0.14,0.47-0.21,0.63l-1.6,4.4
				h-0.78l-1.61-4.4l-0.46-1.52c0.01,0.29,0.02,0.56,0.03,0.8C23.02,357.56,23.03,357.79,23.03,357.99z"/>
			<path d="M34.94,359.8c0,0.9-0.21,1.58-0.64,2.05s-1.04,0.7-1.84,0.7c-0.79,0-1.4-0.24-1.81-0.72c-0.42-0.48-0.63-1.15-0.63-2.03
				c0-0.89,0.21-1.57,0.63-2.04s1.03-0.7,1.84-0.7c0.82,0,1.44,0.23,1.84,0.68S34.94,358.88,34.94,359.8z M33.85,359.8
				c0-0.7-0.11-1.2-0.32-1.52c-0.21-0.31-0.55-0.47-1.03-0.47c-0.48,0-0.83,0.16-1.06,0.49c-0.22,0.32-0.33,0.82-0.33,1.5
				c0,0.66,0.11,1.16,0.33,1.49s0.55,0.5,1,0.5c0.5,0,0.85-0.16,1.07-0.49S33.85,360.48,33.85,359.8z"/>
			<path d="M39.44,362.44c-0.01-0.04-0.01-0.1-0.02-0.21s-0.02-0.21-0.02-0.33c-0.01-0.12-0.01-0.23-0.01-0.32h-0.02
				c-0.16,0.33-0.37,0.57-0.64,0.73s-0.61,0.23-1.02,0.23c-0.65,0-1.13-0.23-1.46-0.69s-0.48-1.14-0.48-2.03
				c0-0.91,0.17-1.6,0.5-2.06c0.33-0.47,0.82-0.7,1.47-0.7c0.39,0,0.73,0.07,0.99,0.22s0.48,0.38,0.64,0.7h0.01l-0.01-0.68v-2.1
				h1.04v6.14c0,0.24,0,0.45,0.01,0.63s0.01,0.34,0.02,0.48H39.44z M36.86,359.8c0,0.69,0.1,1.19,0.29,1.5s0.49,0.47,0.91,0.47
				c0.45,0,0.79-0.17,1-0.5s0.32-0.84,0.32-1.52c0-0.65-0.11-1.14-0.32-1.46c-0.21-0.32-0.54-0.48-0.99-0.48
				c-0.42,0-0.72,0.16-0.92,0.48S36.86,359.1,36.86,359.8z"/>
			<path d="M42.6,360.01c0,0.58,0.12,1.02,0.35,1.32c0.23,0.31,0.57,0.46,1,0.46c0.34,0,0.61-0.07,0.81-0.21s0.35-0.32,0.42-0.54
				l0.94,0.18c-0.33,0.88-1.07,1.31-2.19,1.31c-0.79,0-1.39-0.23-1.8-0.7c-0.41-0.47-0.62-1.16-0.62-2.07
				c0-0.87,0.21-1.54,0.62-2.01c0.42-0.47,1.01-0.7,1.78-0.7c0.77,0,1.35,0.24,1.75,0.72c0.39,0.48,0.59,1.19,0.59,2.14v0.09H42.6z
				 M45.2,359.28c-0.04-0.51-0.17-0.89-0.38-1.13c-0.22-0.24-0.52-0.36-0.92-0.36c-0.39,0-0.7,0.13-0.92,0.4s-0.34,0.63-0.36,1.1
				H45.2z"/>
			<path d="M48.38,355.2v7.25h-1.04v-7.25H48.38z"/>
		</g>
		<g clip-path="url(#SVGID_2_)">
			<path d="M114.81,97.01c0,0.63-0.11,1.2-0.32,1.69s-0.52,0.89-0.93,1.2c-0.4,0.31-0.89,0.51-1.45,0.6
				c0.13,0.38,0.3,0.66,0.51,0.83c0.21,0.17,0.49,0.25,0.83,0.25c0.19,0,0.38-0.02,0.57-0.06l0,0.76c-0.33,0.08-0.66,0.12-0.97,0.12
				c-0.5,0-0.92-0.14-1.25-0.42s-0.59-0.76-0.8-1.42c-0.64-0.04-1.19-0.21-1.65-0.51s-0.8-0.71-1.04-1.22s-0.36-1.12-0.36-1.8
				c0-0.74,0.14-1.36,0.41-1.89c0.27-0.52,0.66-0.92,1.18-1.2s1.13-0.42,1.85-0.42c0.73,0,1.34,0.14,1.86,0.42
				c0.51,0.28,0.9,0.69,1.17,1.21C114.67,95.66,114.81,96.28,114.81,97.01z M113.68,97.01c0-0.82-0.2-1.46-0.61-1.93
				c-0.4-0.47-0.97-0.7-1.7-0.7c-0.74,0-1.31,0.23-1.71,0.69c-0.4,0.46-0.61,1.11-0.61,1.94c0,0.55,0.09,1.03,0.28,1.43
				c0.18,0.4,0.45,0.71,0.79,0.93c0.34,0.22,0.76,0.33,1.24,0.33c0.75,0,1.32-0.23,1.72-0.7S113.68,97.86,113.68,97.01z"/>
			<path d="M119.29,99.53c-0.2,0.38-0.43,0.65-0.7,0.81c-0.27,0.16-0.6,0.24-1,0.24c-0.57,0-1-0.15-1.28-0.46s-0.42-0.79-0.42-1.46
				V95.2h1.04v3.22c0,0.5,0.08,0.86,0.24,1.06c0.16,0.2,0.43,0.3,0.8,0.3c0.39,0,0.71-0.14,0.93-0.43s0.34-0.68,0.34-1.17V95.2h1.04
				v4.14c0,0.28,0,0.52,0.01,0.71s0.01,0.34,0.03,0.44h-0.99c-0.01-0.09-0.02-0.21-0.03-0.36c-0.01-0.15-0.01-0.35-0.02-0.6H119.29z
				"/>
			<path d="M122.52,98.05c0,0.58,0.12,1.02,0.35,1.32c0.23,0.31,0.56,0.46,1,0.46c0.33,0,0.61-0.07,0.81-0.21s0.34-0.32,0.42-0.54
				l0.94,0.18c-0.34,0.88-1.07,1.31-2.19,1.31c-0.79,0-1.39-0.23-1.8-0.7c-0.41-0.47-0.62-1.16-0.62-2.07
				c0-0.87,0.21-1.54,0.62-2.01c0.42-0.47,1.01-0.7,1.78-0.7c0.77,0,1.35,0.24,1.75,0.72c0.39,0.48,0.59,1.19,0.59,2.14v0.09H122.52
				z M125.11,97.32c-0.04-0.51-0.17-0.89-0.38-1.13c-0.22-0.24-0.52-0.36-0.92-0.36c-0.39,0-0.7,0.13-0.92,0.4s-0.35,0.63-0.36,1.1
				H125.11z"/>
			<path d="M130.6,99.53c-0.2,0.38-0.43,0.65-0.7,0.81c-0.27,0.16-0.6,0.24-1,0.24c-0.57,0-1-0.15-1.28-0.46s-0.42-0.79-0.42-1.46
				V95.2h1.04v3.22c0,0.5,0.08,0.86,0.24,1.06c0.16,0.2,0.43,0.3,0.8,0.3c0.39,0,0.71-0.14,0.93-0.43s0.34-0.68,0.34-1.17V95.2h1.04
				v4.14c0,0.28,0,0.52,0.01,0.71s0.01,0.34,0.03,0.44h-0.99c-0.01-0.09-0.02-0.21-0.03-0.36c-0.01-0.15-0.01-0.35-0.02-0.6H130.6z"
				/>
			<path d="M133.82,98.05c0,0.58,0.12,1.02,0.35,1.32c0.23,0.31,0.56,0.46,1,0.46c0.33,0,0.61-0.07,0.81-0.21s0.34-0.32,0.42-0.54
				l0.94,0.18c-0.34,0.88-1.07,1.31-2.19,1.31c-0.79,0-1.39-0.23-1.8-0.7c-0.41-0.47-0.62-1.16-0.62-2.07
				c0-0.87,0.21-1.54,0.62-2.01c0.42-0.47,1.01-0.7,1.78-0.7c0.77,0,1.35,0.24,1.75,0.72c0.39,0.48,0.59,1.19,0.59,2.14v0.09H133.82
				z M136.41,97.32c-0.04-0.51-0.17-0.89-0.38-1.13c-0.22-0.24-0.52-0.36-0.92-0.36c-0.39,0-0.7,0.13-0.92,0.4s-0.35,0.63-0.36,1.1
				H136.41z"/>
		</g>
		<g clip-path="url(#SVGID_2_)">
			<path d="M109.24,220.99v4.45h-0.98v-6.88h1.46l1.63,4.46c0.06,0.2,0.12,0.41,0.18,0.63s0.1,0.4,0.14,0.53
				c0.03-0.1,0.06-0.22,0.1-0.37s0.08-0.28,0.12-0.42c0.04-0.14,0.07-0.24,0.1-0.31l1.62-4.53h1.44v6.88h-0.99v-4.45
				c0-0.2,0-0.43,0.01-0.69s0.02-0.52,0.04-0.79c-0.09,0.34-0.18,0.64-0.25,0.89c-0.08,0.26-0.14,0.47-0.21,0.63l-1.6,4.4h-0.78
				l-1.61-4.4l-0.46-1.52c0.01,0.29,0.02,0.56,0.03,0.8S109.24,220.78,109.24,220.99z"/>
			<path d="M117.33,223.01c0,0.58,0.12,1.02,0.35,1.32c0.23,0.31,0.56,0.46,1,0.46c0.34,0,0.61-0.07,0.81-0.21s0.35-0.32,0.42-0.54
				l0.94,0.18c-0.34,0.88-1.07,1.31-2.19,1.31c-0.79,0-1.39-0.23-1.8-0.7c-0.41-0.47-0.62-1.16-0.62-2.07
				c0-0.87,0.21-1.54,0.62-2.01c0.42-0.47,1.01-0.7,1.78-0.7c0.77,0,1.35,0.24,1.75,0.72s0.59,1.19,0.59,2.14v0.09H117.33z
				 M119.92,222.27c-0.04-0.51-0.17-0.89-0.38-1.13s-0.52-0.36-0.92-0.36c-0.39,0-0.7,0.13-0.92,0.4s-0.34,0.63-0.36,1.1H119.92z"/>
			<path d="M126.19,223.95c0,0.5-0.2,0.9-0.59,1.17s-0.93,0.42-1.63,0.42c-0.68,0-1.2-0.11-1.57-0.33s-0.61-0.56-0.72-1.03
				l0.92-0.16c0.08,0.27,0.22,0.47,0.43,0.59c0.21,0.12,0.53,0.19,0.94,0.19c0.43,0,0.74-0.06,0.93-0.19s0.29-0.31,0.29-0.57
				c0-0.2-0.07-0.35-0.21-0.47s-0.38-0.22-0.7-0.3c-0.34-0.08-0.62-0.16-0.83-0.21s-0.39-0.11-0.52-0.16s-0.23-0.09-0.31-0.13
				c-0.23-0.13-0.42-0.28-0.54-0.47s-0.19-0.42-0.19-0.7c0-0.49,0.18-0.86,0.54-1.13c0.36-0.26,0.88-0.39,1.55-0.39
				c0.6,0,1.08,0.11,1.43,0.33s0.58,0.56,0.67,1.01l-0.93,0.11c-0.05-0.23-0.17-0.4-0.36-0.52s-0.46-0.18-0.81-0.18
				c-0.38,0-0.65,0.05-0.83,0.16c-0.18,0.11-0.27,0.27-0.27,0.5c0,0.17,0.06,0.31,0.17,0.42s0.32,0.2,0.62,0.26
				c0.41,0.09,0.79,0.2,1.14,0.3s0.61,0.22,0.78,0.34c0.19,0.13,0.33,0.29,0.44,0.47S126.19,223.68,126.19,223.95z"/>
			<path d="M131.37,223.95c0,0.5-0.2,0.9-0.59,1.17s-0.93,0.42-1.63,0.42c-0.68,0-1.2-0.11-1.57-0.33s-0.61-0.56-0.72-1.03
				l0.92-0.16c0.08,0.27,0.22,0.47,0.43,0.59c0.21,0.12,0.53,0.19,0.94,0.19c0.43,0,0.74-0.06,0.93-0.19s0.29-0.31,0.29-0.57
				c0-0.2-0.07-0.35-0.21-0.47s-0.38-0.22-0.7-0.3c-0.34-0.08-0.62-0.16-0.83-0.21s-0.39-0.11-0.52-0.16s-0.23-0.09-0.31-0.13
				c-0.23-0.13-0.42-0.28-0.54-0.47s-0.19-0.42-0.19-0.7c0-0.49,0.18-0.86,0.54-1.13c0.36-0.26,0.88-0.39,1.55-0.39
				c0.6,0,1.08,0.11,1.43,0.33s0.58,0.56,0.67,1.01l-0.93,0.11c-0.05-0.23-0.17-0.4-0.36-0.52s-0.46-0.18-0.81-0.18
				c-0.38,0-0.65,0.05-0.83,0.16c-0.18,0.11-0.27,0.27-0.27,0.5c0,0.17,0.06,0.31,0.17,0.42s0.32,0.2,0.62,0.26
				c0.41,0.09,0.79,0.2,1.14,0.3s0.61,0.22,0.78,0.34c0.19,0.13,0.33,0.29,0.44,0.47S131.37,223.68,131.37,223.95z"/>
			<path d="M133.74,225.54c-0.52,0-0.92-0.14-1.2-0.42s-0.41-0.67-0.41-1.16c0-0.55,0.18-0.97,0.54-1.25
				c0.36-0.29,0.92-0.44,1.68-0.46l1.17-0.02v-0.28c0-0.4-0.08-0.69-0.24-0.87s-0.42-0.27-0.77-0.27c-0.35,0-0.6,0.06-0.76,0.19
				s-0.25,0.33-0.29,0.62l-1.09-0.08c0.16-0.98,0.88-1.47,2.17-1.47c0.66,0,1.17,0.16,1.51,0.47s0.51,0.76,0.51,1.35v2.16
				c0,0.27,0.04,0.47,0.1,0.6s0.19,0.19,0.37,0.19c0.1,0,0.2-0.01,0.29-0.03v0.61c-0.13,0.03-0.25,0.06-0.37,0.07
				s-0.24,0.02-0.37,0.02c-0.33,0-0.58-0.09-0.73-0.26s-0.24-0.43-0.27-0.78h-0.03c-0.21,0.38-0.47,0.66-0.76,0.83
				S134.15,225.54,133.74,225.54z M135.52,222.88l-0.88,0.01c-0.38,0.01-0.66,0.05-0.85,0.12c-0.19,0.07-0.33,0.18-0.43,0.33
				s-0.15,0.34-0.15,0.58c0,0.28,0.07,0.49,0.21,0.63s0.34,0.22,0.59,0.22c0.29,0,0.55-0.07,0.77-0.21s0.4-0.32,0.53-0.56
				c0.13-0.24,0.2-0.49,0.2-0.74V222.88z"/>
			<path d="M140.07,227.53c-0.6,0-1.08-0.12-1.44-0.35c-0.36-0.23-0.59-0.56-0.68-0.99l1.05-0.14c0.06,0.23,0.18,0.41,0.36,0.54
				s0.43,0.19,0.74,0.19c0.42,0,0.73-0.12,0.93-0.37s0.31-0.62,0.31-1.12l0-0.83h-0.01c-0.16,0.34-0.38,0.59-0.67,0.75
				s-0.63,0.25-1.03,0.25c-0.64,0-1.11-0.22-1.43-0.66c-0.32-0.44-0.47-1.11-0.47-2.01c0-0.91,0.17-1.59,0.5-2.04
				c0.33-0.45,0.83-0.68,1.5-0.68c0.38,0,0.7,0.08,0.97,0.25s0.48,0.41,0.63,0.72h0.01c0-0.07,0-0.17,0.01-0.3
				c0.01-0.13,0.02-0.26,0.03-0.37s0.02-0.19,0.03-0.21h0.99c-0.02,0.23-0.03,0.61-0.03,1.14v3.99c0,0.75-0.19,1.31-0.58,1.68
				C141.41,227.34,140.83,227.53,140.07,227.53z M141.34,222.77c0-0.61-0.12-1.09-0.36-1.44s-0.55-0.52-0.94-0.52
				c-0.42,0-0.73,0.16-0.93,0.47c-0.2,0.32-0.3,0.81-0.3,1.49c0,0.67,0.09,1.16,0.28,1.47c0.19,0.31,0.5,0.46,0.93,0.46
				c0.4,0,0.72-0.17,0.96-0.52S141.34,223.38,141.34,222.77z"/>
			<path d="M144.56,223.01c0,0.58,0.12,1.02,0.35,1.32c0.23,0.31,0.56,0.46,1,0.46c0.34,0,0.61-0.07,0.81-0.21s0.35-0.32,0.42-0.54
				l0.94,0.18c-0.34,0.88-1.07,1.31-2.19,1.31c-0.79,0-1.39-0.23-1.8-0.7c-0.41-0.47-0.62-1.16-0.62-2.07
				c0-0.87,0.21-1.54,0.62-2.01c0.42-0.47,1.01-0.7,1.78-0.7c0.77,0,1.35,0.24,1.75,0.72s0.59,1.19,0.59,2.14v0.09H144.56z
				 M147.16,222.27c-0.04-0.51-0.17-0.89-0.38-1.13s-0.52-0.36-0.92-0.36c-0.39,0-0.7,0.13-0.92,0.4s-0.34,0.63-0.36,1.1H147.16z"/>
			<path d="M157.75,223.49c0,0.62-0.23,1.1-0.68,1.44s-1.08,0.51-1.89,0.51h-3.01v-6.88h2.71c0.82,0,1.43,0.14,1.85,0.42
				c0.41,0.28,0.62,0.7,0.62,1.26c0,0.4-0.11,0.74-0.34,1.01s-0.55,0.46-0.97,0.55c0.55,0.06,0.97,0.25,1.27,0.54
				S157.75,223.03,157.75,223.49z M156.24,220.39c0-0.35-0.12-0.6-0.35-0.75s-0.58-0.22-1.03-0.22h-1.59v2.02h1.6
				c0.47,0,0.81-0.09,1.04-0.26S156.24,220.74,156.24,220.39z M156.63,223.41c0-0.76-0.53-1.13-1.6-1.13h-1.77v2.31h1.84
				c0.53,0,0.92-0.1,1.17-0.3S156.63,223.8,156.63,223.41z"/>
			<path d="M162.28,224.49c-0.2,0.38-0.43,0.65-0.7,0.81c-0.27,0.16-0.6,0.24-1,0.24c-0.57,0-1-0.15-1.28-0.46s-0.42-0.79-0.42-1.46
				v-3.47h1.04v3.22c0,0.5,0.08,0.86,0.24,1.06c0.16,0.2,0.43,0.3,0.8,0.3c0.39,0,0.71-0.14,0.93-0.43s0.34-0.68,0.34-1.17v-2.98
				h1.04v4.14c0,0.28,0,0.52,0.01,0.71s0.01,0.34,0.03,0.44h-0.99c-0.01-0.09-0.02-0.21-0.03-0.36s-0.01-0.35-0.02-0.6H162.28z"/>
			<path d="M168.8,223.95c0,0.5-0.2,0.9-0.59,1.17s-0.93,0.42-1.63,0.42c-0.68,0-1.2-0.11-1.57-0.33s-0.61-0.56-0.72-1.03l0.92-0.16
				c0.07,0.27,0.22,0.47,0.43,0.59c0.21,0.12,0.53,0.19,0.94,0.19c0.43,0,0.74-0.06,0.93-0.19s0.29-0.31,0.29-0.57
				c0-0.2-0.07-0.35-0.21-0.47s-0.38-0.22-0.7-0.3c-0.34-0.08-0.62-0.16-0.83-0.21s-0.39-0.11-0.52-0.16s-0.23-0.09-0.31-0.13
				c-0.23-0.13-0.41-0.28-0.54-0.47s-0.19-0.42-0.19-0.7c0-0.49,0.18-0.86,0.54-1.13c0.36-0.26,0.88-0.39,1.55-0.39
				c0.6,0,1.08,0.11,1.43,0.33s0.58,0.56,0.67,1.01l-0.93,0.11c-0.04-0.23-0.16-0.4-0.36-0.52s-0.46-0.18-0.81-0.18
				c-0.37,0-0.65,0.05-0.83,0.16c-0.18,0.11-0.27,0.27-0.27,0.5c0,0.17,0.06,0.31,0.17,0.42s0.32,0.2,0.62,0.26
				c0.41,0.09,0.79,0.2,1.14,0.3s0.61,0.22,0.78,0.34c0.19,0.13,0.33,0.29,0.44,0.47S168.8,223.68,168.8,223.95z"/>
		</g>
		<g clip-path="url(#SVGID_2_)">
			<path d="M28.04,144.78c0,0.73-0.14,1.36-0.43,1.88s-0.68,0.93-1.18,1.21s-1.08,0.42-1.75,0.42h-2.64v-6.88h2.34
				c1.17,0,2.06,0.29,2.7,0.88S28.04,143.7,28.04,144.78z M26.94,144.78c0-0.81-0.22-1.43-0.66-1.86s-1.07-0.64-1.9-0.64h-1.22v5.14
				h1.43c0.48,0,0.89-0.11,1.25-0.32s0.62-0.52,0.82-0.91S26.94,145.32,26.94,144.78z"/>
			<path d="M30.49,148.38c-0.52,0-0.92-0.14-1.2-0.42s-0.41-0.67-0.41-1.16c0-0.55,0.18-0.97,0.54-1.25
				c0.36-0.29,0.92-0.44,1.68-0.46l1.17-0.02v-0.28c0-0.4-0.08-0.69-0.24-0.87c-0.16-0.18-0.42-0.27-0.77-0.27
				c-0.35,0-0.6,0.06-0.76,0.19s-0.25,0.33-0.29,0.62l-1.09-0.08c0.16-0.98,0.88-1.47,2.17-1.47c0.66,0,1.17,0.16,1.51,0.47
				s0.52,0.76,0.52,1.35v2.16c0,0.27,0.03,0.47,0.1,0.6s0.19,0.19,0.37,0.19c0.1,0,0.2-0.01,0.29-0.03v0.61
				c-0.13,0.03-0.25,0.06-0.37,0.07s-0.24,0.02-0.37,0.02c-0.33,0-0.57-0.09-0.73-0.26s-0.24-0.43-0.27-0.78h-0.03
				c-0.21,0.38-0.47,0.66-0.76,0.83S30.9,148.38,30.49,148.38z M32.27,145.73l-0.87,0.01c-0.38,0.01-0.66,0.05-0.85,0.12
				c-0.19,0.07-0.33,0.18-0.43,0.33s-0.15,0.34-0.15,0.58c0,0.28,0.07,0.49,0.21,0.63s0.34,0.22,0.59,0.22
				c0.29,0,0.55-0.07,0.77-0.21s0.4-0.32,0.53-0.56c0.13-0.24,0.2-0.49,0.2-0.74V145.73z"/>
			<path d="M36.94,148.23c-0.3,0.09-0.62,0.14-0.98,0.14c-0.37,0-0.65-0.1-0.84-0.31s-0.29-0.52-0.29-0.93v-3.39h-0.63V143h0.67
				l0.32-1.2h0.68v1.2h0.98v0.74h-0.98v3.13c0,0.26,0.04,0.44,0.13,0.55s0.23,0.16,0.44,0.16c0.1,0,0.27-0.02,0.49-0.07V148.23z"/>
			<path d="M39.02,148.38c-0.52,0-0.92-0.14-1.2-0.42s-0.41-0.67-0.41-1.16c0-0.55,0.18-0.97,0.54-1.25
				c0.36-0.29,0.92-0.44,1.68-0.46l1.17-0.02v-0.28c0-0.4-0.08-0.69-0.24-0.87s-0.42-0.27-0.77-0.27c-0.35,0-0.6,0.06-0.76,0.19
				s-0.25,0.33-0.29,0.62l-1.09-0.08c0.16-0.98,0.88-1.47,2.17-1.47c0.66,0,1.17,0.16,1.51,0.47s0.52,0.76,0.52,1.35v2.16
				c0,0.27,0.03,0.47,0.1,0.6s0.19,0.19,0.37,0.19c0.1,0,0.2-0.01,0.29-0.03v0.61c-0.13,0.03-0.25,0.06-0.37,0.07
				s-0.24,0.02-0.37,0.02c-0.33,0-0.57-0.09-0.73-0.26s-0.24-0.43-0.27-0.78h-0.03c-0.21,0.38-0.47,0.66-0.76,0.83
				S39.43,148.38,39.02,148.38z M40.79,145.73l-0.87,0.01c-0.38,0.01-0.66,0.05-0.85,0.12c-0.19,0.07-0.33,0.18-0.43,0.33
				s-0.15,0.34-0.15,0.58c0,0.28,0.07,0.49,0.21,0.63s0.34,0.22,0.59,0.22c0.29,0,0.55-0.07,0.77-0.21s0.4-0.32,0.53-0.56
				c0.13-0.24,0.2-0.49,0.2-0.74V145.73z"/>
			<path d="M25.18,158.5c0.93,0,1.62-0.46,2.06-1.39l0.92,0.42c-0.28,0.62-0.67,1.08-1.19,1.39s-1.12,0.47-1.82,0.47
				c-0.71,0-1.32-0.14-1.82-0.43s-0.89-0.7-1.17-1.23c-0.27-0.54-0.4-1.17-0.4-1.91c0-0.74,0.13-1.37,0.4-1.89s0.65-0.92,1.15-1.2
				s1.11-0.42,1.82-0.42c0.76,0,1.38,0.15,1.88,0.45s0.86,0.74,1.08,1.32l-1.02,0.31c-0.14-0.38-0.38-0.68-0.72-0.89
				s-0.74-0.31-1.21-0.31c-0.73,0-1.29,0.23-1.68,0.69c-0.39,0.46-0.59,1.11-0.59,1.93c0,0.55,0.09,1.03,0.28,1.43
				s0.45,0.71,0.79,0.93C24.29,158.39,24.7,158.5,25.18,158.5z"/>
			<path d="M30.22,154.96c0.19-0.36,0.42-0.63,0.69-0.8c0.27-0.17,0.61-0.25,1.01-0.25c0.57,0,0.99,0.16,1.27,0.47
				c0.28,0.31,0.42,0.8,0.42,1.45v3.46h-1.04v-3.22c0-0.48-0.08-0.82-0.24-1.04c-0.16-0.22-0.43-0.33-0.79-0.33
				c-0.38,0-0.69,0.14-0.93,0.43s-0.35,0.67-0.35,1.14v3.02H29.2v-7.25h1.04v1.91c0,0.13,0,0.26-0.01,0.39s-0.01,0.26-0.01,0.37
				s-0.01,0.19-0.02,0.24H30.22z"/>
			<path d="M35.75,156.85c0,0.58,0.12,1.02,0.35,1.32c0.23,0.31,0.56,0.46,1,0.46c0.34,0,0.61-0.07,0.81-0.21s0.35-0.32,0.42-0.54
				l0.94,0.18c-0.34,0.88-1.07,1.31-2.19,1.31c-0.79,0-1.39-0.23-1.8-0.7c-0.41-0.47-0.62-1.16-0.62-2.07
				c0-0.87,0.21-1.54,0.62-2.01c0.42-0.47,1.01-0.7,1.78-0.7c0.77,0,1.35,0.24,1.75,0.72s0.59,1.19,0.59,2.14v0.09H35.75z
				 M38.35,156.12c-0.04-0.51-0.17-0.89-0.38-1.13s-0.52-0.36-0.92-0.36c-0.39,0-0.7,0.13-0.92,0.4s-0.34,0.63-0.36,1.1H38.35z"/>
			<path d="M42.58,159.38c-0.76,0-1.34-0.24-1.75-0.71c-0.4-0.47-0.61-1.15-0.61-2.03s0.2-1.56,0.61-2.03
				c0.41-0.47,0.99-0.71,1.74-0.71c0.57,0,1.04,0.15,1.41,0.44s0.61,0.69,0.71,1.2l-1.06,0.07c-0.04-0.29-0.15-0.51-0.33-0.68
				s-0.43-0.25-0.75-0.25c-0.43,0-0.74,0.15-0.94,0.46c-0.2,0.3-0.3,0.8-0.3,1.49c0,0.67,0.1,1.17,0.31,1.5
				c0.21,0.33,0.52,0.49,0.94,0.49c0.3,0,0.54-0.08,0.74-0.25c0.2-0.17,0.32-0.42,0.37-0.76l1.05,0.06
				c-0.04,0.35-0.16,0.66-0.36,0.92c-0.19,0.26-0.44,0.46-0.75,0.6S42.97,159.38,42.58,159.38z"/>
			<path d="M46.72,157.37v1.91h-1.04v-7.25h1.04v4.4l2.18-2.44h1.18l-2.04,2.2l2.17,3.08h-1.19l-1.66-2.41L46.72,157.37z"/>
			<path d="M51.69,156.85c0,0.58,0.12,1.02,0.35,1.32c0.23,0.31,0.57,0.46,1,0.46c0.33,0,0.61-0.07,0.81-0.21s0.34-0.32,0.42-0.54
				l0.94,0.18c-0.33,0.88-1.07,1.31-2.19,1.31c-0.79,0-1.39-0.23-1.8-0.7c-0.41-0.47-0.62-1.16-0.62-2.07
				c0-0.87,0.21-1.54,0.62-2.01c0.42-0.47,1.01-0.7,1.78-0.7c0.77,0,1.35,0.24,1.75,0.72s0.59,1.19,0.59,2.14v0.09H51.69z
				 M54.28,156.12c-0.04-0.51-0.17-0.89-0.38-1.13s-0.52-0.36-0.92-0.36c-0.39,0-0.7,0.13-0.92,0.4s-0.35,0.63-0.36,1.1H54.28z"/>
			<path d="M57.48,156.59v2.7h-1.04v-4.05c0-0.22,0-0.43-0.01-0.63s-0.01-0.4-0.02-0.6h0.99c0.01,0.11,0.01,0.22,0.02,0.34
				c0.01,0.11,0.01,0.22,0.01,0.32c0,0.1,0.01,0.19,0.01,0.27c0,0.08,0.01,0.13,0.01,0.17h0.02c0.11-0.33,0.22-0.58,0.33-0.76
				c0.11-0.16,0.24-0.27,0.38-0.34s0.33-0.1,0.54-0.1c0.14,0,0.26,0.02,0.38,0.05v0.92c-0.15-0.04-0.32-0.06-0.51-0.06
				c-0.35,0-0.63,0.15-0.82,0.45C57.57,155.58,57.48,156.01,57.48,156.59z"/>
		</g>
		<g clip-path="url(#SVGID_2_)">
			<path d="M198.47,147.5c0.93,0,1.62-0.46,2.06-1.39l0.92,0.42c-0.28,0.62-0.67,1.08-1.19,1.39c-0.52,0.31-1.12,0.47-1.82,0.47
				c-0.71,0-1.32-0.14-1.82-0.43c-0.51-0.29-0.89-0.7-1.16-1.23c-0.27-0.54-0.41-1.17-0.41-1.91c0-0.74,0.13-1.37,0.4-1.89
				c0.27-0.52,0.65-0.92,1.15-1.2s1.11-0.42,1.82-0.42c0.76,0,1.39,0.15,1.88,0.45c0.5,0.3,0.86,0.74,1.08,1.32l-1.02,0.31
				c-0.14-0.38-0.38-0.68-0.72-0.89c-0.34-0.21-0.74-0.31-1.21-0.31c-0.73,0-1.29,0.23-1.68,0.69c-0.39,0.46-0.59,1.11-0.59,1.93
				c0,0.55,0.09,1.03,0.28,1.43c0.18,0.4,0.45,0.71,0.79,0.93C197.58,147.39,197.99,147.5,198.47,147.5z"/>
			<path d="M207.13,145.64c0,0.9-0.21,1.58-0.64,2.05s-1.04,0.7-1.84,0.7c-0.79,0-1.4-0.24-1.81-0.72
				c-0.42-0.48-0.63-1.15-0.63-2.03c0-0.89,0.21-1.57,0.63-2.04s1.03-0.7,1.84-0.7c0.82,0,1.44,0.23,1.84,0.68
				S207.13,144.72,207.13,145.64z M206.03,145.64c0-0.7-0.11-1.2-0.32-1.52c-0.21-0.31-0.55-0.47-1.03-0.47
				c-0.48,0-0.83,0.16-1.06,0.49c-0.22,0.32-0.33,0.82-0.33,1.5c0,0.66,0.11,1.16,0.33,1.49s0.55,0.5,1,0.5
				c0.49,0,0.85-0.16,1.07-0.49S206.03,146.32,206.03,145.64z"/>
			<path d="M209.28,145.3v2.98h-1.04v-4.14c0-0.3,0-0.55-0.01-0.73s-0.01-0.32-0.02-0.42h0.99c0.01,0.06,0.01,0.14,0.02,0.25
				c0.01,0.11,0.01,0.23,0.02,0.36s0.01,0.24,0.01,0.35h0.01c0.2-0.38,0.43-0.65,0.7-0.81c0.27-0.16,0.6-0.24,0.99-0.24
				c0.57,0,1,0.16,1.28,0.47s0.42,0.79,0.42,1.45v3.47h-1.04v-3.22c0-0.49-0.08-0.84-0.24-1.05c-0.16-0.21-0.43-0.31-0.8-0.31
				c-0.39,0-0.7,0.14-0.93,0.43C209.39,144.42,209.28,144.81,209.28,145.3z"/>
			<path d="M216.15,148.23c-0.3,0.09-0.62,0.14-0.98,0.14c-0.37,0-0.65-0.1-0.84-0.31s-0.29-0.52-0.29-0.93v-3.39h-0.63V143h0.67
				l0.32-1.2h0.68v1.2h0.98v0.74h-0.98v3.13c0,0.26,0.04,0.44,0.13,0.55s0.23,0.16,0.44,0.16c0.1,0,0.27-0.02,0.49-0.07V148.23z"/>
			<path d="M218.23,148.38c-0.52,0-0.92-0.14-1.2-0.42s-0.41-0.67-0.41-1.16c0-0.55,0.18-0.97,0.54-1.25
				c0.36-0.29,0.92-0.44,1.68-0.46l1.17-0.02v-0.28c0-0.4-0.08-0.69-0.24-0.87s-0.42-0.27-0.77-0.27c-0.35,0-0.6,0.06-0.76,0.19
				c-0.16,0.13-0.25,0.33-0.29,0.62l-1.09-0.08c0.16-0.98,0.88-1.47,2.17-1.47c0.66,0,1.17,0.16,1.51,0.47
				c0.34,0.31,0.52,0.76,0.52,1.35v2.16c0,0.27,0.03,0.47,0.1,0.6s0.19,0.19,0.37,0.19c0.1,0,0.2-0.01,0.29-0.03v0.61
				c-0.13,0.03-0.25,0.06-0.37,0.07c-0.12,0.02-0.24,0.02-0.37,0.02c-0.33,0-0.58-0.09-0.73-0.26c-0.15-0.17-0.24-0.43-0.27-0.78
				h-0.03c-0.21,0.38-0.47,0.66-0.76,0.83C219,148.3,218.65,148.38,218.23,148.38z M220.01,145.73l-0.87,0.01
				c-0.38,0.01-0.66,0.05-0.85,0.12c-0.19,0.07-0.33,0.18-0.43,0.33c-0.1,0.15-0.15,0.34-0.15,0.58c0,0.28,0.07,0.49,0.21,0.63
				s0.34,0.22,0.59,0.22c0.29,0,0.55-0.07,0.77-0.21s0.4-0.32,0.53-0.56c0.13-0.24,0.2-0.49,0.2-0.74V145.73z"/>
			<path d="M223.53,141.04v0.9h-1.04v-0.9H223.53z M223.53,143v5.28h-1.04V143H223.53z"/>
			<path d="M225.95,145.3v2.98h-1.04v-4.14c0-0.3,0-0.55-0.01-0.73s-0.01-0.32-0.02-0.42h0.99c0.01,0.06,0.01,0.14,0.02,0.25
				c0.01,0.11,0.01,0.23,0.02,0.36s0.01,0.24,0.01,0.35h0.01c0.2-0.38,0.43-0.65,0.7-0.81c0.27-0.16,0.6-0.24,0.99-0.24
				c0.57,0,1,0.16,1.28,0.47s0.42,0.79,0.42,1.45v3.47h-1.04v-3.22c0-0.49-0.08-0.84-0.24-1.05c-0.16-0.21-0.43-0.31-0.8-0.31
				c-0.39,0-0.7,0.14-0.93,0.43C226.07,144.42,225.95,144.81,225.95,145.3z"/>
			<path d="M231.46,145.85c0,0.58,0.12,1.02,0.35,1.32c0.23,0.31,0.56,0.46,1,0.46c0.33,0,0.61-0.07,0.81-0.21s0.34-0.32,0.42-0.54
				l0.94,0.18c-0.34,0.88-1.07,1.31-2.19,1.31c-0.79,0-1.39-0.23-1.8-0.7c-0.41-0.47-0.62-1.16-0.62-2.07
				c0-0.87,0.21-1.54,0.62-2.01c0.42-0.47,1.01-0.7,1.78-0.7c0.77,0,1.35,0.24,1.75,0.72c0.39,0.48,0.59,1.19,0.59,2.14v0.09H231.46
				z M234.06,145.12c-0.04-0.51-0.17-0.89-0.38-1.13c-0.22-0.24-0.52-0.36-0.92-0.36c-0.39,0-0.7,0.13-0.92,0.4s-0.35,0.63-0.36,1.1
				H234.06z"/>
			<path d="M237.26,145.59v2.7h-1.04v-4.05c0-0.22,0-0.43-0.01-0.63s-0.01-0.4-0.02-0.6h0.99c0.01,0.11,0.01,0.22,0.02,0.34
				c0.01,0.11,0.01,0.22,0.01,0.32c0,0.1,0.01,0.19,0.01,0.27c0,0.08,0,0.13,0,0.17h0.02c0.11-0.33,0.22-0.58,0.33-0.76
				c0.11-0.16,0.24-0.27,0.39-0.34s0.33-0.1,0.54-0.1c0.14,0,0.26,0.02,0.38,0.05v0.92c-0.15-0.04-0.32-0.06-0.51-0.06
				c-0.36,0-0.63,0.15-0.82,0.45C237.35,144.58,237.26,145.01,237.26,145.59z"/>
			<path d="M196.44,156.59v2.7h-1.1v-6.88h4.95v0.88h-3.85v2.42h3.74v0.88H196.44z"/>
			<path d="M202.67,159.38c-0.52,0-0.92-0.14-1.2-0.42s-0.41-0.67-0.41-1.16c0-0.55,0.18-0.97,0.54-1.25
				c0.36-0.29,0.92-0.44,1.68-0.46l1.17-0.02v-0.28c0-0.4-0.08-0.69-0.24-0.87s-0.42-0.27-0.77-0.27c-0.35,0-0.6,0.06-0.76,0.19
				c-0.16,0.13-0.25,0.33-0.29,0.62l-1.09-0.08c0.16-0.98,0.88-1.47,2.17-1.47c0.66,0,1.17,0.16,1.51,0.47
				c0.34,0.31,0.52,0.76,0.52,1.35v2.16c0,0.27,0.03,0.47,0.1,0.6s0.19,0.19,0.37,0.19c0.1,0,0.2-0.01,0.29-0.03v0.61
				c-0.13,0.03-0.25,0.06-0.37,0.07c-0.12,0.02-0.24,0.02-0.37,0.02c-0.33,0-0.58-0.09-0.73-0.26c-0.15-0.17-0.24-0.43-0.27-0.78
				h-0.03c-0.21,0.38-0.47,0.66-0.76,0.83C203.44,159.3,203.08,159.38,202.67,159.38z M204.45,156.73l-0.87,0.01
				c-0.38,0.01-0.66,0.05-0.85,0.12c-0.19,0.07-0.33,0.18-0.43,0.33c-0.1,0.15-0.15,0.34-0.15,0.58c0,0.28,0.07,0.49,0.21,0.63
				s0.34,0.22,0.59,0.22c0.29,0,0.55-0.07,0.77-0.21s0.4-0.32,0.53-0.56c0.13-0.24,0.2-0.49,0.2-0.74V156.73z"/>
			<path d="M209.01,159.38c-0.76,0-1.34-0.24-1.75-0.71c-0.4-0.47-0.61-1.15-0.61-2.03s0.2-1.56,0.61-2.03
				c0.41-0.47,0.99-0.71,1.74-0.71c0.57,0,1.04,0.15,1.41,0.44c0.37,0.29,0.61,0.69,0.71,1.2l-1.06,0.07
				c-0.04-0.29-0.15-0.51-0.33-0.68s-0.43-0.25-0.75-0.25c-0.43,0-0.74,0.15-0.94,0.46c-0.2,0.3-0.3,0.8-0.3,1.49
				c0,0.67,0.1,1.17,0.31,1.5c0.21,0.33,0.52,0.49,0.94,0.49c0.3,0,0.54-0.08,0.74-0.25c0.2-0.17,0.32-0.42,0.37-0.76l1.05,0.06
				c-0.05,0.35-0.17,0.66-0.36,0.92c-0.19,0.26-0.44,0.46-0.75,0.6C209.75,159.31,209.4,159.38,209.01,159.38z"/>
			<path d="M214.3,159.23c-0.3,0.09-0.62,0.14-0.98,0.14c-0.37,0-0.65-0.1-0.84-0.31s-0.29-0.52-0.29-0.93v-3.39h-0.63V154h0.67
				l0.32-1.2h0.68v1.2h0.98v0.74h-0.98v3.13c0,0.26,0.04,0.44,0.13,0.55s0.23,0.16,0.44,0.16c0.1,0,0.27-0.02,0.49-0.07V159.23z"/>
			<path d="M219.73,156.64c0,0.9-0.21,1.58-0.64,2.05s-1.04,0.7-1.84,0.7c-0.79,0-1.4-0.24-1.81-0.72
				c-0.42-0.48-0.63-1.15-0.63-2.03c0-0.89,0.21-1.57,0.63-2.04s1.03-0.7,1.84-0.7c0.82,0,1.44,0.23,1.84,0.68
				S219.73,155.72,219.73,156.64z M218.63,156.64c0-0.7-0.11-1.2-0.32-1.52c-0.21-0.31-0.55-0.47-1.03-0.47
				c-0.48,0-0.83,0.16-1.06,0.49c-0.22,0.32-0.33,0.82-0.33,1.5c0,0.66,0.11,1.16,0.33,1.49s0.55,0.5,1,0.5
				c0.49,0,0.85-0.16,1.07-0.49S218.63,157.32,218.63,156.64z"/>
			<path d="M221.87,156.59v2.7h-1.04v-4.05c0-0.22,0-0.43-0.01-0.63s-0.01-0.4-0.02-0.6h0.99c0.01,0.11,0.01,0.22,0.02,0.34
				c0.01,0.11,0.01,0.22,0.01,0.32c0,0.1,0.01,0.19,0.01,0.27c0,0.08,0,0.13,0,0.17h0.02c0.11-0.33,0.22-0.58,0.33-0.76
				c0.11-0.16,0.24-0.27,0.39-0.34s0.33-0.1,0.54-0.1c0.14,0,0.26,0.02,0.38,0.05v0.92c-0.15-0.04-0.32-0.06-0.51-0.06
				c-0.36,0-0.63,0.15-0.82,0.45C221.97,155.58,221.87,156.01,221.87,156.59z"/>
			<path d="M224.74,161.36c-0.27,0-0.5-0.02-0.69-0.06v-0.76c0.14,0.02,0.29,0.03,0.43,0.03c0.29,0,0.54-0.1,0.75-0.29
				c0.21-0.19,0.4-0.54,0.57-1.03L223.7,154h1.11l1.02,2.77c0.08,0.2,0.16,0.43,0.25,0.7s0.17,0.53,0.23,0.78
				c0.08-0.25,0.16-0.5,0.24-0.73s0.16-0.47,0.23-0.72l0.93-2.8h1.1l-2.05,5.38c-0.1,0.26-0.2,0.49-0.3,0.69
				c-0.1,0.2-0.2,0.36-0.29,0.5c-0.19,0.28-0.4,0.48-0.63,0.61C225.3,161.3,225.03,161.36,224.74,161.36z"/>
		</g>
		<g clip-path="url(#SVGID_2_)">
			<path d="M199.99,99.6v0.88h-4.65V93.6h1.1v6H199.99z"/>
			<path d="M205.65,97.83c0,0.9-0.21,1.58-0.64,2.05s-1.04,0.7-1.84,0.7c-0.79,0-1.4-0.24-1.81-0.72c-0.42-0.48-0.63-1.15-0.63-2.03
				c0-0.89,0.21-1.57,0.63-2.04s1.03-0.7,1.84-0.7c0.82,0,1.44,0.23,1.84,0.68S205.65,96.91,205.65,97.83z M204.56,97.83
				c0-0.7-0.11-1.2-0.32-1.52c-0.21-0.31-0.55-0.47-1.03-0.47c-0.48,0-0.83,0.16-1.06,0.49c-0.22,0.32-0.33,0.82-0.33,1.5
				c0,0.66,0.11,1.16,0.33,1.49s0.55,0.5,1,0.5c0.49,0,0.85-0.16,1.07-0.49S204.56,98.51,204.56,97.83z"/>
			<path d="M208.05,100.58c-0.52,0-0.92-0.14-1.2-0.42s-0.41-0.67-0.41-1.16c0-0.55,0.18-0.97,0.54-1.25
				c0.36-0.29,0.92-0.44,1.68-0.46l1.17-0.02v-0.28c0-0.4-0.08-0.69-0.24-0.87s-0.42-0.27-0.77-0.27c-0.35,0-0.6,0.06-0.76,0.19
				c-0.16,0.13-0.25,0.33-0.29,0.62l-1.09-0.08c0.16-0.98,0.88-1.47,2.17-1.47c0.66,0,1.17,0.16,1.51,0.47
				c0.34,0.31,0.52,0.76,0.52,1.35v2.16c0,0.27,0.03,0.47,0.1,0.6s0.19,0.19,0.37,0.19c0.1,0,0.2-0.01,0.29-0.03v0.61
				c-0.13,0.03-0.25,0.06-0.37,0.07c-0.12,0.02-0.24,0.02-0.37,0.02c-0.33,0-0.58-0.09-0.73-0.26c-0.15-0.17-0.24-0.43-0.27-0.78
				h-0.03c-0.21,0.38-0.47,0.66-0.76,0.83C208.81,100.49,208.46,100.58,208.05,100.58z M209.82,97.93l-0.87,0.01
				c-0.38,0.01-0.66,0.05-0.85,0.12c-0.19,0.07-0.33,0.18-0.43,0.33c-0.1,0.15-0.15,0.34-0.15,0.58c0,0.28,0.07,0.49,0.21,0.63
				s0.34,0.22,0.59,0.22c0.29,0,0.55-0.07,0.77-0.21s0.4-0.32,0.53-0.56c0.13-0.24,0.2-0.49,0.2-0.74V97.93z"/>
			<path d="M215.71,100.48c-0.01-0.04-0.01-0.1-0.02-0.21s-0.02-0.21-0.02-0.33c-0.01-0.12-0.01-0.23-0.01-0.32h-0.02
				c-0.16,0.33-0.37,0.57-0.64,0.73s-0.61,0.23-1.02,0.23c-0.65,0-1.13-0.23-1.46-0.69s-0.48-1.14-0.48-2.03
				c0-0.91,0.17-1.6,0.5-2.06c0.33-0.47,0.82-0.7,1.47-0.7c0.39,0,0.72,0.07,0.99,0.22s0.48,0.38,0.64,0.7h0.01l-0.01-0.68v-2.1
				h1.04v6.14c0,0.24,0,0.45,0.01,0.63s0.01,0.34,0.02,0.48H215.71z M213.13,97.84c0,0.69,0.09,1.19,0.29,1.5s0.49,0.47,0.91,0.47
				c0.45,0,0.79-0.17,1-0.5s0.32-0.84,0.32-1.52c0-0.65-0.11-1.14-0.32-1.46c-0.21-0.32-0.54-0.48-0.99-0.48
				c-0.42,0-0.73,0.16-0.92,0.48S213.13,97.14,213.13,97.84z"/>
			<path d="M200.93,109.53c0,0.62-0.23,1.1-0.68,1.44s-1.08,0.51-1.89,0.51h-3.01v-6.88h2.71c0.82,0,1.43,0.14,1.85,0.42
				c0.41,0.28,0.62,0.7,0.62,1.26c0,0.4-0.11,0.74-0.34,1.01s-0.55,0.46-0.97,0.55c0.55,0.06,0.97,0.25,1.27,0.54
				C200.78,108.69,200.93,109.07,200.93,109.53z M199.42,106.43c0-0.35-0.12-0.6-0.35-0.75s-0.58-0.22-1.03-0.22h-1.59v2.02h1.6
				c0.47,0,0.82-0.09,1.04-0.26S199.42,106.78,199.42,106.43z M199.81,109.45c0-0.76-0.53-1.13-1.6-1.13h-1.77v2.31h1.84
				c0.53,0,0.92-0.1,1.17-0.3S199.81,109.84,199.81,109.45z"/>
			<path d="M203.42,111.58c-0.52,0-0.92-0.14-1.2-0.42s-0.41-0.67-0.41-1.16c0-0.55,0.18-0.97,0.54-1.25
				c0.36-0.29,0.92-0.44,1.68-0.46l1.17-0.02v-0.28c0-0.4-0.08-0.69-0.24-0.87s-0.42-0.27-0.77-0.27c-0.35,0-0.6,0.06-0.76,0.19
				c-0.16,0.13-0.25,0.33-0.29,0.62l-1.09-0.08c0.16-0.98,0.88-1.47,2.17-1.47c0.66,0,1.17,0.16,1.51,0.47
				c0.34,0.31,0.52,0.76,0.52,1.35v2.16c0,0.27,0.03,0.47,0.1,0.6s0.19,0.19,0.37,0.19c0.1,0,0.2-0.01,0.29-0.03v0.61
				c-0.13,0.03-0.25,0.06-0.37,0.07c-0.12,0.02-0.24,0.02-0.37,0.02c-0.33,0-0.58-0.09-0.73-0.26c-0.15-0.17-0.24-0.43-0.27-0.78
				h-0.03c-0.21,0.38-0.47,0.66-0.76,0.83C204.19,111.49,203.83,111.58,203.42,111.58z M205.19,108.93l-0.87,0.01
				c-0.38,0.01-0.66,0.05-0.85,0.12c-0.19,0.07-0.33,0.18-0.43,0.33c-0.1,0.15-0.15,0.34-0.15,0.58c0,0.28,0.07,0.49,0.21,0.63
				s0.34,0.22,0.59,0.22c0.29,0,0.55-0.07,0.77-0.21s0.4-0.32,0.53-0.56c0.13-0.24,0.2-0.49,0.2-0.74V108.93z"/>
			<path d="M208.72,104.23v7.25h-1.04v-7.25H208.72z"/>
			<path d="M211.39,111.58c-0.52,0-0.92-0.14-1.2-0.42s-0.41-0.67-0.41-1.16c0-0.55,0.18-0.97,0.54-1.25
				c0.36-0.29,0.92-0.44,1.68-0.46l1.17-0.02v-0.28c0-0.4-0.08-0.69-0.24-0.87s-0.42-0.27-0.77-0.27c-0.35,0-0.6,0.06-0.76,0.19
				c-0.16,0.13-0.25,0.33-0.29,0.62l-1.09-0.08c0.16-0.98,0.88-1.47,2.17-1.47c0.66,0,1.17,0.16,1.51,0.47
				c0.34,0.31,0.52,0.76,0.52,1.35v2.16c0,0.27,0.03,0.47,0.1,0.6s0.19,0.19,0.37,0.19c0.1,0,0.2-0.01,0.29-0.03v0.61
				c-0.13,0.03-0.25,0.06-0.37,0.07c-0.12,0.02-0.24,0.02-0.37,0.02c-0.33,0-0.58-0.09-0.73-0.26c-0.15-0.17-0.24-0.43-0.27-0.78
				h-0.03c-0.21,0.38-0.47,0.66-0.76,0.83C212.15,111.49,211.8,111.58,211.39,111.58z M213.16,108.93l-0.87,0.01
				c-0.38,0.01-0.66,0.05-0.85,0.12c-0.19,0.07-0.33,0.18-0.43,0.33c-0.1,0.15-0.15,0.34-0.15,0.58c0,0.28,0.07,0.49,0.21,0.63
				s0.34,0.22,0.59,0.22c0.29,0,0.55-0.07,0.77-0.21s0.4-0.32,0.53-0.56c0.13-0.24,0.2-0.49,0.2-0.74V108.93z"/>
			<path d="M216.7,108.5v2.98h-1.04v-4.14c0-0.3,0-0.55-0.01-0.73s-0.01-0.32-0.02-0.42h0.99c0.01,0.06,0.01,0.14,0.02,0.25
				c0.01,0.11,0.01,0.23,0.02,0.36s0.01,0.24,0.01,0.35h0.01c0.2-0.38,0.43-0.65,0.7-0.81c0.27-0.16,0.6-0.24,0.99-0.24
				c0.57,0,1,0.16,1.28,0.47s0.42,0.79,0.42,1.45v3.47h-1.04v-3.22c0-0.49-0.08-0.84-0.24-1.05c-0.16-0.21-0.43-0.31-0.8-0.31
				c-0.39,0-0.7,0.14-0.93,0.43C216.81,107.61,216.7,108,216.7,108.5z"/>
			<path d="M223.47,111.58c-0.76,0-1.34-0.24-1.75-0.71c-0.4-0.47-0.61-1.15-0.61-2.03s0.2-1.56,0.61-2.03
				c0.41-0.47,0.99-0.71,1.74-0.71c0.57,0,1.04,0.15,1.41,0.44c0.37,0.29,0.61,0.69,0.71,1.2l-1.06,0.07
				c-0.04-0.29-0.15-0.51-0.33-0.68s-0.43-0.25-0.75-0.25c-0.43,0-0.74,0.15-0.94,0.46c-0.2,0.3-0.3,0.8-0.3,1.49
				c0,0.67,0.1,1.17,0.31,1.5c0.21,0.33,0.52,0.49,0.94,0.49c0.3,0,0.54-0.08,0.74-0.25c0.2-0.17,0.32-0.42,0.37-0.76l1.05,0.06
				c-0.05,0.35-0.17,0.66-0.36,0.92c-0.19,0.26-0.44,0.46-0.75,0.6C224.21,111.51,223.86,111.58,223.47,111.58z"/>
			<path d="M227.4,109.05c0,0.58,0.12,1.02,0.35,1.32c0.23,0.31,0.56,0.46,1,0.46c0.33,0,0.61-0.07,0.81-0.21s0.34-0.32,0.42-0.54
				l0.94,0.18c-0.34,0.88-1.07,1.31-2.19,1.31c-0.79,0-1.39-0.23-1.8-0.7c-0.41-0.47-0.62-1.16-0.62-2.07
				c0-0.87,0.21-1.54,0.62-2.01c0.42-0.47,1.01-0.7,1.78-0.7c0.77,0,1.35,0.24,1.75,0.72c0.39,0.48,0.59,1.19,0.59,2.14v0.09H227.4z
				 M229.99,108.32c-0.04-0.51-0.17-0.89-0.38-1.13c-0.22-0.24-0.52-0.36-0.92-0.36c-0.39,0-0.7,0.13-0.92,0.4s-0.35,0.63-0.36,1.1
				H229.99z"/>
			<path d="M233.19,108.78v2.7h-1.04v-4.05c0-0.22,0-0.43-0.01-0.63s-0.01-0.4-0.02-0.6h0.99c0.01,0.11,0.01,0.22,0.02,0.34
				c0.01,0.11,0.01,0.22,0.01,0.32c0,0.1,0.01,0.19,0.01,0.27c0,0.08,0,0.13,0,0.17h0.02c0.11-0.33,0.22-0.58,0.33-0.76
				c0.11-0.16,0.24-0.27,0.39-0.34s0.33-0.1,0.54-0.1c0.14,0,0.26,0.02,0.38,0.05v0.92c-0.15-0.04-0.32-0.06-0.51-0.06
				c-0.36,0-0.63,0.15-0.82,0.45C233.28,107.77,233.19,108.21,233.19,108.78z"/>
		</g>
		<g clip-path="url(#SVGID_2_)">
			<path d="M286.18,147.5c0.93,0,1.62-0.46,2.06-1.39l0.92,0.42c-0.28,0.62-0.67,1.08-1.19,1.39c-0.52,0.31-1.12,0.47-1.82,0.47
				c-0.71,0-1.32-0.14-1.82-0.43c-0.51-0.29-0.89-0.7-1.17-1.23s-0.41-1.17-0.41-1.91c0-0.74,0.13-1.37,0.4-1.89
				c0.26-0.52,0.65-0.92,1.15-1.2c0.5-0.28,1.11-0.42,1.82-0.42c0.76,0,1.39,0.15,1.88,0.45c0.5,0.3,0.86,0.74,1.08,1.32l-1.02,0.31
				c-0.14-0.38-0.38-0.68-0.72-0.89c-0.34-0.21-0.74-0.31-1.21-0.31c-0.73,0-1.29,0.23-1.68,0.69s-0.59,1.11-0.59,1.93
				c0,0.55,0.09,1.03,0.28,1.43c0.18,0.4,0.45,0.71,0.79,0.93S285.7,147.5,286.18,147.5z"/>
			<path d="M294.84,145.64c0,0.9-0.21,1.58-0.64,2.05s-1.04,0.7-1.84,0.7c-0.79,0-1.4-0.24-1.81-0.72
				c-0.42-0.48-0.63-1.15-0.63-2.03c0-0.89,0.21-1.57,0.63-2.04s1.03-0.7,1.84-0.7c0.82,0,1.44,0.23,1.84,0.68
				C294.63,144.04,294.84,144.72,294.84,145.64z M293.74,145.64c0-0.7-0.11-1.2-0.32-1.52s-0.55-0.47-1.03-0.47
				c-0.48,0-0.83,0.16-1.06,0.49c-0.22,0.32-0.33,0.82-0.33,1.5c0,0.66,0.11,1.16,0.33,1.49c0.22,0.34,0.55,0.5,1,0.5
				c0.5,0,0.85-0.16,1.07-0.49C293.63,146.82,293.74,146.32,293.74,145.64z"/>
			<path d="M296.98,145.3v2.98h-1.04v-4.14c0-0.3,0-0.55-0.01-0.73c0-0.18-0.01-0.32-0.02-0.42h0.99c0.01,0.06,0.01,0.15,0.02,0.27
				c0.01,0.12,0.02,0.24,0.02,0.36c0.01,0.13,0.01,0.23,0.01,0.32h0.01c0.18-0.38,0.4-0.66,0.64-0.81s0.55-0.24,0.9-0.24
				c0.4,0,0.72,0.08,0.96,0.25s0.4,0.43,0.49,0.8h0.02c0.18-0.37,0.4-0.64,0.66-0.81c0.25-0.16,0.57-0.24,0.94-0.24
				c0.53,0,0.92,0.15,1.17,0.46c0.25,0.31,0.38,0.79,0.38,1.45v3.47h-1.04v-3.22c0-0.49-0.07-0.85-0.21-1.05s-0.37-0.31-0.7-0.31
				c-0.35,0-0.62,0.14-0.82,0.41s-0.3,0.66-0.3,1.16v3.01h-1.04v-3.22c0-0.49-0.07-0.85-0.21-1.05c-0.14-0.21-0.37-0.31-0.71-0.31
				c-0.34,0-0.61,0.14-0.82,0.43C297.08,144.41,296.98,144.81,296.98,145.3z"/>
			<path d="M305.5,145.3v2.98h-1.04v-4.14c0-0.3,0-0.55-0.01-0.73c0-0.18-0.01-0.32-0.02-0.42h0.99c0.01,0.06,0.01,0.15,0.02,0.27
				c0.01,0.12,0.02,0.24,0.02,0.36c0.01,0.13,0.01,0.23,0.01,0.32h0.01c0.18-0.38,0.4-0.66,0.64-0.81s0.55-0.24,0.9-0.24
				c0.4,0,0.72,0.08,0.96,0.25s0.4,0.43,0.49,0.8h0.02c0.18-0.37,0.4-0.64,0.66-0.81c0.25-0.16,0.57-0.24,0.94-0.24
				c0.53,0,0.92,0.15,1.17,0.46c0.25,0.31,0.38,0.79,0.38,1.45v3.47h-1.04v-3.22c0-0.49-0.07-0.85-0.21-1.05s-0.37-0.31-0.7-0.31
				c-0.35,0-0.62,0.14-0.82,0.41s-0.3,0.66-0.3,1.16v3.01h-1.04v-3.22c0-0.49-0.07-0.85-0.21-1.05c-0.14-0.21-0.37-0.31-0.71-0.31
				c-0.34,0-0.61,0.14-0.82,0.43C305.6,144.41,305.5,144.81,305.5,145.3z"/>
			<path d="M314.27,148.38c-0.52,0-0.92-0.14-1.2-0.42s-0.41-0.67-0.41-1.16c0-0.55,0.18-0.97,0.54-1.25s0.92-0.44,1.68-0.46
				l1.17-0.02v-0.28c0-0.4-0.08-0.69-0.24-0.87c-0.16-0.18-0.42-0.27-0.77-0.27c-0.35,0-0.6,0.06-0.76,0.19
				c-0.16,0.13-0.25,0.33-0.29,0.62l-1.09-0.08c0.16-0.98,0.88-1.47,2.17-1.47c0.66,0,1.17,0.16,1.51,0.47
				c0.34,0.31,0.52,0.76,0.52,1.35v2.16c0,0.27,0.03,0.47,0.1,0.6s0.19,0.19,0.37,0.19c0.1,0,0.2-0.01,0.29-0.03v0.61
				c-0.13,0.03-0.25,0.06-0.37,0.07c-0.12,0.02-0.24,0.02-0.37,0.02c-0.33,0-0.58-0.09-0.73-0.26c-0.16-0.17-0.24-0.43-0.27-0.78
				h-0.03c-0.21,0.38-0.47,0.66-0.76,0.83C315.03,148.3,314.68,148.38,314.27,148.38z M316.04,145.73l-0.87,0.01
				c-0.38,0.01-0.66,0.05-0.85,0.12c-0.19,0.07-0.33,0.18-0.43,0.33c-0.1,0.15-0.15,0.34-0.15,0.58c0,0.28,0.07,0.49,0.21,0.63
				c0.14,0.15,0.34,0.22,0.59,0.22c0.29,0,0.55-0.07,0.77-0.21s0.4-0.32,0.53-0.56s0.2-0.49,0.2-0.74V145.73z"/>
			<path d="M319.58,145.3v2.98h-1.04v-4.14c0-0.3,0-0.55-0.01-0.73c-0.01-0.18-0.01-0.32-0.02-0.42h0.99
				c0.01,0.06,0.01,0.14,0.02,0.25s0.01,0.23,0.02,0.36c0.01,0.13,0.01,0.24,0.01,0.35h0.01c0.2-0.38,0.43-0.65,0.7-0.81
				s0.6-0.24,0.99-0.24c0.57,0,1,0.16,1.28,0.47c0.28,0.31,0.42,0.79,0.42,1.45v3.47h-1.04v-3.22c0-0.49-0.08-0.84-0.24-1.05
				s-0.43-0.31-0.8-0.31c-0.39,0-0.7,0.14-0.93,0.43S319.58,144.81,319.58,145.3z"/>
			<path d="M327.67,148.29c-0.01-0.04-0.01-0.1-0.02-0.21s-0.02-0.21-0.02-0.33s-0.01-0.23-0.01-0.32h-0.02
				c-0.16,0.33-0.37,0.57-0.64,0.73s-0.61,0.23-1.02,0.23c-0.65,0-1.13-0.23-1.46-0.69s-0.48-1.14-0.48-2.03
				c0-0.91,0.17-1.6,0.5-2.06c0.33-0.47,0.82-0.7,1.47-0.7c0.39,0,0.72,0.07,0.99,0.22c0.27,0.15,0.48,0.38,0.64,0.7h0.01
				l-0.01-0.68v-2.1h1.04v6.14c0,0.24,0,0.45,0.01,0.63c0,0.18,0.01,0.34,0.02,0.48H327.67z M325.09,145.64
				c0,0.69,0.1,1.19,0.29,1.5c0.19,0.31,0.49,0.47,0.91,0.47c0.45,0,0.79-0.17,1-0.5s0.32-0.84,0.32-1.52
				c0-0.65-0.11-1.14-0.32-1.46c-0.21-0.32-0.54-0.48-0.99-0.48c-0.42,0-0.72,0.16-0.92,0.48
				C325.19,144.44,325.09,144.95,325.09,145.64z"/>
			<path d="M287.7,158.41v0.88h-4.65v-6.88h1.1v6H287.7z"/>
			<path d="M289.75,152.04v0.9h-1.04v-0.9H289.75z M289.75,154v5.28h-1.04V154H289.75z"/>
			<path d="M292.17,156.3v2.98h-1.04v-4.14c0-0.3,0-0.55-0.01-0.73c0-0.18-0.01-0.32-0.02-0.42h0.99c0.01,0.06,0.01,0.14,0.02,0.25
				s0.01,0.23,0.02,0.36c0,0.13,0.01,0.24,0.01,0.35h0.01c0.2-0.38,0.43-0.65,0.7-0.81s0.6-0.24,0.99-0.24c0.57,0,1,0.16,1.28,0.47
				c0.28,0.31,0.42,0.79,0.42,1.45v3.47h-1.04v-3.22c0-0.49-0.08-0.84-0.24-1.05s-0.43-0.31-0.8-0.31c-0.39,0-0.7,0.14-0.93,0.43
				S292.17,155.81,292.17,156.3z"/>
			<path d="M297.68,156.85c0,0.58,0.12,1.02,0.35,1.32s0.56,0.46,1,0.46c0.33,0,0.61-0.07,0.81-0.21s0.34-0.32,0.42-0.54l0.94,0.18
				c-0.34,0.88-1.07,1.31-2.19,1.31c-0.79,0-1.39-0.23-1.8-0.7s-0.62-1.16-0.62-2.07c0-0.87,0.21-1.54,0.62-2.01s1.01-0.7,1.78-0.7
				c0.77,0,1.35,0.24,1.75,0.72c0.39,0.48,0.59,1.19,0.59,2.14v0.09H297.68z M300.28,156.12c-0.04-0.51-0.17-0.89-0.38-1.13
				c-0.22-0.24-0.52-0.36-0.92-0.36c-0.39,0-0.7,0.13-0.92,0.4s-0.34,0.63-0.36,1.1H300.28z"/>
			<path d="M308.48,158.51c0.42,0,0.82-0.06,1.2-0.19c0.38-0.13,0.68-0.3,0.9-0.51v-1.14h-1.93v-0.88h2.94v2.43
				c-0.36,0.37-0.82,0.66-1.37,0.87c-0.55,0.21-1.13,0.31-1.76,0.31c-0.73,0-1.35-0.14-1.87-0.43s-0.91-0.7-1.19-1.23
				s-0.42-1.17-0.42-1.91c0-1.12,0.3-1.99,0.9-2.6c0.6-0.61,1.45-0.91,2.55-0.91c0.78,0,1.41,0.14,1.9,0.41s0.85,0.69,1.1,1.27
				l-1.04,0.31c-0.18-0.38-0.43-0.66-0.76-0.83c-0.33-0.18-0.74-0.27-1.21-0.27c-0.75,0-1.33,0.23-1.73,0.69s-0.6,1.1-0.6,1.94
				c0,0.84,0.21,1.5,0.63,1.98C307.15,158.27,307.73,158.51,308.48,158.51z"/>
			<path d="M314.28,159.38c-0.52,0-0.92-0.14-1.2-0.42s-0.41-0.67-0.41-1.16c0-0.55,0.18-0.97,0.54-1.25s0.92-0.44,1.68-0.46
				l1.17-0.02v-0.28c0-0.4-0.08-0.69-0.24-0.87c-0.16-0.18-0.42-0.27-0.77-0.27c-0.35,0-0.6,0.06-0.76,0.19
				c-0.16,0.13-0.26,0.33-0.29,0.62l-1.09-0.08c0.16-0.98,0.88-1.47,2.17-1.47c0.66,0,1.17,0.16,1.51,0.47
				c0.34,0.31,0.51,0.76,0.51,1.35v2.16c0,0.27,0.03,0.47,0.1,0.6s0.19,0.19,0.37,0.19c0.1,0,0.2-0.01,0.29-0.03v0.61
				c-0.13,0.03-0.25,0.06-0.37,0.07c-0.12,0.02-0.24,0.02-0.37,0.02c-0.33,0-0.58-0.09-0.73-0.26c-0.15-0.17-0.24-0.43-0.27-0.78
				h-0.03c-0.21,0.38-0.47,0.66-0.76,0.83C315.05,159.3,314.69,159.38,314.28,159.38z M316.06,156.73l-0.87,0.01
				c-0.38,0.01-0.66,0.05-0.85,0.12c-0.19,0.07-0.33,0.18-0.43,0.33c-0.1,0.15-0.15,0.34-0.15,0.58c0,0.28,0.07,0.49,0.21,0.63
				c0.14,0.15,0.34,0.22,0.59,0.22c0.29,0,0.55-0.07,0.77-0.21s0.4-0.32,0.53-0.56s0.2-0.49,0.2-0.74V156.73z"/>
			<path d="M320.73,159.23c-0.3,0.09-0.62,0.14-0.98,0.14c-0.37,0-0.65-0.1-0.84-0.31c-0.19-0.21-0.29-0.52-0.29-0.93v-3.39H318V154
				h0.67l0.32-1.2h0.68v1.2h0.98v0.74h-0.98v3.13c0,0.26,0.04,0.44,0.13,0.55s0.23,0.16,0.44,0.16c0.1,0,0.27-0.02,0.49-0.07V159.23
				z"/>
			<path d="M322.33,156.85c0,0.58,0.12,1.02,0.35,1.32s0.57,0.46,1,0.46c0.34,0,0.61-0.07,0.81-0.21s0.35-0.32,0.42-0.54l0.94,0.18
				c-0.33,0.88-1.07,1.31-2.19,1.31c-0.79,0-1.39-0.23-1.8-0.7s-0.62-1.16-0.62-2.07c0-0.87,0.21-1.54,0.62-2.01s1.01-0.7,1.78-0.7
				c0.77,0,1.35,0.24,1.75,0.72c0.39,0.48,0.59,1.19,0.59,2.14v0.09H322.33z M324.92,156.12c-0.04-0.51-0.17-0.89-0.38-1.13
				c-0.22-0.24-0.52-0.36-0.92-0.36c-0.39,0-0.7,0.13-0.92,0.4s-0.35,0.63-0.36,1.1H324.92z"/>
			<path d="M329.89,155.73l-0.92,3.56h-1.16l-1.44-5.28h1.01l0.83,3.48c0.03,0.12,0.06,0.25,0.09,0.41s0.07,0.32,0.1,0.49
				c0.03-0.16,0.07-0.31,0.1-0.46c0.03-0.15,0.07-0.31,0.11-0.46l0.92-3.46h1.12l0.89,3.45c0.03,0.13,0.07,0.27,0.1,0.43
				s0.07,0.32,0.11,0.5c0.04-0.16,0.07-0.32,0.11-0.48s0.07-0.32,0.1-0.46l0.86-3.44h1l-1.47,5.28h-1.16l-0.89-3.56
				c-0.03-0.12-0.06-0.25-0.09-0.4c-0.03-0.15-0.07-0.32-0.1-0.51c-0.02,0.11-0.05,0.25-0.09,0.43S329.93,155.57,329.89,155.73z"/>
			<path d="M335.77,159.38c-0.52,0-0.92-0.14-1.2-0.42s-0.41-0.67-0.41-1.16c0-0.55,0.18-0.97,0.54-1.25s0.92-0.44,1.68-0.46
				l1.17-0.02v-0.28c0-0.4-0.08-0.69-0.24-0.87c-0.16-0.18-0.42-0.27-0.77-0.27c-0.35,0-0.6,0.06-0.76,0.19
				c-0.16,0.13-0.26,0.33-0.29,0.62l-1.09-0.08c0.16-0.98,0.88-1.47,2.17-1.47c0.66,0,1.17,0.16,1.51,0.47
				c0.34,0.31,0.51,0.76,0.51,1.35v2.16c0,0.27,0.03,0.47,0.1,0.6s0.19,0.19,0.37,0.19c0.1,0,0.2-0.01,0.29-0.03v0.61
				c-0.13,0.03-0.25,0.06-0.37,0.07c-0.12,0.02-0.24,0.02-0.37,0.02c-0.33,0-0.58-0.09-0.73-0.26c-0.15-0.17-0.24-0.43-0.27-0.78
				h-0.03c-0.21,0.38-0.47,0.66-0.76,0.83C336.54,159.3,336.19,159.38,335.77,159.38z M337.55,156.73l-0.87,0.01
				c-0.38,0.01-0.66,0.05-0.85,0.12c-0.19,0.07-0.33,0.18-0.43,0.33c-0.1,0.15-0.15,0.34-0.15,0.58c0,0.28,0.07,0.49,0.21,0.63
				c0.14,0.15,0.34,0.22,0.59,0.22c0.29,0,0.55-0.07,0.77-0.21s0.4-0.32,0.53-0.56s0.2-0.49,0.2-0.74V156.73z"/>
			<path d="M340.43,161.36c-0.27,0-0.5-0.02-0.69-0.06v-0.76c0.14,0.02,0.29,0.03,0.43,0.03c0.29,0,0.54-0.1,0.75-0.29
				s0.4-0.54,0.57-1.03l-2.09-5.25h1.11l1.02,2.77c0.08,0.2,0.16,0.43,0.25,0.7s0.17,0.53,0.23,0.78c0.08-0.25,0.16-0.5,0.24-0.73
				s0.16-0.47,0.23-0.72l0.93-2.8h1.1l-2.05,5.38c-0.1,0.26-0.2,0.49-0.3,0.69c-0.1,0.2-0.2,0.36-0.29,0.5
				c-0.19,0.28-0.4,0.48-0.63,0.61S340.73,161.36,340.43,161.36z"/>
		</g>
		<g clip-path="url(#SVGID_2_)">
			<path d="M284.03,96.08v4.4h-0.98V93.6h1.27l3.5,5.71c-0.05-0.59-0.07-1.05-0.07-1.37V93.6h0.99v6.88h-1.31l-3.45-5.67
				c0.01,0.23,0.03,0.45,0.04,0.66S284.03,95.88,284.03,96.08z"/>
			<path d="M291.01,98.05c0,0.58,0.12,1.02,0.35,1.32s0.56,0.46,1,0.46c0.33,0,0.61-0.07,0.81-0.21s0.34-0.32,0.42-0.54l0.94,0.18
				c-0.34,0.88-1.07,1.31-2.19,1.31c-0.79,0-1.39-0.23-1.8-0.7s-0.62-1.16-0.62-2.07c0-0.87,0.21-1.54,0.62-2.01s1.01-0.7,1.78-0.7
				c0.77,0,1.35,0.24,1.75,0.72c0.39,0.48,0.59,1.19,0.59,2.14v0.09H291.01z M293.61,97.32c-0.04-0.51-0.17-0.89-0.38-1.13
				c-0.22-0.24-0.52-0.36-0.92-0.36c-0.39,0-0.7,0.13-0.92,0.4s-0.34,0.63-0.36,1.1H293.61z"/>
			<path d="M297.94,100.43c-0.3,0.09-0.62,0.14-0.98,0.14c-0.37,0-0.65-0.1-0.84-0.31c-0.19-0.21-0.29-0.52-0.29-0.93v-3.39h-0.63
				V95.2h0.67l0.32-1.2h0.68v1.2h0.98v0.74h-0.98v3.13c0,0.26,0.04,0.44,0.13,0.55s0.23,0.16,0.44,0.16c0.1,0,0.27-0.02,0.49-0.07
				V100.43z"/>
			<path d="M301.54,96.92l-0.92,3.56h-1.16l-1.44-5.28h1.01l0.83,3.48c0.03,0.12,0.06,0.25,0.09,0.41s0.07,0.32,0.1,0.49
				c0.03-0.16,0.07-0.31,0.1-0.46c0.03-0.15,0.07-0.31,0.11-0.46l0.92-3.46h1.12l0.89,3.45c0.03,0.13,0.07,0.27,0.1,0.43
				s0.07,0.32,0.11,0.5c0.04-0.16,0.07-0.32,0.11-0.48s0.07-0.32,0.1-0.46l0.86-3.44h1l-1.47,5.28h-1.16l-0.89-3.56
				c-0.03-0.12-0.06-0.25-0.09-0.4c-0.03-0.15-0.07-0.32-0.1-0.51c-0.02,0.11-0.05,0.25-0.09,0.43S301.58,96.77,301.54,96.92z"/>
			<path d="M310.77,97.83c0,0.9-0.21,1.58-0.64,2.05s-1.04,0.7-1.84,0.7c-0.79,0-1.4-0.24-1.81-0.72c-0.42-0.48-0.63-1.15-0.63-2.03
				c0-0.89,0.21-1.57,0.63-2.04s1.03-0.7,1.84-0.7c0.82,0,1.44,0.23,1.84,0.68C310.57,96.23,310.77,96.91,310.77,97.83z
				 M309.68,97.83c0-0.7-0.11-1.2-0.32-1.52s-0.55-0.47-1.03-0.47c-0.48,0-0.83,0.16-1.06,0.49c-0.22,0.32-0.33,0.82-0.33,1.5
				c0,0.66,0.11,1.16,0.33,1.49c0.22,0.34,0.55,0.5,1,0.5c0.49,0,0.85-0.16,1.07-0.49C309.57,99.02,309.68,98.51,309.68,97.83z"/>
			<path d="M312.92,97.78v2.7h-1.04v-4.05c0-0.22,0-0.43-0.01-0.63c-0.01-0.2-0.01-0.4-0.02-0.6h0.99c0.01,0.11,0.01,0.22,0.02,0.34
				s0.01,0.22,0.01,0.32s0.01,0.19,0.01,0.27s0,0.13,0,0.17h0.02c0.11-0.33,0.22-0.58,0.33-0.76c0.11-0.16,0.24-0.27,0.39-0.34
				s0.33-0.1,0.54-0.1c0.14,0,0.26,0.02,0.38,0.05v0.92c-0.15-0.04-0.32-0.06-0.51-0.06c-0.36,0-0.63,0.15-0.82,0.45
				S312.92,97.21,312.92,97.78z"/>
			<path d="M316.42,98.57v1.91h-1.04v-7.25h1.04v4.4l2.18-2.44h1.18l-2.05,2.2l2.17,3.08h-1.19l-1.66-2.41L316.42,98.57z"/>
			<path d="M284.03,107.03v4.45h-0.98v-6.88h1.46l1.63,4.46c0.06,0.2,0.12,0.41,0.18,0.63s0.1,0.4,0.14,0.53
				c0.03-0.1,0.06-0.22,0.1-0.37c0.04-0.14,0.08-0.28,0.12-0.42s0.08-0.24,0.1-0.31l1.62-4.53h1.44v6.88h-0.99v-4.45
				c0-0.2,0-0.43,0.01-0.69c0.01-0.26,0.02-0.52,0.04-0.79c-0.09,0.34-0.18,0.64-0.25,0.89s-0.14,0.47-0.21,0.63l-1.6,4.4h-0.78
				l-1.61-4.4l-0.46-1.52c0.01,0.29,0.02,0.56,0.03,0.8C284.03,106.6,284.03,106.83,284.03,107.03z"/>
			<path d="M295.95,108.83c0,0.9-0.21,1.58-0.64,2.05s-1.04,0.7-1.84,0.7c-0.79,0-1.4-0.24-1.81-0.72
				c-0.42-0.48-0.63-1.15-0.63-2.03c0-0.89,0.21-1.57,0.63-2.04s1.03-0.7,1.84-0.7c0.82,0,1.44,0.23,1.84,0.68
				C295.74,107.23,295.95,107.91,295.95,108.83z M294.85,108.83c0-0.7-0.11-1.2-0.32-1.52s-0.55-0.47-1.03-0.47
				c-0.48,0-0.83,0.16-1.06,0.49c-0.22,0.32-0.33,0.82-0.33,1.5c0,0.66,0.11,1.16,0.33,1.49c0.22,0.34,0.55,0.5,1,0.5
				c0.49,0,0.85-0.16,1.07-0.49C294.74,110.02,294.85,109.51,294.85,108.83z"/>
			<path d="M298.09,108.5v2.98h-1.04v-4.14c0-0.3,0-0.55-0.01-0.73c-0.01-0.18-0.01-0.32-0.02-0.42h0.99
				c0.01,0.06,0.01,0.14,0.02,0.25s0.01,0.23,0.02,0.36c0.01,0.13,0.01,0.24,0.01,0.35h0.01c0.2-0.38,0.43-0.65,0.7-0.81
				s0.6-0.24,0.99-0.24c0.57,0,1,0.16,1.28,0.47c0.28,0.31,0.42,0.79,0.42,1.45v3.47h-1.04v-3.22c0-0.49-0.08-0.84-0.24-1.05
				s-0.43-0.31-0.8-0.31c-0.39,0-0.7,0.14-0.93,0.43S298.09,108,298.09,108.5z"/>
			<path d="M303.82,104.23v0.9h-1.04v-0.9H303.82z M303.82,106.2v5.28h-1.04v-5.28H303.82z"/>
			<path d="M307.38,111.43c-0.3,0.09-0.62,0.14-0.98,0.14c-0.37,0-0.65-0.1-0.84-0.31c-0.19-0.21-0.29-0.52-0.29-0.93v-3.39h-0.63
				v-0.74h0.67l0.32-1.2h0.68v1.2h0.98v0.74h-0.98v3.13c0,0.26,0.04,0.44,0.13,0.55s0.23,0.16,0.44,0.16c0.1,0,0.27-0.02,0.49-0.07
				V111.43z"/>
			<path d="M312.8,108.83c0,0.9-0.21,1.58-0.64,2.05s-1.04,0.7-1.84,0.7c-0.79,0-1.4-0.24-1.81-0.72c-0.42-0.48-0.63-1.15-0.63-2.03
				c0-0.89,0.21-1.57,0.63-2.04s1.03-0.7,1.84-0.7c0.82,0,1.44,0.23,1.84,0.68C312.6,107.23,312.8,107.91,312.8,108.83z
				 M311.71,108.83c0-0.7-0.11-1.2-0.32-1.52s-0.55-0.47-1.03-0.47c-0.48,0-0.83,0.16-1.06,0.49c-0.22,0.32-0.33,0.82-0.33,1.5
				c0,0.66,0.11,1.16,0.33,1.49c0.22,0.34,0.55,0.5,1,0.5c0.49,0,0.85-0.16,1.07-0.49C311.6,110.02,311.71,109.51,311.71,108.83z"/>
			<path d="M314.95,108.78v2.7h-1.04v-4.05c0-0.22,0-0.43-0.01-0.63c-0.01-0.2-0.01-0.4-0.02-0.6h0.99
				c0.01,0.11,0.01,0.22,0.02,0.34s0.01,0.22,0.01,0.32s0.01,0.19,0.01,0.27s0,0.13,0,0.17h0.02c0.11-0.33,0.22-0.58,0.33-0.76
				c0.11-0.16,0.24-0.27,0.39-0.34s0.33-0.1,0.54-0.1c0.14,0,0.26,0.02,0.38,0.05v0.92c-0.15-0.04-0.32-0.06-0.51-0.06
				c-0.36,0-0.63,0.15-0.82,0.45S314.95,108.21,314.95,108.78z"/>
		</g>
		<g clip-path="url(#SVGID_2_)">
			<rect x="1.21" y="68.84" width="545.2" height="0.75"/>
		</g>
		<g clip-path="url(#SVGID_2_)">
			<rect x="1.21" y="31.34" width="545.2" height="0.75"/>
		</g>
		<g clip-path="url(#SVGID_2_)">
			<rect x="19.73" y="13.33" width="0.75" height="18.38"/>
		</g>
		<g clip-path="url(#SVGID_2_)">
			<rect x="0" y="194.29" width="364.27" height="0.75"/>
		</g>
		<g clip-path="url(#SVGID_2_)">
			<rect x="0" y="261.24" width="364.27" height="0.75"/>
		</g>
		<g clip-path="url(#SVGID_2_)">
			<path d="M176.25,118.41h-75.27V86.56h75.27V118.41z M101.98,117.41h73.27V87.56h-73.27V117.41z"/>
		</g>
		<g clip-path="url(#SVGID_2_)">
			<path d="M263.29,118.41h-75.27V86.56h75.27V118.41z M189.02,117.41h73.27V87.56h-73.27V117.41z"/>
		</g>
		<g clip-path="url(#SVGID_2_)">
			<path d="M350.33,118.41h-75.27V86.56h75.27V118.41z M276.07,117.41h73.27V87.56h-73.27V117.41z"/>
		</g>
		<g clip-path="url(#SVGID_2_)">
			<path d="M89.21,167.1H13.94v-31.85h75.27V167.1z M14.94,166.1h73.27v-29.85H14.94V166.1z"/>
		</g>
		<g clip-path="url(#SVGID_2_)">
			<rect x="101.48" y="135.76" width="74.27" height="30.85"/>
		</g>
		<g clip-path="url(#SVGID_2_)">
			<path d="M89.21,321.02H13.94v-31.85h75.27V321.02z M14.94,320.02h73.27v-29.85H14.94V320.02z"/>
		</g>
		<g clip-path="url(#SVGID_2_)">
			<path d="M176.25,369.72H13.94v-31.85h162.31V369.72z M14.94,368.72h160.31v-29.85H14.94V368.72z"/>
		</g>
		<g clip-path="url(#SVGID_2_)">
			<rect x="275.57" y="289.67" width="74.27" height="30.85"/>
		</g>
		<g clip-path="url(#SVGID_2_)">
			<path d="M114.81,296.28l-2.71,6.88h-1.13l-2.72-6.88h1.15l1.74,4.7c0.07,0.18,0.13,0.37,0.2,0.58s0.13,0.43,0.2,0.66
				c0.08-0.27,0.15-0.51,0.21-0.72c0.06-0.21,0.12-0.38,0.18-0.53l1.73-4.7H114.81z"/>
			<path d="M116.74,300.46v2.7h-1.1v-6.88h4.95v0.88h-3.85v2.42h3.74v0.88H116.74z"/>
			<path d="M109.95,310.71v4.45h-0.98v-6.88h1.46l1.63,4.46c0.06,0.2,0.12,0.41,0.18,0.63s0.1,0.4,0.14,0.53
				c0.03-0.1,0.06-0.22,0.1-0.37c0.04-0.14,0.08-0.28,0.12-0.42s0.07-0.24,0.1-0.31l1.62-4.53h1.44v6.88h-0.99v-4.45
				c0-0.2,0-0.43,0.01-0.69c0.01-0.26,0.02-0.52,0.04-0.79c-0.09,0.34-0.18,0.64-0.25,0.89s-0.14,0.47-0.21,0.63l-1.6,4.4h-0.78
				l-1.61-4.4l-0.46-1.52c0.01,0.29,0.02,0.56,0.03,0.8C109.94,310.28,109.95,310.51,109.95,310.71z"/>
			<path d="M118.52,315.26c-0.52,0-0.92-0.14-1.2-0.42s-0.41-0.67-0.41-1.16c0-0.55,0.18-0.97,0.54-1.25s0.92-0.44,1.68-0.46
				l1.17-0.02v-0.28c0-0.4-0.08-0.69-0.24-0.87c-0.16-0.18-0.42-0.27-0.77-0.27c-0.35,0-0.6,0.06-0.76,0.19
				c-0.16,0.13-0.25,0.33-0.29,0.62l-1.09-0.08c0.16-0.98,0.88-1.47,2.17-1.47c0.66,0,1.17,0.16,1.51,0.47
				c0.34,0.31,0.52,0.76,0.52,1.35v2.16c0,0.27,0.03,0.47,0.1,0.6s0.19,0.19,0.37,0.19c0.1,0,0.2-0.01,0.29-0.03v0.61
				c-0.13,0.03-0.25,0.06-0.37,0.07c-0.12,0.02-0.24,0.02-0.37,0.02c-0.33,0-0.58-0.09-0.73-0.26c-0.16-0.17-0.24-0.43-0.27-0.78
				h-0.03c-0.21,0.38-0.47,0.66-0.76,0.83C119.28,315.18,118.93,315.26,118.52,315.26z M120.29,312.61l-0.87,0.01
				c-0.38,0.01-0.66,0.05-0.85,0.12c-0.19,0.07-0.33,0.18-0.43,0.33c-0.1,0.15-0.15,0.34-0.15,0.58c0,0.28,0.07,0.49,0.21,0.63
				c0.14,0.15,0.34,0.22,0.59,0.22c0.29,0,0.55-0.07,0.77-0.21s0.4-0.32,0.53-0.56s0.2-0.49,0.2-0.74V312.61z"/>
			<path d="M123.83,312.18v2.98h-1.04v-4.14c0-0.3,0-0.55-0.01-0.73c-0.01-0.18-0.01-0.32-0.02-0.42h0.99
				c0.01,0.06,0.01,0.14,0.02,0.25s0.01,0.23,0.02,0.36c0.01,0.13,0.01,0.24,0.01,0.35h0.01c0.2-0.38,0.43-0.65,0.7-0.81
				s0.6-0.24,0.99-0.24c0.57,0,1,0.16,1.28,0.47c0.28,0.31,0.42,0.79,0.42,1.45v3.47h-1.04v-3.22c0-0.49-0.08-0.84-0.24-1.05
				s-0.43-0.31-0.8-0.31c-0.39,0-0.7,0.14-0.93,0.43S123.83,311.69,123.83,312.18z"/>
			<path d="M129.82,315.26c-0.52,0-0.92-0.14-1.2-0.42s-0.41-0.67-0.41-1.16c0-0.55,0.18-0.97,0.54-1.25s0.92-0.44,1.68-0.46
				l1.17-0.02v-0.28c0-0.4-0.08-0.69-0.24-0.87c-0.16-0.18-0.42-0.27-0.77-0.27c-0.35,0-0.6,0.06-0.76,0.19
				c-0.16,0.13-0.26,0.33-0.29,0.62l-1.09-0.08c0.16-0.98,0.88-1.47,2.17-1.47c0.66,0,1.17,0.16,1.51,0.47
				c0.34,0.31,0.51,0.76,0.51,1.35v2.16c0,0.27,0.03,0.47,0.1,0.6s0.19,0.19,0.37,0.19c0.1,0,0.2-0.01,0.29-0.03v0.61
				c-0.13,0.03-0.25,0.06-0.37,0.07c-0.12,0.02-0.24,0.02-0.37,0.02c-0.33,0-0.58-0.09-0.73-0.26c-0.15-0.17-0.24-0.43-0.27-0.78
				h-0.03c-0.21,0.38-0.47,0.66-0.76,0.83C130.59,315.18,130.23,315.26,129.82,315.26z M131.6,312.61l-0.87,0.01
				c-0.38,0.01-0.66,0.05-0.85,0.12c-0.19,0.07-0.33,0.18-0.43,0.33c-0.1,0.15-0.15,0.34-0.15,0.58c0,0.28,0.07,0.49,0.21,0.63
				c0.14,0.15,0.34,0.22,0.59,0.22c0.29,0,0.55-0.07,0.77-0.21s0.4-0.32,0.53-0.56s0.2-0.49,0.2-0.74V312.61z"/>
			<path d="M136.15,317.25c-0.6,0-1.08-0.12-1.44-0.35s-0.59-0.56-0.68-0.99l1.05-0.14c0.06,0.23,0.18,0.41,0.36,0.54
				c0.19,0.13,0.43,0.19,0.73,0.19c0.42,0,0.73-0.12,0.93-0.37s0.31-0.62,0.31-1.12l0-0.83h-0.01c-0.16,0.34-0.38,0.59-0.67,0.75
				c-0.29,0.17-0.63,0.25-1.03,0.25c-0.64,0-1.11-0.22-1.43-0.66s-0.47-1.11-0.47-2.01c0-0.91,0.17-1.59,0.5-2.04
				s0.83-0.68,1.5-0.68c0.38,0,0.7,0.08,0.97,0.25c0.27,0.17,0.48,0.41,0.63,0.72h0.01c0-0.07,0-0.17,0.01-0.3s0.02-0.26,0.03-0.37
				c0.01-0.12,0.02-0.19,0.03-0.21h0.99c-0.02,0.23-0.03,0.61-0.03,1.14v3.99c0,0.75-0.19,1.31-0.58,1.68
				S136.91,317.25,136.15,317.25z M137.42,312.5c0-0.61-0.12-1.09-0.36-1.44c-0.24-0.35-0.55-0.52-0.95-0.52
				c-0.42,0-0.73,0.16-0.93,0.47s-0.3,0.81-0.3,1.49c0,0.67,0.09,1.16,0.28,1.47s0.5,0.46,0.93,0.46c0.4,0,0.72-0.17,0.96-0.52
				C137.3,313.58,137.42,313.1,137.42,312.5z"/>
			<path d="M140.65,312.73c0,0.58,0.12,1.02,0.35,1.32s0.56,0.46,1,0.46c0.33,0,0.61-0.07,0.81-0.21s0.34-0.32,0.42-0.54l0.94,0.18
				c-0.34,0.88-1.07,1.31-2.19,1.31c-0.79,0-1.39-0.23-1.8-0.7s-0.62-1.16-0.62-2.07c0-0.87,0.21-1.54,0.62-2.01s1.01-0.7,1.78-0.7
				c0.77,0,1.35,0.24,1.75,0.72c0.39,0.48,0.59,1.19,0.59,2.14v0.09H140.65z M143.24,312c-0.04-0.51-0.17-0.89-0.38-1.13
				c-0.22-0.24-0.52-0.36-0.92-0.36c-0.39,0-0.7,0.13-0.92,0.4s-0.34,0.63-0.36,1.1H143.24z"/>
			<path d="M146.44,312.46v2.7h-1.04v-4.05c0-0.22,0-0.43-0.01-0.63c-0.01-0.2-0.01-0.4-0.02-0.6h0.99
				c0.01,0.11,0.01,0.22,0.02,0.34s0.01,0.22,0.01,0.32s0.01,0.19,0.01,0.27s0,0.13,0,0.17h0.02c0.11-0.33,0.22-0.58,0.33-0.76
				c0.11-0.16,0.24-0.27,0.39-0.34s0.33-0.1,0.54-0.1c0.14,0,0.26,0.02,0.38,0.05v0.92c-0.15-0.04-0.32-0.06-0.51-0.06
				c-0.36,0-0.63,0.15-0.82,0.45S146.44,311.89,146.44,312.46z"/>
		</g>
		<g clip-path="url(#SVGID_2_)">
			<path d="M176.25,321.02h-75.27v-31.85h75.27V321.02z M101.98,320.02h73.27v-29.85h-73.27V320.02z"/>
		</g>
		<g clip-path="url(#SVGID_2_)">
			<rect x="188.52" y="338.37" width="161.31" height="30.85"/>
		</g>
		<g clip-path="url(#SVGID_2_)">
			<path d="M263.29,167.1h-75.27v-31.85h75.27V167.1z M189.02,166.1h73.27v-29.85h-73.27V166.1z"/>
		</g>
		<g clip-path="url(#SVGID_2_)">
			<path d="M350.33,167.1h-75.27v-31.85h75.27V167.1z M276.07,166.1h73.27v-29.85h-73.27V166.1z"/>
		</g>
		<g clip-path="url(#SVGID_2_)">
			<rect x="14.44" y="212.71" width="74.27" height="30.85"/>
		</g>
		<g clip-path="url(#SVGID_2_)">
			<path d="M263.29,244.06H100.98v-31.85h162.31V244.06z M101.98,243.06h160.31v-29.85H101.98V243.06z"/>
		</g>
		<g clip-path="url(#SVGID_2_)">
			<rect x="275.57" y="212.71" width="74.27" height="30.85"/>
		</g>
		<g clip-path="url(#SVGID_2_)">
			<g>
				<rect x="50.37" y="117.91" width="0.75" height="17.24"/>
			</g>
			<g>
				<g>
					<polygon points="48.44,133.28 48.85,132.9 50.74,134.93 52.63,132.9 53.04,133.28 50.74,135.76 					"/>
				</g>
			</g>
		</g>
		<g clip-path="url(#SVGID_2_)">
			<g>
				<rect x="50.37" y="167.01" width="0.75" height="45.09"/>
			</g>
			<g>
				<g>
					<polygon points="48.44,210.24 48.85,209.86 50.74,211.89 52.63,209.86 53.04,210.24 50.74,212.71 					"/>
				</g>
			</g>
		</g>
		<g clip-path="url(#SVGID_2_)">
			<g>
				<rect x="138.24" y="117.91" width="0.75" height="17.24"/>
			</g>
			<g>
				<g>
					<polygon points="136.31,133.28 136.73,132.9 138.61,134.93 140.5,132.9 140.91,133.28 138.61,135.76 					"/>
				</g>
			</g>
		</g>
		<g clip-path="url(#SVGID_2_)">
			<g>
				<rect x="312.33" y="117.91" width="0.75" height="17.24"/>
			</g>
			<g>
				<g>
					<polygon points="310.4,133.28 310.81,132.9 312.7,134.93 314.59,132.9 315,133.28 312.7,135.76 					"/>
				</g>
			</g>
		</g>
		<g clip-path="url(#SVGID_2_)">
			<g>
				<rect x="138.24" y="167.62" width="0.75" height="44.48"/>
			</g>
			<g>
				<g>
					<polygon points="136.31,169.48 136.73,169.87 138.61,167.84 140.5,169.87 140.91,169.48 138.61,167.01 					"/>
				</g>
			</g>
			<g>
				<g>
					<polygon points="136.31,210.24 136.73,209.86 138.61,211.89 140.5,209.86 140.91,210.24 138.61,212.71 					"/>
				</g>
			</g>
		</g>
		<g clip-path="url(#SVGID_2_)">
			<g>
				<polygon points="357.46,261 356.71,261 356.71,204.71 312.33,204.71 312.33,167.01 313.08,167.01 313.08,203.96 357.46,203.96 
									"/>
			</g>
			<g>
				<g>
					<polygon points="354.79,259.14 355.2,258.76 357.09,260.79 358.98,258.76 359.39,259.14 357.09,261.61 					"/>
				</g>
			</g>
		</g>
		<g clip-path="url(#SVGID_2_)">
			<g>
				<rect x="225.28" y="118.52" width="0.75" height="17.24"/>
			</g>
			<g>
				<g>
					<polygon points="227.96,120.38 227.55,120.77 225.66,118.73 223.77,120.77 223.36,120.38 225.66,117.91 					"/>
				</g>
			</g>
		</g>
		<g clip-path="url(#SVGID_2_)">
			<g>
				<rect x="50.37" y="321.13" width="0.75" height="17.24"/>
			</g>
			<g>
				<g>
					<polygon points="53.04,322.99 52.63,323.38 50.74,321.35 48.85,323.38 48.44,322.99 50.74,320.52 					"/>
				</g>
			</g>
		</g>
		<g clip-path="url(#SVGID_2_)">
			<g>
				<rect x="312.33" y="321.13" width="0.75" height="17.24"/>
			</g>
			<g>
				<g>
					<polygon points="315,322.99 314.59,323.38 312.7,321.35 310.81,323.38 310.4,322.99 312.7,320.52 					"/>
				</g>
			</g>
		</g>
		<g clip-path="url(#SVGID_2_)">
			<g>
				<rect x="312.33" y="244.29" width="0.75" height="45.09"/>
			</g>
			<g>
				<g>
					<polygon points="315,246.15 314.59,246.54 312.7,244.51 310.81,246.54 310.4,246.15 312.7,243.68 					"/>
				</g>
			</g>
		</g>
		<g clip-path="url(#SVGID_2_)">
			<g>
				<polygon points="295.73,288.66 294.98,288.66 294.98,277.92 241.56,277.92 241.56,244.17 242.31,244.17 242.31,277.17 
					295.73,277.17 				"/>
			</g>
			<g>
				<g>
					<polygon points="239.63,246.04 240.04,246.42 241.93,244.39 243.82,246.42 244.23,246.04 241.93,243.56 					"/>
				</g>
			</g>
			<g>
				<g>
					<polygon points="293.05,286.79 293.46,286.41 295.35,288.44 297.24,286.41 297.65,286.79 295.35,289.27 					"/>
				</g>
			</g>
		</g>
		<g clip-path="url(#SVGID_2_)">
			<g>
				<polygon points="51.12,289.06 50.37,289.06 50.37,277.17 123.71,277.17 123.71,244.17 124.46,244.17 124.46,277.92 
					51.12,277.92 				"/>
			</g>
			<g>
				<g>
					<polygon points="121.79,246.04 122.2,246.42 124.09,244.39 125.97,246.42 126.39,246.04 124.09,243.56 					"/>
				</g>
			</g>
			<g>
				<g>
					<polygon points="48.44,287.2 48.85,286.82 50.74,288.85 52.63,286.82 53.04,287.2 50.74,289.67 					"/>
				</g>
			</g>
		</g>
		<g clip-path="url(#SVGID_2_)">
			<g>
				<rect x="88.71" y="102.11" width="12.17" height="0.75"/>
			</g>
			<g>
				<g>
					<polygon points="99.01,104.78 98.62,104.37 100.66,102.48 98.62,100.6 99.01,100.18 101.48,102.48 					"/>
				</g>
			</g>
		</g>
		<g clip-path="url(#SVGID_2_)">
			<g>
				<rect x="89.31" y="304.72" width="12.17" height="0.75"/>
			</g>
			<g>
				<g>
					<polygon points="91.18,302.8 91.56,303.21 89.53,305.1 91.56,306.98 91.18,307.4 88.71,305.1 					"/>
				</g>
			</g>
		</g>
		<g clip-path="url(#SVGID_2_)">
			<g>
				<rect x="175.75" y="102.11" width="12.17" height="0.75"/>
			</g>
			<g>
				<g>
					<polygon points="186.05,104.78 185.67,104.37 187.7,102.48 185.67,100.6 186.05,100.18 188.52,102.48 					"/>
				</g>
			</g>
		</g>
		<g clip-path="url(#SVGID_2_)">
			<g>
				<rect x="175.75" y="150.8" width="12.17" height="0.75"/>
			</g>
			<g>
				<g>
					<polygon points="186.05,153.48 185.67,153.07 187.7,151.18 185.67,149.29 186.05,148.88 188.52,151.18 					"/>
				</g>
			</g>
		</g>
		<g clip-path="url(#SVGID_2_)">
			<g>
				<rect x="262.79" y="102.11" width="12.17" height="0.75"/>
			</g>
			<g>
				<g>
					<polygon points="273.09,104.78 272.71,104.37 274.74,102.48 272.71,100.6 273.09,100.18 275.57,102.48 					"/>
				</g>
			</g>
		</g>
		<g clip-path="url(#SVGID_2_)">
			<g>
				<rect x="262.79" y="150.8" width="12.17" height="0.75"/>
			</g>
			<g>
				<g>
					<polygon points="273.09,153.48 272.71,153.07 274.74,151.18 272.71,149.29 273.09,148.88 275.57,151.18 					"/>
				</g>
			</g>
		</g>
		<g clip-path="url(#SVGID_2_)">
			<path fill="#FFFFFF" d="M289.05,299.66c0,0.73-0.14,1.36-0.42,1.88s-0.68,0.93-1.18,1.21s-1.08,0.42-1.75,0.42h-2.64v-6.88h2.34
				c1.17,0,2.06,0.29,2.7,0.88C288.73,297.74,289.05,298.58,289.05,299.66z M287.94,299.66c0-0.81-0.22-1.43-0.66-1.86
				s-1.07-0.64-1.9-0.64h-1.23v5.14h1.43c0.48,0,0.89-0.11,1.25-0.32s0.62-0.52,0.82-0.91C287.84,300.66,287.94,300.2,287.94,299.66
				z"/>
			<path fill="#FFFFFF" d="M294.93,302.28v0.88h-4.65v-6.88h1.1v6H294.93z"/>
			<path fill="#FFFFFF" d="M300.67,302.28v0.88h-4.65v-6.88h1.1v6H300.67z"/>
		</g>
		<g clip-path="url(#SVGID_2_)">
			<path fill="#FFFFFF" d="M200.78,345.67c0,0.44-0.1,0.82-0.29,1.15c-0.2,0.33-0.48,0.58-0.84,0.76c-0.36,0.18-0.79,0.27-1.29,0.27
				h-1.92v2.59h-1.1v-6.88h2.96c0.79,0,1.4,0.18,1.83,0.55C200.56,344.48,200.78,345,200.78,345.67z M199.67,345.68
				c0-0.83-0.5-1.25-1.49-1.25h-1.73v2.55h1.77c0.48,0,0.84-0.11,1.09-0.33C199.55,346.44,199.67,346.11,199.67,345.68z"/>
			<path fill="#FFFFFF" d="M202.98,347.74v2.7h-1.04v-4.05c0-0.22,0-0.43-0.01-0.63c-0.01-0.2-0.01-0.4-0.02-0.6h0.99
				c0.01,0.11,0.01,0.22,0.02,0.34s0.01,0.22,0.01,0.32s0.01,0.19,0.01,0.27s0,0.13,0,0.17h0.02c0.11-0.33,0.22-0.58,0.33-0.76
				c0.11-0.16,0.24-0.27,0.39-0.34s0.33-0.1,0.54-0.1c0.14,0,0.26,0.02,0.38,0.05v0.92c-0.15-0.04-0.32-0.06-0.51-0.06
				c-0.36,0-0.63,0.15-0.82,0.45S202.98,347.17,202.98,347.74z"/>
			<path fill="#FFFFFF" d="M210.09,347.8c0,0.9-0.21,1.58-0.64,2.05s-1.04,0.7-1.84,0.7c-0.79,0-1.4-0.24-1.81-0.72
				c-0.42-0.48-0.63-1.15-0.63-2.03c0-0.89,0.21-1.57,0.63-2.04s1.03-0.7,1.84-0.7c0.82,0,1.44,0.23,1.84,0.68
				C209.89,346.19,210.09,346.88,210.09,347.8z M209,347.8c0-0.7-0.11-1.2-0.32-1.52s-0.55-0.47-1.03-0.47
				c-0.48,0-0.83,0.16-1.06,0.49c-0.22,0.32-0.33,0.82-0.33,1.5c0,0.66,0.11,1.16,0.33,1.49c0.22,0.34,0.55,0.5,1,0.5
				c0.49,0,0.85-0.16,1.07-0.49C208.89,348.98,209,348.48,209,347.8z"/>
			<path fill="#FFFFFF" d="M213.27,350.54c-0.76,0-1.34-0.24-1.75-0.71s-0.61-1.15-0.61-2.03s0.2-1.56,0.61-2.03
				s0.99-0.71,1.74-0.71c0.57,0,1.04,0.15,1.41,0.44c0.37,0.29,0.61,0.69,0.71,1.2l-1.06,0.07c-0.04-0.29-0.15-0.51-0.33-0.68
				s-0.43-0.25-0.75-0.25c-0.43,0-0.74,0.15-0.94,0.46s-0.3,0.8-0.3,1.49c0,0.67,0.1,1.17,0.31,1.5s0.52,0.49,0.94,0.49
				c0.3,0,0.54-0.08,0.74-0.25s0.32-0.42,0.37-0.76l1.05,0.06c-0.05,0.35-0.17,0.66-0.36,0.92s-0.44,0.46-0.74,0.6
				C214.01,350.47,213.66,350.54,213.27,350.54z"/>
			<path fill="#FFFFFF" d="M217.2,348.01c0,0.58,0.12,1.02,0.35,1.32s0.57,0.46,1,0.46c0.34,0,0.61-0.07,0.81-0.21
				s0.35-0.32,0.42-0.54l0.94,0.18c-0.33,0.88-1.07,1.31-2.19,1.31c-0.79,0-1.39-0.23-1.8-0.7s-0.62-1.16-0.62-2.07
				c0-0.87,0.21-1.54,0.62-2.01s1.01-0.7,1.78-0.7c0.77,0,1.35,0.24,1.75,0.72c0.39,0.48,0.59,1.19,0.59,2.14v0.09H217.2z
				 M219.79,347.28c-0.04-0.51-0.17-0.89-0.38-1.13c-0.22-0.24-0.52-0.36-0.92-0.36c-0.39,0-0.7,0.13-0.92,0.4s-0.35,0.63-0.36,1.1
				H219.79z"/>
			<path fill="#FFFFFF" d="M226.06,348.95c0,0.5-0.2,0.9-0.59,1.17s-0.93,0.42-1.63,0.42c-0.68,0-1.2-0.11-1.57-0.33
				c-0.37-0.22-0.61-0.56-0.72-1.03l0.92-0.16c0.07,0.27,0.22,0.47,0.43,0.59s0.53,0.19,0.94,0.19c0.43,0,0.74-0.06,0.93-0.19
				s0.29-0.31,0.29-0.57c0-0.2-0.07-0.35-0.21-0.47c-0.14-0.12-0.38-0.22-0.7-0.3c-0.34-0.08-0.62-0.16-0.83-0.21
				c-0.22-0.06-0.39-0.11-0.52-0.16c-0.13-0.05-0.23-0.09-0.31-0.13c-0.23-0.13-0.42-0.28-0.54-0.47s-0.19-0.42-0.19-0.7
				c0-0.49,0.18-0.86,0.54-1.13s0.88-0.39,1.55-0.39c0.6,0,1.08,0.11,1.43,0.33c0.36,0.22,0.58,0.56,0.67,1.01l-0.93,0.11
				c-0.05-0.23-0.17-0.4-0.36-0.52c-0.19-0.12-0.46-0.18-0.81-0.18c-0.37,0-0.65,0.05-0.83,0.16s-0.27,0.27-0.27,0.5
				c0,0.17,0.06,0.31,0.17,0.42c0.11,0.11,0.32,0.2,0.62,0.26c0.41,0.09,0.79,0.2,1.14,0.3c0.35,0.11,0.61,0.22,0.78,0.34
				c0.19,0.13,0.33,0.29,0.44,0.47C226.01,348.46,226.06,348.68,226.06,348.95z"/>
			<path fill="#FFFFFF" d="M231.24,348.95c0,0.5-0.2,0.9-0.59,1.17s-0.93,0.42-1.63,0.42c-0.68,0-1.2-0.11-1.57-0.33
				c-0.37-0.22-0.61-0.56-0.72-1.03l0.92-0.16c0.07,0.27,0.22,0.47,0.43,0.59s0.53,0.19,0.94,0.19c0.43,0,0.74-0.06,0.93-0.19
				s0.29-0.31,0.29-0.57c0-0.2-0.07-0.35-0.21-0.47c-0.14-0.12-0.38-0.22-0.7-0.3c-0.34-0.08-0.62-0.16-0.83-0.21
				c-0.22-0.06-0.39-0.11-0.52-0.16c-0.13-0.05-0.23-0.09-0.31-0.13c-0.23-0.13-0.42-0.28-0.54-0.47s-0.19-0.42-0.19-0.7
				c0-0.49,0.18-0.86,0.54-1.13s0.88-0.39,1.55-0.39c0.6,0,1.08,0.11,1.43,0.33c0.36,0.22,0.58,0.56,0.67,1.01l-0.93,0.11
				c-0.05-0.23-0.17-0.4-0.36-0.52c-0.19-0.12-0.46-0.18-0.81-0.18c-0.37,0-0.65,0.05-0.83,0.16s-0.27,0.27-0.27,0.5
				c0,0.17,0.06,0.31,0.17,0.42c0.11,0.11,0.32,0.2,0.62,0.26c0.41,0.09,0.79,0.2,1.14,0.3c0.35,0.11,0.61,0.22,0.78,0.34
				c0.19,0.13,0.33,0.29,0.44,0.47C231.19,348.46,231.24,348.68,231.24,348.95z"/>
			<path fill="#FFFFFF" d="M196.32,357.99v4.45h-0.98v-6.88h1.46l1.63,4.46c0.06,0.2,0.12,0.41,0.18,0.63s0.1,0.4,0.14,0.53
				c0.03-0.1,0.06-0.22,0.1-0.37c0.04-0.14,0.08-0.28,0.12-0.42s0.08-0.24,0.1-0.31l1.62-4.53h1.44v6.88h-0.99v-4.45
				c0-0.2,0-0.43,0.01-0.69c0.01-0.26,0.02-0.52,0.04-0.79c-0.09,0.34-0.18,0.64-0.25,0.89s-0.14,0.47-0.21,0.63l-1.6,4.4h-0.78
				l-1.61-4.4l-0.46-1.52c0.01,0.29,0.02,0.56,0.03,0.8C196.32,357.56,196.32,357.79,196.32,357.99z"/>
			<path fill="#FFFFFF" d="M208.24,359.8c0,0.9-0.21,1.58-0.64,2.05s-1.04,0.7-1.84,0.7c-0.79,0-1.4-0.24-1.81-0.72
				c-0.42-0.48-0.63-1.15-0.63-2.03c0-0.89,0.21-1.57,0.63-2.04s1.03-0.7,1.84-0.7c0.82,0,1.44,0.23,1.84,0.68
				C208.03,358.19,208.24,358.88,208.24,359.8z M207.14,359.8c0-0.7-0.11-1.2-0.32-1.52s-0.55-0.47-1.03-0.47
				c-0.48,0-0.83,0.16-1.06,0.49c-0.22,0.32-0.33,0.82-0.33,1.5c0,0.66,0.11,1.16,0.33,1.49c0.22,0.34,0.55,0.5,1,0.5
				c0.49,0,0.85-0.16,1.07-0.49C207.03,360.98,207.14,360.48,207.14,359.8z"/>
			<path fill="#FFFFFF" d="M212.74,362.44c-0.01-0.04-0.01-0.1-0.02-0.21s-0.02-0.21-0.02-0.33s-0.01-0.23-0.01-0.32h-0.02
				c-0.16,0.33-0.37,0.57-0.64,0.73s-0.61,0.23-1.02,0.23c-0.65,0-1.13-0.23-1.46-0.69s-0.48-1.14-0.48-2.03
				c0-0.91,0.17-1.6,0.5-2.06c0.33-0.47,0.82-0.7,1.47-0.7c0.39,0,0.72,0.07,0.99,0.22c0.27,0.15,0.48,0.38,0.64,0.7h0.01
				l-0.01-0.68v-2.1h1.04v6.14c0,0.24,0,0.45,0.01,0.63c0,0.18,0.01,0.34,0.02,0.48H212.74z M210.16,359.8c0,0.69,0.1,1.19,0.29,1.5
				c0.19,0.31,0.49,0.47,0.91,0.47c0.45,0,0.79-0.17,1-0.5s0.32-0.84,0.32-1.52c0-0.65-0.11-1.14-0.32-1.46
				c-0.21-0.32-0.54-0.48-0.99-0.48c-0.42,0-0.72,0.16-0.92,0.48C210.25,358.6,210.16,359.1,210.16,359.8z"/>
			<path fill="#FFFFFF" d="M215.9,360.01c0,0.58,0.12,1.02,0.35,1.32s0.57,0.46,1,0.46c0.34,0,0.61-0.07,0.81-0.21
				s0.35-0.32,0.42-0.54l0.94,0.18c-0.33,0.88-1.07,1.31-2.19,1.31c-0.79,0-1.39-0.23-1.8-0.7s-0.62-1.16-0.62-2.07
				c0-0.87,0.21-1.54,0.62-2.01s1.01-0.7,1.78-0.7c0.77,0,1.35,0.24,1.75,0.72c0.39,0.48,0.59,1.19,0.59,2.14v0.09H215.9z
				 M218.49,359.28c-0.04-0.51-0.17-0.89-0.38-1.13c-0.22-0.24-0.52-0.36-0.92-0.36c-0.39,0-0.7,0.13-0.92,0.4s-0.35,0.63-0.36,1.1
				H218.49z"/>
			<path fill="#FFFFFF" d="M221.67,355.2v7.25h-1.04v-7.25H221.67z"/>
		</g>
		<g clip-path="url(#SVGID_2_)">
			<path fill="#FFFFFF" d="M23.23,223.51l-0.73,1.93h-1.12l2.71-6.88h1.28l2.68,6.88h-1.11l-0.73-1.93H23.23z M24.71,219.38
				c-0.05,0.17-0.11,0.35-0.18,0.56s-0.13,0.38-0.18,0.52l-0.83,2.2h2.38l-0.84-2.24c-0.05-0.12-0.1-0.27-0.16-0.46
				C24.84,219.79,24.78,219.59,24.71,219.38z"/>
			<path fill="#FFFFFF" d="M33.46,222.77c0,0.91-0.17,1.6-0.5,2.06s-0.82,0.7-1.47,0.7c-0.8,0-1.34-0.31-1.63-0.92h-0.02
				c0.01,0.05,0.02,0.33,0.02,0.85v2.05h-1.04v-6.24c0-0.26,0-0.49-0.01-0.68c-0.01-0.19-0.01-0.34-0.02-0.45h1.01
				c0.01,0.02,0.01,0.09,0.02,0.19s0.02,0.22,0.02,0.35c0.01,0.13,0.01,0.23,0.01,0.31h0.02c0.15-0.33,0.36-0.57,0.63-0.72
				c0.27-0.15,0.61-0.23,1.02-0.23c0.64,0,1.12,0.22,1.45,0.67S33.46,221.86,33.46,222.77z M32.37,222.79c0-0.69-0.1-1.19-0.29-1.5
				c-0.19-0.31-0.49-0.46-0.9-0.46c-0.44,0-0.77,0.16-0.99,0.49s-0.33,0.84-0.33,1.53c0,0.65,0.11,1.14,0.32,1.46
				c0.21,0.32,0.54,0.48,1,0.48c0.41,0,0.72-0.16,0.91-0.47C32.27,224,32.37,223.49,32.37,222.79z"/>
			<path fill="#FFFFFF" d="M39.21,222.77c0,0.91-0.17,1.6-0.5,2.06s-0.82,0.7-1.47,0.7c-0.8,0-1.34-0.31-1.63-0.92h-0.02
				c0.01,0.05,0.02,0.33,0.02,0.85v2.05h-1.04v-6.24c0-0.26,0-0.49-0.01-0.68c-0.01-0.19-0.01-0.34-0.02-0.45h1.01
				c0.01,0.02,0.01,0.09,0.02,0.19s0.02,0.22,0.02,0.35c0.01,0.13,0.01,0.23,0.01,0.31h0.02c0.15-0.33,0.36-0.57,0.63-0.72
				c0.27-0.15,0.61-0.23,1.02-0.23c0.64,0,1.12,0.22,1.45,0.67S39.21,221.86,39.21,222.77z M38.11,222.79c0-0.69-0.1-1.19-0.29-1.5
				c-0.19-0.31-0.49-0.46-0.9-0.46c-0.44,0-0.77,0.16-0.99,0.49s-0.33,0.84-0.33,1.53c0,0.65,0.11,1.14,0.32,1.46
				c0.21,0.32,0.54,0.48,1,0.48c0.41,0,0.72-0.16,0.91-0.47S38.11,223.49,38.11,222.79z"/>
			<path fill="#FFFFFF" d="M41.35,218.19v7.25H40.3v-7.25H41.35z"/>
			<path fill="#FFFFFF" d="M43.75,218.19v0.9h-1.04v-0.9H43.75z M43.75,220.15v5.28h-1.04v-5.28H43.75z"/>
			<path fill="#FFFFFF" d="M47.2,225.54c-0.76,0-1.34-0.24-1.75-0.71c-0.4-0.47-0.61-1.15-0.61-2.03s0.2-1.56,0.61-2.03
				c0.41-0.47,0.99-0.71,1.74-0.71c0.57,0,1.04,0.15,1.41,0.44s0.61,0.69,0.71,1.2l-1.06,0.07c-0.04-0.29-0.15-0.51-0.33-0.68
				s-0.43-0.25-0.75-0.25c-0.43,0-0.74,0.15-0.94,0.46c-0.2,0.3-0.3,0.8-0.3,1.49c0,0.67,0.1,1.17,0.31,1.5
				c0.21,0.33,0.52,0.49,0.94,0.49c0.3,0,0.54-0.08,0.74-0.25c0.2-0.17,0.32-0.42,0.37-0.76l1.05,0.06
				c-0.04,0.35-0.16,0.66-0.36,0.92c-0.19,0.26-0.44,0.46-0.75,0.6S47.6,225.54,47.2,225.54z"/>
			<path fill="#FFFFFF" d="M51.61,225.54c-0.52,0-0.92-0.14-1.2-0.42S50,224.45,50,223.96c0-0.55,0.18-0.97,0.54-1.25
				c0.36-0.29,0.92-0.44,1.68-0.46l1.17-0.02v-0.28c0-0.4-0.08-0.69-0.24-0.87s-0.42-0.27-0.77-0.27c-0.35,0-0.6,0.06-0.76,0.19
				s-0.25,0.33-0.29,0.62l-1.09-0.08c0.16-0.98,0.88-1.47,2.17-1.47c0.66,0,1.17,0.16,1.51,0.47s0.51,0.76,0.51,1.35v2.16
				c0,0.27,0.04,0.47,0.1,0.6s0.19,0.19,0.37,0.19c0.1,0,0.2-0.01,0.29-0.03v0.61c-0.13,0.03-0.25,0.06-0.37,0.07
				s-0.24,0.02-0.37,0.02c-0.33,0-0.58-0.09-0.73-0.26s-0.24-0.43-0.27-0.78h-0.03c-0.21,0.38-0.47,0.66-0.76,0.83
				S52.02,225.54,51.61,225.54z M53.39,222.88l-0.88,0.01c-0.38,0.01-0.66,0.05-0.85,0.12c-0.19,0.07-0.33,0.18-0.43,0.33
				s-0.15,0.34-0.15,0.58c0,0.28,0.07,0.49,0.21,0.63s0.34,0.22,0.59,0.22c0.29,0,0.55-0.07,0.77-0.21s0.4-0.32,0.53-0.56
				c0.13-0.24,0.2-0.49,0.2-0.74V222.88z"/>
			<path fill="#FFFFFF" d="M58.05,225.38c-0.3,0.09-0.62,0.14-0.98,0.14c-0.37,0-0.65-0.1-0.84-0.31s-0.29-0.52-0.29-0.93v-3.39
				h-0.63v-0.74H56l0.32-1.2h0.68v1.2h0.98v0.74h-0.98v3.13c0,0.26,0.04,0.44,0.13,0.55s0.23,0.16,0.44,0.16
				c0.1,0,0.27-0.02,0.49-0.07V225.38z"/>
			<path fill="#FFFFFF" d="M59.87,218.19v0.9h-1.04v-0.9H59.87z M59.87,220.15v5.28h-1.04v-5.28H59.87z"/>
			<path fill="#FFFFFF" d="M65.89,222.79c0,0.9-0.21,1.58-0.64,2.05s-1.04,0.7-1.84,0.7c-0.79,0-1.4-0.24-1.81-0.72
				s-0.63-1.15-0.63-2.03c0-0.89,0.21-1.57,0.63-2.04s1.03-0.7,1.84-0.7c0.82,0,1.44,0.23,1.84,0.68S65.89,221.87,65.89,222.79z
				 M64.79,222.79c0-0.7-0.11-1.2-0.32-1.52c-0.21-0.31-0.55-0.47-1.03-0.47c-0.48,0-0.83,0.16-1.06,0.49s-0.33,0.82-0.33,1.5
				c0,0.66,0.11,1.16,0.33,1.49s0.55,0.5,1,0.5c0.5,0,0.85-0.16,1.07-0.49S64.79,223.47,64.79,222.79z"/>
			<path fill="#FFFFFF" d="M68.03,222.45v2.98h-1.04v-4.14c0-0.3,0-0.55-0.01-0.73s-0.01-0.32-0.02-0.42h0.99
				c0.01,0.06,0.01,0.14,0.02,0.25c0.01,0.11,0.01,0.23,0.02,0.36s0.01,0.24,0.01,0.35h0.01c0.2-0.38,0.43-0.65,0.7-0.81
				c0.27-0.16,0.6-0.24,0.99-0.24c0.57,0,1,0.16,1.28,0.47s0.42,0.79,0.42,1.45v3.47h-1.04v-3.22c0-0.49-0.08-0.84-0.24-1.05
				c-0.16-0.21-0.43-0.31-0.8-0.31c-0.39,0-0.7,0.14-0.93,0.43C68.15,221.57,68.03,221.96,68.03,222.45z"/>
			<path fill="#FFFFFF" d="M28.04,233.93c0,0.73-0.14,1.36-0.43,1.88s-0.68,0.93-1.18,1.21s-1.08,0.42-1.75,0.42h-2.64v-6.88h2.34
				c1.17,0,2.06,0.29,2.7,0.88S28.04,232.85,28.04,233.93z M26.94,233.93c0-0.81-0.22-1.43-0.66-1.86s-1.07-0.64-1.9-0.64h-1.22
				v5.14h1.43c0.48,0,0.89-0.11,1.25-0.32s0.62-0.52,0.82-0.91S26.94,234.47,26.94,233.93z"/>
			<path fill="#FFFFFF" d="M30.49,237.54c-0.52,0-0.92-0.14-1.2-0.42s-0.41-0.67-0.41-1.16c0-0.55,0.18-0.97,0.54-1.25
				c0.36-0.29,0.92-0.44,1.68-0.46l1.17-0.02v-0.28c0-0.4-0.08-0.69-0.24-0.87c-0.16-0.18-0.42-0.27-0.77-0.27
				c-0.35,0-0.6,0.06-0.76,0.19s-0.25,0.33-0.29,0.62l-1.09-0.08c0.16-0.98,0.88-1.47,2.17-1.47c0.66,0,1.17,0.16,1.51,0.47
				s0.52,0.76,0.52,1.35v2.16c0,0.27,0.03,0.47,0.1,0.6s0.19,0.19,0.37,0.19c0.1,0,0.2-0.01,0.29-0.03v0.61
				c-0.13,0.03-0.25,0.06-0.37,0.07s-0.24,0.02-0.37,0.02c-0.33,0-0.57-0.09-0.73-0.26s-0.24-0.43-0.27-0.78h-0.03
				c-0.21,0.38-0.47,0.66-0.76,0.83S30.9,237.54,30.49,237.54z M32.27,234.88l-0.87,0.01c-0.38,0.01-0.66,0.05-0.85,0.12
				c-0.19,0.07-0.33,0.18-0.43,0.33s-0.15,0.34-0.15,0.58c0,0.28,0.07,0.49,0.21,0.63s0.34,0.22,0.59,0.22
				c0.29,0,0.55-0.07,0.77-0.21s0.4-0.32,0.53-0.56c0.13-0.24,0.2-0.49,0.2-0.74V234.88z"/>
			<path fill="#FFFFFF" d="M36.94,237.38c-0.3,0.09-0.62,0.14-0.98,0.14c-0.37,0-0.65-0.1-0.84-0.31s-0.29-0.52-0.29-0.93v-3.39
				h-0.63v-0.74h0.67l0.32-1.2h0.68v1.2h0.98v0.74h-0.98v3.13c0,0.26,0.04,0.44,0.13,0.55s0.23,0.16,0.44,0.16
				c0.1,0,0.27-0.02,0.49-0.07V237.38z"/>
			<path fill="#FFFFFF" d="M39.02,237.54c-0.52,0-0.92-0.14-1.2-0.42s-0.41-0.67-0.41-1.16c0-0.55,0.18-0.97,0.54-1.25
				c0.36-0.29,0.92-0.44,1.68-0.46l1.17-0.02v-0.28c0-0.4-0.08-0.69-0.24-0.87s-0.42-0.27-0.77-0.27c-0.35,0-0.6,0.06-0.76,0.19
				s-0.25,0.33-0.29,0.62l-1.09-0.08c0.16-0.98,0.88-1.47,2.17-1.47c0.66,0,1.17,0.16,1.51,0.47s0.52,0.76,0.52,1.35v2.16
				c0,0.27,0.03,0.47,0.1,0.6s0.19,0.19,0.37,0.19c0.1,0,0.2-0.01,0.29-0.03v0.61c-0.13,0.03-0.25,0.06-0.37,0.07
				s-0.24,0.02-0.37,0.02c-0.33,0-0.57-0.09-0.73-0.26s-0.24-0.43-0.27-0.78h-0.03c-0.21,0.38-0.47,0.66-0.76,0.83
				S39.43,237.54,39.02,237.54z M40.79,234.88l-0.87,0.01c-0.38,0.01-0.66,0.05-0.85,0.12c-0.19,0.07-0.33,0.18-0.43,0.33
				s-0.15,0.34-0.15,0.58c0,0.28,0.07,0.49,0.21,0.63s0.34,0.22,0.59,0.22c0.29,0,0.55-0.07,0.77-0.21s0.4-0.32,0.53-0.56
				c0.13-0.24,0.2-0.49,0.2-0.74V234.88z"/>
			<path fill="#FFFFFF" d="M47.92,234.77c0,0.9-0.17,1.59-0.5,2.06s-0.82,0.7-1.47,0.7c-0.39,0-0.72-0.08-0.99-0.23
				s-0.48-0.38-0.64-0.7H44.3c0,0.07,0,0.16-0.01,0.29c-0.01,0.12-0.01,0.24-0.02,0.34c-0.01,0.11-0.02,0.17-0.03,0.2h-1.01
				c0.01-0.11,0.02-0.26,0.02-0.45c0.01-0.19,0.01-0.41,0.01-0.68v-6.12h1.04v2.05c0,0.12,0,0.24-0.01,0.37
				c0,0.13-0.01,0.27-0.01,0.41h0.02c0.16-0.34,0.38-0.58,0.65-0.74s0.61-0.23,1.01-0.23c0.65,0,1.14,0.23,1.46,0.69
				S47.92,233.88,47.92,234.77z M46.82,234.79c0-0.69-0.09-1.19-0.28-1.5c-0.19-0.31-0.49-0.46-0.9-0.46
				c-0.46,0-0.79,0.16-1.01,0.49s-0.32,0.84-0.32,1.52c0,0.65,0.11,1.13,0.32,1.46c0.21,0.32,0.54,0.49,1,0.49
				c0.42,0,0.72-0.16,0.91-0.48S46.82,235.48,46.82,234.79z"/>
			<path fill="#FFFFFF" d="M50.32,237.54c-0.52,0-0.92-0.14-1.2-0.42s-0.41-0.67-0.41-1.16c0-0.55,0.18-0.97,0.54-1.25
				c0.36-0.29,0.92-0.44,1.68-0.46l1.17-0.02v-0.28c0-0.4-0.08-0.69-0.24-0.87s-0.42-0.27-0.77-0.27c-0.35,0-0.6,0.06-0.76,0.19
				s-0.25,0.33-0.29,0.62l-1.09-0.08c0.16-0.98,0.88-1.47,2.17-1.47c0.66,0,1.17,0.16,1.51,0.47s0.51,0.76,0.51,1.35v2.16
				c0,0.27,0.04,0.47,0.1,0.6s0.19,0.19,0.37,0.19c0.1,0,0.2-0.01,0.29-0.03v0.61c-0.13,0.03-0.25,0.06-0.37,0.07
				s-0.24,0.02-0.37,0.02c-0.33,0-0.58-0.09-0.73-0.26s-0.24-0.43-0.27-0.78h-0.03c-0.21,0.38-0.47,0.66-0.76,0.83
				S50.73,237.54,50.32,237.54z M52.1,234.88l-0.88,0.01c-0.38,0.01-0.66,0.05-0.85,0.12c-0.19,0.07-0.33,0.18-0.43,0.33
				s-0.15,0.34-0.15,0.58c0,0.28,0.07,0.49,0.21,0.63s0.34,0.22,0.59,0.22c0.29,0,0.55-0.07,0.77-0.21s0.4-0.32,0.53-0.56
				c0.13-0.24,0.2-0.49,0.2-0.74V234.88z"/>
			<path fill="#FFFFFF" d="M58.7,235.95c0,0.5-0.2,0.9-0.59,1.17s-0.93,0.42-1.63,0.42c-0.68,0-1.2-0.11-1.57-0.33
				s-0.61-0.56-0.72-1.03l0.92-0.16c0.07,0.27,0.22,0.47,0.43,0.59c0.21,0.12,0.53,0.19,0.94,0.19c0.43,0,0.74-0.06,0.93-0.19
				s0.29-0.31,0.29-0.57c0-0.2-0.07-0.35-0.21-0.47s-0.38-0.22-0.7-0.3c-0.34-0.08-0.62-0.16-0.83-0.21s-0.39-0.11-0.52-0.16
				s-0.23-0.09-0.31-0.13c-0.23-0.13-0.41-0.28-0.54-0.47s-0.19-0.42-0.19-0.7c0-0.49,0.18-0.86,0.54-1.13
				c0.36-0.26,0.88-0.39,1.55-0.39c0.6,0,1.08,0.11,1.43,0.33s0.58,0.56,0.67,1.01l-0.93,0.11c-0.04-0.23-0.16-0.4-0.36-0.52
				s-0.46-0.18-0.81-0.18c-0.37,0-0.65,0.05-0.83,0.16c-0.18,0.11-0.27,0.27-0.27,0.5c0,0.17,0.06,0.31,0.17,0.42
				s0.32,0.2,0.62,0.26c0.41,0.09,0.79,0.2,1.14,0.3s0.61,0.22,0.78,0.34c0.19,0.13,0.33,0.29,0.44,0.47S58.7,235.68,58.7,235.95z"
				/>
			<path fill="#FFFFFF" d="M60.59,235.01c0,0.58,0.12,1.02,0.35,1.32c0.23,0.31,0.56,0.46,1,0.46c0.34,0,0.61-0.07,0.81-0.21
				s0.35-0.32,0.42-0.54l0.94,0.18c-0.34,0.88-1.07,1.31-2.19,1.31c-0.79,0-1.39-0.23-1.8-0.7c-0.41-0.47-0.62-1.16-0.62-2.07
				c0-0.87,0.21-1.54,0.62-2.01c0.42-0.47,1.01-0.7,1.78-0.7c0.77,0,1.35,0.24,1.75,0.72c0.39,0.48,0.59,1.19,0.59,2.14v0.09H60.59z
				 M63.18,234.27c-0.04-0.51-0.17-0.89-0.38-1.13s-0.52-0.36-0.92-0.36c-0.39,0-0.7,0.13-0.92,0.4s-0.34,0.63-0.36,1.1H63.18z"/>
		</g>
		<g clip-path="url(#SVGID_2_)">
			<path fill="#FFFFFF" d="M284.15,222.33v3.11h-1.1v-6.88h1.1v2.85h3.48v-2.85h1.1v6.88h-1.1v-3.11H284.15z"/>
			<path fill="#FFFFFF" d="M291.23,218.19v0.9h-1.04v-0.9H291.23z M291.23,220.15v5.28h-1.04v-5.28H291.23z"/>
			<path fill="#FFFFFF" d="M296.72,223.95c0,0.5-0.2,0.9-0.59,1.17s-0.93,0.42-1.63,0.42c-0.68,0-1.2-0.11-1.57-0.33
				s-0.61-0.56-0.72-1.03l0.92-0.16c0.07,0.27,0.22,0.47,0.43,0.59c0.21,0.12,0.53,0.19,0.94,0.19c0.43,0,0.74-0.06,0.93-0.19
				s0.29-0.31,0.29-0.57c0-0.2-0.07-0.35-0.21-0.47s-0.38-0.22-0.7-0.3c-0.34-0.08-0.62-0.16-0.83-0.21
				c-0.22-0.06-0.39-0.11-0.52-0.16c-0.13-0.05-0.23-0.09-0.31-0.13c-0.23-0.13-0.42-0.28-0.54-0.47s-0.19-0.42-0.19-0.7
				c0-0.49,0.18-0.86,0.54-1.13c0.36-0.26,0.88-0.39,1.55-0.39c0.6,0,1.08,0.11,1.43,0.33s0.58,0.56,0.67,1.01l-0.93,0.11
				c-0.05-0.23-0.17-0.4-0.36-0.52c-0.19-0.12-0.46-0.18-0.81-0.18c-0.38,0-0.65,0.05-0.83,0.16c-0.18,0.11-0.27,0.27-0.27,0.5
				c0,0.17,0.06,0.31,0.17,0.42s0.32,0.2,0.62,0.26c0.41,0.09,0.79,0.2,1.14,0.3c0.35,0.11,0.61,0.22,0.78,0.34
				c0.19,0.13,0.33,0.29,0.44,0.47S296.72,223.68,296.72,223.95z"/>
			<path fill="#FFFFFF" d="M299.97,225.38c-0.3,0.09-0.62,0.14-0.98,0.14c-0.37,0-0.65-0.1-0.84-0.31s-0.29-0.52-0.29-0.93v-3.39
				h-0.63v-0.74h0.67l0.32-1.2h0.68v1.2h0.98v0.74h-0.98v3.13c0,0.26,0.04,0.44,0.13,0.55s0.23,0.16,0.44,0.16
				c0.1,0,0.27-0.02,0.49-0.07V225.38z"/>
			<path fill="#FFFFFF" d="M305.39,222.79c0,0.9-0.21,1.58-0.64,2.05s-1.04,0.7-1.84,0.7c-0.79,0-1.4-0.24-1.81-0.72
				c-0.42-0.48-0.63-1.15-0.63-2.03c0-0.89,0.21-1.57,0.63-2.04s1.03-0.7,1.84-0.7c0.82,0,1.44,0.23,1.84,0.68
				S305.39,221.87,305.39,222.79z M304.3,222.79c0-0.7-0.11-1.2-0.32-1.52c-0.21-0.31-0.55-0.47-1.03-0.47
				c-0.48,0-0.83,0.16-1.06,0.49c-0.22,0.32-0.33,0.82-0.33,1.5c0,0.66,0.11,1.16,0.33,1.49s0.55,0.5,1,0.5
				c0.49,0,0.85-0.16,1.07-0.49S304.3,223.47,304.3,222.79z"/>
			<path fill="#FFFFFF" d="M307.54,222.74v2.7h-1.04v-4.05c0-0.22,0-0.43-0.01-0.63s-0.01-0.4-0.02-0.6h0.99
				c0.01,0.11,0.01,0.22,0.02,0.34c0.01,0.11,0.01,0.22,0.01,0.32c0,0.1,0.01,0.19,0.01,0.27c0,0.08,0,0.13,0,0.17h0.02
				c0.11-0.33,0.22-0.58,0.33-0.76c0.11-0.16,0.24-0.27,0.39-0.34s0.33-0.1,0.54-0.1c0.14,0,0.26,0.02,0.38,0.05v0.92
				c-0.15-0.04-0.32-0.06-0.51-0.06c-0.36,0-0.63,0.15-0.82,0.45C307.64,221.73,307.54,222.16,307.54,222.74z"/>
			<path fill="#FFFFFF" d="M311.04,218.19v0.9H310v-0.9H311.04z M311.04,220.15v5.28H310v-5.28H311.04z"/>
			<path fill="#FFFFFF" d="M314.5,225.54c-0.76,0-1.34-0.24-1.75-0.71c-0.4-0.47-0.61-1.15-0.61-2.03s0.2-1.56,0.61-2.03
				c0.41-0.47,0.99-0.71,1.74-0.71c0.57,0,1.04,0.15,1.41,0.44c0.37,0.29,0.61,0.69,0.71,1.2l-1.06,0.07
				c-0.04-0.29-0.15-0.51-0.33-0.68s-0.43-0.25-0.75-0.25c-0.43,0-0.74,0.15-0.94,0.46c-0.2,0.3-0.3,0.8-0.3,1.49
				c0,0.67,0.1,1.17,0.31,1.5c0.21,0.33,0.52,0.49,0.94,0.49c0.3,0,0.54-0.08,0.74-0.25c0.2-0.17,0.32-0.42,0.37-0.76l1.05,0.06
				c-0.05,0.35-0.17,0.66-0.36,0.92c-0.19,0.26-0.44,0.46-0.75,0.6C315.23,225.46,314.89,225.54,314.5,225.54z"/>
			<path fill="#FFFFFF" d="M318.9,225.54c-0.52,0-0.92-0.14-1.2-0.42s-0.41-0.67-0.41-1.16c0-0.55,0.18-0.97,0.54-1.25
				c0.36-0.29,0.92-0.44,1.68-0.46l1.17-0.02v-0.28c0-0.4-0.08-0.69-0.24-0.87s-0.42-0.27-0.77-0.27c-0.35,0-0.6,0.06-0.76,0.19
				c-0.16,0.13-0.25,0.33-0.29,0.62l-1.09-0.08c0.16-0.98,0.88-1.47,2.17-1.47c0.66,0,1.17,0.16,1.51,0.47
				c0.34,0.31,0.52,0.76,0.52,1.35v2.16c0,0.27,0.03,0.47,0.1,0.6s0.19,0.19,0.37,0.19c0.1,0,0.2-0.01,0.29-0.03v0.61
				c-0.13,0.03-0.25,0.06-0.37,0.07c-0.12,0.02-0.24,0.02-0.37,0.02c-0.33,0-0.58-0.09-0.73-0.26c-0.15-0.17-0.24-0.43-0.27-0.78
				h-0.03c-0.21,0.38-0.47,0.66-0.76,0.83C319.67,225.45,319.31,225.54,318.9,225.54z M320.68,222.88l-0.87,0.01
				c-0.38,0.01-0.66,0.05-0.85,0.12c-0.19,0.07-0.33,0.18-0.43,0.33c-0.1,0.15-0.15,0.34-0.15,0.58c0,0.28,0.07,0.49,0.21,0.63
				s0.34,0.22,0.59,0.22c0.29,0,0.55-0.07,0.77-0.21s0.4-0.32,0.53-0.56c0.13-0.24,0.2-0.49,0.2-0.74V222.88z"/>
			<path fill="#FFFFFF" d="M324.2,218.19v7.25h-1.04v-7.25H324.2z"/>
			<path fill="#FFFFFF" d="M289.05,233.93c0,0.73-0.14,1.36-0.42,1.88s-0.68,0.93-1.18,1.21s-1.08,0.42-1.75,0.42h-2.64v-6.88h2.34
				c1.17,0,2.06,0.29,2.7,0.88C288.73,232.02,289.05,232.85,289.05,233.93z M287.94,233.93c0-0.81-0.22-1.43-0.66-1.86
				s-1.07-0.64-1.9-0.64h-1.23v5.14h1.43c0.48,0,0.89-0.11,1.25-0.32s0.62-0.52,0.82-0.91
				C287.84,234.94,287.94,234.47,287.94,233.93z"/>
			<path fill="#FFFFFF" d="M291.49,237.54c-0.52,0-0.92-0.14-1.2-0.42s-0.41-0.67-0.41-1.16c0-0.55,0.18-0.97,0.54-1.25
				c0.36-0.29,0.92-0.44,1.68-0.46l1.17-0.02v-0.28c0-0.4-0.08-0.69-0.24-0.87s-0.42-0.27-0.77-0.27c-0.35,0-0.6,0.06-0.76,0.19
				c-0.16,0.13-0.25,0.33-0.29,0.62l-1.09-0.08c0.16-0.98,0.88-1.47,2.17-1.47c0.66,0,1.17,0.16,1.51,0.47
				c0.34,0.31,0.52,0.76,0.52,1.35v2.16c0,0.27,0.03,0.47,0.1,0.6s0.19,0.19,0.37,0.19c0.1,0,0.2-0.01,0.29-0.03v0.61
				c-0.13,0.03-0.25,0.06-0.37,0.07c-0.12,0.02-0.24,0.02-0.37,0.02c-0.33,0-0.58-0.09-0.73-0.26c-0.15-0.17-0.24-0.43-0.27-0.78
				h-0.03c-0.21,0.38-0.47,0.66-0.76,0.83C292.26,237.45,291.91,237.54,291.49,237.54z M293.27,234.88l-0.87,0.01
				c-0.38,0.01-0.66,0.05-0.85,0.12c-0.19,0.07-0.33,0.18-0.43,0.33c-0.1,0.15-0.15,0.34-0.15,0.58c0,0.28,0.07,0.49,0.21,0.63
				s0.34,0.22,0.59,0.22c0.29,0,0.55-0.07,0.77-0.21s0.4-0.32,0.53-0.56c0.13-0.24,0.2-0.49,0.2-0.74V234.88z"/>
			<path fill="#FFFFFF" d="M297.94,237.38c-0.3,0.09-0.62,0.14-0.98,0.14c-0.37,0-0.65-0.1-0.84-0.31s-0.29-0.52-0.29-0.93v-3.39
				h-0.63v-0.74h0.67l0.32-1.2h0.68v1.2h0.98v0.74h-0.98v3.13c0,0.26,0.04,0.44,0.13,0.55s0.23,0.16,0.44,0.16
				c0.1,0,0.27-0.02,0.49-0.07V237.38z"/>
			<path fill="#FFFFFF" d="M300.02,237.54c-0.52,0-0.92-0.14-1.2-0.42s-0.41-0.67-0.41-1.16c0-0.55,0.18-0.97,0.54-1.25
				c0.36-0.29,0.92-0.44,1.68-0.46l1.17-0.02v-0.28c0-0.4-0.08-0.69-0.24-0.87s-0.42-0.27-0.77-0.27c-0.35,0-0.6,0.06-0.76,0.19
				c-0.16,0.13-0.25,0.33-0.29,0.62l-1.09-0.08c0.16-0.98,0.88-1.47,2.17-1.47c0.66,0,1.17,0.16,1.51,0.47
				c0.34,0.31,0.52,0.76,0.52,1.35v2.16c0,0.27,0.03,0.47,0.1,0.6s0.19,0.19,0.37,0.19c0.1,0,0.2-0.01,0.29-0.03v0.61
				c-0.13,0.03-0.25,0.06-0.37,0.07c-0.12,0.02-0.24,0.02-0.37,0.02c-0.33,0-0.58-0.09-0.73-0.26c-0.15-0.17-0.24-0.43-0.27-0.78
				h-0.03c-0.21,0.38-0.47,0.66-0.76,0.83C300.79,237.45,300.43,237.54,300.02,237.54z M301.8,234.88l-0.87,0.01
				c-0.38,0.01-0.66,0.05-0.85,0.12c-0.19,0.07-0.33,0.18-0.43,0.33c-0.1,0.15-0.15,0.34-0.15,0.58c0,0.28,0.07,0.49,0.21,0.63
				s0.34,0.22,0.59,0.22c0.29,0,0.55-0.07,0.77-0.21s0.4-0.32,0.53-0.56c0.13-0.24,0.2-0.49,0.2-0.74V234.88z"/>
			<path fill="#FFFFFF" d="M308.92,234.77c0,0.9-0.17,1.59-0.5,2.06s-0.82,0.7-1.47,0.7c-0.39,0-0.72-0.08-0.99-0.23
				s-0.48-0.38-0.64-0.7h-0.01c0,0.07,0,0.16-0.01,0.29c-0.01,0.12-0.01,0.24-0.02,0.34c-0.01,0.11-0.01,0.17-0.02,0.2h-1.01
				c0.01-0.11,0.02-0.26,0.02-0.45c0.01-0.19,0.01-0.41,0.01-0.68v-6.12h1.04v2.05c0,0.12,0,0.24,0,0.37c0,0.13-0.01,0.27-0.01,0.41
				h0.02c0.16-0.34,0.38-0.58,0.65-0.74s0.61-0.23,1.01-0.23c0.65,0,1.14,0.23,1.46,0.69C308.76,233.2,308.92,233.88,308.92,234.77z
				 M307.83,234.79c0-0.69-0.09-1.19-0.28-1.5c-0.19-0.31-0.49-0.46-0.9-0.46c-0.46,0-0.79,0.16-1.01,0.49s-0.32,0.84-0.32,1.52
				c0,0.65,0.11,1.13,0.32,1.46c0.21,0.32,0.54,0.49,1,0.49c0.42,0,0.72-0.16,0.91-0.48S307.83,235.48,307.83,234.79z"/>
			<path fill="#FFFFFF" d="M311.32,237.54c-0.52,0-0.92-0.14-1.2-0.42s-0.41-0.67-0.41-1.16c0-0.55,0.18-0.97,0.54-1.25
				c0.36-0.29,0.92-0.44,1.68-0.46l1.17-0.02v-0.28c0-0.4-0.08-0.69-0.24-0.87s-0.42-0.27-0.77-0.27c-0.35,0-0.6,0.06-0.76,0.19
				c-0.16,0.13-0.25,0.33-0.29,0.62l-1.09-0.08c0.16-0.98,0.88-1.47,2.17-1.47c0.66,0,1.17,0.16,1.51,0.47
				c0.34,0.31,0.52,0.76,0.52,1.35v2.16c0,0.27,0.03,0.47,0.1,0.6s0.19,0.19,0.37,0.19c0.1,0,0.2-0.01,0.29-0.03v0.61
				c-0.13,0.03-0.25,0.06-0.37,0.07c-0.12,0.02-0.24,0.02-0.37,0.02c-0.33,0-0.58-0.09-0.73-0.26c-0.15-0.17-0.24-0.43-0.27-0.78
				h-0.03c-0.21,0.38-0.47,0.66-0.76,0.83C312.09,237.45,311.73,237.54,311.32,237.54z M313.1,234.88l-0.87,0.01
				c-0.38,0.01-0.66,0.05-0.85,0.12c-0.19,0.07-0.33,0.18-0.43,0.33c-0.1,0.15-0.15,0.34-0.15,0.58c0,0.28,0.07,0.49,0.21,0.63
				s0.34,0.22,0.59,0.22c0.29,0,0.55-0.07,0.77-0.21s0.4-0.32,0.53-0.56c0.13-0.24,0.2-0.49,0.2-0.74V234.88z"/>
			<path fill="#FFFFFF" d="M319.71,235.95c0,0.5-0.2,0.9-0.59,1.17s-0.93,0.42-1.63,0.42c-0.68,0-1.2-0.11-1.57-0.33
				s-0.61-0.56-0.72-1.03l0.92-0.16c0.07,0.27,0.22,0.47,0.43,0.59c0.21,0.12,0.53,0.19,0.94,0.19c0.43,0,0.74-0.06,0.93-0.19
				s0.29-0.31,0.29-0.57c0-0.2-0.07-0.35-0.21-0.47s-0.38-0.22-0.7-0.3c-0.34-0.08-0.62-0.16-0.83-0.21
				c-0.22-0.06-0.39-0.11-0.52-0.16c-0.13-0.05-0.23-0.09-0.31-0.13c-0.23-0.13-0.42-0.28-0.54-0.47s-0.19-0.42-0.19-0.7
				c0-0.49,0.18-0.86,0.54-1.13c0.36-0.26,0.88-0.39,1.55-0.39c0.6,0,1.08,0.11,1.43,0.33s0.58,0.56,0.67,1.01l-0.93,0.11
				c-0.05-0.23-0.17-0.4-0.36-0.52c-0.19-0.12-0.46-0.18-0.81-0.18c-0.38,0-0.65,0.05-0.83,0.16c-0.18,0.11-0.27,0.27-0.27,0.5
				c0,0.17,0.06,0.31,0.17,0.42s0.32,0.2,0.62,0.26c0.41,0.09,0.79,0.2,1.14,0.3c0.35,0.11,0.61,0.22,0.78,0.34
				c0.19,0.13,0.33,0.29,0.44,0.47S319.71,235.68,319.71,235.95z"/>
			<path fill="#FFFFFF" d="M321.59,235.01c0,0.58,0.12,1.02,0.35,1.32c0.23,0.31,0.56,0.46,1,0.46c0.33,0,0.61-0.07,0.81-0.21
				s0.34-0.32,0.42-0.54l0.94,0.18c-0.34,0.88-1.07,1.31-2.19,1.31c-0.79,0-1.39-0.23-1.8-0.7c-0.41-0.47-0.62-1.16-0.62-2.07
				c0-0.87,0.21-1.54,0.62-2.01c0.42-0.47,1.01-0.7,1.78-0.7c0.77,0,1.35,0.24,1.75,0.72c0.39,0.48,0.59,1.19,0.59,2.14v0.09H321.59
				z M324.18,234.27c-0.04-0.51-0.17-0.89-0.38-1.13c-0.22-0.24-0.52-0.36-0.92-0.36c-0.39,0-0.7,0.13-0.92,0.4s-0.35,0.63-0.36,1.1
				H324.18z"/>
		</g>
		<g clip-path="url(#SVGID_2_)">
			<path fill="#FFFFFF" d="M109.36,145.51v2.77h-1.1v-6.88h3.3c0.79,0,1.4,0.17,1.83,0.52s0.64,0.84,0.64,1.47
				c0,0.5-0.14,0.93-0.43,1.27c-0.29,0.35-0.69,0.57-1.19,0.67l1.92,2.94h-1.26l-1.72-2.77H109.36z M112.93,143.43
				c0-0.38-0.13-0.66-0.38-0.86s-0.62-0.29-1.1-0.29h-2.09v2.37h2.13c0.46,0,0.82-0.11,1.07-0.32S112.93,143.81,112.93,143.43z"/>
			<path fill="#FFFFFF" d="M116.22,145.85c0,0.58,0.12,1.02,0.35,1.32c0.23,0.31,0.57,0.46,1,0.46c0.33,0,0.61-0.07,0.81-0.21
				s0.34-0.32,0.42-0.54l0.94,0.18c-0.33,0.88-1.07,1.31-2.19,1.31c-0.79,0-1.39-0.23-1.8-0.7c-0.41-0.47-0.62-1.16-0.62-2.07
				c0-0.87,0.21-1.54,0.62-2.01c0.42-0.47,1.01-0.7,1.78-0.7c0.77,0,1.35,0.24,1.75,0.72s0.59,1.19,0.59,2.14v0.09H116.22z
				 M118.81,145.12c-0.04-0.51-0.17-0.89-0.38-1.13s-0.52-0.36-0.92-0.36c-0.39,0-0.7,0.13-0.92,0.4s-0.35,0.63-0.36,1.1H118.81z"/>
			<path fill="#FFFFFF" d="M120.69,145.66c0-0.9,0.17-1.59,0.5-2.06c0.33-0.47,0.83-0.7,1.47-0.7c0.39,0,0.72,0.07,0.99,0.22
				s0.48,0.38,0.65,0.71c0-0.08,0-0.18,0.01-0.31c0.01-0.13,0.02-0.25,0.03-0.37s0.02-0.18,0.03-0.19h1
				c-0.01,0.12-0.02,0.29-0.02,0.52s-0.01,0.51-0.01,0.84v6.04h-1.04v-2.16l0.02-0.79h-0.01c-0.17,0.34-0.38,0.59-0.65,0.74
				s-0.61,0.23-1.03,0.23c-0.65,0-1.14-0.23-1.46-0.69S120.69,146.55,120.69,145.66z M124.29,145.6c0-0.65-0.11-1.13-0.32-1.46
				c-0.21-0.32-0.54-0.49-1-0.49c-0.42,0-0.72,0.16-0.91,0.48c-0.19,0.32-0.29,0.82-0.29,1.51c0,0.69,0.1,1.19,0.29,1.5
				c0.19,0.31,0.49,0.47,0.9,0.47c0.45,0,0.79-0.17,1-0.51S124.29,146.26,124.29,145.6z"/>
			<path fill="#FFFFFF" d="M130.04,147.33c-0.2,0.38-0.43,0.65-0.7,0.81c-0.27,0.16-0.6,0.24-1,0.24c-0.57,0-1-0.15-1.28-0.46
				s-0.42-0.79-0.42-1.46V143h1.04v3.22c0,0.5,0.08,0.86,0.24,1.06c0.16,0.2,0.43,0.3,0.8,0.3c0.39,0,0.71-0.14,0.93-0.43
				s0.34-0.68,0.34-1.17V143h1.04v4.14c0,0.28,0,0.52,0.01,0.71s0.01,0.34,0.03,0.44h-0.99c-0.01-0.09-0.02-0.21-0.03-0.36
				s-0.01-0.35-0.02-0.6H130.04z"/>
			<path fill="#FFFFFF" d="M133.26,145.85c0,0.58,0.12,1.02,0.35,1.32c0.23,0.31,0.56,0.46,1,0.46c0.34,0,0.61-0.07,0.81-0.21
				s0.35-0.32,0.42-0.54l0.94,0.18c-0.34,0.88-1.07,1.31-2.19,1.31c-0.79,0-1.39-0.23-1.8-0.7c-0.41-0.47-0.62-1.16-0.62-2.07
				c0-0.87,0.21-1.54,0.62-2.01c0.42-0.47,1.01-0.7,1.78-0.7c0.77,0,1.35,0.24,1.75,0.72s0.59,1.19,0.59,2.14v0.09H133.26z
				 M135.86,145.12c-0.04-0.51-0.17-0.89-0.38-1.13s-0.52-0.36-0.92-0.36c-0.39,0-0.7,0.13-0.92,0.4s-0.34,0.63-0.36,1.1H135.86z"/>
			<path fill="#FFFFFF" d="M142.13,146.8c0,0.5-0.2,0.9-0.59,1.17s-0.93,0.42-1.63,0.42c-0.68,0-1.2-0.11-1.57-0.33
				s-0.61-0.56-0.72-1.03l0.92-0.16c0.08,0.27,0.22,0.47,0.43,0.59c0.21,0.12,0.53,0.19,0.94,0.19c0.43,0,0.74-0.06,0.93-0.19
				s0.29-0.31,0.29-0.57c0-0.2-0.07-0.35-0.21-0.47s-0.38-0.22-0.7-0.3c-0.34-0.08-0.62-0.16-0.83-0.21s-0.39-0.11-0.52-0.16
				s-0.23-0.09-0.31-0.13c-0.23-0.13-0.42-0.28-0.54-0.47s-0.19-0.42-0.19-0.7c0-0.49,0.18-0.86,0.54-1.13
				c0.36-0.26,0.88-0.39,1.55-0.39c0.6,0,1.08,0.11,1.43,0.33s0.58,0.56,0.67,1.01l-0.93,0.11c-0.05-0.23-0.17-0.4-0.36-0.52
				s-0.46-0.18-0.81-0.18c-0.38,0-0.65,0.05-0.83,0.16c-0.18,0.11-0.27,0.27-0.27,0.5c0,0.17,0.06,0.31,0.17,0.42
				s0.32,0.2,0.62,0.26c0.41,0.09,0.79,0.2,1.14,0.3s0.61,0.22,0.78,0.34c0.19,0.13,0.33,0.29,0.44,0.47S142.13,146.53,142.13,146.8
				z"/>
			<path fill="#FFFFFF" d="M145.37,148.23c-0.3,0.09-0.62,0.14-0.98,0.14c-0.37,0-0.65-0.1-0.84-0.31s-0.29-0.52-0.29-0.93v-3.39
				h-0.63V143h0.67l0.32-1.2h0.68v1.2h0.98v0.74h-0.98v3.13c0,0.26,0.04,0.44,0.13,0.55s0.23,0.16,0.44,0.16
				c0.1,0,0.27-0.02,0.49-0.07V148.23z"/>
			<path fill="#FFFFFF" d="M109.36,156.18v3.11h-1.1v-6.88h1.1v2.85h3.48v-2.85h1.1v6.88h-1.1v-3.11H109.36z"/>
			<path fill="#FFFFFF" d="M116.7,159.38c-0.52,0-0.92-0.14-1.2-0.42s-0.41-0.67-0.41-1.16c0-0.55,0.18-0.97,0.54-1.25
				c0.36-0.29,0.92-0.44,1.68-0.46l1.17-0.02v-0.28c0-0.4-0.08-0.69-0.24-0.87s-0.42-0.27-0.77-0.27c-0.35,0-0.6,0.06-0.76,0.19
				s-0.25,0.33-0.29,0.62l-1.09-0.08c0.16-0.98,0.88-1.47,2.17-1.47c0.66,0,1.17,0.16,1.51,0.47s0.51,0.76,0.51,1.35v2.16
				c0,0.27,0.04,0.47,0.1,0.6s0.19,0.19,0.37,0.19c0.1,0,0.2-0.01,0.29-0.03v0.61c-0.13,0.03-0.25,0.06-0.37,0.07
				s-0.24,0.02-0.37,0.02c-0.33,0-0.58-0.09-0.73-0.26s-0.24-0.43-0.27-0.78h-0.03c-0.21,0.38-0.47,0.66-0.76,0.83
				S117.11,159.38,116.7,159.38z M118.47,156.73l-0.88,0.01c-0.38,0.01-0.66,0.05-0.85,0.12c-0.19,0.07-0.33,0.18-0.43,0.33
				s-0.15,0.34-0.15,0.58c0,0.28,0.07,0.49,0.21,0.63s0.34,0.22,0.59,0.22c0.29,0,0.55-0.07,0.77-0.21s0.4-0.32,0.53-0.56
				c0.13-0.24,0.2-0.49,0.2-0.74V156.73z"/>
			<path fill="#FFFFFF" d="M122.01,156.3v2.98h-1.04v-4.14c0-0.3,0-0.55-0.01-0.73s-0.01-0.32-0.02-0.42h0.99
				c0.01,0.06,0.01,0.14,0.02,0.25c0.01,0.11,0.01,0.23,0.02,0.36s0.01,0.24,0.01,0.35h0.01c0.2-0.38,0.43-0.65,0.7-0.81
				c0.27-0.16,0.6-0.24,0.99-0.24c0.57,0,1,0.16,1.28,0.47s0.42,0.79,0.42,1.45v3.47h-1.04v-3.22c0-0.49-0.08-0.84-0.24-1.05
				c-0.16-0.21-0.43-0.31-0.8-0.31c-0.39,0-0.7,0.14-0.93,0.43C122.12,155.42,122.01,155.81,122.01,156.3z"/>
			<path fill="#FFFFFF" d="M130.1,159.29c-0.01-0.04-0.02-0.1-0.03-0.21s-0.02-0.21-0.02-0.33c-0.01-0.12-0.01-0.23-0.01-0.32h-0.02
				c-0.16,0.33-0.37,0.57-0.64,0.73s-0.61,0.23-1.02,0.23c-0.65,0-1.13-0.23-1.46-0.69s-0.48-1.14-0.48-2.03
				c0-0.91,0.17-1.6,0.5-2.06s0.82-0.7,1.47-0.7c0.39,0,0.73,0.07,0.99,0.22s0.48,0.38,0.64,0.7h0.01l-0.01-0.68v-2.1h1.04v6.14
				c0,0.24,0,0.45,0.01,0.63s0.01,0.34,0.02,0.48H130.1z M127.52,156.64c0,0.69,0.1,1.19,0.29,1.5s0.49,0.47,0.91,0.47
				c0.45,0,0.79-0.17,1-0.5s0.32-0.84,0.32-1.52c0-0.65-0.11-1.14-0.32-1.46s-0.54-0.48-0.99-0.48c-0.42,0-0.72,0.16-0.92,0.48
				S127.52,155.95,127.52,156.64z"/>
			<path fill="#FFFFFF" d="M133.48,152.04v7.25h-1.04v-7.25H133.48z"/>
			<path fill="#FFFFFF" d="M135.67,156.85c0,0.58,0.12,1.02,0.35,1.32c0.23,0.31,0.57,0.46,1,0.46c0.33,0,0.61-0.07,0.81-0.21
				s0.34-0.32,0.42-0.54l0.94,0.18c-0.33,0.88-1.07,1.31-2.19,1.31c-0.79,0-1.39-0.23-1.8-0.7c-0.41-0.47-0.62-1.16-0.62-2.07
				c0-0.87,0.21-1.54,0.62-2.01c0.42-0.47,1.01-0.7,1.78-0.7c0.77,0,1.35,0.24,1.75,0.72s0.59,1.19,0.59,2.14v0.09H135.67z
				 M138.26,156.12c-0.04-0.51-0.17-0.89-0.38-1.13s-0.52-0.36-0.92-0.36c-0.39,0-0.7,0.13-0.92,0.4s-0.35,0.63-0.36,1.1H138.26z"/>
			<path fill="#FFFFFF" d="M141.46,156.59v2.7h-1.04v-4.05c0-0.22,0-0.43-0.01-0.63s-0.01-0.4-0.02-0.6h0.99
				c0.01,0.11,0.01,0.22,0.02,0.34c0.01,0.11,0.01,0.22,0.01,0.32c0,0.1,0.01,0.19,0.01,0.27c0,0.08,0.01,0.13,0.01,0.17h0.02
				c0.11-0.33,0.22-0.58,0.33-0.76c0.11-0.16,0.24-0.27,0.38-0.34s0.33-0.1,0.54-0.1c0.14,0,0.26,0.02,0.38,0.05v0.92
				c-0.15-0.04-0.32-0.06-0.51-0.06c-0.35,0-0.63,0.15-0.82,0.45C141.56,155.58,141.46,156.01,141.46,156.59z"/>
		</g>
	</g>
</g>
<g id="Layer_1">
</g>
<g id="Layer_2">
</g>
<g id="Layer_3">
</g>
</svg>
