<?xml version="1.0" encoding="utf-8"?>
<!-- Generator: Adobe Illustrator 24.1.0, SVG Export Plug-In . SVG Version: 6.00 Build 0)  -->
<svg version="1.1" xmlns="http://www.w3.org/2000/svg" xmlns:xlink="http://www.w3.org/1999/xlink" x="0px" y="0px"
	 viewBox="0 0 361.49 383.06" enable-background="new 0 0 361.49 383.06" xml:space="preserve">
<g id="Layer_4">
</g>
<g id="portfolio_x5F_output">
	<g>
		<rect x="0.61" y="13.62" fill="#FFFFFF" width="360.28" height="369.73"/>
	</g>
	<g>
		<path fill="#282829" d="M0,13.33h361.49V7.09c0-3.91-3.17-7.09-7.09-7.09H0"/>
	</g>
	<g>
		<rect fill="none" width="361.49" height="383.06"/>
	</g>
	<g>
		<g>
			<path d="M162.66,40.87l-2.84,12.22h-5.13l-5.32-20.64h4.38l2.87,12.64c0.13,0.54,0.27,1.16,0.42,1.86s0.28,1.39,0.37,2.05
				c0.1-0.46,0.19-0.91,0.27-1.34c0.08-0.44,0.17-0.87,0.26-1.29c0.09-0.43,0.18-0.85,0.28-1.27l2.92-12.66h4.83l2.89,12.2
				c0.1,0.41,0.22,1.01,0.36,1.79c0.14,0.78,0.28,1.64,0.4,2.56c0.13-0.57,0.24-1.07,0.34-1.5c0.1-0.43,0.21-0.87,0.31-1.3
				c0.1-0.44,0.21-0.93,0.33-1.49l2.65-12.26h4.38l-5.33,20.64h-5.13l-2.8-11.94c-0.17-0.7-0.32-1.42-0.47-2.15s-0.28-1.48-0.4-2.26
				c-0.08,0.42-0.18,0.91-0.29,1.48s-0.23,1.09-0.33,1.58C162.78,40.29,162.71,40.65,162.66,40.87z"/>
			<path d="M199.73,42.67c0,2.15-0.43,4.03-1.3,5.63c-0.87,1.61-2.08,2.85-3.65,3.74c-1.57,0.89-3.41,1.33-5.51,1.33
				c-2.16,0-4.01-0.43-5.57-1.3c-1.55-0.87-2.74-2.1-3.57-3.7s-1.25-3.51-1.25-5.71s0.41-4.1,1.24-5.67
				c0.82-1.57,2.02-2.78,3.57-3.61c1.56-0.84,3.42-1.25,5.6-1.25c2.19,0,4.06,0.42,5.61,1.27c1.55,0.85,2.74,2.05,3.57,3.63
				S199.73,40.49,199.73,42.67z M195.32,42.67c0-2.23-0.53-3.97-1.58-5.24c-1.05-1.27-2.53-1.9-4.44-1.9
				c-1.93,0-3.43,0.63-4.48,1.88c-1.05,1.26-1.58,3.01-1.58,5.25c0,1.5,0.24,2.8,0.73,3.9s1.18,1.94,2.09,2.53
				c0.9,0.59,1.98,0.89,3.22,0.89c1.93,0,3.42-0.63,4.48-1.9C194.8,46.81,195.32,45.01,195.32,42.67z"/>
			<path d="M207.32,45.25v7.84H203V32.45h10.31c2.46,0,4.36,0.53,5.7,1.59c1.34,1.06,2.01,2.58,2.01,4.56
				c0,1.45-0.41,2.69-1.23,3.74c-0.82,1.05-1.93,1.74-3.33,2.07l5.58,8.67h-4.86l-4.79-7.84H207.32z M216.67,38.78
				c0-0.99-0.32-1.73-0.95-2.23s-1.59-0.75-2.86-0.75h-5.54v6.09h5.65c1.21,0,2.13-0.27,2.75-0.82S216.67,39.76,216.67,38.78z"/>
			<path d="M228.99,45.56v7.53h-4.32V32.45h4.32v9.36l9.3-9.36h5.04l-8.82,8.73l9.54,11.91h-5.1l-7.41-9.48L228.99,45.56z"/>
			<path d="M250.65,45.52v7.57h-4.32V32.45h15.22v3.34h-10.9v6.39h10.56v3.34H250.65z"/>
			<path d="M280.05,49.75v3.34h-15.4V32.45h4.32v17.3H280.05z"/>
			<path d="M303.05,42.67c0,2.15-0.43,4.03-1.3,5.63c-0.87,1.61-2.08,2.85-3.65,3.74c-1.57,0.89-3.41,1.33-5.51,1.33
				c-2.16,0-4.01-0.43-5.57-1.3c-1.55-0.87-2.74-2.1-3.57-3.7s-1.25-3.51-1.25-5.71s0.41-4.1,1.24-5.67
				c0.82-1.57,2.02-2.78,3.57-3.61c1.56-0.84,3.42-1.25,5.6-1.25c2.19,0,4.06,0.42,5.61,1.27c1.55,0.85,2.74,2.05,3.57,3.63
				S303.05,40.49,303.05,42.67z M298.64,42.67c0-2.23-0.53-3.97-1.58-5.24c-1.05-1.27-2.53-1.9-4.44-1.9
				c-1.93,0-3.43,0.63-4.48,1.88c-1.05,1.26-1.58,3.01-1.58,5.25c0,1.5,0.24,2.8,0.73,3.9s1.18,1.94,2.09,2.53
				c0.9,0.59,1.98,0.89,3.22,0.89c1.93,0,3.42-0.63,4.48-1.9C298.11,46.81,298.64,45.01,298.64,42.67z"/>
			<path d="M317.62,40.87l-2.84,12.22h-5.13l-5.32-20.64h4.38l2.87,12.64c0.13,0.54,0.27,1.16,0.42,1.86s0.28,1.39,0.37,2.05
				c0.1-0.46,0.19-0.91,0.27-1.34c0.08-0.44,0.17-0.87,0.26-1.29c0.09-0.43,0.18-0.85,0.28-1.27l2.92-12.66h4.83l2.89,12.2
				c0.1,0.41,0.22,1.01,0.36,1.79c0.14,0.78,0.28,1.64,0.4,2.56c0.13-0.57,0.24-1.07,0.34-1.5c0.1-0.43,0.21-0.87,0.31-1.3
				c0.1-0.44,0.21-0.93,0.33-1.49l2.65-12.26h4.38l-5.33,20.64h-5.13l-2.8-11.94c-0.17-0.7-0.32-1.42-0.47-2.15s-0.28-1.48-0.4-2.26
				c-0.08,0.42-0.18,0.91-0.29,1.48s-0.23,1.09-0.33,1.58C317.75,40.29,317.67,40.65,317.62,40.87z"/>
		</g>
	</g>
	<text transform="matrix(1 0 0 1 207.3847 85.8472)" font-family="'Arimo-Medium'" font-size="12px">Multi Container Setup</text>
	<text transform="matrix(1 0 0 1 72.7719 83.1897)" font-family="'Arimo-Medium'" font-size="9px">Create/change features</text>
	<text transform="matrix(1 0 0 1 225.851 112.235)" font-family="'Arimo-Medium'" font-size="9px">Push code to Github</text>
	<text transform="matrix(1 0 0 1 72.7721 111.3008)" font-family="'Arimo-Medium'" font-size="9px">On a non-master branch</text>
	<rect x="20.53" y="66.57" fill="none" stroke="#000000" stroke-miterlimit="10" width="158.87" height="54.61"/>
	<rect x="195.53" y="95.17" fill="none" stroke="#000000" stroke-miterlimit="10" width="147.42" height="27.31"/>
	<text transform="matrix(1 0 0 1 207.3849 146.2409)" font-family="'Arimo-Medium'" font-size="9px">Travis automatically pulls repo</text>
	<rect x="195.53" y="129.18" fill="none" stroke="#000000" stroke-miterlimit="10" width="147.42" height="27.31"/>
	<text transform="matrix(1 0 0 1 201.2349 181.6985)" font-family="'Arimo-Medium'" font-size="8px">Travis builds a test image, tests code</text>
	<rect x="195.53" y="164.64" fill="none" stroke="#000000" stroke-miterlimit="10" width="147.42" height="27.31"/>
	<text transform="matrix(1 0 0 1 219.6612 216.5172)" font-family="'Arimo-Medium'" font-size="9px">Travis builds prod images</text>
	<rect x="195.53" y="199.46" fill="none" stroke="#000000" stroke-miterlimit="10" width="147.42" height="27.31"/>
	<text transform="matrix(1 0 0 1 222.371 246.1144)"><tspan x="0" y="0" font-family="'Arimo-Medium'" font-size="8px">Travis pushes built prod </tspan><tspan x="4.44" y="9.6" font-family="'Arimo-Medium'" font-size="8px">images to Docker Hub</tspan></text>
	<rect x="195.53" y="233.46" fill="none" stroke="#000000" stroke-miterlimit="10" width="147.42" height="27.31"/>
	<text transform="matrix(1 0 0 1 201.385 285.9809)" font-family="'Arimo-Medium'" font-size="9px">Travis pushes project to AWS EB</text>
	<rect x="195.53" y="268.92" fill="none" stroke="#000000" stroke-miterlimit="10" width="147.42" height="27.31"/>
	<text transform="matrix(1 0 0 1 229.2886 316.0301)"><tspan x="0" y="0" font-family="'Arimo-Medium'" font-size="8px">EB pulls images from </tspan><tspan x="1.93" y="9.6" font-family="'Arimo-Medium'" font-size="8px">Docker Hub, deploys</tspan></text>
	<rect x="195.53" y="304.38" fill="none" stroke="#000000" stroke-miterlimit="10" width="147.42" height="27.31"/>
	<rect x="20.53" y="66.57" width="45.91" height="54.61"/>
	<text transform="matrix(1 0 0 1 27.0211 100.8268)" fill="#FFFFFF" font-family="'Arimo-Medium'" font-size="18px">Dev</text>
	<line fill="none" stroke="#000000" stroke-miterlimit="10" x1="66.44" y1="93.87" x2="179.4" y2="93.87"/>
	<text transform="matrix(1 0 0 1 72.7719 201.926)" font-family="'Arimo-Medium'" font-size="9px">Code pushed to TravisCI</text>
	<text transform="matrix(1 0 0 1 72.7721 230.037)" font-family="'Arimo-Medium'" font-size="9px">Tests run</text>
	<rect x="20.53" y="185.3" fill="none" stroke="#000000" stroke-miterlimit="10" width="158.87" height="54.61"/>
	<rect x="20.53" y="185.3" width="45.91" height="54.61"/>
	<text transform="matrix(1 0 0 1 26.0211 218.563)" fill="#FFFFFF" font-family="'Arimo-Medium'" font-size="18px">Test</text>
	<line fill="none" stroke="#000000" stroke-miterlimit="10" x1="66.44" y1="212.61" x2="179.4" y2="212.61"/>
	<text transform="matrix(1 0 0 1 72.7719 324.8305)" font-family="'Arimo-Medium'" font-size="9px">Tests run</text>
	<text transform="matrix(1 0 0 1 72.7719 298.1029)" font-family="'Arimo-Medium'" font-size="9px">Code pushed to TravisCI</text>
	<text transform="matrix(1 0 0 1 72.7721 352.9414)" font-family="'Arimo-Medium'" font-size="9px">Deploy to AWS</text>
	<text transform="matrix(1 0 0 1 193.533 361.1044)" font-family="'Arimo-Medium'" font-size="9px">Flow</text>
	<rect x="20.53" y="281.99" fill="none" stroke="#000000" stroke-miterlimit="10" width="158.87" height="80.83"/>
	<rect x="20.53" y="281.99" width="45.91" height="80.83"/>
	<text transform="matrix(1 0 0 1 24.0211 341.4674)" fill="#FFFFFF" font-family="'Arimo-Medium'" font-size="18px">Prod</text>
	<line fill="none" stroke="#000000" stroke-miterlimit="10" x1="66.44" y1="335.51" x2="179.4" y2="335.51"/>
	<line fill="none" stroke="#000000" stroke-miterlimit="10" x1="66.44" y1="306.62" x2="179.4" y2="306.62"/>
	<rect x="66.44" y="130.97" fill="#E6E7E8" width="75.26" height="19.5"/>
	<text transform="matrix(1 0 0 1 72.917 143.4802)" font-family="'Arimo-Medium'" font-size="7px">Push to Github</text>
	<rect x="66.44" y="156.64" fill="#E6E7E8" width="75.26" height="19.5"/>
	<text transform="matrix(1 0 0 1 72.7896 164.8939)"><tspan x="0" y="0" font-family="'Arimo-Medium'" font-size="7px">Create Pull Request </tspan><tspan x="0" y="8.4" font-family="'Arimo-Medium'" font-size="7px">to merge with master</tspan></text>
	<rect x="66.44" y="251.2" fill="#E6E7E8" width="75.26" height="19.5"/>
	<text transform="matrix(1 0 0 1 72.7896 259.4586)"><tspan x="0" y="0" font-family="'Arimo-Medium'" font-size="7px">Merge Pull Request</tspan><tspan x="0" y="8.4" font-family="'Arimo-Medium'" font-size="7px">with master</tspan></text>
	<g>
		<g>
			<line fill="none" stroke="#000000" stroke-miterlimit="10" x1="104.07" y1="121.18" x2="104.07" y2="130.32"/>
			<g>
				<polygon points="101.61,128.33 102.05,127.92 104.07,130.09 106.08,127.92 106.52,128.33 104.07,130.97 				"/>
			</g>
		</g>
	</g>
	<g>
		<g>
			<line fill="none" stroke="#000000" stroke-miterlimit="10" x1="104.07" y1="176.14" x2="104.07" y2="184.17"/>
			<g>
				<polygon points="101.61,182.18 102.05,181.77 104.07,183.94 106.08,181.77 106.52,182.18 104.07,184.82 				"/>
			</g>
		</g>
	</g>
	<g>
		<g>
			<line fill="none" stroke="#000000" stroke-miterlimit="10" x1="104.07" y1="239.84" x2="104.07" y2="250.55"/>
			<g>
				<polygon points="101.61,248.56 102.05,248.15 104.07,250.32 106.08,248.15 106.52,248.56 104.07,251.2 				"/>
			</g>
		</g>
	</g>
	<g>
		<g>
			<line fill="none" stroke="#000000" stroke-miterlimit="10" x1="104.07" y1="270.71" x2="104.07" y2="281.34"/>
			<g>
				<polygon points="101.61,279.35 102.05,278.94 104.07,281.11 106.08,278.94 106.52,279.35 104.07,281.99 				"/>
			</g>
		</g>
	</g>
	<g>
		<g>
			<line fill="none" stroke="#000000" stroke-miterlimit="10" x1="104.07" y1="150.48" x2="104.07" y2="155.99"/>
			<g>
				<polygon points="101.61,154 102.05,153.59 104.07,155.76 106.08,153.59 106.52,154 104.07,156.64 				"/>
			</g>
		</g>
	</g>
	<g>
		<g>
			<line fill="none" stroke="#000000" stroke-miterlimit="10" x1="186.25" y1="66.57" x2="186.25" y2="355.64"/>
			<g>
				<polygon points="181.26,354.18 186.25,362.82 191.23,354.18 				"/>
			</g>
		</g>
	</g>
</g>
<g id="template">
</g>
<g id="portfolio">
</g>
<g id="docker">
</g>
<g id="Layer_1">
</g>
<g id="Layer_2">
</g>
<g id="Layer_3">
</g>
<g id="logo">
</g>
</svg>
