<?xml version="1.0" encoding="utf-8"?>
<!-- Generator: Adobe Illustrator 24.1.0, SVG Export Plug-In . SVG Version: 6.00 Build 0)  -->
<svg version="1.1" xmlns="http://www.w3.org/2000/svg" xmlns:xlink="http://www.w3.org/1999/xlink" x="0px" y="0px"
	 viewBox="0 0 360.28 383.06" enable-background="new 0 0 360.28 383.06" xml:space="preserve">
<g id="Layer_4">
</g>
<g id="portfolio_x5F_output">
	<g>
		<rect y="13.33" fill="#FFFFFF" width="360.28" height="369.73"/>
	</g>
	<g>
		<path fill="#282829" d="M360.28,0H7.09C3.17,0,0,3.17,0,7.09v6.24h360.28"/>
	</g>
	<g>
		<circle fill="#EE1C24" cx="9.02" cy="6.67" r="3.14"/>
	</g>
	<g>
		<circle fill="#41B652" cx="28.78" cy="6.67" r="3.14"/>
	</g>
	<g>
		<circle fill="#FFC02D" cx="18.9" cy="6.67" r="3.14"/>
	</g>
	<g>
		<rect x="-1.21" fill="none" width="361.49" height="383.06"/>
	</g>
	<rect x="122.17" y="259.97" fill="#FEDAC1" width="104.27" height="57.23"/>
	<rect x="246.02" y="259.97" fill="#D9F1FB" width="104.27" height="57.23"/>
	<polygon fill="#EFF5DF" points="184.15,121.46 184.15,172.4 9.99,172.4 9.99,317.2 116.22,317.2 116.22,247.38 298.15,247.38 
		298.15,121.46 	"/>
	<path fill="#E6E7E8" stroke="#000000" stroke-miterlimit="10" d="M250.14,106.4H167c-3.02,0-5.47-2.45-5.47-5.47V85.74
		c0-3.02,2.45-5.47,5.47-5.47h83.14c3.02,0,5.47,2.45,5.47,5.47v15.19C255.61,103.95,253.16,106.4,250.14,106.4z"/>
	<g>
		<rect x="17.53" y="79.77" fill="#FFFFFF" width="130.88" height="81.85"/>
		<path d="M147.91,80.27v80.85H18.03V80.27H147.91 M148.91,79.27h-1H18.03h-1v1v80.85v1h1h129.88h1v-1V80.27V79.27L148.91,79.27z"/>
	</g>
	<rect x="18.03" y="104.13" fill="#E6E7E8" width="129.88" height="17.33"/>
	<rect x="18.03" y="80.27" width="129.88" height="7.26"/>
	<text transform="matrix(1 0 0 1 226.4364 146.45)" font-family="'Arimo-Medium'" font-size="18px">Nginx</text>
	<rect x="199.94" y="128.07" width="76.57" height="34.26"/>
	<circle fill="#EE1C24" cx="22.65" cy="83.58" r="2.43"/>
	<circle fill="#41B652" cx="37.94" cy="83.58" r="2.43"/>
	<circle fill="#FFC02D" cx="30.29" cy="83.58" r="2.43"/>
	<text transform="matrix(1 0 0 1 50.0782 101.8944)" font-family="'Arimo-Medium'" font-size="10px">Fib Calculator</text>
	<text transform="matrix(1 0 0 1 23.6495 334.9768)"><tspan x="0" y="0" fill="#6D6E71" font-family="'Arimo-Medium'" font-size="10px">Elastic Beanstalk</tspan><tspan x="0" y="12" fill="#6D6E71" font-family="'Arimo-Medium'" font-size="10px">(EB)</tspan></text>
	<text transform="matrix(1 0 0 1 142.9325 334.9772)"><tspan x="0" y="0" fill="#6D6E71" font-family="'Arimo-Medium'" font-size="10px">Elastic Cache</tspan><tspan x="0" y="12" fill="#6D6E71" font-family="'Arimo-Medium'" font-size="10px">(EC)</tspan></text>
	<text transform="matrix(1 0 0 1 105.4671 370.9147)" fill="#6D6E71" font-family="'Arimo-Medium'" font-size="10px">Security Group (Firewall Rules)</text>
	<text transform="matrix(1 0 0 1 251.0262 334.9772)"><tspan x="0" y="0" fill="#6D6E71" font-family="'Arimo-Medium'" font-size="10px">Relational Database </tspan><tspan x="0" y="12" fill="#6D6E71" font-family="'Arimo-Medium'" font-size="10px">Service (RDS)</tspan></text>
	<text transform="matrix(1 0 0 1 184.1524 97.1062)" font-family="'Arimo-Medium'" font-size="10px">Production</text>
	<text transform="matrix(1 0 0 1 214.116 150.6452)" fill="#FFFFFF" font-family="'Arimo-Medium'" font-size="18px">Nginx</text>
	<text transform="matrix(1 0 0 1 102.2922 223.7451)" font-family="'Arimo-Medium'" font-size="18px">Nginx</text>
	<rect x="75.79" y="205.36" width="76.57" height="34.26"/>
	<text transform="matrix(1 0 0 1 89.9717 227.9403)" fill="#FFFFFF" font-family="'Arimo-Medium'" font-size="18px">React</text>
	<text transform="matrix(1 0 0 1 162.1367 288.1825)" font-family="'Arimo-Medium'" font-size="18px">Nginx</text>
	<rect x="135.64" y="269.8" width="76.57" height="34.26"/>
	<text transform="matrix(1 0 0 1 149.8162 292.3776)" fill="#FFFFFF" font-family="'Arimo-Medium'" font-size="18px">Redis</text>
	<text transform="matrix(1 0 0 1 46.7238 289.4395)" font-family="'Arimo-Medium'" font-size="18px">Nginx</text>
	<rect x="20.22" y="271.05" width="76.57" height="34.26"/>
	<text transform="matrix(1 0 0 1 30.408 293.6347)" fill="#FFFFFF" font-family="'Arimo-Medium'" font-size="18px">Worker</text>
	<text transform="matrix(1 0 0 1 226.4364 223.6818)" font-family="'Arimo-Medium'" font-size="18px">R</text>
	<rect x="199.94" y="205.3" width="76.57" height="34.26"/>
	<text transform="matrix(1 0 0 1 208.5733 227.8768)" fill="#FFFFFF" font-family="'Arimo-Medium'" font-size="16px">Express</text>
	<rect x="259.87" y="269.8" width="76.57" height="34.26"/>
	<text transform="matrix(1 0 0 1 266.5043 292.3776)" fill="#FFFFFF" font-family="'Arimo-Medium'" font-size="16px">Postgres</text>
	<text transform="matrix(1 0 0 1 40.3651 115.6529)" font-family="'Arimo-Medium'" font-size="7px">Index</text>
	<text transform="matrix(1 0 0 1 40.3649 128.065)" font-family="'Arimo-Medium'" font-size="6px">Seen Indices: 5 7 10</text>
	<text transform="matrix(1 0 0 1 40.3651 137.1156)" font-family="'Arimo-Medium'" font-size="6px">Calculated Values: </text>
	
		<rect x="100.71" y="108.06" fill="#FFFFFF" stroke="#000000" stroke-width="0.75" stroke-miterlimit="10" width="26.74" height="10.08"/>
	
		<rect x="63.24" y="108.06" fill="#FFFFFF" stroke="#000000" stroke-width="0.75" stroke-miterlimit="10" width="33.88" height="10.08"/>
	<text transform="matrix(1 0 0 1 102.9842 115.6531)" font-family="'Arimo-Medium'" font-size="7px">Submit</text>
	<text transform="matrix(1 0 0 1 93.9631 137.1156)"><tspan x="0" y="0" font-family="'Arimo-Medium'" font-size="6px">10: 89</tspan><tspan x="0" y="7.2" font-family="'Arimo-Medium'" font-size="6px">7: 21</tspan><tspan x="0" y="14.4" font-family="'Arimo-Medium'" font-size="6px">5: 8</tspan></text>
	<g>
		<g>
			<line fill="none" stroke="#000000" stroke-miterlimit="10" x1="199.94" y1="146.45" x2="155.08" y2="146.45"/>
			<g>
				<polygon points="156.54,141.46 147.91,146.45 156.54,151.44 				"/>
			</g>
		</g>
	</g>
	<g>
		<g>
			<line fill="none" stroke="#000000" stroke-miterlimit="10" x1="152.36" y1="222.42" x2="192.76" y2="222.48"/>
			<g>
				<polygon points="191.29,227.46 199.94,222.49 191.31,217.49 				"/>
			</g>
		</g>
	</g>
	<g>
		<g>
			<line fill="none" stroke="#000000" stroke-miterlimit="10" x1="250.03" y1="162.32" x2="250.03" y2="198.12"/>
			<g>
				<polygon points="245.04,196.66 250.03,205.3 255.01,196.66 				"/>
			</g>
		</g>
	</g>
	<g>
		<g>
			<polyline fill="none" stroke="#000000" stroke-miterlimit="10" points="233.18,162.32 233.18,181.76 114.08,181.76 
				114.08,198.18 			"/>
			<g>
				<polygon points="109.09,196.73 114.08,205.36 119.06,196.73 				"/>
			</g>
		</g>
	</g>
	<g>
		<g>
			<polyline fill="none" stroke="#000000" stroke-miterlimit="10" points="226.44,239.62 226.44,254.83 173.92,254.83 
				173.92,262.62 			"/>
			<g>
				<polygon points="168.94,261.16 173.92,269.8 178.91,261.16 				"/>
			</g>
		</g>
	</g>
	<g>
		<g>
			<polyline fill="none" stroke="#000000" stroke-miterlimit="10" points="250.03,239.62 250.03,254.71 298.15,254.71 
				298.15,262.62 			"/>
			<g>
				<polygon points="293.17,261.16 298.15,269.8 303.14,261.16 				"/>
			</g>
		</g>
	</g>
	<g>
		<g>
			<line fill="none" stroke="#000000" stroke-miterlimit="10" x1="96.79" y1="279.09" x2="128.46" y2="279.09"/>
			<g>
				<polygon points="127,284.08 135.64,279.09 127,274.1 				"/>
			</g>
		</g>
	</g>
	<g>
		<g>
			<line fill="none" stroke="#000000" stroke-miterlimit="10" x1="135.64" y1="293.63" x2="103.97" y2="293.63"/>
			<g>
				<polygon points="105.43,288.65 96.79,293.63 105.43,298.62 				"/>
			</g>
		</g>
	</g>
	<g>
		<g>
			<path d="M36.18,43.83c0,2.21-0.43,4.09-1.28,5.65c-0.85,1.56-2.04,2.76-3.54,3.58c-1.51,0.83-3.25,1.24-5.22,1.24h-8.35V33.66
				h7.47c3.48,0,6.17,0.88,8.07,2.63S36.18,40.56,36.18,43.83z M31.83,43.83c0-2.22-0.58-3.91-1.73-5.08S27.31,37,25.17,37H22.1
				v13.96h3.66c1.24,0,2.31-0.29,3.21-0.87c0.9-0.58,1.61-1.4,2.1-2.47S31.83,45.29,31.83,43.83z"/>
			<path d="M56.28,50.96v3.34H39.45V33.66h16.23V37H43.77v5.19h11.02v3.34H43.77v5.43H56.28z"/>
			<path d="M76.44,40.2c0,1.34-0.31,2.52-0.92,3.55c-0.61,1.03-1.48,1.84-2.6,2.42s-2.46,0.87-4.01,0.87h-5.13v7.27h-4.32V33.66
				h9.27c2.47,0,4.37,0.57,5.71,1.71C75.77,36.51,76.44,38.12,76.44,40.2z M72.08,40.27c0-2.17-1.28-3.25-3.84-3.25h-4.47v6.69h4.58
				c1.19,0,2.11-0.29,2.75-0.89S72.08,41.38,72.08,40.27z"/>
			<path d="M94.86,50.96v3.34h-15.4V33.66h4.32v17.3H94.86z"/>
			<path d="M117.86,43.89c0,2.15-0.43,4.03-1.3,5.63c-0.87,1.61-2.08,2.85-3.65,3.74c-1.57,0.89-3.4,1.33-5.51,1.33
				c-2.16,0-4.01-0.43-5.57-1.3s-2.74-2.1-3.57-3.7s-1.25-3.51-1.25-5.71s0.41-4.1,1.24-5.67c0.82-1.57,2.02-2.78,3.57-3.61
				c1.56-0.83,3.43-1.25,5.6-1.25c2.19,0,4.06,0.42,5.61,1.27s2.74,2.05,3.57,3.62S117.86,41.7,117.86,43.89z M113.45,43.89
				c0-2.23-0.53-3.97-1.58-5.24s-2.53-1.9-4.44-1.9c-1.93,0-3.43,0.63-4.48,1.88s-1.58,3-1.58,5.25c0,1.5,0.24,2.8,0.73,3.9
				s1.18,1.94,2.09,2.53c0.9,0.59,1.98,0.89,3.22,0.89c1.93,0,3.42-0.63,4.47-1.9C112.93,48.02,113.45,46.22,113.45,43.89z"/>
			<path d="M131.29,45.84v8.47h-4.31v-8.47l-7.35-12.17h4.53l4.95,8.73l5.01-8.73h4.53L131.29,45.84z"/>
			<path d="M144.98,41.79V54.3h-3.84V33.66h5.79l3.69,11.54c0.17,0.64,0.34,1.29,0.51,1.94s0.35,1.3,0.51,1.94
				c0.11-0.37,0.21-0.74,0.31-1.11s0.2-0.74,0.3-1.11c0.1-0.37,0.21-0.74,0.31-1.1l3.79-12.11h5.76V54.3h-3.84V41.79
				c0-0.28,0.01-0.85,0.04-1.71c0.02-0.85,0.06-1.79,0.11-2.79c-0.34,1.31-0.64,2.42-0.9,3.34c-0.26,0.92-0.47,1.64-0.64,2.15
				l-3.72,11.51h-3.08l-3.72-11.51l-1.57-5.49c0.06,1.13,0.1,2.07,0.13,2.82S144.98,41.42,144.98,41.79z"/>
			<path d="M182.96,50.96v3.34h-16.83V33.66h16.23V37h-11.91v5.19h11.02v3.34h-11.02v5.43H182.96z"/>
			<path d="M189.98,42.13V54.3h-3.84V33.66h4.94l9.12,16.03c-0.18-1.48-0.26-2.83-0.26-4.03v-12h3.84V54.3h-5.07l-8.99-15.89
				c0.09,0.77,0.15,1.47,0.2,2.09C189.95,41.12,189.98,41.66,189.98,42.13z"/>
			<path d="M217.12,37v17.3h-4.32V37h-6.66v-3.34h17.67V37H217.12z"/>
		</g>
	</g>
	<path fill="none" stroke="#808285" stroke-width="0.75" stroke-miterlimit="10" d="M333.2,354.11H27.07
		c-9.44,0-17.08-7.65-17.08-17.08v0c0-9.44,7.65-17.08,17.08-17.08H333.2c9.44,0,17.08,7.65,17.08,17.08v0
		C350.29,346.46,342.64,354.11,333.2,354.11z"/>
	<g>
		<g>
			
				<line fill="none" stroke="#808285" stroke-width="0.75" stroke-miterlimit="10" x1="168.63" y1="361.97" x2="168.63" y2="356.8"/>
			<g>
				<polygon fill="#808285" points="170.5,357.34 168.63,354.11 166.76,357.34 				"/>
			</g>
		</g>
	</g>
</g>
<g id="template">
</g>
<g id="portfolio">
</g>
<g id="docker">
</g>
<g id="Layer_1">
</g>
<g id="Layer_2">
</g>
<g id="Layer_3">
</g>
<g id="logo">
</g>
</svg>
