<?xml version="1.0" encoding="utf-8"?>
<!-- Generator: Adobe Illustrator 24.1.0, SVG Export Plug-In . SVG Version: 6.00 Build 0)  -->
<svg version="1.1" xmlns="http://www.w3.org/2000/svg" xmlns:xlink="http://www.w3.org/1999/xlink" x="0px" y="0px"
	 viewBox="0 0 360.28 383.06" enable-background="new 0 0 360.28 383.06" xml:space="preserve">
<g id="Layer_4">
</g>
<g id="portfolio_x5F_output">
	<g>
		<rect x="0" y="13.33" fill="#FFFFFF" width="360.28" height="369.73"/>
	</g>
	<g>
		<path fill="#282829" d="M360.28,0H7.09C3.17,0,0,3.17,0,7.09v6.24h360.28"/>
	</g>
	<g>
		<circle fill="#ED1C24" cx="9.02" cy="6.67" r="3.14"/>
	</g>
	<g>
		<circle fill="#42B649" cx="28.78" cy="6.67" r="3.14"/>
	</g>
	<g>
		<circle fill="#FEC00F" cx="18.9" cy="6.67" r="3.14"/>
	</g>
	<g>
		<rect x="-1.21" y="0" fill="none" width="361.49" height="383.06"/>
	</g>
	<g>
		<path d="M68.51,187.72c0,2.21-0.43,4.09-1.28,5.65s-2.04,2.76-3.54,3.58c-1.51,0.83-3.25,1.24-5.22,1.24h-8.35v-20.64h7.47
			c3.48,0,6.17,0.88,8.07,2.63S68.51,184.45,68.51,187.72z M64.16,187.72c0-2.22-0.58-3.91-1.73-5.08s-2.8-1.75-4.94-1.75h-3.06
			v13.96h3.66c1.24,0,2.31-0.29,3.21-0.87s1.6-1.4,2.1-2.47S64.16,189.18,64.16,187.72z"/>
		<path d="M88.61,194.85v3.34H71.78v-20.64h16.23v3.34H76.1v5.19h11.02v3.34H76.1v5.43H88.61z"/>
		<path d="M108.62,192.25c0,2.02-0.75,3.57-2.25,4.64c-1.5,1.07-3.7,1.6-6.6,1.6c-5.22,0-8.27-1.89-9.13-5.67l4.17-0.69
			c0.28,1.09,0.83,1.89,1.66,2.38s1.96,0.74,3.41,0.74c1.51,0,2.65-0.23,3.4-0.69s1.13-1.15,1.13-2.07c0-0.59-0.17-1.07-0.51-1.45
			s-0.83-0.7-1.46-0.95c-0.31-0.13-0.77-0.27-1.38-0.42s-1.36-0.32-2.26-0.5c-1.04-0.24-1.85-0.45-2.43-0.62s-1.05-0.34-1.41-0.5
			s-0.69-0.34-1.03-0.53c-0.73-0.44-1.3-1.03-1.71-1.76s-0.62-1.65-0.62-2.74c0-1.87,0.7-3.29,2.1-4.29
			c1.4-0.99,3.44-1.49,6.12-1.49c2.56,0,4.48,0.4,5.76,1.2s2.11,2.12,2.48,3.97l-4.19,0.57c-0.21-0.89-0.65-1.56-1.31-2.01
			c-0.66-0.45-1.6-0.67-2.83-0.67c-1.31,0-2.29,0.21-2.94,0.62s-0.98,1.03-0.98,1.85c0,0.54,0.14,0.98,0.42,1.32
			c0.28,0.34,0.69,0.63,1.24,0.88c0.52,0.23,1.63,0.53,3.33,0.89c0.99,0.21,1.84,0.42,2.55,0.61s1.28,0.37,1.71,0.55
			c0.43,0.19,0.81,0.38,1.15,0.59c0.34,0.21,0.63,0.42,0.87,0.66c0.5,0.48,0.88,1.05,1.14,1.71S108.62,191.39,108.62,192.25z"/>
		<path d="M116.12,177.55v20.64h-4.32v-20.64H116.12z"/>
		<path d="M129.93,195.1c1.12,0,2.21-0.16,3.27-0.49s1.87-0.74,2.45-1.25v-2.86h-5.04v-3.19h8.99v7.59c-1.09,1.12-2.52,2-4.27,2.64
			c-1.75,0.63-3.59,0.95-5.52,0.95c-2.24,0-4.13-0.42-5.69-1.25s-2.74-2.05-3.55-3.65s-1.22-3.53-1.22-5.81c0-3.4,0.91-6,2.72-7.82
			s4.43-2.72,7.84-2.72c2.42,0,4.4,0.45,5.95,1.34s2.64,2.24,3.3,4.04l-3.98,1.2c-0.43-1.04-1.1-1.84-2.02-2.37s-2-0.81-3.24-0.81
			c-2.03,0-3.57,0.62-4.63,1.85s-1.58,2.99-1.58,5.29c0,2.33,0.54,4.14,1.63,5.41C126.43,194.47,127.96,195.1,129.93,195.1z"/>
		<path d="M147.3,186.02v12.17h-3.84v-20.64h4.94l9.13,16.03c-0.18-1.48-0.26-2.83-0.26-4.03v-12h3.84v20.64h-5.07l-8.99-15.89
			c0.09,0.77,0.15,1.47,0.2,2.09C147.28,185.01,147.3,185.55,147.3,186.02z"/>
	</g>
</g>
<g id="template">
</g>
<g id="portfolio">
</g>
<g id="docker">
</g>
<g id="Layer_1">
</g>
<g id="Layer_2">
</g>
<g id="Layer_3">
</g>
</svg>
