<?xml version="1.0" encoding="utf-8"?>
<!-- Generator: Adobe Illustrator 24.1.0, SVG Export Plug-In . SVG Version: 6.00 Build 0)  -->
<svg version="1.1" xmlns="http://www.w3.org/2000/svg" xmlns:xlink="http://www.w3.org/1999/xlink" x="0px" y="0px"
	 viewBox="0 0 361.49 383.06" enable-background="new 0 0 361.49 383.06" xml:space="preserve">
<g id="Layer_4">
</g>
<g id="portfolio_x5F_output">
	<g>
		<rect x="0.61" y="13.62" fill="#FFFFFF" width="360.28" height="369.73"/>
	</g>
	<g>
		<path d="M151.37,190.62v7.57h-4.32v-20.64h15.22v3.34h-10.9v6.39h10.56v3.34H151.37z"/>
		<path d="M169.69,190.36v7.84h-4.32v-20.64h10.31c2.46,0,4.36,0.53,5.7,1.59c1.34,1.06,2.01,2.58,2.01,4.56
			c0,1.45-0.41,2.69-1.23,3.74c-0.82,1.05-1.93,1.74-3.33,2.07l5.58,8.67h-4.86l-4.79-7.84H169.69z M179.04,183.88
			c0-0.99-0.32-1.73-0.95-2.23s-1.59-0.75-2.86-0.75h-5.54V187h5.65c1.21,0,2.13-0.27,2.75-0.82S179.04,184.87,179.04,183.88z"/>
		<path d="M207.11,187.78c0,2.15-0.43,4.03-1.3,5.63c-0.87,1.61-2.08,2.85-3.65,3.74c-1.57,0.89-3.41,1.33-5.51,1.33
			c-2.16,0-4.01-0.43-5.57-1.3c-1.55-0.87-2.74-2.1-3.57-3.7s-1.25-3.51-1.25-5.71s0.41-4.1,1.24-5.67
			c0.82-1.57,2.02-2.78,3.57-3.61c1.56-0.84,3.42-1.25,5.6-1.25c2.19,0,4.06,0.42,5.61,1.27c1.55,0.85,2.74,2.05,3.57,3.63
			S207.11,185.59,207.11,187.78z M202.7,187.78c0-2.23-0.53-3.97-1.58-5.24c-1.05-1.27-2.53-1.9-4.44-1.9
			c-1.93,0-3.43,0.63-4.48,1.88c-1.05,1.26-1.58,3.01-1.58,5.25c0,1.5,0.24,2.8,0.73,3.9s1.18,1.94,2.09,2.53
			c0.9,0.59,1.98,0.89,3.22,0.89c1.93,0,3.42-0.63,4.48-1.9C202.17,191.91,202.7,190.11,202.7,187.78z"/>
		<path d="M214.21,186.02v12.17h-3.84v-20.64h4.94l9.13,16.03c-0.18-1.48-0.26-2.83-0.26-4.03v-12h3.84v20.64h-5.07l-8.99-15.89
			c0.09,0.77,0.15,1.47,0.2,2.09C214.19,185.01,214.21,185.55,214.21,186.02z"/>
		<path d="M241.35,180.89v17.3h-4.32v-17.3h-6.67v-3.34h17.67v3.34H241.35z"/>
		<path d="M267.19,194.85v3.34h-16.83v-20.64h16.23v3.34h-11.91v5.19h11.02v3.34h-11.02v5.43H267.19z"/>
		<path d="M274.21,186.02v12.17h-3.84v-20.64h4.94l9.13,16.03c-0.18-1.48-0.26-2.83-0.26-4.03v-12h3.84v20.64h-5.07l-8.99-15.89
			c0.09,0.77,0.15,1.47,0.2,2.09C274.19,185.01,274.21,185.55,274.21,186.02z"/>
		<path d="M310.44,187.72c0,2.21-0.43,4.09-1.28,5.65s-2.04,2.76-3.54,3.58c-1.51,0.82-3.25,1.24-5.22,1.24h-8.35v-20.64h7.47
			c3.48,0,6.17,0.88,8.07,2.63C309.48,181.94,310.44,184.45,310.44,187.72z M306.08,187.72c0-2.22-0.58-3.91-1.73-5.08
			c-1.15-1.17-2.8-1.75-4.94-1.75h-3.06v13.96h3.66c1.24,0,2.31-0.29,3.21-0.87c0.9-0.58,1.6-1.4,2.1-2.47
			S306.08,189.18,306.08,187.72z"/>
	</g>
	<g>
		<path fill="#282829" d="M0,13.33h361.49V7.09c0-3.91-3.17-7.09-7.09-7.09L0,0"/>
	</g>
	<g>
		<rect y="0" fill="none" width="361.49" height="383.06"/>
	</g>
</g>
<g id="template">
</g>
<g id="portfolio">
</g>
<g id="docker">
</g>
<g id="Layer_1">
</g>
<g id="Layer_2">
</g>
<g id="Layer_3">
</g>
</svg>
