<?xml version="1.0" encoding="utf-8"?>
<!-- Generator: Adobe Illustrator 24.1.0, SVG Export Plug-In . SVG Version: 6.00 Build 0)  -->
<svg version="1.1" xmlns="http://www.w3.org/2000/svg" xmlns:xlink="http://www.w3.org/1999/xlink" x="0px" y="0px"
	 viewBox="0 0 360.28 383.06" enable-background="new 0 0 360.28 383.06" xml:space="preserve">
<g id="Layer_4">
</g>
<g id="portfolio_x5F_output">
	<g>
		<rect x="0" y="13.33" fill="#FFFFFF" width="360.28" height="369.73"/>
	</g>
	<g>
		<path fill="#282829" d="M360.28,0H7.09C3.17,0,0,3.17,0,7.09v6.24h360.28"/>
	</g>
	<g>
		<circle fill="#ED1C24" cx="9.02" cy="6.67" r="3.14"/>
	</g>
	<g>
		<circle fill="#42B649" cx="28.78" cy="6.67" r="3.14"/>
	</g>
	<g>
		<circle fill="#FEC00F" cx="18.9" cy="6.67" r="3.14"/>
	</g>
	<g>
		<rect x="-1.21" y="0" fill="none" width="361.49" height="383.06"/>
	</g>
	<g>
		<path d="M73.84,192.31c0,1.88-0.7,3.33-2.11,4.35s-3.36,1.54-5.86,1.54H55.55v-20.64h9.45c2.52,0,4.43,0.44,5.72,1.31
			c1.29,0.88,1.94,2.17,1.94,3.88c0,1.17-0.33,2.16-0.97,2.97c-0.65,0.8-1.64,1.35-2.97,1.63c1.67,0.2,2.94,0.72,3.82,1.57
			C73.4,189.77,73.84,190.9,73.84,192.31z M68.3,183.33c0-0.93-0.3-1.59-0.89-1.98s-1.47-0.59-2.63-0.59h-4.92v5.11h4.95
			c1.22,0,2.11-0.21,2.66-0.64C68.03,184.81,68.3,184.18,68.3,183.33z M69.51,191.97c0-1.93-1.39-2.9-4.16-2.9h-5.48v5.92h5.64
			c1.39,0,2.4-0.25,3.04-0.75C69.19,193.73,69.51,192.97,69.51,191.97z"/>
		<path d="M82.1,192.92l-1.83,5.27h-4.32l7.53-20.64h5.1l7.5,20.64H91.8l-1.83-5.27H82.1z M86.03,180.73
			c-0.1,0.39-0.23,0.86-0.41,1.41s-0.3,0.93-0.38,1.16l-2.17,6.37H89l-2.23-6.5c-0.14-0.4-0.26-0.81-0.38-1.22
			S86.16,181.13,86.03,180.73z"/>
		<path d="M108.51,195.09c2.62,0,4.43-1.31,5.43-3.93l3.76,1.42c-0.81,1.99-2,3.47-3.57,4.45c-1.57,0.97-3.44,1.46-5.63,1.46
			c-2.21,0-4.09-0.42-5.64-1.27c-1.55-0.85-2.74-2.07-3.55-3.67s-1.22-3.53-1.22-5.77c0-2.27,0.39-4.18,1.17-5.74
			s1.93-2.75,3.46-3.57c1.52-0.82,3.39-1.22,5.6-1.22c2.42,0,4.39,0.49,5.92,1.46c1.52,0.97,2.59,2.4,3.21,4.28l-3.81,1.04
			c-0.32-1.04-0.96-1.86-1.9-2.47c-0.94-0.61-2.05-0.92-3.33-0.92c-1.95,0-3.44,0.61-4.45,1.82c-1.01,1.21-1.52,2.98-1.52,5.32
			c0,1.58,0.23,2.92,0.7,4c0.46,1.08,1.15,1.91,2.05,2.47C106.1,194.81,107.21,195.09,108.51,195.09z"/>
		<path d="M124.86,190.66v7.53h-4.32v-20.64h4.32v9.36l9.3-9.36h5.04l-8.82,8.73l9.54,11.91h-5.1l-7.41-9.48L124.86,190.66z"/>
		<path d="M159.04,194.85v3.34h-16.83v-20.64h16.23v3.34h-11.91v5.19h11.02v3.34h-11.02v5.43H159.04z"/>
		<path d="M166.05,186.02v12.17h-3.84v-20.64h4.94l9.13,16.03c-0.18-1.48-0.26-2.83-0.26-4.03v-12h3.84v20.64h-5.07l-8.99-15.89
			c0.09,0.77,0.15,1.47,0.2,2.09C166.03,185.01,166.05,185.55,166.05,186.02z"/>
		<path d="M202.28,187.72c0,2.21-0.43,4.09-1.28,5.65s-2.04,2.76-3.54,3.58c-1.51,0.82-3.25,1.24-5.22,1.24h-8.35v-20.64h7.47
			c3.48,0,6.17,0.88,8.07,2.63C201.33,181.94,202.28,184.45,202.28,187.72z M197.93,187.72c0-2.22-0.58-3.91-1.73-5.08
			c-1.15-1.17-2.8-1.75-4.94-1.75h-3.06v13.96h3.66c1.24,0,2.31-0.29,3.21-0.87c0.9-0.58,1.6-1.4,2.1-2.47
			S197.93,189.18,197.93,187.72z"/>
	</g>
</g>
<g id="template">
</g>
<g id="portfolio">
</g>
<g id="docker">
</g>
<g id="Layer_1">
</g>
<g id="Layer_2">
</g>
<g id="Layer_3">
</g>
</svg>
