<?xml version="1.0" encoding="utf-8"?>
<!-- Generator: Adobe Illustrator 24.1.0, SVG Export Plug-In . SVG Version: 6.00 Build 0)  -->
<svg version="1.1" id="Layer_1" xmlns="http://www.w3.org/2000/svg" xmlns:xlink="http://www.w3.org/1999/xlink" x="0px" y="0px"
	 viewBox="0 0 391.9 227.4" style="enable-background:new 0 0 391.9 227.4;" xml:space="preserve">
<style type="text/css">
	.st0{fill:#FFFFFF;}
	.st1{fill:#414042;}
	.st2{fill:#E6E7E8;}
	.st3{fill:#ED1C24;}
	.st4{fill:#FFFFFF;stroke:#414042;stroke-miterlimit:10;}
	.st5{fill:none;stroke:#414042;stroke-miterlimit:10;}
	.st6{fill:none;}
	.st7{opacity:0.41;fill:#EF4136;enable-background:new    ;}
	.st8{opacity:0.18;fill:#EF4136;enable-background:new    ;}
	.st9{fill:#58595B;}
	.st10{fill:#6D6E71;}
	.st11{fill:none;stroke:#EF4136;stroke-miterlimit:10;}
	.st12{fill:#EF4136;}
	.st13{fill:#D1D3D4;}
	.st14{fill:#BCBEC0;}
	.st15{fill:#808285;}
	.st16{fill:#A7A9AC;}
	.st17{opacity:0.41;}
	.st18{opacity:0.18;}
	.st19{fill:none;stroke:#ED1C24;stroke-miterlimit:10;}
	.st20{fill:#F15A29;}
</style>
<g>
	<path class="st9" d="M354.9,65.2v128.9H21.8V65.2H354.9 M355.7,64.4H21.1v130.4h334.6V64.4L355.7,64.4z"/>
</g>
<g>
	<rect x="38.6" y="73.6" class="st10" width="30.7" height="21"/>
</g>
<g>
	<rect x="38.6" y="103.4" class="st2" width="30.7" height="21"/>
</g>
<g>
	<rect x="82.8" y="73.6" class="st10" width="58.2" height="21"/>
</g>
<g>
	<rect x="82.8" y="103.4" class="st2" width="58.2" height="21"/>
</g>
<g>
	<rect x="151.6" y="73.6" class="st10" width="45" height="21"/>
</g>
<g>
	<rect x="151.6" y="103.4" class="st2" width="45" height="21"/>
</g>
<g>
	<rect x="207.2" y="73.6" class="st10" width="63.3" height="21"/>
</g>
<g>
	<rect x="207.2" y="103.4" class="st2" width="63.3" height="21"/>
</g>
<g>
	<rect x="280.9" y="73.6" class="st10" width="61" height="21"/>
</g>
<g>
	<rect x="280.9" y="103.4" class="st2" width="61" height="21"/>
</g>
<g>
	<path d="M56,117v1.1h-5.1V117h1.9v-5.2L51,113v-1.2l1.9-1.2h1.4v6.5H56z"/>
</g>
<g>
	<path d="M173.6,116.9v1.2h-5.3v-1c0.1-0.3,0.3-0.6,0.5-0.9c0.2-0.3,0.4-0.6,0.7-0.8c0.3-0.3,0.6-0.6,1-0.9c0.3-0.2,0.5-0.4,0.7-0.6
		c0.2-0.2,0.3-0.3,0.4-0.5c0.1-0.1,0.2-0.3,0.2-0.4s0.1-0.3,0.1-0.4c0-0.3-0.1-0.6-0.2-0.7s-0.4-0.2-0.7-0.2c-0.3,0-0.6,0.1-0.7,0.3
		s-0.3,0.4-0.3,0.8l-1.5-0.1c0.1-0.7,0.4-1.2,0.8-1.6s1-0.5,1.8-0.5c0.8,0,1.4,0.2,1.9,0.6s0.6,0.9,0.6,1.6c0,0.4-0.1,0.7-0.2,1
		s-0.4,0.6-0.6,0.8c-0.2,0.2-0.4,0.4-0.7,0.6c-0.2,0.2-0.5,0.4-0.7,0.6c-0.2,0.2-0.5,0.4-0.7,0.6s-0.4,0.4-0.5,0.7L173.6,116.9
		L173.6,116.9z"/>
	<path d="M179.6,111.7c-0.3,0.5-0.7,1.1-1,1.6s-0.6,1-0.8,1.5c-0.2,0.5-0.4,1-0.5,1.6s-0.2,1.1-0.2,1.7h-1.6c0-0.6,0.1-1.1,0.2-1.6
		c0.1-0.5,0.3-1.1,0.6-1.6c0.2-0.4,0.4-0.8,0.7-1.3c0.3-0.5,0.7-1.1,1.2-1.8h-3.8v-1.2h5.2L179.6,111.7L179.6,111.7z"/>
</g>
<g>
	<rect x="151.6" y="133.2" class="st2" width="45" height="21"/>
</g>
<g>
	<path d="M173.6,146.7v1.2h-5.3v-1c0.1-0.3,0.3-0.6,0.5-0.9c0.2-0.3,0.4-0.6,0.7-0.8c0.3-0.3,0.6-0.6,1-0.9c0.3-0.2,0.5-0.4,0.7-0.6
		c0.2-0.2,0.3-0.3,0.4-0.5c0.1-0.1,0.2-0.3,0.2-0.4s0.1-0.3,0.1-0.4c0-0.3-0.1-0.6-0.2-0.7s-0.4-0.2-0.7-0.2c-0.3,0-0.6,0.1-0.7,0.3
		s-0.3,0.4-0.3,0.8l-1.5-0.1c0.1-0.7,0.4-1.2,0.8-1.6s1-0.5,1.8-0.5c0.8,0,1.4,0.2,1.9,0.6s0.6,0.9,0.6,1.6c0,0.4-0.1,0.7-0.2,1
		s-0.4,0.6-0.6,0.8c-0.2,0.2-0.4,0.4-0.7,0.6c-0.2,0.2-0.5,0.4-0.7,0.6c-0.2,0.2-0.5,0.4-0.7,0.6s-0.4,0.4-0.5,0.7L173.6,146.7
		L173.6,146.7z"/>
	<path d="M179.7,144c0,1.3-0.2,2.4-0.7,3s-1.2,1-2.1,1c-0.7,0-1.2-0.1-1.6-0.4c-0.4-0.3-0.6-0.7-0.8-1.4l1.4-0.2
		c0.1,0.5,0.5,0.8,1,0.8c0.4,0,0.8-0.2,1-0.6s0.3-1,0.4-1.8c-0.1,0.3-0.4,0.5-0.7,0.6s-0.6,0.2-1,0.2c-0.4,0-0.8-0.1-1.1-0.3
		c-0.3-0.2-0.6-0.5-0.8-0.9c-0.2-0.4-0.3-0.8-0.3-1.3c0-0.8,0.2-1.4,0.7-1.9s1.1-0.7,1.9-0.7c0.9,0,1.6,0.3,2,0.9
		C179.5,141.8,179.7,142.7,179.7,144z M178.1,142.9c0-0.5-0.1-0.8-0.3-1.1c-0.2-0.3-0.5-0.4-0.8-0.4c-0.3,0-0.6,0.1-0.8,0.4
		c-0.2,0.2-0.3,0.6-0.3,1s0.1,0.8,0.3,1c0.2,0.2,0.4,0.4,0.8,0.4c0.2,0,0.4,0,0.6-0.1s0.3-0.2,0.4-0.4S178.1,143.2,178.1,142.9z"/>
</g>
<g>
	<rect x="151.6" y="163" class="st2" width="45" height="21"/>
</g>
<g>
	<path d="M173.6,176.4v1.2h-5.3v-1c0.1-0.3,0.3-0.6,0.5-0.9c0.2-0.3,0.4-0.6,0.7-0.8c0.3-0.3,0.6-0.6,1-0.9c0.3-0.2,0.5-0.4,0.7-0.6
		c0.2-0.2,0.3-0.3,0.4-0.5c0.1-0.1,0.2-0.3,0.2-0.4s0.1-0.3,0.1-0.4c0-0.3-0.1-0.6-0.2-0.7s-0.4-0.2-0.7-0.2c-0.3,0-0.6,0.1-0.7,0.3
		s-0.3,0.4-0.3,0.8l-1.5-0.1c0.1-0.7,0.4-1.2,0.8-1.6s1-0.5,1.8-0.5c0.8,0,1.4,0.2,1.9,0.6s0.6,0.9,0.6,1.6c0,0.4-0.1,0.7-0.2,1
		s-0.4,0.6-0.6,0.8c-0.2,0.2-0.4,0.4-0.7,0.6c-0.2,0.2-0.5,0.4-0.7,0.6c-0.2,0.2-0.5,0.4-0.7,0.6s-0.4,0.4-0.5,0.7L173.6,176.4
		L173.6,176.4z"/>
	<path d="M179.8,175.2c0,0.8-0.2,1.4-0.8,1.9s-1.2,0.7-2.1,0.7c-0.8,0-1.4-0.2-1.8-0.5c-0.5-0.3-0.7-0.8-0.9-1.5l1.5-0.1
		c0.1,0.3,0.2,0.6,0.4,0.7s0.4,0.2,0.8,0.2c0.4,0,0.7-0.1,0.9-0.4s0.3-0.6,0.3-1c0-0.4-0.1-0.7-0.3-1c-0.2-0.2-0.5-0.4-0.9-0.4
		c-0.2,0-0.4,0-0.6,0.1c-0.2,0.1-0.3,0.2-0.5,0.4h-1.5l0.3-4.3h4.6v1.1h-3.2l-0.1,1.9c0.4-0.3,0.8-0.5,1.4-0.5
		c0.5,0,0.9,0.1,1.2,0.3c0.4,0.2,0.6,0.5,0.8,0.9S179.8,174.6,179.8,175.2z"/>
</g>
<g>
	<path d="M100.6,117c1,0,1.6-0.5,2-1.4l1.4,0.5c-0.3,0.7-0.7,1.3-1.3,1.6c-0.6,0.4-1.3,0.5-2.1,0.5s-1.5-0.1-2.1-0.5s-1-0.8-1.3-1.4
		s-0.4-1.3-0.4-2.1s0.1-1.5,0.4-2.1s0.7-1,1.3-1.3s1.2-0.5,2.1-0.5c0.9,0,1.6,0.2,2.2,0.5c0.6,0.4,0.9,0.9,1.2,1.6l-1.4,0.4
		c-0.1-0.4-0.3-0.7-0.7-0.9s-0.8-0.3-1.2-0.3c-0.7,0-1.3,0.2-1.6,0.7c-0.4,0.4-0.6,1.1-0.6,2c0,0.6,0.1,1.1,0.2,1.5s0.4,0.7,0.8,0.9
		C99.7,116.9,100.1,117,100.6,117z"/>
	<path d="M106.5,113.5c0.2-0.4,0.5-0.8,0.8-1s0.7-0.3,1.1-0.3c0.6,0,1.1,0.2,1.4,0.6s0.5,0.9,0.5,1.7v3.7h-1.5v-3.2
		c0-0.5-0.1-0.9-0.3-1.1s-0.4-0.4-0.8-0.4c-0.4,0-0.7,0.2-0.9,0.5s-0.3,0.7-0.3,1.2v3.1H105v-8h1.5v2.2c0,0.1,0,0.3,0,0.4
		c0,0.1,0,0.3,0,0.4C106.5,113.2,106.5,113.3,106.5,113.5L106.5,113.5L106.5,113.5z"/>
	<path d="M113.3,110.1v1.1h-1.5v-1.1H113.3z M113.3,112.3v5.8h-1.5v-5.8H113.3z"/>
	<path d="M116.2,118.2c-0.6,0-1-0.1-1.3-0.5s-0.5-0.7-0.5-1.3c0-0.6,0.2-1.1,0.6-1.4s1-0.5,1.7-0.5l1.2,0v-0.3
		c0-0.4-0.1-0.7-0.2-0.9c-0.1-0.2-0.4-0.3-0.6-0.3c-0.3,0-0.5,0.1-0.6,0.2c-0.1,0.1-0.2,0.3-0.2,0.6l-1.6-0.1c0.2-1.1,1-1.7,2.5-1.7
		c0.7,0,1.3,0.2,1.7,0.5s0.6,0.9,0.6,1.5v2.1c0,0.3,0,0.5,0.1,0.7c0.1,0.1,0.2,0.2,0.4,0.2c0.1,0,0.2,0,0.3,0v0.8
		c-0.2,0-0.4,0.1-0.5,0.1c-0.1,0-0.3,0-0.5,0c-0.4,0-0.7-0.1-0.8-0.3s-0.3-0.5-0.3-0.8h0c-0.2,0.4-0.5,0.7-0.8,0.9
		C117,118.1,116.6,118.2,116.2,118.2z M117.9,115.4l-0.8,0c-0.4,0-0.6,0.1-0.8,0.1c-0.1,0.1-0.3,0.2-0.3,0.3s-0.1,0.3-0.1,0.5
		c0,0.3,0.1,0.5,0.2,0.6c0.1,0.1,0.3,0.2,0.5,0.2c0.2,0,0.4-0.1,0.6-0.2c0.2-0.1,0.4-0.3,0.5-0.5c0.1-0.2,0.2-0.5,0.2-0.7V115.4z"/>
	<path d="M126.5,115.2c0,0.9-0.3,1.7-0.8,2.2s-1.2,0.8-2.2,0.8c-0.9,0-1.6-0.3-2.1-0.8s-0.8-1.3-0.8-2.2c0-0.9,0.3-1.7,0.8-2.2
		c0.5-0.5,1.2-0.8,2.2-0.8c0.9,0,1.7,0.3,2.2,0.8S126.5,114.2,126.5,115.2z M124.9,115.2c0-0.7-0.1-1.2-0.3-1.5s-0.6-0.5-1-0.5
		c-0.5,0-0.8,0.2-1,0.5s-0.3,0.8-0.3,1.5c0,0.6,0.1,1.1,0.3,1.5c0.2,0.3,0.6,0.5,1,0.5c0.5,0,0.8-0.2,1-0.5
		C124.8,116.4,124.9,115.9,124.9,115.2z"/>
</g>
<g>
	<path d="M225.5,114.9v3.2h-1.6v-7.6h1.6v3h3.3v-3h1.6v7.6h-1.6v-3.2H225.5z"/>
	<path d="M233.4,110.1v1.1h-1.5v-1.1H233.4z M233.4,112.3v5.8h-1.5v-5.8H233.4z"/>
	<path d="M236.5,115.9v2.2h-1.5v-8h1.5v4.6l2.1-2.4h1.6l-2,2.3l2.2,3.5h-1.6l-1.5-2.6L236.5,115.9z"/>
	<path d="M242.6,110.1v1.1h-1.5v-1.1H242.6z M242.6,112.3v5.8h-1.5v-5.8H242.6z"/>
	<path d="M245.6,115v3.1h-1.5v-4.5c0-0.3,0-0.6,0-0.8c0-0.2,0-0.4,0-0.5h1.4c0,0,0,0.1,0,0.3c0,0.2,0,0.3,0,0.5c0,0.2,0,0.3,0,0.4h0
		c0.2-0.4,0.5-0.8,0.8-1s0.7-0.3,1.1-0.3c0.6,0,1.1,0.2,1.4,0.6s0.5,0.9,0.5,1.7v3.7h-1.5v-3.3c0-0.5-0.1-0.9-0.3-1.1
		s-0.4-0.4-0.8-0.4c-0.4,0-0.7,0.2-0.9,0.5C245.7,114.1,245.6,114.5,245.6,115z"/>
	<path d="M253.3,120.4c-0.7,0-1.3-0.1-1.7-0.4s-0.7-0.7-0.8-1.2l1.5-0.2c0,0.2,0.2,0.4,0.4,0.5c0.2,0.1,0.4,0.2,0.7,0.2
		c0.4,0,0.7-0.1,0.9-0.4s0.3-0.6,0.3-1.1l0-0.9h0c-0.2,0.4-0.4,0.6-0.7,0.8c-0.3,0.2-0.7,0.3-1.1,0.3c-0.7,0-1.2-0.2-1.6-0.8
		s-0.6-1.2-0.6-2.2c0-1,0.2-1.7,0.6-2.2c0.4-0.5,0.9-0.8,1.7-0.8c0.4,0,0.8,0.1,1.1,0.3s0.5,0.4,0.7,0.8h0c0-0.1,0-0.2,0-0.3
		s0-0.2,0-0.4s0-0.2,0-0.2h1.4c0,0.4,0,0.8,0,1.3v4.3c0,0.8-0.2,1.5-0.7,1.9C254.8,120.2,254.2,120.4,253.3,120.4z M254.5,115.1
		c0-0.6-0.1-1.1-0.3-1.4c-0.2-0.3-0.5-0.5-0.9-0.5c-0.4,0-0.7,0.2-0.9,0.5s-0.3,0.8-0.3,1.5c0,0.6,0.1,1.1,0.3,1.4
		c0.2,0.3,0.5,0.5,0.9,0.5s0.7-0.2,0.9-0.5C254.4,116.2,254.5,115.7,254.5,115.1z"/>
</g>
<g>
	<rect x="207.2" y="133.2" class="st2" width="63.3" height="21"/>
</g>
<g>
	<path d="M225.5,144.7v3.2h-1.6v-7.6h1.6v3h3.3v-3h1.6v7.6h-1.6v-3.2H225.5z"/>
	<path d="M233.4,139.9v1.1h-1.5v-1.1H233.4z M233.4,142.1v5.8h-1.5v-5.8H233.4z"/>
	<path d="M236.5,145.7v2.2h-1.5v-8h1.5v4.6l2.1-2.4h1.6l-2,2.3l2.2,3.5h-1.6l-1.5-2.6L236.5,145.7z"/>
	<path d="M242.6,139.9v1.1h-1.5v-1.1H242.6z M242.6,142.1v5.8h-1.5v-5.8H242.6z"/>
	<path d="M245.6,144.8v3.1h-1.5v-4.5c0-0.3,0-0.6,0-0.8c0-0.2,0-0.4,0-0.5h1.4c0,0,0,0.1,0,0.3c0,0.2,0,0.3,0,0.5c0,0.2,0,0.3,0,0.4
		h0c0.2-0.4,0.5-0.8,0.8-1s0.7-0.3,1.1-0.3c0.6,0,1.1,0.2,1.4,0.6s0.5,0.9,0.5,1.7v3.7h-1.5v-3.3c0-0.5-0.1-0.9-0.3-1.1
		s-0.4-0.4-0.8-0.4c-0.4,0-0.7,0.2-0.9,0.5C245.7,143.9,245.6,144.3,245.6,144.8z"/>
	<path d="M253.3,150.2c-0.7,0-1.3-0.1-1.7-0.4s-0.7-0.7-0.8-1.2l1.5-0.2c0,0.2,0.2,0.4,0.4,0.5c0.2,0.1,0.4,0.2,0.7,0.2
		c0.4,0,0.7-0.1,0.9-0.4s0.3-0.6,0.3-1.1l0-0.9h0c-0.2,0.4-0.4,0.6-0.7,0.8c-0.3,0.2-0.7,0.3-1.1,0.3c-0.7,0-1.2-0.2-1.6-0.8
		s-0.6-1.2-0.6-2.2c0-1,0.2-1.7,0.6-2.2c0.4-0.5,0.9-0.8,1.7-0.8c0.4,0,0.8,0.1,1.1,0.3s0.5,0.4,0.7,0.8h0c0-0.1,0-0.2,0-0.3
		s0-0.2,0-0.4s0-0.2,0-0.2h1.4c0,0.4,0,0.8,0,1.3v4.3c0,0.8-0.2,1.5-0.7,1.9C254.8,150,254.2,150.2,253.3,150.2z M254.5,144.9
		c0-0.6-0.1-1.1-0.3-1.4c-0.2-0.3-0.5-0.5-0.9-0.5c-0.4,0-0.7,0.2-0.9,0.5s-0.3,0.8-0.3,1.5c0,0.6,0.1,1.1,0.3,1.4
		c0.2,0.3,0.5,0.5,0.9,0.5s0.7-0.2,0.9-0.5C254.4,146,254.5,145.5,254.5,144.9z"/>
</g>
<g>
	<rect x="207.2" y="163" class="st2" width="63.3" height="21"/>
</g>
<g>
	<path d="M225.5,174.4v3.2h-1.6v-7.6h1.6v3h3.3v-3h1.6v7.6h-1.6v-3.2H225.5z"/>
	<path d="M233.4,169.7v1.1h-1.5v-1.1H233.4z M233.4,171.9v5.8h-1.5v-5.8H233.4z"/>
	<path d="M236.5,175.5v2.2h-1.5v-8h1.5v4.6l2.1-2.4h1.6l-2,2.3l2.2,3.5h-1.6l-1.5-2.6L236.5,175.5z"/>
	<path d="M242.6,169.7v1.1h-1.5v-1.1H242.6z M242.6,171.9v5.8h-1.5v-5.8H242.6z"/>
	<path d="M245.6,174.6v3.1h-1.5v-4.5c0-0.3,0-0.6,0-0.8c0-0.2,0-0.4,0-0.5h1.4c0,0,0,0.1,0,0.3c0,0.2,0,0.3,0,0.5c0,0.2,0,0.3,0,0.4
		h0c0.2-0.4,0.5-0.8,0.8-1s0.7-0.3,1.1-0.3c0.6,0,1.1,0.2,1.4,0.6s0.5,0.9,0.5,1.7v3.7h-1.5v-3.3c0-0.5-0.1-0.9-0.3-1.1
		s-0.4-0.4-0.8-0.4c-0.4,0-0.7,0.2-0.9,0.5C245.7,173.7,245.6,174.1,245.6,174.6z"/>
	<path d="M253.3,180c-0.7,0-1.3-0.1-1.7-0.4s-0.7-0.7-0.8-1.2l1.5-0.2c0,0.2,0.2,0.4,0.4,0.5c0.2,0.1,0.4,0.2,0.7,0.2
		c0.4,0,0.7-0.1,0.9-0.4s0.3-0.6,0.3-1.1l0-0.9h0c-0.2,0.4-0.4,0.6-0.7,0.8c-0.3,0.2-0.7,0.3-1.1,0.3c-0.7,0-1.2-0.2-1.6-0.8
		s-0.6-1.2-0.6-2.2c0-1,0.2-1.7,0.6-2.2c0.4-0.5,0.9-0.8,1.7-0.8c0.4,0,0.8,0.1,1.1,0.3s0.5,0.4,0.7,0.8h0c0-0.1,0-0.2,0-0.3
		s0-0.2,0-0.4s0-0.2,0-0.2h1.4c0,0.4,0,0.8,0,1.3v4.3c0,0.8-0.2,1.5-0.7,1.9C254.8,179.8,254.2,180,253.3,180z M254.5,174.7
		c0-0.6-0.1-1.1-0.3-1.4c-0.2-0.3-0.5-0.5-0.9-0.5c-0.4,0-0.7,0.2-0.9,0.5s-0.3,0.8-0.3,1.5c0,0.6,0.1,1.1,0.3,1.4
		c0.2,0.3,0.5,0.5,0.9,0.5s0.7-0.2,0.9-0.5C254.4,175.8,254.5,175.3,254.5,174.7z"/>
</g>
<g>
	<rect x="82.8" y="133.2" class="st2" width="58.2" height="21"/>
</g>
<g>
	<path d="M101.6,146.8c1,0,1.6-0.5,2-1.4l1.4,0.5c-0.3,0.7-0.7,1.3-1.3,1.6c-0.6,0.4-1.3,0.5-2.1,0.5s-1.5-0.1-2.1-0.5
		s-1-0.8-1.3-1.4s-0.4-1.3-0.4-2.1s0.1-1.5,0.4-2.1s0.7-1,1.3-1.3s1.2-0.5,2.1-0.5c0.9,0,1.6,0.2,2.2,0.5c0.6,0.4,0.9,0.9,1.2,1.6
		l-1.4,0.4c-0.1-0.4-0.3-0.7-0.7-0.9s-0.8-0.3-1.2-0.3c-0.7,0-1.3,0.2-1.6,0.7c-0.4,0.4-0.6,1.1-0.6,2c0,0.6,0.1,1.1,0.2,1.5
		s0.4,0.7,0.8,0.9C100.7,146.7,101.1,146.8,101.6,146.8z"/>
	<path d="M107.5,143.2c0.2-0.4,0.5-0.8,0.8-1s0.7-0.3,1.1-0.3c0.6,0,1.1,0.2,1.4,0.6s0.5,0.9,0.5,1.7v3.7h-1.5v-3.3
		c0-0.5-0.1-0.9-0.3-1.1s-0.4-0.4-0.8-0.4c-0.4,0-0.7,0.2-0.9,0.5s-0.3,0.7-0.3,1.2v3.1H106v-8h1.5v2.2c0,0.1,0,0.3,0,0.4
		c0,0.1,0,0.3,0,0.4C107.5,143,107.5,143.1,107.5,143.2L107.5,143.2L107.5,143.2z"/>
	<path d="M114.3,145v2.9h-1.5v-4.5c0-0.3,0-0.6,0-0.8c0-0.2,0-0.4,0-0.6h1.4c0,0,0,0.1,0,0.2c0,0.1,0,0.2,0,0.4c0,0.1,0,0.3,0,0.4
		c0,0.1,0,0.2,0,0.3h0c0.1-0.4,0.3-0.7,0.4-0.9c0.1-0.2,0.2-0.3,0.4-0.4s0.4-0.1,0.6-0.1c0.2,0,0.4,0,0.5,0.1v1.3
		c-0.2,0-0.5-0.1-0.6-0.1c-0.4,0-0.7,0.1-0.9,0.5C114.4,144,114.3,144.4,114.3,145z"/>
	<path d="M118.6,139.9v1.1H117v-1.1H118.6z M118.6,142.1v5.8H117v-5.8H118.6z"/>
	<path d="M125,146.2c0,0.6-0.2,1-0.7,1.3s-1.1,0.5-1.9,0.5c-0.8,0-1.4-0.1-1.8-0.4s-0.7-0.6-0.9-1.2l1.3-0.2
		c0.1,0.3,0.2,0.5,0.4,0.6s0.5,0.2,1,0.2c0.4,0,0.7,0,0.9-0.2s0.3-0.3,0.3-0.5c0-0.2-0.1-0.3-0.2-0.4c-0.2-0.1-0.4-0.2-0.8-0.3
		c-0.3-0.1-0.5-0.1-0.8-0.2s-0.4-0.1-0.6-0.2c-0.2,0-0.3-0.1-0.4-0.1c-0.3-0.1-0.5-0.3-0.7-0.6c-0.2-0.2-0.2-0.5-0.2-0.9
		c0-0.6,0.2-1,0.6-1.3s1-0.5,1.8-0.5c0.7,0,1.2,0.1,1.7,0.4s0.7,0.7,0.8,1.2l-1.3,0.1c0-0.2-0.1-0.4-0.3-0.5
		c-0.2-0.1-0.4-0.2-0.8-0.2c-0.4,0-0.6,0-0.8,0.1c-0.2,0.1-0.3,0.2-0.3,0.5c0,0.2,0.1,0.3,0.2,0.4s0.4,0.2,0.7,0.2
		c0.4,0.1,0.9,0.2,1.2,0.3s0.6,0.2,0.9,0.4c0.2,0.1,0.4,0.3,0.5,0.5C124.9,145.6,125,145.9,125,146.2z"/>
</g>
<g>
	<rect x="82.8" y="163" class="st2" width="58.2" height="21"/>
</g>
<g>
	<path d="M100.7,174.9v2.8h-1.6v-7.6h1.6v3.4l3.4-3.4h1.9l-3.2,3.2l3.5,4.4h-1.9l-2.7-3.5L100.7,174.9z"/>
	<path d="M108.3,175.1c0,0.6,0.1,1,0.3,1.3c0.2,0.3,0.5,0.4,0.9,0.4c0.3,0,0.5-0.1,0.6-0.2c0.2-0.1,0.3-0.3,0.4-0.5l1.4,0.1
		c-0.4,1-1.2,1.6-2.5,1.6c-0.9,0-1.5-0.3-2-0.8s-0.7-1.3-0.7-2.3c0-1,0.2-1.7,0.7-2.2c0.5-0.5,1.1-0.8,2-0.8c0.8,0,1.5,0.3,1.9,0.8
		s0.7,1.4,0.7,2.4v0L108.3,175.1L108.3,175.1z M110.6,174.1c0-0.5-0.1-0.8-0.3-1.1c-0.2-0.2-0.5-0.4-0.8-0.4c-0.4,0-0.6,0.1-0.8,0.4
		s-0.3,0.6-0.3,1H110.6z"/>
	<path d="M114.7,169.7v8h-1.5v-8H114.7z"/>
	<path d="M117.7,169.7v8h-1.5v-8H117.7z"/>
	<path d="M120,180c-0.4,0-0.7,0-0.9-0.1v-1.1c0.2,0,0.4,0,0.5,0c0.4,0,0.6-0.1,0.8-0.3s0.3-0.5,0.5-1l-2.3-5.8h1.6l0.9,2.7
		c0.1,0.2,0.1,0.4,0.2,0.7s0.2,0.6,0.3,1c0.1-0.3,0.2-0.6,0.2-0.9s0.2-0.6,0.2-0.9l0.9-2.7h1.6l-2.3,6.1c-0.1,0.2-0.2,0.5-0.3,0.7
		c-0.1,0.2-0.2,0.4-0.3,0.5c-0.2,0.3-0.5,0.5-0.7,0.6C120.7,179.9,120.4,180,120,180z"/>
</g>
<g>
	<path d="M314.1,116c0,0.7-0.2,1.3-0.7,1.6c-0.5,0.4-1.1,0.6-2,0.6c-0.8,0-1.5-0.2-1.9-0.6s-0.8-0.9-0.8-1.6l1.5-0.1
		c0.1,0.7,0.5,1.1,1.2,1.1c0.4,0,0.6-0.1,0.8-0.3c0.2-0.2,0.3-0.5,0.3-0.8c0-0.3-0.1-0.6-0.4-0.8c-0.2-0.2-0.6-0.3-1.1-0.3h-0.5
		v-1.2h0.5c0.4,0,0.8-0.1,1-0.3s0.3-0.4,0.3-0.8c0-0.3-0.1-0.6-0.3-0.7c-0.2-0.2-0.4-0.3-0.8-0.3c-0.3,0-0.6,0.1-0.8,0.3
		s-0.3,0.4-0.3,0.7l-1.5-0.1c0.1-0.6,0.4-1.2,0.8-1.5s1.1-0.5,1.8-0.5c0.8,0,1.4,0.2,1.9,0.5c0.5,0.4,0.7,0.9,0.7,1.5
		c0,0.5-0.1,0.9-0.4,1.2s-0.7,0.5-1.2,0.6v0c0.6,0.1,1,0.3,1.3,0.6C314,115.1,314.1,115.5,314.1,116z"/>
</g>
<g>
	<rect x="280.9" y="133.2" class="st2" width="61" height="21"/>
</g>
<g>
	<path d="M314.2,146.8v1.1h-5.1v-1.1h1.9v-5.2l-1.8,1.1v-1.2l1.9-1.2h1.4v6.5H314.2z"/>
</g>
<g>
	<rect x="280.9" y="163" class="st2" width="61" height="21"/>
</g>
<g>
	<path d="M314.1,176.4v1.2h-5.3v-1c0.1-0.3,0.3-0.6,0.5-0.9c0.2-0.3,0.5-0.6,0.7-0.8c0.3-0.3,0.6-0.6,1-0.9c0.3-0.2,0.5-0.4,0.7-0.6
		s0.3-0.3,0.4-0.5c0.1-0.1,0.2-0.3,0.2-0.4s0.1-0.3,0.1-0.4c0-0.3-0.1-0.6-0.2-0.7s-0.4-0.2-0.7-0.2c-0.3,0-0.6,0.1-0.7,0.3
		c-0.2,0.2-0.3,0.4-0.3,0.8l-1.5-0.1c0.1-0.7,0.4-1.2,0.8-1.6s1-0.5,1.8-0.5c0.8,0,1.4,0.2,1.9,0.6s0.6,0.9,0.6,1.6
		c0,0.4-0.1,0.7-0.2,1s-0.4,0.6-0.6,0.8c-0.2,0.2-0.4,0.4-0.7,0.6c-0.2,0.2-0.5,0.4-0.7,0.6c-0.2,0.2-0.5,0.4-0.7,0.6
		s-0.4,0.4-0.5,0.7L314.1,176.4L314.1,176.4z"/>
</g>
<g>
	<path class="st0" d="M51.5,79.9V81H50v-1.1H51.5z M51.5,82.1v5.8H50v-5.8H51.5z"/>
	<path class="st0" d="M56.8,87.9c0,0,0-0.1,0-0.2s0-0.2,0-0.4s0-0.2,0-0.3h0c-0.2,0.4-0.4,0.6-0.7,0.8c-0.3,0.2-0.7,0.3-1.2,0.3
		c-0.7,0-1.2-0.3-1.6-0.8s-0.6-1.3-0.6-2.2c0-1,0.2-1.7,0.6-2.2c0.4-0.5,0.9-0.8,1.7-0.8c0.4,0,0.8,0.1,1.1,0.3s0.5,0.4,0.7,0.8h0
		l0-1v-2.1h1.5v6.7c0,0.2,0,0.4,0,0.6s0,0.4,0,0.7L56.8,87.9L56.8,87.9z M54.3,85c0,0.7,0.1,1.1,0.3,1.5c0.2,0.3,0.5,0.5,0.9,0.5
		c0.4,0,0.7-0.2,0.9-0.5c0.2-0.4,0.3-0.9,0.3-1.5c0-0.6-0.1-1.1-0.3-1.5c-0.2-0.3-0.5-0.5-0.9-0.5c-0.4,0-0.7,0.2-0.9,0.5
		C54.4,83.8,54.3,84.3,54.3,85z"/>
</g>
<g>
	<path class="st0" d="M98.6,84.8v3.1h-1.5v-4.5c0-0.3,0-0.6,0-0.8c0-0.2,0-0.4,0-0.5h1.4c0,0,0,0.1,0,0.3c0,0.2,0,0.3,0,0.5
		c0,0.2,0,0.3,0,0.4h0c0.2-0.4,0.5-0.8,0.8-1s0.7-0.3,1.1-0.3c0.6,0,1.1,0.2,1.4,0.6s0.5,0.9,0.5,1.7v3.7h-1.5v-3.3
		c0-0.5-0.1-0.9-0.3-1.1s-0.4-0.4-0.8-0.4c-0.4,0-0.7,0.2-0.9,0.5C98.7,83.9,98.6,84.3,98.6,84.8z"/>
	<path class="st0" d="M105.2,88c-0.6,0-1-0.1-1.3-0.5s-0.5-0.7-0.5-1.3c0-0.6,0.2-1.1,0.6-1.4s1-0.5,1.7-0.5l1.2,0v-0.3
		c0-0.4-0.1-0.7-0.2-0.9c-0.1-0.2-0.4-0.3-0.6-0.3c-0.3,0-0.5,0.1-0.6,0.2c-0.1,0.1-0.2,0.3-0.2,0.6l-1.6-0.1c0.2-1.1,1-1.7,2.5-1.7
		c0.7,0,1.3,0.2,1.7,0.5s0.6,0.9,0.6,1.5v2.1c0,0.3,0,0.5,0.1,0.7c0.1,0.1,0.2,0.2,0.4,0.2c0.1,0,0.2,0,0.3,0v0.8
		c-0.2,0-0.4,0.1-0.5,0.1c-0.1,0-0.3,0-0.5,0c-0.4,0-0.7-0.1-0.8-0.3s-0.3-0.5-0.3-0.8h0c-0.2,0.4-0.5,0.7-0.8,0.9
		C106,87.9,105.6,88,105.2,88z M106.9,85.2l-0.8,0c-0.4,0-0.6,0.1-0.8,0.1c-0.1,0.1-0.3,0.2-0.3,0.3s-0.1,0.3-0.1,0.5
		c0,0.3,0.1,0.5,0.2,0.6c0.1,0.1,0.3,0.2,0.5,0.2c0.2,0,0.4-0.1,0.6-0.2c0.2-0.1,0.4-0.3,0.5-0.5c0.1-0.2,0.2-0.5,0.2-0.7V85.2z"/>
	<path class="st0" d="M111.4,84.8v3.1h-1.5v-4.5c0-0.3,0-0.6,0-0.8c0-0.2,0-0.4,0-0.5h1.4c0,0,0,0.1,0,0.3c0,0.2,0,0.3,0,0.5
		c0,0.2,0,0.3,0,0.4h0c0.2-0.4,0.4-0.8,0.7-1s0.6-0.3,1-0.3c0.4,0,0.8,0.1,1.1,0.3s0.4,0.5,0.5,1h0c0.2-0.5,0.4-0.8,0.7-1
		s0.6-0.3,1.1-0.3c0.6,0,1,0.2,1.3,0.6c0.3,0.4,0.4,0.9,0.4,1.7v3.7h-1.5v-3.3c0-0.5-0.1-0.9-0.2-1.1s-0.4-0.4-0.7-0.4
		c-0.3,0-0.5,0.1-0.7,0.4c-0.2,0.3-0.3,0.7-0.3,1.2v3.2h-1.5v-3.3c0-0.5-0.1-0.9-0.2-1.1s-0.4-0.4-0.7-0.4c-0.3,0-0.6,0.2-0.7,0.5
		S111.4,84.3,111.4,84.8z"/>
	<path class="st0" d="M121,85.3c0,0.6,0.1,1,0.3,1.3c0.2,0.3,0.5,0.4,0.9,0.4c0.3,0,0.5-0.1,0.6-0.2c0.2-0.1,0.3-0.3,0.4-0.5
		l1.4,0.1c-0.4,1-1.2,1.6-2.5,1.6c-0.9,0-1.5-0.3-2-0.8s-0.7-1.3-0.7-2.3c0-1,0.2-1.7,0.7-2.2c0.5-0.5,1.1-0.8,2-0.8
		c0.8,0,1.5,0.3,1.9,0.8s0.7,1.4,0.7,2.4v0L121,85.3L121,85.3z M123.2,84.3c0-0.5-0.1-0.8-0.3-1.1c-0.2-0.2-0.5-0.4-0.8-0.4
		c-0.4,0-0.6,0.1-0.8,0.4s-0.3,0.6-0.3,1H123.2z"/>
</g>
<g>
	<path class="st0" d="M167,88c-0.6,0-1-0.1-1.3-0.5s-0.5-0.7-0.5-1.3c0-0.6,0.2-1.1,0.6-1.4s1-0.5,1.7-0.5l1.2,0v-0.3
		c0-0.4-0.1-0.7-0.2-0.9c-0.1-0.2-0.4-0.3-0.6-0.3c-0.3,0-0.5,0.1-0.6,0.2c-0.1,0.1-0.2,0.3-0.2,0.6l-1.6-0.1c0.2-1.1,1-1.7,2.5-1.7
		c0.7,0,1.3,0.2,1.7,0.5s0.6,0.9,0.6,1.5v2.1c0,0.3,0,0.5,0.1,0.7c0.1,0.1,0.2,0.2,0.4,0.2c0.1,0,0.2,0,0.3,0v0.8
		c-0.2,0-0.4,0.1-0.5,0.1c-0.1,0-0.3,0-0.5,0c-0.4,0-0.7-0.1-0.8-0.3s-0.3-0.5-0.3-0.8h0c-0.2,0.4-0.5,0.7-0.8,0.9
		C167.8,87.9,167.4,88,167,88z M168.8,85.2l-0.8,0c-0.4,0-0.6,0.1-0.8,0.1c-0.1,0.1-0.3,0.2-0.3,0.3s-0.1,0.3-0.1,0.5
		c0,0.3,0.1,0.5,0.2,0.6c0.1,0.1,0.3,0.2,0.5,0.2c0.2,0,0.4-0.1,0.6-0.2c0.2-0.1,0.4-0.3,0.5-0.5c0.1-0.2,0.2-0.5,0.2-0.7V85.2z"/>
	<path class="st0" d="M174.2,90.2c-0.7,0-1.3-0.1-1.7-0.4c-0.4-0.3-0.7-0.7-0.8-1.2l1.5-0.2c0.1,0.2,0.2,0.4,0.4,0.5
		c0.2,0.1,0.4,0.2,0.7,0.2c0.4,0,0.7-0.1,0.9-0.4s0.3-0.6,0.3-1.1l0-0.9h0c-0.2,0.4-0.4,0.6-0.7,0.8c-0.3,0.2-0.7,0.3-1.1,0.3
		c-0.7,0-1.2-0.2-1.6-0.8s-0.6-1.2-0.6-2.2c0-1,0.2-1.7,0.6-2.2c0.4-0.5,0.9-0.8,1.7-0.8c0.4,0,0.8,0.1,1.1,0.3
		c0.3,0.2,0.5,0.4,0.7,0.8h0c0-0.1,0-0.2,0-0.3s0-0.2,0-0.4s0-0.2,0-0.2h1.4c0,0.4,0,0.8,0,1.3v4.3c0,0.8-0.2,1.5-0.7,1.9
		C175.8,90,175.1,90.2,174.2,90.2z M175.5,84.9c0-0.6-0.1-1.1-0.3-1.4c-0.2-0.3-0.5-0.5-0.9-0.5c-0.4,0-0.7,0.2-0.9,0.5
		S173,84.3,173,85c0,0.6,0.1,1.1,0.3,1.4s0.5,0.5,0.9,0.5s0.7-0.2,0.9-0.5C175.4,86,175.5,85.5,175.5,84.9z"/>
	<path class="st0" d="M179.8,85.3c0,0.6,0.1,1,0.3,1.3c0.2,0.3,0.5,0.4,0.9,0.4c0.3,0,0.5-0.1,0.6-0.2c0.2-0.1,0.3-0.3,0.4-0.5
		l1.4,0.1c-0.4,1-1.2,1.6-2.5,1.6c-0.9,0-1.5-0.3-2-0.8s-0.7-1.3-0.7-2.3c0-1,0.2-1.7,0.7-2.2c0.5-0.5,1.1-0.8,2-0.8
		c0.8,0,1.5,0.3,1.9,0.8s0.7,1.4,0.7,2.4v0L179.8,85.3L179.8,85.3z M182,84.3c0-0.5-0.1-0.8-0.3-1.1c-0.2-0.2-0.5-0.4-0.8-0.4
		c-0.4,0-0.6,0.1-0.8,0.4s-0.3,0.6-0.3,1H182z"/>
</g>
<g>
	<path class="st0" d="M223.9,83.2c0.2-0.4,0.5-0.8,0.8-1s0.7-0.3,1.1-0.3c0.6,0,1.1,0.2,1.4,0.6s0.5,0.9,0.5,1.7v3.7h-1.5v-3.2
		c0-0.5-0.1-0.9-0.3-1.1s-0.4-0.4-0.8-0.4c-0.4,0-0.7,0.2-0.9,0.5s-0.3,0.7-0.3,1.2v3.1h-1.5v-8h1.5v2.2c0,0.1,0,0.3,0,0.4
		c0,0.1,0,0.3,0,0.4C223.9,83,223.9,83.1,223.9,83.2L223.9,83.2L223.9,83.2z"/>
	<path class="st0" d="M234.7,85c0,0.9-0.3,1.7-0.8,2.2s-1.2,0.8-2.2,0.8c-0.9,0-1.6-0.3-2.1-0.8s-0.8-1.3-0.8-2.2
		c0-0.9,0.3-1.7,0.8-2.2c0.5-0.5,1.2-0.8,2.2-0.8c0.9,0,1.7,0.3,2.2,0.8S234.7,84,234.7,85z M233.1,85c0-0.7-0.1-1.2-0.3-1.5
		s-0.6-0.5-1-0.5c-0.5,0-0.8,0.2-1,0.5s-0.3,0.8-0.3,1.5c0,0.6,0.1,1.1,0.3,1.5c0.2,0.3,0.6,0.5,1,0.5c0.5,0,0.8-0.2,1-0.5
		C233,86.2,233.1,85.7,233.1,85z"/>
	<path class="st0" d="M241.4,85c0,1-0.2,1.7-0.6,2.2c-0.4,0.5-0.9,0.8-1.6,0.8c-0.4,0-0.8-0.1-1.1-0.3s-0.5-0.4-0.7-0.8h0
		c0,0.1,0,0.2,0,0.3s0,0.3,0,0.4c0,0.1,0,0.2,0,0.2h-1.5c0-0.2,0-0.4,0-0.6c0-0.2,0-0.5,0-0.7v-6.6h1.5v2.2c0,0.2,0,0.3,0,0.5
		s0,0.3,0,0.5h0c0.2-0.4,0.4-0.6,0.7-0.8s0.7-0.3,1.1-0.3c0.7,0,1.2,0.3,1.6,0.8C241.2,83.3,241.4,84,241.4,85z M239.8,85
		c0-0.7-0.1-1.1-0.3-1.5S239,83,238.6,83s-0.7,0.2-0.9,0.5s-0.3,0.8-0.3,1.5c0,0.6,0.1,1.1,0.3,1.4s0.5,0.5,0.9,0.5
		c0.4,0,0.7-0.2,0.9-0.5C239.7,86.2,239.8,85.6,239.8,85z"/>
	<path class="st0" d="M248.1,85c0,1-0.2,1.7-0.6,2.2c-0.4,0.5-0.9,0.8-1.6,0.8c-0.4,0-0.8-0.1-1.1-0.3s-0.5-0.4-0.7-0.8h0
		c0,0.1,0,0.2,0,0.3s0,0.3,0,0.4c0,0.1,0,0.2,0,0.2h-1.5c0-0.2,0-0.4,0-0.6c0-0.2,0-0.5,0-0.7v-6.6h1.5v2.2c0,0.2,0,0.3,0,0.5
		s0,0.3,0,0.5h0c0.2-0.4,0.4-0.6,0.7-0.8s0.7-0.3,1.1-0.3c0.7,0,1.2,0.3,1.6,0.8C247.9,83.3,248.1,84,248.1,85z M246.5,85
		c0-0.7-0.1-1.1-0.3-1.5s-0.5-0.5-0.9-0.5s-0.7,0.2-0.9,0.5s-0.3,0.8-0.3,1.5c0,0.6,0.1,1.1,0.3,1.4s0.5,0.5,0.9,0.5
		c0.4,0,0.7-0.2,0.9-0.5C246.4,86.2,246.5,85.6,246.5,85z"/>
	<path class="st0" d="M250.1,90.2c-0.4,0-0.7,0-1-0.1V89c0.2,0,0.4,0,0.5,0c0.4,0,0.6-0.1,0.8-0.3s0.3-0.5,0.5-1l-2.3-5.8h1.6
		l0.9,2.7c0.1,0.2,0.1,0.4,0.2,0.7s0.2,0.6,0.3,1c0.1-0.3,0.2-0.6,0.2-0.9s0.2-0.6,0.2-0.9l0.9-2.7h1.6l-2.3,6.1
		c-0.1,0.2-0.2,0.5-0.3,0.7s-0.2,0.4-0.3,0.5c-0.2,0.3-0.5,0.5-0.7,0.6C250.7,90.1,250.4,90.2,250.1,90.2z"/>
</g>
<g>
	<path class="st0" d="M286.8,88c-0.9,0-1.6-0.3-2-0.8c-0.5-0.5-0.7-1.3-0.7-2.2c0-1,0.2-1.7,0.7-2.2c0.5-0.5,1.2-0.8,2.1-0.8
		c0.7,0,1.2,0.2,1.7,0.5s0.7,0.8,0.8,1.4l-1.5,0.1c0-0.3-0.1-0.5-0.3-0.7s-0.4-0.3-0.7-0.3c-0.4,0-0.7,0.2-0.9,0.5
		c-0.2,0.3-0.3,0.8-0.3,1.5c0,0.7,0.1,1.2,0.3,1.5c0.2,0.3,0.5,0.5,0.9,0.5c0.3,0,0.5-0.1,0.7-0.3s0.3-0.5,0.4-0.8l1.5,0.1
		c0,0.4-0.2,0.8-0.4,1.1c-0.2,0.3-0.5,0.5-0.9,0.7C287.7,87.9,287.3,88,286.8,88z"/>
	<path class="st0" d="M296,85c0,0.9-0.3,1.7-0.8,2.2S294,88,293.1,88c-0.9,0-1.6-0.3-2.1-0.8s-0.8-1.3-0.8-2.2
		c0-0.9,0.3-1.7,0.8-2.2c0.5-0.5,1.2-0.8,2.2-0.8c1,0,1.7,0.3,2.2,0.8S296,84,296,85z M294.4,85c0-0.7-0.1-1.2-0.3-1.5
		s-0.5-0.5-1-0.5c-0.5,0-0.8,0.2-1,0.5s-0.3,0.8-0.3,1.5c0,0.6,0.1,1.1,0.3,1.5c0.2,0.3,0.5,0.5,1,0.5c0.5,0,0.8-0.2,1-0.5
		C294.3,86.2,294.4,85.7,294.4,85z"/>
	<path class="st0" d="M298.7,84.8v3.1h-1.5v-4.5c0-0.3,0-0.6,0-0.8c0-0.2,0-0.4,0-0.5h1.4c0,0,0,0.1,0,0.3c0,0.2,0,0.3,0,0.5
		c0,0.2,0,0.3,0,0.4h0c0.2-0.4,0.5-0.8,0.8-1s0.7-0.3,1.1-0.3c0.6,0,1.1,0.2,1.4,0.6s0.5,0.9,0.5,1.7v3.7H301v-3.3
		c0-0.5-0.1-0.9-0.3-1.1s-0.4-0.4-0.8-0.4c-0.4,0-0.7,0.2-0.9,0.5C298.8,83.9,298.7,84.3,298.7,84.8z"/>
	<path class="st0" d="M306.7,87.8c-0.4,0.1-0.8,0.2-1.3,0.2c-0.4,0-0.8-0.1-1-0.4S304,87,304,86.5v-3.4h-0.7v-1h0.8l0.5-1.4h1v1.4
		h1.1v1h-1.1v3c0,0.3,0,0.5,0.2,0.6c0.1,0.1,0.3,0.2,0.5,0.2c0.1,0,0.3,0,0.5-0.1L306.7,87.8L306.7,87.8z"/>
	<path class="st0" d="M308.9,88c-0.6,0-1-0.1-1.3-0.5s-0.5-0.7-0.5-1.3c0-0.6,0.2-1.1,0.6-1.4c0.4-0.3,1-0.5,1.7-0.5l1.2,0v-0.3
		c0-0.4-0.1-0.7-0.2-0.9c-0.1-0.2-0.4-0.3-0.6-0.3c-0.3,0-0.5,0.1-0.6,0.2c-0.1,0.1-0.2,0.3-0.2,0.6l-1.6-0.1c0.2-1.1,1-1.7,2.5-1.7
		c0.7,0,1.3,0.2,1.7,0.5s0.6,0.9,0.6,1.5v2.1c0,0.3,0,0.5,0.1,0.7c0.1,0.1,0.2,0.2,0.4,0.2c0.1,0,0.2,0,0.3,0v0.8
		c-0.2,0-0.4,0.1-0.5,0.1c-0.1,0-0.3,0-0.5,0c-0.4,0-0.7-0.1-0.8-0.3s-0.3-0.5-0.3-0.8h0c-0.2,0.4-0.5,0.7-0.8,0.9
		C309.7,87.9,309.4,88,308.9,88z M310.7,85.2l-0.8,0c-0.4,0-0.6,0.1-0.8,0.1c-0.1,0.1-0.3,0.2-0.3,0.3s-0.1,0.3-0.1,0.5
		c0,0.3,0.1,0.5,0.2,0.6c0.1,0.1,0.3,0.2,0.5,0.2c0.2,0,0.5-0.1,0.6-0.2c0.2-0.1,0.4-0.3,0.5-0.5c0.1-0.2,0.2-0.5,0.2-0.7
		L310.7,85.2L310.7,85.2z"/>
	<path class="st0" d="M316.1,88c-0.9,0-1.6-0.3-2-0.8c-0.5-0.5-0.7-1.3-0.7-2.2c0-1,0.2-1.7,0.7-2.2c0.5-0.5,1.2-0.8,2.1-0.8
		c0.7,0,1.2,0.2,1.7,0.5s0.7,0.8,0.8,1.4l-1.5,0.1c0-0.3-0.1-0.5-0.3-0.7s-0.4-0.3-0.7-0.3c-0.4,0-0.7,0.2-0.9,0.5
		c-0.2,0.3-0.3,0.8-0.3,1.5c0,0.7,0.1,1.2,0.3,1.5c0.2,0.3,0.5,0.5,0.9,0.5c0.3,0,0.5-0.1,0.7-0.3s0.3-0.5,0.4-0.8l1.5,0.1
		c0,0.4-0.2,0.8-0.4,1.1c-0.2,0.3-0.5,0.5-0.9,0.7C317,87.9,316.6,88,316.1,88z"/>
	<path class="st0" d="M322.6,87.8c-0.4,0.1-0.8,0.2-1.3,0.2c-0.4,0-0.8-0.1-1-0.4s-0.4-0.6-0.4-1.1v-3.4h-0.7v-1h0.8l0.5-1.4h1v1.4
		h1.1v1h-1.1v3c0,0.3,0,0.5,0.2,0.6c0.1,0.1,0.3,0.2,0.5,0.2c0.1,0,0.3,0,0.5-0.1L322.6,87.8L322.6,87.8z"/>
	<path class="st0" d="M328.9,88.8v0.4h-6.3v-0.4H328.9z"/>
	<path class="st0" d="M331.1,79.9V81h-1.5v-1.1H331.1z M331.1,82.1v5.8h-1.5v-5.8H331.1z"/>
	<path class="st0" d="M336.4,87.9c0,0,0-0.1,0-0.2s0-0.2,0-0.4s0-0.2,0-0.3h0c-0.2,0.4-0.4,0.6-0.7,0.8c-0.3,0.2-0.7,0.3-1.1,0.3
		c-0.7,0-1.2-0.3-1.6-0.8s-0.5-1.3-0.5-2.2c0-1,0.2-1.7,0.6-2.2c0.4-0.5,0.9-0.8,1.6-0.8c0.4,0,0.8,0.1,1.1,0.3s0.5,0.4,0.7,0.8h0
		l0-1v-2.1h1.5v6.7c0,0.2,0,0.4,0,0.6s0,0.4,0,0.7L336.4,87.9L336.4,87.9z M333.9,85c0,0.7,0.1,1.1,0.3,1.5c0.2,0.3,0.5,0.5,0.9,0.5
		c0.4,0,0.7-0.2,0.9-0.5c0.2-0.4,0.3-0.9,0.3-1.5c0-0.6-0.1-1.1-0.3-1.5c-0.2-0.3-0.5-0.5-0.9-0.5c-0.4,0-0.7,0.2-0.9,0.5
		C334,83.8,333.9,84.3,333.9,85z"/>
</g>
<g>
	<rect x="38.6" y="133.2" class="st2" width="30.7" height="21"/>
</g>
<g>
	<path d="M55.9,146.7v1.2h-5.3v-1c0.1-0.3,0.3-0.6,0.5-0.9c0.2-0.3,0.4-0.6,0.7-0.8c0.3-0.3,0.6-0.6,1-0.9c0.3-0.2,0.5-0.4,0.7-0.6
		s0.3-0.3,0.4-0.5c0.1-0.1,0.2-0.3,0.2-0.4c0.1-0.1,0.1-0.3,0.1-0.4c0-0.3-0.1-0.6-0.2-0.7s-0.4-0.2-0.7-0.2c-0.3,0-0.6,0.1-0.7,0.3
		s-0.3,0.4-0.3,0.8l-1.5-0.1c0.1-0.7,0.3-1.2,0.8-1.6s1-0.5,1.8-0.5c0.8,0,1.4,0.2,1.9,0.6c0.4,0.4,0.7,0.9,0.7,1.6
		c0,0.4-0.1,0.7-0.2,1c-0.2,0.3-0.4,0.6-0.6,0.8c-0.2,0.2-0.4,0.4-0.7,0.6c-0.2,0.2-0.5,0.4-0.7,0.6c-0.2,0.2-0.5,0.4-0.7,0.6
		s-0.4,0.4-0.5,0.7L55.9,146.7L55.9,146.7z"/>
</g>
<g>
	<rect x="38.6" y="163" class="st2" width="30.7" height="21"/>
</g>
<g>
	<path d="M55.9,175.6c0,0.7-0.2,1.3-0.7,1.6c-0.5,0.4-1.1,0.6-2,0.6c-0.8,0-1.5-0.2-1.9-0.6s-0.8-0.9-0.8-1.6l1.5-0.1
		c0.1,0.7,0.5,1.1,1.2,1.1c0.4,0,0.6-0.1,0.8-0.3s0.3-0.5,0.3-0.8c0-0.3-0.1-0.6-0.4-0.8c-0.2-0.2-0.6-0.3-1.1-0.3h-0.5v-1.2h0.5
		c0.4,0,0.8-0.1,1-0.3s0.3-0.4,0.3-0.8c0-0.3-0.1-0.6-0.3-0.7c-0.2-0.2-0.4-0.3-0.8-0.3c-0.3,0-0.6,0.1-0.8,0.3s-0.3,0.4-0.3,0.7
		l-1.5-0.1c0.1-0.6,0.3-1.2,0.8-1.5s1.1-0.5,1.8-0.5c0.8,0,1.4,0.2,1.9,0.5c0.4,0.4,0.7,0.9,0.7,1.5c0,0.5-0.1,0.9-0.4,1.2
		s-0.7,0.5-1.2,0.6v0c0.6,0.1,1,0.3,1.3,0.6C55.8,174.7,55.9,175.1,55.9,175.6z"/>
</g>
<g>
	<rect x="21.1" y="45.8" class="st1" width="334.6" height="18.7"/>
</g>
<g>
	<rect x="158.3" y="9.9" class="st1" width="48.2" height="18.7"/>
</g>
<g>
	<path class="st0" d="M167.2,56.2v3.2h-1.6v-7.6h1.6v3h3.3v-3h1.6v7.6h-1.6v-3.2H167.2z"/>
	<path class="st0" d="M175.1,51.5v1.1h-1.5v-1.1H175.1z M175.1,53.7v5.8h-1.5v-5.8H175.1z"/>
	<path class="st0" d="M178.2,57.3v2.2h-1.5v-8h1.5v4.6l2.1-2.4h1.6l-2,2.3l2.2,3.5h-1.6l-1.6-2.6L178.2,57.3z"/>
	<path class="st0" d="M184,56.9c0,0.6,0.1,1,0.3,1.3c0.2,0.3,0.5,0.4,0.9,0.4c0.3,0,0.5-0.1,0.6-0.2c0.2-0.1,0.3-0.3,0.4-0.5
		l1.4,0.1c-0.4,1-1.2,1.6-2.5,1.6c-0.9,0-1.5-0.3-2-0.8s-0.7-1.3-0.7-2.3c0-1,0.2-1.7,0.7-2.2c0.5-0.5,1.1-0.8,2-0.8
		c0.8,0,1.5,0.3,1.9,0.8s0.7,1.4,0.7,2.4v0L184,56.9L184,56.9z M186.3,55.9c0-0.5-0.1-0.8-0.3-1.1c-0.2-0.2-0.5-0.4-0.8-0.4
		c-0.4,0-0.6,0.1-0.8,0.4s-0.3,0.6-0.3,1H186.3z"/>
	<path class="st0" d="M190.4,56.6v2.9h-1.5V55c0-0.3,0-0.6,0-0.8c0-0.2,0-0.4,0-0.6h1.4c0,0,0,0.1,0,0.2c0,0.1,0,0.2,0,0.4
		c0,0.1,0,0.3,0,0.4c0,0.1,0,0.2,0,0.3h0c0.1-0.4,0.3-0.7,0.4-0.9c0.1-0.2,0.2-0.3,0.4-0.4s0.4-0.1,0.6-0.1c0.2,0,0.4,0,0.5,0.1v1.3
		c-0.2,0-0.5-0.1-0.6-0.1c-0.4,0-0.7,0.1-0.9,0.5C190.5,55.6,190.4,56,190.4,56.6z"/>
	<path class="st0" d="M198.1,57.8c0,0.6-0.2,1-0.7,1.3s-1.1,0.5-1.9,0.5c-0.8,0-1.4-0.1-1.8-0.4s-0.7-0.6-0.9-1.2l1.3-0.2
		c0.1,0.3,0.2,0.5,0.4,0.6s0.5,0.2,1,0.2c0.4,0,0.7,0,0.9-0.2s0.3-0.3,0.3-0.5c0-0.2-0.1-0.3-0.2-0.4c-0.2-0.1-0.4-0.2-0.8-0.3
		c-0.3-0.1-0.5-0.1-0.8-0.2s-0.4-0.1-0.6-0.2c-0.2,0-0.3-0.1-0.4-0.1c-0.3-0.1-0.5-0.3-0.7-0.6c-0.2-0.2-0.2-0.5-0.2-0.9
		c0-0.6,0.2-1,0.6-1.3s1-0.5,1.8-0.5c0.7,0,1.2,0.1,1.7,0.4s0.7,0.7,0.8,1.2l-1.3,0.1c0-0.2-0.1-0.4-0.3-0.5
		c-0.2-0.1-0.4-0.2-0.8-0.2c-0.4,0-0.6,0-0.8,0.1c-0.2,0.1-0.3,0.2-0.3,0.5c0,0.2,0.1,0.3,0.2,0.4s0.4,0.2,0.7,0.2
		c0.4,0.1,0.9,0.2,1.2,0.3s0.6,0.2,0.9,0.4c0.2,0.1,0.4,0.3,0.5,0.5C198,57.2,198.1,57.4,198.1,57.8z"/>
</g>
<g>
	<path class="st0" d="M169.7,16.3v6.3h-1.6v-6.3h-2.4v-1.2h6.5v1.2H169.7z"/>
	<path class="st0" d="M173.2,22.8c-0.6,0-1-0.2-1.3-0.5s-0.5-0.7-0.5-1.3c0-0.6,0.2-1.1,0.6-1.4s1-0.5,1.7-0.5l1.2,0v-0.3
		c0-0.4-0.1-0.7-0.2-0.8c-0.1-0.2-0.4-0.3-0.6-0.3c-0.3,0-0.5,0.1-0.6,0.2c-0.1,0.1-0.2,0.3-0.2,0.6l-1.6-0.1c0.2-1.2,1-1.7,2.5-1.7
		c0.7,0,1.3,0.2,1.7,0.5s0.6,0.9,0.6,1.5v2.1c0,0.3,0,0.5,0.1,0.7s0.2,0.2,0.4,0.2c0.1,0,0.2,0,0.3,0v0.8c-0.2,0-0.4,0.1-0.5,0.1
		c-0.1,0-0.3,0-0.5,0c-0.4,0-0.7-0.1-0.8-0.3s-0.3-0.5-0.3-0.8h0c-0.2,0.4-0.5,0.7-0.8,0.9C174,22.7,173.6,22.8,173.2,22.8z
		 M174.9,20l-0.8,0c-0.4,0-0.6,0.1-0.8,0.1c-0.1,0.1-0.3,0.2-0.3,0.3s-0.1,0.3-0.1,0.5c0,0.3,0.1,0.5,0.2,0.6
		c0.1,0.1,0.3,0.2,0.5,0.2c0.2,0,0.4-0.1,0.6-0.2c0.2-0.1,0.4-0.3,0.5-0.5c0.1-0.2,0.2-0.5,0.2-0.7V20z"/>
	<path class="st0" d="M183.5,19.7c0,1-0.2,1.7-0.6,2.2c-0.4,0.5-0.9,0.8-1.6,0.8c-0.4,0-0.8-0.1-1.1-0.3s-0.5-0.4-0.7-0.8h0
		c0,0.1,0,0.2,0,0.3s0,0.3,0,0.4c0,0.1,0,0.2,0,0.2h-1.5c0-0.2,0-0.4,0-0.6c0-0.2,0-0.5,0-0.7v-6.6h1.5v2.2c0,0.2,0,0.3,0,0.5
		s0,0.3,0,0.5h0c0.2-0.4,0.4-0.7,0.7-0.8s0.7-0.3,1.1-0.3c0.7,0,1.2,0.3,1.6,0.8C183.3,18,183.5,18.8,183.5,19.7z M181.9,19.7
		c0-0.7-0.1-1.2-0.3-1.5s-0.5-0.5-0.9-0.5c-0.4,0-0.7,0.2-0.9,0.5c-0.2,0.3-0.3,0.8-0.3,1.5c0,0.6,0.1,1.1,0.3,1.4
		c0.2,0.3,0.5,0.5,0.9,0.5c0.4,0,0.7-0.2,0.9-0.5C181.8,20.9,181.9,20.4,181.9,19.7z"/>
	<path class="st0" d="M186.2,14.7v8h-1.5v-8H186.2z"/>
	<path class="st0" d="M189,20c0,0.6,0.1,1,0.3,1.3c0.2,0.3,0.5,0.4,0.9,0.4c0.3,0,0.5-0.1,0.6-0.2c0.2-0.1,0.3-0.3,0.4-0.5l1.4,0.1
		c-0.4,1-1.2,1.6-2.5,1.6c-0.9,0-1.5-0.3-2-0.8s-0.7-1.3-0.7-2.3c0-1,0.2-1.7,0.7-2.2c0.5-0.5,1.1-0.8,2-0.8c0.8,0,1.5,0.3,1.9,0.8
		s0.7,1.4,0.7,2.4v0L189,20L189,20z M191.2,19.1c0-0.5-0.1-0.8-0.3-1.1c-0.2-0.2-0.5-0.3-0.8-0.3c-0.4,0-0.6,0.1-0.8,0.4
		s-0.3,0.6-0.3,1H191.2z"/>
	<path class="st0" d="M198.7,21c0,0.6-0.2,1-0.7,1.3s-1.1,0.5-1.9,0.5c-0.8,0-1.4-0.1-1.8-0.4s-0.7-0.7-0.9-1.2l1.3-0.2
		c0.1,0.3,0.2,0.5,0.4,0.6s0.5,0.2,1,0.2c0.4,0,0.7,0,0.9-0.2s0.3-0.3,0.3-0.5c0-0.2-0.1-0.3-0.2-0.4c-0.2-0.1-0.4-0.2-0.8-0.3
		c-0.3-0.1-0.5-0.1-0.8-0.2s-0.4-0.1-0.6-0.2s-0.3-0.1-0.4-0.2c-0.3-0.2-0.5-0.3-0.7-0.6c-0.2-0.2-0.2-0.5-0.2-0.8
		c0-0.6,0.2-1,0.6-1.3s1-0.5,1.8-0.5c0.7,0,1.2,0.1,1.7,0.4s0.7,0.7,0.8,1.2l-1.3,0.1c0-0.2-0.1-0.4-0.3-0.5
		c-0.2-0.1-0.4-0.2-0.8-0.2c-0.4,0-0.6,0-0.8,0.1s-0.3,0.2-0.3,0.5c0,0.2,0.1,0.3,0.2,0.4c0.1,0.1,0.4,0.2,0.7,0.2
		c0.4,0.1,0.9,0.2,1.2,0.3s0.6,0.2,0.9,0.3c0.2,0.1,0.4,0.3,0.5,0.5C198.7,20.4,198.7,20.6,198.7,21z"/>
</g>
<g>
	<rect x="31.6" y="9.9" class="st10" width="102.5" height="18.7"/>
</g>
<g>
	<path class="st0" d="M43.3,19.9v2.8h-1.6v-7.6h5.6v1.2h-4v2.3h3.9v1.2L43.3,19.9L43.3,19.9z"/>
	<path class="st0" d="M49.9,14.7v1.1h-1.5v-1.1H49.9z M49.9,16.9v5.8h-1.5v-5.8H49.9z"/>
	<path class="st0" d="M52.7,20c0,0.6,0.1,1,0.3,1.3c0.2,0.3,0.5,0.4,0.9,0.4c0.3,0,0.5-0.1,0.7-0.2c0.2-0.1,0.3-0.3,0.4-0.5l1.4,0.1
		c-0.4,1-1.2,1.6-2.5,1.6c-0.9,0-1.5-0.3-2-0.8s-0.7-1.3-0.7-2.3c0-1,0.2-1.7,0.7-2.2c0.5-0.5,1.2-0.8,2-0.8c0.8,0,1.5,0.3,1.9,0.8
		s0.7,1.4,0.7,2.4v0L52.7,20L52.7,20z M55,19.1c0-0.5-0.1-0.8-0.3-1.1c-0.2-0.2-0.5-0.3-0.8-0.3c-0.3,0-0.6,0.1-0.8,0.4
		s-0.3,0.6-0.3,1H55z"/>
	<path class="st0" d="M59.1,14.7v8h-1.5v-8H59.1z"/>
	<path class="st0" d="M64.4,22.7c0,0,0-0.1,0-0.2s0-0.2,0-0.4s0-0.2,0-0.3h0c-0.2,0.3-0.4,0.6-0.7,0.8s-0.7,0.3-1.2,0.3
		c-0.7,0-1.2-0.3-1.6-0.8c-0.4-0.5-0.6-1.3-0.6-2.2c0-1,0.2-1.7,0.6-2.2c0.4-0.5,0.9-0.8,1.7-0.8c0.4,0,0.8,0.1,1.1,0.3
		s0.5,0.4,0.7,0.8h0l0-1v-2.1h1.5v6.7c0,0.2,0,0.4,0,0.6s0,0.4,0,0.7L64.4,22.7L64.4,22.7z M61.9,19.8c0,0.7,0.1,1.2,0.3,1.5
		c0.2,0.3,0.5,0.5,0.9,0.5c0.4,0,0.7-0.2,0.9-0.5c0.2-0.3,0.3-0.8,0.3-1.5c0-0.6-0.1-1.1-0.3-1.5s-0.5-0.5-0.9-0.5
		c-0.4,0-0.7,0.2-0.9,0.5C62,18.6,61.9,19.1,61.9,19.8z"/>
	<path class="st0" d="M72.3,21c0,0.6-0.2,1-0.7,1.3s-1.1,0.5-1.9,0.5c-0.8,0-1.4-0.1-1.8-0.4s-0.7-0.7-0.8-1.2l1.3-0.2
		c0.1,0.3,0.2,0.5,0.4,0.6s0.5,0.2,1,0.2c0.4,0,0.7,0,0.9-0.2s0.3-0.3,0.3-0.5c0-0.2-0.1-0.3-0.2-0.4c-0.2-0.1-0.4-0.2-0.8-0.3
		c-0.3-0.1-0.5-0.1-0.8-0.2s-0.4-0.1-0.6-0.2s-0.3-0.1-0.4-0.2c-0.3-0.2-0.5-0.3-0.7-0.6s-0.2-0.5-0.2-0.8c0-0.6,0.2-1,0.6-1.3
		s1-0.5,1.8-0.5c0.7,0,1.2,0.1,1.7,0.4s0.7,0.7,0.8,1.2l-1.3,0.1c0-0.2-0.2-0.4-0.3-0.5c-0.2-0.1-0.4-0.2-0.8-0.2
		c-0.4,0-0.6,0-0.8,0.1s-0.3,0.2-0.3,0.5c0,0.2,0.1,0.3,0.2,0.4c0.1,0.1,0.4,0.2,0.7,0.2c0.4,0.1,0.9,0.2,1.2,0.3s0.6,0.2,0.8,0.3
		c0.2,0.1,0.4,0.3,0.5,0.5C72.2,20.4,72.3,20.6,72.3,21z"/>
	<path class="st0" d="M77.9,24.9c-0.4-0.5-0.7-1.1-0.9-1.6c-0.2-0.5-0.4-1.1-0.5-1.7s-0.2-1.2-0.2-1.9s0.1-1.3,0.2-1.9
		c0.1-0.6,0.3-1.1,0.5-1.7s0.5-1.1,0.9-1.6h1.5c-0.6,0.8-1,1.6-1.2,2.4s-0.4,1.7-0.4,2.7c0,0.7,0.1,1.3,0.2,1.8s0.3,1.1,0.5,1.7
		c0.2,0.5,0.6,1.1,0.9,1.6L77.9,24.9L77.9,24.9z"/>
	<path class="st0" d="M82.6,22.8c-0.9,0-1.6-0.3-2-0.8c-0.5-0.5-0.7-1.3-0.7-2.2c0-1,0.2-1.7,0.7-2.2c0.5-0.5,1.2-0.8,2.1-0.8
		c0.7,0,1.2,0.2,1.7,0.5s0.7,0.8,0.8,1.4l-1.5,0.1c0-0.3-0.2-0.5-0.3-0.7s-0.4-0.3-0.7-0.3c-0.4,0-0.7,0.2-0.9,0.5
		c-0.2,0.3-0.3,0.8-0.3,1.5c0,0.7,0.1,1.2,0.3,1.5c0.2,0.3,0.5,0.5,0.9,0.5c0.3,0,0.5-0.1,0.7-0.3s0.3-0.5,0.4-0.8l1.5,0.1
		c-0.1,0.4-0.2,0.8-0.4,1.1c-0.2,0.3-0.5,0.5-0.9,0.7C83.5,22.7,83.1,22.8,82.6,22.8z"/>
	<path class="st0" d="M91.9,19.8c0,0.9-0.3,1.7-0.8,2.2s-1.2,0.8-2.2,0.8c-0.9,0-1.6-0.3-2.1-0.8S86,20.7,86,19.7
		c0-0.9,0.3-1.7,0.8-2.2c0.5-0.5,1.2-0.8,2.2-0.8c0.9,0,1.7,0.3,2.2,0.8C91.6,18,91.9,18.8,91.9,19.8z M90.3,19.8
		c0-0.7-0.1-1.2-0.3-1.5s-0.6-0.5-1-0.5c-0.5,0-0.8,0.2-1,0.5c-0.2,0.3-0.3,0.8-0.3,1.5c0,0.7,0.1,1.1,0.3,1.5
		c0.2,0.3,0.6,0.5,1,0.5c0.5,0,0.8-0.2,1-0.5C90.2,20.9,90.3,20.4,90.3,19.8z"/>
	<path class="st0" d="M94.6,14.7v8h-1.5v-8H94.6z"/>
	<path class="st0" d="M99.8,21.5c-0.2,0.4-0.5,0.8-0.8,1s-0.7,0.3-1.1,0.3c-0.6,0-1.1-0.2-1.4-0.6S96,21.3,96,20.5v-3.7h1.5v3.3
		c0,0.5,0.1,0.9,0.3,1.2c0.2,0.3,0.4,0.4,0.8,0.4c0.4,0,0.7-0.2,0.9-0.5c0.2-0.3,0.3-0.7,0.3-1.2v-3.1h1.5v4.5c0,0.2,0,0.5,0,0.7
		c0,0.2,0,0.4,0,0.6h-1.4c0-0.3,0-0.5-0.1-0.7C99.8,21.8,99.8,21.6,99.8,21.5L99.8,21.5L99.8,21.5z"/>
	<path class="st0" d="M104.3,19.5v3.1h-1.5v-4.5c0-0.3,0-0.6,0-0.8s0-0.4,0-0.5h1.4c0,0,0,0.1,0,0.3s0,0.3,0,0.5s0,0.3,0,0.4h0
		c0.2-0.4,0.4-0.8,0.7-1s0.6-0.3,1-0.3c0.4,0,0.8,0.1,1.1,0.3s0.4,0.5,0.5,1h0c0.2-0.5,0.4-0.8,0.7-1s0.6-0.3,1.1-0.3
		c0.6,0,1,0.2,1.3,0.6c0.3,0.4,0.4,0.9,0.4,1.7v3.7h-1.5v-3.3c0-0.5-0.1-0.9-0.2-1.2s-0.4-0.4-0.7-0.4c-0.3,0-0.5,0.1-0.7,0.4
		c-0.2,0.3-0.3,0.7-0.3,1.2v3.2h-1.5v-3.3c0-0.5-0.1-0.9-0.2-1.2s-0.4-0.4-0.7-0.4c-0.3,0-0.6,0.2-0.7,0.5S104.3,19,104.3,19.5z"/>
	<path class="st0" d="M114.1,19.5v3.1h-1.5v-4.5c0-0.3,0-0.6,0-0.8s0-0.4,0-0.5h1.4c0,0,0,0.1,0,0.3s0,0.3,0,0.5s0,0.3,0,0.4h0
		c0.2-0.4,0.5-0.8,0.8-1c0.3-0.2,0.7-0.3,1.1-0.3c0.6,0,1.1,0.2,1.4,0.6s0.5,0.9,0.5,1.7v3.7h-1.5v-3.3c0-0.5-0.1-0.9-0.3-1.2
		s-0.4-0.4-0.8-0.4c-0.4,0-0.7,0.2-0.9,0.5C114.2,18.7,114.1,19,114.1,19.5z"/>
	<path class="st0" d="M124.2,21c0,0.6-0.2,1-0.7,1.3s-1.1,0.5-1.9,0.5c-0.8,0-1.4-0.1-1.8-0.4s-0.7-0.7-0.9-1.2l1.3-0.2
		c0.1,0.3,0.2,0.5,0.4,0.6s0.5,0.2,1,0.2c0.4,0,0.7,0,0.9-0.2s0.3-0.3,0.3-0.5c0-0.2-0.1-0.3-0.2-0.4c-0.2-0.1-0.4-0.2-0.8-0.3
		c-0.3-0.1-0.5-0.1-0.8-0.2s-0.4-0.1-0.6-0.2s-0.3-0.1-0.4-0.2c-0.3-0.2-0.5-0.3-0.7-0.6c-0.2-0.2-0.2-0.5-0.2-0.8
		c0-0.6,0.2-1,0.6-1.3s1-0.5,1.8-0.5c0.7,0,1.2,0.1,1.7,0.4s0.7,0.7,0.8,1.2l-1.3,0.1c0-0.2-0.1-0.4-0.3-0.5
		c-0.2-0.1-0.4-0.2-0.8-0.2c-0.4,0-0.6,0-0.8,0.1s-0.3,0.2-0.3,0.5c0,0.2,0.1,0.3,0.2,0.4c0.1,0.1,0.4,0.2,0.7,0.2
		c0.4,0.1,0.9,0.2,1.2,0.3s0.6,0.2,0.9,0.3c0.2,0.1,0.4,0.3,0.5,0.5C124.2,20.4,124.2,20.6,124.2,21z"/>
	<path class="st0" d="M124.7,24.9c0.4-0.6,0.7-1.1,0.9-1.6c0.2-0.5,0.4-1.1,0.5-1.7s0.2-1.2,0.2-1.8c0-1-0.1-1.9-0.4-2.7
		s-0.7-1.6-1.2-2.4h1.5c0.4,0.5,0.7,1.1,0.9,1.6s0.4,1.1,0.5,1.7s0.2,1.2,0.2,1.8s-0.1,1.3-0.2,1.9c-0.1,0.6-0.3,1.1-0.5,1.7
		s-0.5,1.1-0.9,1.6L124.7,24.9L124.7,24.9z"/>
</g>
<g>
	<rect x="238.8" y="9.9" class="st2" width="97.1" height="18.7"/>
</g>
<g>
	<path d="M250.5,19.8v2.9h-1.6v-7.6h3.8c0.9,0,1.6,0.2,2.1,0.6s0.7,1,0.7,1.7c0,0.5-0.1,1-0.5,1.4c-0.3,0.4-0.7,0.6-1.2,0.8l2,3.2
		h-1.8l-1.8-2.9L250.5,19.8L250.5,19.8z M253.9,17.5c0-0.4-0.1-0.6-0.4-0.8c-0.2-0.2-0.6-0.3-1-0.3h-2v2.2h2.1c0.4,0,0.8-0.1,1-0.3
		S253.9,17.8,253.9,17.5z"/>
	<path d="M258.1,20.1c0,0.6,0.1,1,0.3,1.3c0.2,0.3,0.5,0.4,0.9,0.4c0.3,0,0.5-0.1,0.6-0.2c0.2-0.1,0.3-0.3,0.4-0.5l1.4,0.1
		c-0.4,1-1.2,1.6-2.5,1.6c-0.9,0-1.5-0.3-2-0.8s-0.7-1.3-0.7-2.3c0-1,0.2-1.7,0.7-2.2c0.5-0.5,1.1-0.8,2-0.8c0.8,0,1.5,0.3,1.9,0.8
		s0.7,1.4,0.7,2.4v0L258.1,20.1L258.1,20.1z M260.4,19.1c0-0.5-0.1-0.8-0.3-1.1c-0.2-0.2-0.5-0.3-0.8-0.3c-0.4,0-0.6,0.1-0.8,0.4
		s-0.3,0.6-0.3,1H260.4z"/>
	<path d="M265.4,22.8c-0.9,0-1.6-0.3-2-0.8c-0.5-0.5-0.7-1.3-0.7-2.2c0-1,0.2-1.7,0.7-2.2c0.5-0.5,1.2-0.8,2.1-0.8
		c0.7,0,1.2,0.2,1.7,0.5s0.7,0.8,0.8,1.4l-1.5,0.1c0-0.3-0.1-0.5-0.3-0.7s-0.4-0.3-0.7-0.3c-0.4,0-0.7,0.2-0.9,0.5
		c-0.2,0.3-0.3,0.8-0.3,1.5c0,0.7,0.1,1.2,0.3,1.5c0.2,0.3,0.5,0.5,0.9,0.5c0.3,0,0.5-0.1,0.7-0.3s0.3-0.5,0.4-0.8l1.5,0.1
		c0,0.4-0.2,0.8-0.4,1.1c-0.2,0.3-0.5,0.5-0.9,0.7C266.3,22.7,265.9,22.8,265.4,22.8z"/>
	<path d="M274.6,19.8c0,0.9-0.3,1.7-0.8,2.2s-1.2,0.8-2.2,0.8c-0.9,0-1.6-0.3-2.1-0.8s-0.8-1.3-0.8-2.2c0-0.9,0.3-1.7,0.8-2.2
		c0.5-0.5,1.2-0.8,2.2-0.8c1,0,1.7,0.3,2.2,0.8S274.6,18.8,274.6,19.8z M273,19.8c0-0.7-0.1-1.2-0.3-1.5s-0.5-0.5-1-0.5
		c-0.5,0-0.8,0.2-1,0.5s-0.3,0.8-0.3,1.5c0,0.7,0.1,1.1,0.3,1.5c0.2,0.3,0.5,0.5,1,0.5c0.5,0,0.8-0.2,1-0.5S273,20.5,273,19.8z"/>
	<path d="M277.3,19.8v2.8h-1.5v-4.5c0-0.3,0-0.6,0-0.8c0-0.2,0-0.4,0-0.6h1.4c0,0,0,0.1,0,0.2c0,0.1,0,0.2,0,0.4c0,0.1,0,0.3,0,0.4
		c0,0.1,0,0.2,0,0.3h0c0.1-0.4,0.3-0.7,0.4-0.9c0.1-0.2,0.2-0.3,0.4-0.4s0.4-0.1,0.6-0.1c0.2,0,0.4,0,0.5,0.1v1.3
		c-0.2,0-0.5-0.1-0.6-0.1c-0.4,0-0.7,0.2-0.9,0.5C277.4,18.8,277.3,19.2,277.3,19.8z"/>
	<path d="M283.9,22.7c0,0,0-0.1,0-0.2s0-0.2,0-0.4s0-0.2,0-0.3h0c-0.2,0.3-0.4,0.6-0.7,0.8s-0.7,0.3-1.1,0.3c-0.7,0-1.2-0.3-1.6-0.8
		c-0.4-0.5-0.5-1.3-0.5-2.2c0-1,0.2-1.7,0.6-2.2c0.4-0.5,0.9-0.8,1.6-0.8c0.4,0,0.8,0.1,1.1,0.3s0.5,0.4,0.7,0.8h0l0-1v-2.1h1.5v6.7
		c0,0.2,0,0.4,0,0.6s0,0.4,0,0.7L283.9,22.7L283.9,22.7z M281.4,19.8c0,0.7,0.1,1.2,0.3,1.5c0.2,0.3,0.5,0.5,0.9,0.5
		c0.4,0,0.7-0.2,0.9-0.5c0.2-0.3,0.3-0.8,0.3-1.5c0-0.6-0.1-1.1-0.3-1.5s-0.5-0.5-0.9-0.5c-0.4,0-0.7,0.2-0.9,0.5
		C281.4,18.6,281.4,19.1,281.4,19.8z"/>
	<path d="M291.7,21c0,0.6-0.2,1-0.7,1.3s-1.1,0.5-1.9,0.5c-0.8,0-1.4-0.1-1.8-0.4c-0.4-0.2-0.7-0.7-0.9-1.2l1.3-0.2
		c0.1,0.3,0.2,0.5,0.4,0.6s0.5,0.2,1,0.2c0.4,0,0.7,0,0.9-0.2s0.3-0.3,0.3-0.5c0-0.2-0.1-0.3-0.2-0.4c-0.2-0.1-0.4-0.2-0.8-0.3
		c-0.3-0.1-0.5-0.1-0.8-0.2s-0.4-0.1-0.6-0.2c-0.2,0-0.3-0.1-0.4-0.2c-0.3-0.2-0.5-0.3-0.7-0.6s-0.2-0.5-0.2-0.8
		c0-0.6,0.2-1,0.6-1.3c0.4-0.3,1-0.5,1.8-0.5c0.7,0,1.2,0.1,1.7,0.4s0.7,0.7,0.8,1.2l-1.3,0.1c0-0.2-0.1-0.4-0.3-0.5
		c-0.2-0.1-0.4-0.2-0.8-0.2c-0.4,0-0.6,0-0.8,0.1s-0.3,0.2-0.3,0.5c0,0.2,0.1,0.3,0.2,0.4c0.1,0.1,0.4,0.2,0.7,0.2
		c0.5,0.1,0.9,0.2,1.2,0.3s0.6,0.2,0.9,0.3c0.2,0.1,0.4,0.3,0.5,0.5C291.6,20.4,291.7,20.7,291.7,21z"/>
	<path d="M297.4,25c-0.4-0.5-0.7-1.1-0.9-1.6c-0.2-0.5-0.4-1.1-0.5-1.7s-0.2-1.2-0.2-1.9s0-1.3,0.2-1.9c0.1-0.6,0.3-1.1,0.5-1.7
		s0.5-1.1,0.9-1.6h1.5c-0.6,0.8-1,1.6-1.2,2.4s-0.4,1.7-0.4,2.7c0,0.7,0.1,1.3,0.2,1.8s0.3,1.1,0.5,1.7c0.2,0.5,0.5,1.1,0.9,1.6
		L297.4,25L297.4,25z"/>
	<path d="M301.2,19.8v2.8h-1.5v-4.5c0-0.3,0-0.6,0-0.8c0-0.2,0-0.4,0-0.6h1.4c0,0,0,0.1,0,0.2c0,0.1,0,0.2,0,0.4c0,0.1,0,0.3,0,0.4
		c0,0.1,0,0.2,0,0.3h0c0.1-0.4,0.3-0.7,0.4-0.9c0.1-0.2,0.2-0.3,0.4-0.4s0.4-0.1,0.6-0.1c0.2,0,0.4,0,0.5,0.1v1.3
		c-0.2,0-0.5-0.1-0.6-0.1c-0.4,0-0.7,0.2-0.9,0.5C301.3,18.8,301.2,19.2,301.2,19.8z"/>
	<path d="M309.5,19.8c0,0.9-0.3,1.7-0.8,2.2s-1.2,0.8-2.2,0.8c-0.9,0-1.6-0.3-2.1-0.8s-0.8-1.3-0.8-2.2c0-0.9,0.3-1.7,0.8-2.2
		c0.5-0.5,1.2-0.8,2.2-0.8c1,0,1.7,0.3,2.2,0.8S309.5,18.8,309.5,19.8z M307.9,19.8c0-0.7-0.1-1.2-0.3-1.5s-0.5-0.5-1-0.5
		c-0.5,0-0.8,0.2-1,0.5s-0.3,0.8-0.3,1.5c0,0.7,0.1,1.1,0.3,1.5c0.2,0.3,0.5,0.5,1,0.5c0.5,0,0.8-0.2,1-0.5
		C307.8,20.9,307.9,20.5,307.9,19.8z"/>
	<path d="M313.9,19.2l-0.9,3.5h-1.6l-1.5-5.8h1.4l0.7,3.4c0,0.2,0.1,0.3,0.1,0.5s0.1,0.3,0.1,0.5c0-0.2,0.1-0.3,0.1-0.5
		s0.1-0.3,0.1-0.5l0.9-3.4h1.6l0.9,3.4c0,0.1,0.1,0.2,0.1,0.4c0,0.2,0.1,0.4,0.1,0.6c0-0.2,0.1-0.3,0.1-0.5s0.1-0.3,0.1-0.5l0.8-3.4
		h1.4l-1.5,5.8h-1.6l-0.9-3.5c0-0.1,0-0.2-0.1-0.4c0-0.2-0.1-0.5-0.2-0.8c0,0.2-0.1,0.4-0.1,0.6S313.9,19,313.9,19.2z"/>
	<path d="M324.1,21c0,0.6-0.2,1-0.7,1.3s-1.1,0.5-1.9,0.5c-0.8,0-1.4-0.1-1.8-0.4c-0.4-0.2-0.7-0.7-0.9-1.2l1.3-0.2
		c0.1,0.3,0.2,0.5,0.4,0.6s0.5,0.2,1,0.2c0.4,0,0.7,0,0.9-0.2s0.3-0.3,0.3-0.5c0-0.2-0.1-0.3-0.2-0.4c-0.2-0.1-0.4-0.2-0.8-0.3
		c-0.3-0.1-0.5-0.1-0.8-0.2s-0.4-0.1-0.6-0.2c-0.2,0-0.3-0.1-0.4-0.2c-0.3-0.2-0.5-0.3-0.7-0.6s-0.2-0.5-0.2-0.8
		c0-0.6,0.2-1,0.6-1.3c0.4-0.3,1-0.5,1.8-0.5c0.7,0,1.2,0.1,1.7,0.4s0.7,0.7,0.8,1.2l-1.3,0.1c0-0.2-0.1-0.4-0.3-0.5
		c-0.2-0.1-0.4-0.2-0.8-0.2c-0.4,0-0.6,0-0.8,0.1s-0.3,0.2-0.3,0.5c0,0.2,0.1,0.3,0.2,0.4c0.1,0.1,0.4,0.2,0.7,0.2
		c0.5,0.1,0.9,0.2,1.2,0.3s0.6,0.2,0.9,0.3c0.2,0.1,0.4,0.3,0.5,0.5C324,20.4,324.1,20.7,324.1,21z"/>
	<path d="M324.6,25c0.4-0.6,0.7-1.1,0.9-1.6c0.2-0.5,0.4-1.1,0.5-1.7s0.2-1.2,0.2-1.8c0-1-0.1-1.9-0.4-2.7s-0.7-1.6-1.2-2.4h1.5
		c0.4,0.5,0.7,1.1,0.9,1.6s0.4,1.1,0.5,1.7s0.2,1.2,0.2,1.8s0,1.3-0.2,1.9c-0.1,0.6-0.3,1.1-0.5,1.7s-0.5,1.1-0.9,1.6L324.6,25
		L324.6,25z"/>
</g>
<g>
	<path d="M45.6,209.1c0,0.5-0.1,0.9-0.3,1.3c-0.2,0.4-0.5,0.7-0.9,0.9c-0.4,0.2-0.9,0.3-1.5,0.3h-1.9v2.7h-1.6v-7.6h3.4
		c0.9,0,1.6,0.2,2.1,0.6C45.3,207.8,45.6,208.4,45.6,209.1z M44,209.2c0-0.8-0.5-1.2-1.4-1.2h-1.6v2.5h1.7c0.4,0,0.8-0.1,1-0.3
		C43.8,209.9,44,209.6,44,209.2z"/>
	<path d="M48.2,211.5v2.9h-1.5v-4.5c0-0.3,0-0.6,0-0.8c0-0.2,0-0.4,0-0.6h1.4c0,0,0,0.1,0,0.2c0,0.1,0,0.2,0,0.4c0,0.1,0,0.3,0,0.4
		c0,0.1,0,0.2,0,0.3h0c0.1-0.4,0.3-0.7,0.4-0.9c0.1-0.2,0.2-0.3,0.4-0.4s0.3-0.1,0.6-0.1c0.2,0,0.3,0,0.5,0.1v1.3
		c-0.2,0-0.5-0.1-0.6-0.1c-0.4,0-0.7,0.1-0.9,0.5C48.3,210.4,48.2,210.9,48.2,211.5z"/>
	<path d="M52.5,206.3v1.1H51v-1.1H52.5z M52.5,208.5v5.8H51v-5.8H52.5z"/>
	<path d="M55.5,211.2v3.1H54v-4.5c0-0.3,0-0.6,0-0.8c0-0.2,0-0.4,0-0.5h1.4c0,0,0,0.1,0,0.3c0,0.2,0,0.3,0,0.5c0,0.2,0,0.3,0,0.4h0
		c0.2-0.4,0.4-0.8,0.7-1s0.6-0.3,1-0.3c0.4,0,0.8,0.1,1.1,0.3s0.4,0.5,0.5,1h0c0.2-0.5,0.4-0.8,0.7-1s0.6-0.3,1.1-0.3
		c0.6,0,1,0.2,1.3,0.6c0.3,0.4,0.4,0.9,0.4,1.7v3.7h-1.5V211c0-0.5-0.1-0.9-0.2-1.1s-0.4-0.4-0.7-0.4s-0.5,0.1-0.7,0.4
		c-0.2,0.3-0.3,0.7-0.3,1.2v3.2h-1.5v-3.3c0-0.5-0.1-0.9-0.2-1.1s-0.4-0.4-0.7-0.4c-0.3,0-0.6,0.2-0.7,0.5S55.5,210.7,55.5,211.2z"
		/>
	<path d="M65.2,214.4c-0.6,0-1-0.1-1.3-0.5s-0.5-0.7-0.5-1.3c0-0.6,0.2-1.1,0.6-1.4s1-0.5,1.7-0.5l1.2,0v-0.3c0-0.4-0.1-0.7-0.2-0.9
		c-0.1-0.2-0.3-0.3-0.7-0.3c-0.3,0-0.5,0.1-0.6,0.2c-0.1,0.1-0.2,0.3-0.2,0.6l-1.6-0.1c0.2-1.1,1-1.7,2.5-1.7c0.7,0,1.3,0.2,1.7,0.5
		s0.6,0.9,0.6,1.5v2.1c0,0.3,0,0.5,0.1,0.7c0.1,0.1,0.2,0.2,0.4,0.2c0.1,0,0.2,0,0.3,0v0.8c-0.2,0-0.3,0.1-0.5,0.1
		c-0.1,0-0.3,0-0.5,0c-0.4,0-0.7-0.1-0.8-0.3s-0.3-0.5-0.3-0.8h0c-0.2,0.4-0.5,0.7-0.8,0.9C66,214.3,65.6,214.4,65.2,214.4z
		 M66.9,211.6l-0.8,0c-0.3,0-0.6,0.1-0.8,0.1c-0.2,0.1-0.3,0.2-0.3,0.3s-0.1,0.3-0.1,0.5c0,0.3,0.1,0.5,0.2,0.6
		c0.1,0.1,0.3,0.2,0.5,0.2c0.2,0,0.4-0.1,0.7-0.2c0.2-0.1,0.3-0.3,0.5-0.5c0.1-0.2,0.2-0.5,0.2-0.7
		C66.9,211.9,66.9,211.6,66.9,211.6z"/>
	<path d="M71.4,211.5v2.9h-1.5v-4.5c0-0.3,0-0.6,0-0.8c0-0.2,0-0.4,0-0.6h1.4c0,0,0,0.1,0,0.2c0,0.1,0,0.2,0,0.4c0,0.1,0,0.3,0,0.4
		c0,0.1,0,0.2,0,0.3h0c0.1-0.4,0.3-0.7,0.4-0.9c0.1-0.2,0.2-0.3,0.4-0.4s0.3-0.1,0.6-0.1c0.2,0,0.3,0,0.5,0.1v1.3
		c-0.2,0-0.5-0.1-0.6-0.1c-0.4,0-0.7,0.1-0.9,0.5C71.6,210.4,71.4,210.9,71.4,211.5z"/>
	<path d="M75,216.6c-0.4,0-0.7,0-0.9-0.1v-1.1c0.2,0,0.4,0,0.5,0c0.3,0,0.6-0.1,0.8-0.3c0.2-0.2,0.3-0.5,0.5-1l-2.3-5.8h1.6l0.9,2.7
		c0.1,0.2,0.2,0.4,0.2,0.7s0.2,0.6,0.3,1c0.1-0.3,0.2-0.6,0.2-0.9s0.2-0.6,0.2-0.9l0.9-2.7h1.6l-2.3,6.1c-0.1,0.2-0.2,0.5-0.3,0.7
		s-0.2,0.4-0.3,0.5c-0.2,0.3-0.5,0.5-0.7,0.6C75.6,216.5,75.3,216.6,75,216.6z"/>
	<path d="M84.9,211.6v2.8h-1.6v-7.6h1.6v3.4l3.4-3.4h1.8l-3.2,3.2l3.5,4.4h-1.9l-2.7-3.5L84.9,211.6z"/>
	<path d="M92.6,211.7c0,0.6,0.1,1,0.3,1.3c0.2,0.3,0.5,0.4,0.9,0.4c0.3,0,0.5-0.1,0.7-0.2c0.2-0.1,0.3-0.3,0.4-0.5l1.4,0.1
		c-0.4,1-1.2,1.6-2.5,1.6c-0.9,0-1.5-0.3-2-0.8s-0.7-1.3-0.7-2.3c0-1,0.2-1.7,0.7-2.2c0.5-0.5,1.2-0.8,2-0.8c0.8,0,1.5,0.3,1.9,0.8
		s0.7,1.4,0.7,2.4v0L92.6,211.7L92.6,211.7z M94.8,210.8c0-0.5-0.1-0.8-0.3-1.1c-0.2-0.2-0.5-0.4-0.8-0.4c-0.3,0-0.6,0.1-0.8,0.4
		s-0.3,0.6-0.3,1H94.8z"/>
	<path d="M98.2,216.6c-0.4,0-0.7,0-0.9-0.1v-1.1c0.2,0,0.4,0,0.5,0c0.3,0,0.6-0.1,0.8-0.3c0.2-0.2,0.3-0.5,0.5-1l-2.3-5.8h1.6
		l0.9,2.7c0.1,0.2,0.2,0.4,0.2,0.7s0.2,0.6,0.3,1c0.1-0.3,0.2-0.6,0.2-0.9s0.2-0.6,0.2-0.9l0.9-2.7h1.6l-2.3,6.1
		c-0.1,0.2-0.2,0.5-0.3,0.7s-0.2,0.4-0.3,0.5c-0.2,0.3-0.5,0.5-0.7,0.6C98.9,216.5,98.6,216.6,98.2,216.6z"/>
</g>
<g>
	<path d="M283.3,211.5v2.8h-1.6v-7.6h5.6v1.2h-4v2.3h3.9v1.2L283.3,211.5L283.3,211.5z"/>
	<path d="M294,211.4c0,0.9-0.3,1.7-0.8,2.2s-1.2,0.8-2.2,0.8c-0.9,0-1.6-0.3-2.1-0.8s-0.8-1.3-0.8-2.2c0-0.9,0.3-1.7,0.8-2.2
		c0.5-0.5,1.2-0.8,2.2-0.8c1,0,1.7,0.3,2.2,0.8C293.7,209.7,294,210.4,294,211.4z M292.4,211.4c0-0.7-0.1-1.2-0.3-1.5
		s-0.5-0.5-1-0.5c-0.5,0-0.8,0.2-1,0.5s-0.3,0.8-0.3,1.5c0,0.6,0.1,1.1,0.3,1.5c0.2,0.3,0.5,0.5,1,0.5c0.5,0,0.8-0.2,1-0.5
		C292.3,212.6,292.4,212.1,292.4,211.4z"/>
	<path d="M296.7,211.5v2.9h-1.5v-4.5c0-0.3,0-0.6,0-0.8c0-0.2,0-0.4,0-0.6h1.4c0,0,0,0.1,0,0.2c0,0.1,0,0.2,0,0.4c0,0.1,0,0.3,0,0.4
		s0,0.2,0,0.3h0c0.1-0.4,0.3-0.7,0.4-0.9c0.1-0.2,0.2-0.3,0.4-0.4s0.4-0.1,0.6-0.1c0.2,0,0.4,0,0.5,0.1v1.3c-0.2,0-0.5-0.1-0.6-0.1
		c-0.4,0-0.7,0.1-0.9,0.5S296.7,210.9,296.7,211.5z"/>
	<path d="M300.7,211.7c0,0.6,0.1,1,0.3,1.3c0.2,0.3,0.5,0.4,0.9,0.4c0.3,0,0.5-0.1,0.6-0.2c0.2-0.1,0.3-0.3,0.4-0.5l1.4,0.1
		c-0.4,1-1.2,1.6-2.5,1.6c-0.9,0-1.5-0.3-2-0.8c-0.5-0.5-0.7-1.3-0.7-2.3c0-1,0.2-1.7,0.7-2.2s1.1-0.8,2-0.8c0.8,0,1.5,0.3,1.9,0.8
		s0.7,1.4,0.7,2.4v0L300.7,211.7L300.7,211.7z M302.9,210.8c0-0.5-0.1-0.8-0.3-1.1c-0.2-0.2-0.5-0.4-0.8-0.4c-0.4,0-0.6,0.1-0.8,0.4
		s-0.3,0.6-0.3,1H302.9z"/>
	<path d="M307.1,206.3v1.1h-1.5v-1.1H307.1z M307.1,208.5v5.8h-1.5v-5.8H307.1z"/>
	<path d="M311,216.6c-0.7,0-1.3-0.1-1.7-0.4s-0.7-0.7-0.8-1.2l1.5-0.2c0,0.2,0.2,0.4,0.4,0.5c0.2,0.1,0.4,0.2,0.7,0.2
		c0.4,0,0.7-0.1,0.9-0.4s0.3-0.6,0.3-1.1l0-0.9h0c-0.2,0.4-0.4,0.6-0.7,0.8c-0.3,0.2-0.7,0.3-1.1,0.3c-0.7,0-1.2-0.2-1.6-0.8
		s-0.6-1.2-0.6-2.2c0-1,0.2-1.7,0.6-2.2c0.4-0.5,0.9-0.8,1.7-0.8c0.4,0,0.8,0.1,1.1,0.3s0.5,0.4,0.7,0.8h0c0-0.1,0-0.2,0-0.3
		s0-0.2,0-0.4s0-0.2,0-0.2h1.4c0,0.4,0,0.8,0,1.3v4.3c0,0.8-0.2,1.5-0.7,1.9C312.6,216.4,311.9,216.6,311,216.6z M312.3,211.3
		c0-0.6-0.1-1.1-0.3-1.4c-0.2-0.3-0.5-0.5-0.9-0.5c-0.4,0-0.7,0.2-0.9,0.5c-0.2,0.3-0.3,0.8-0.3,1.5c0,0.6,0.1,1.1,0.3,1.4
		c0.2,0.3,0.5,0.5,0.9,0.5s0.7-0.2,0.9-0.5C312.2,212.4,312.3,211.9,312.3,211.3z"/>
	<path d="M316.8,211.2v3.1h-1.5v-4.5c0-0.3,0-0.6,0-0.8c0-0.2,0-0.4,0-0.5h1.4c0,0,0,0.1,0,0.3c0,0.2,0,0.3,0,0.5c0,0.2,0,0.3,0,0.4
		h0c0.2-0.4,0.5-0.8,0.8-1s0.7-0.3,1.1-0.3c0.6,0,1.1,0.2,1.4,0.6c0.3,0.4,0.5,0.9,0.5,1.7v3.7h-1.5V211c0-0.5-0.1-0.9-0.3-1.1
		s-0.4-0.4-0.8-0.4c-0.4,0-0.7,0.2-0.9,0.5C316.9,210.3,316.8,210.7,316.8,211.2z"/>
	<path d="M326.7,211.6v2.8h-1.6v-7.6h1.6v3.4l3.4-3.4h1.9l-3.2,3.2l3.5,4.4h-1.9l-2.7-3.5L326.7,211.6z"/>
	<path d="M334.3,211.7c0,0.6,0.1,1,0.3,1.3c0.2,0.3,0.5,0.4,0.9,0.4c0.3,0,0.5-0.1,0.6-0.2c0.2-0.1,0.3-0.3,0.4-0.5l1.4,0.1
		c-0.4,1-1.2,1.6-2.5,1.6c-0.9,0-1.5-0.3-2-0.8c-0.5-0.5-0.7-1.3-0.7-2.3c0-1,0.2-1.7,0.7-2.2s1.1-0.8,2-0.8c0.8,0,1.5,0.3,1.9,0.8
		s0.7,1.4,0.7,2.4v0L334.3,211.7L334.3,211.7z M336.6,210.8c0-0.5-0.1-0.8-0.3-1.1c-0.2-0.2-0.5-0.4-0.8-0.4c-0.4,0-0.6,0.1-0.8,0.4
		s-0.3,0.6-0.3,1H336.6z"/>
	<path d="M339.9,216.6c-0.4,0-0.7,0-1-0.1v-1.1c0.2,0,0.4,0,0.5,0c0.4,0,0.6-0.1,0.8-0.3c0.2-0.2,0.3-0.5,0.5-1l-2.3-5.8h1.6
		l0.9,2.7c0.1,0.2,0.1,0.4,0.2,0.7s0.2,0.6,0.3,1c0.1-0.3,0.2-0.6,0.2-0.9c0.1-0.3,0.2-0.6,0.2-0.9l0.9-2.7h1.6l-2.3,6.1
		c-0.1,0.2-0.2,0.5-0.3,0.7c-0.1,0.2-0.2,0.4-0.3,0.5c-0.2,0.3-0.5,0.5-0.7,0.6C340.6,216.5,340.3,216.6,339.9,216.6z"/>
</g>
<g>
	<path d="M170.4,212.4l-0.7,1.9h-1.6l2.8-7.6h1.9l2.8,7.6H174l-0.7-1.9H170.4z M171.8,207.9c0,0.1-0.1,0.3-0.1,0.5s-0.1,0.3-0.1,0.4
		l-0.8,2.3h2.2l-0.8-2.4c-0.1-0.1-0.1-0.3-0.1-0.5S171.9,208.1,171.8,207.9z"/>
	<path d="M179.3,214.2c-0.4,0.1-0.8,0.2-1.3,0.2c-0.4,0-0.8-0.1-1-0.4s-0.4-0.6-0.4-1.1v-3.4h-0.7v-1h0.8l0.5-1.4h0.9v1.4h1.1v1
		h-1.1v3c0,0.3,0.1,0.5,0.2,0.6c0.1,0.1,0.3,0.2,0.5,0.2c0.1,0,0.3,0,0.5-0.1L179.3,214.2L179.3,214.2z"/>
	<path d="M183,214.2c-0.4,0.1-0.8,0.2-1.3,0.2c-0.4,0-0.8-0.1-1-0.4s-0.4-0.6-0.4-1.1v-3.4h-0.7v-1h0.8l0.5-1.4h0.9v1.4h1.1v1h-1.1
		v3c0,0.3,0.1,0.5,0.2,0.6c0.1,0.1,0.3,0.2,0.5,0.2c0.1,0,0.3,0,0.5-0.1L183,214.2L183,214.2z"/>
	<path d="M185.4,211.5v2.9h-1.5v-4.5c0-0.3,0-0.6,0-0.8c0-0.2,0-0.4,0-0.6h1.4c0,0,0,0.1,0,0.2c0,0.1,0,0.2,0,0.4c0,0.1,0,0.3,0,0.4
		c0,0.1,0,0.2,0,0.3h0c0.1-0.4,0.3-0.7,0.4-0.9c0.1-0.2,0.2-0.3,0.4-0.4s0.4-0.1,0.6-0.1c0.2,0,0.4,0,0.5,0.1v1.3
		c-0.2,0-0.5-0.1-0.6-0.1c-0.4,0-0.7,0.1-0.9,0.5C185.5,210.4,185.4,210.9,185.4,211.5z"/>
	<path d="M189.7,206.3v1.1h-1.5v-1.1H189.7z M189.7,208.5v5.8h-1.5v-5.8H189.7z"/>
	<path d="M196.7,211.4c0,1-0.2,1.7-0.6,2.2c-0.4,0.5-0.9,0.8-1.6,0.8c-0.4,0-0.8-0.1-1.1-0.3s-0.5-0.4-0.7-0.8h0c0,0.1,0,0.2,0,0.3
		s0,0.3,0,0.4c0,0.1,0,0.2,0,0.2h-1.5c0-0.2,0-0.4,0-0.6c0-0.2,0-0.5,0-0.7v-6.6h1.5v2.2c0,0.2,0,0.3,0,0.5s0,0.3,0,0.5h0
		c0.2-0.4,0.4-0.6,0.7-0.8s0.7-0.3,1.1-0.3c0.7,0,1.2,0.3,1.6,0.8C196.6,209.7,196.7,210.4,196.7,211.4z M195.2,211.4
		c0-0.7-0.1-1.1-0.3-1.5s-0.5-0.5-0.9-0.5c-0.4,0-0.7,0.2-0.9,0.5c-0.2,0.3-0.3,0.8-0.3,1.5c0,0.6,0.1,1.1,0.3,1.4
		c0.2,0.3,0.5,0.5,0.9,0.5c0.4,0,0.7-0.2,0.9-0.5S195.2,212.1,195.2,211.4z"/>
	<path d="M201.7,213.2c-0.2,0.4-0.5,0.8-0.8,1s-0.7,0.3-1.1,0.3c-0.6,0-1.1-0.2-1.4-0.6s-0.5-0.9-0.5-1.7v-3.7h1.5v3.3
		c0,0.5,0.1,0.9,0.3,1.1c0.2,0.3,0.4,0.4,0.8,0.4c0.4,0,0.7-0.2,0.9-0.5s0.3-0.7,0.3-1.2v-3.1h1.5v4.5c0,0.2,0,0.5,0,0.7
		s0,0.4,0,0.6h-1.4c0-0.3,0-0.5-0.1-0.7C201.7,213.4,201.7,213.3,201.7,213.2L201.7,213.2L201.7,213.2z"/>
	<path d="M207.4,214.2c-0.4,0.1-0.8,0.2-1.3,0.2c-0.4,0-0.8-0.1-1-0.4s-0.4-0.6-0.4-1.1v-3.4H204v-1h0.8l0.5-1.4h0.9v1.4h1.1v1h-1.1
		v3c0,0.3,0.1,0.5,0.2,0.6c0.1,0.1,0.3,0.2,0.5,0.2c0.1,0,0.3,0,0.5-0.1L207.4,214.2L207.4,214.2z"/>
	<path d="M209.6,211.7c0,0.6,0.1,1,0.3,1.3c0.2,0.3,0.5,0.4,0.9,0.4c0.3,0,0.5-0.1,0.6-0.2c0.2-0.1,0.3-0.3,0.4-0.5l1.4,0.1
		c-0.4,1-1.2,1.6-2.5,1.6c-0.9,0-1.5-0.3-2-0.8s-0.7-1.3-0.7-2.3c0-1,0.2-1.7,0.7-2.2c0.5-0.5,1.1-0.8,2-0.8c0.8,0,1.5,0.3,1.9,0.8
		s0.7,1.4,0.7,2.4v0L209.6,211.7L209.6,211.7z M211.9,210.8c0-0.5-0.1-0.8-0.3-1.1c-0.2-0.2-0.5-0.4-0.8-0.4c-0.4,0-0.6,0.1-0.8,0.4
		s-0.3,0.6-0.3,1H211.9z"/>
</g>
<g>
	<rect x="52.9" y="184" class="st1" width="2" height="19.8"/>
</g>
<g>
	<rect x="187.4" y="188.7" class="st1" width="2" height="15.1"/>
</g>
<g>
	<rect x="310.4" y="184" class="st1" width="2" height="19.8"/>
</g>
<g>
	<polygon class="st1" points="247.9,189.7 111,189.7 111,184 113,184 113,187.7 245.9,187.7 245.9,184 247.9,184 	"/>
</g>
<g>
	<rect x="174.2" y="184" class="st1" width="2" height="4.7"/>
</g>
</svg>
