<?xml version="1.0" encoding="utf-8"?>
<!-- Generator: Adobe Illustrator 24.1.0, SVG Export Plug-In . SVG Version: 6.00 Build 0)  -->
<svg version="1.1" xmlns="http://www.w3.org/2000/svg" xmlns:xlink="http://www.w3.org/1999/xlink" x="0px" y="0px"
	 viewBox="0 0 346.2 163.71" enable-background="new 0 0 346.2 163.71" xml:space="preserve">
<g id="api">
</g>
<g id="database">
	<g>
		<path fill="#58595B" d="M339.65,27.59v128.94H6.55V27.59H339.65 M340.4,26.84H5.8v130.44H340.4V26.84L340.4,26.84z"/>
	</g>
	<g>
		<rect x="23.32" y="36.01" fill="#6D6E71" width="30.66" height="21.03"/>
	</g>
	<g>
		<rect x="23.32" y="65.8" fill="#E6E7E8" width="30.66" height="21.03"/>
	</g>
	<g>
		<rect x="67.56" y="36.01" fill="#6D6E71" width="58.25" height="21.03"/>
	</g>
	<g>
		<rect x="67.56" y="65.8" fill="#E6E7E8" width="58.25" height="21.03"/>
	</g>
	<g>
		<rect x="136.34" y="36.01" fill="#6D6E71" width="45.01" height="21.03"/>
	</g>
	<g>
		<rect x="136.34" y="65.8" fill="#E6E7E8" width="45.01" height="21.03"/>
	</g>
	<g>
		<rect x="191.88" y="36.01" fill="#6D6E71" width="63.27" height="21.03"/>
	</g>
	<g>
		<rect x="191.88" y="65.8" fill="#E6E7E8" width="63.27" height="21.03"/>
	</g>
	<g>
		<rect x="265.67" y="36.01" fill="#6D6E71" width="60.95" height="21.03"/>
	</g>
	<g>
		<rect x="265.67" y="65.8" fill="#E6E7E8" width="60.95" height="21.03"/>
	</g>
	<g>
		<path d="M40.75,79.39v1.12h-5.12v-1.12h1.87v-5.16l-1.82,1.13v-1.19l1.9-1.23h1.43v6.45H40.75z"/>
	</g>
	<g>
		<path d="M158.27,79.27v1.24h-5.3v-1.05c0.13-0.29,0.3-0.57,0.51-0.85c0.2-0.28,0.45-0.56,0.73-0.84c0.29-0.28,0.61-0.57,0.97-0.87
			c0.27-0.21,0.49-0.41,0.68-0.59c0.19-0.18,0.33-0.34,0.43-0.48c0.11-0.14,0.19-0.28,0.24-0.42c0.05-0.14,0.08-0.27,0.08-0.41
			c0-0.33-0.08-0.58-0.25-0.74c-0.17-0.16-0.41-0.25-0.74-0.25c-0.32,0-0.57,0.09-0.74,0.26c-0.17,0.17-0.28,0.43-0.33,0.78
			l-1.52-0.09c0.09-0.7,0.35-1.24,0.79-1.61s1.04-0.55,1.79-0.55c0.82,0,1.44,0.19,1.88,0.56c0.44,0.37,0.65,0.9,0.65,1.57
			c0,0.38-0.08,0.72-0.24,1.02c-0.16,0.3-0.36,0.58-0.6,0.83c-0.2,0.22-0.43,0.43-0.68,0.62c-0.25,0.2-0.5,0.39-0.73,0.57
			c-0.25,0.2-0.48,0.4-0.68,0.61s-0.36,0.42-0.46,0.66H158.27z"/>
		<path d="M164.35,74.14c-0.34,0.54-0.66,1.06-0.96,1.56c-0.3,0.5-0.57,1.01-0.79,1.52c-0.23,0.51-0.4,1.03-0.53,1.57
			s-0.2,1.11-0.2,1.71h-1.57c0-0.58,0.06-1.12,0.19-1.64c0.12-0.52,0.32-1.06,0.6-1.64c0.18-0.37,0.42-0.8,0.71-1.28
			c0.29-0.48,0.68-1.07,1.17-1.77h-3.76v-1.24h5.16V74.14z"/>
	</g>
	<g>
		<rect x="136.34" y="95.59" fill="#E6E7E8" width="45.01" height="21.03"/>
	</g>
	<g>
		<path d="M158.27,109.06v1.24h-5.3v-1.05c0.13-0.29,0.3-0.57,0.51-0.85c0.2-0.28,0.45-0.56,0.73-0.84
			c0.29-0.28,0.61-0.57,0.97-0.87c0.27-0.21,0.49-0.41,0.68-0.59c0.19-0.18,0.33-0.34,0.43-0.48c0.11-0.14,0.19-0.28,0.24-0.42
			c0.05-0.14,0.08-0.27,0.08-0.41c0-0.33-0.08-0.58-0.25-0.74c-0.17-0.16-0.41-0.25-0.74-0.25c-0.32,0-0.57,0.09-0.74,0.26
			c-0.17,0.17-0.28,0.43-0.33,0.78l-1.52-0.09c0.09-0.7,0.35-1.24,0.79-1.61s1.04-0.55,1.79-0.55c0.82,0,1.44,0.19,1.88,0.56
			c0.44,0.37,0.65,0.9,0.65,1.57c0,0.38-0.08,0.72-0.24,1.02c-0.16,0.3-0.36,0.58-0.6,0.83c-0.2,0.22-0.43,0.43-0.68,0.62
			c-0.25,0.2-0.5,0.39-0.73,0.57c-0.25,0.2-0.48,0.4-0.68,0.61s-0.36,0.42-0.46,0.66H158.27z"/>
		<path d="M164.42,106.39c0,1.34-0.25,2.35-0.74,3.01s-1.19,1-2.09,1c-0.67,0-1.19-0.14-1.57-0.43c-0.38-0.29-0.65-0.74-0.8-1.35
			l1.42-0.2c0.14,0.53,0.46,0.79,0.97,0.79c0.42,0,0.75-0.2,0.97-0.61s0.34-1,0.35-1.8c-0.14,0.27-0.36,0.48-0.67,0.63
			c-0.31,0.15-0.64,0.23-1,0.23c-0.44,0-0.83-0.1-1.15-0.31c-0.33-0.21-0.58-0.5-0.75-0.87c-0.18-0.38-0.27-0.82-0.27-1.34
			c0-0.79,0.23-1.42,0.69-1.86s1.11-0.67,1.95-0.67c0.91,0,1.58,0.31,2.02,0.94C164.2,104.19,164.42,105.13,164.42,106.39z
			 M162.83,105.34c0-0.47-0.1-0.84-0.31-1.12c-0.21-0.28-0.48-0.42-0.82-0.42c-0.33,0-0.6,0.12-0.79,0.36
			c-0.19,0.24-0.29,0.58-0.29,1c0,0.42,0.09,0.75,0.29,1.01c0.19,0.25,0.45,0.38,0.79,0.38c0.21,0,0.41-0.05,0.57-0.15
			s0.3-0.24,0.4-0.42S162.83,105.58,162.83,105.34z"/>
	</g>
	<g>
		<rect x="136.34" y="125.38" fill="#E6E7E8" width="45.01" height="21.03"/>
	</g>
	<g>
		<path d="M158.27,138.85v1.24h-5.3v-1.05c0.13-0.29,0.3-0.57,0.51-0.85c0.2-0.28,0.45-0.56,0.73-0.84
			c0.29-0.28,0.61-0.57,0.97-0.87c0.27-0.21,0.49-0.41,0.68-0.59c0.19-0.18,0.33-0.34,0.43-0.48c0.11-0.14,0.19-0.28,0.24-0.42
			c0.05-0.14,0.08-0.27,0.08-0.41c0-0.33-0.08-0.58-0.25-0.74c-0.17-0.16-0.41-0.25-0.74-0.25c-0.32,0-0.57,0.09-0.74,0.26
			c-0.17,0.17-0.28,0.43-0.33,0.78l-1.52-0.09c0.09-0.7,0.35-1.24,0.79-1.61s1.04-0.55,1.79-0.55c0.82,0,1.44,0.19,1.88,0.56
			c0.44,0.37,0.65,0.9,0.65,1.57c0,0.38-0.08,0.72-0.24,1.02c-0.16,0.3-0.36,0.58-0.6,0.83c-0.2,0.22-0.43,0.43-0.68,0.62
			c-0.25,0.2-0.5,0.39-0.73,0.57c-0.25,0.2-0.48,0.4-0.68,0.61s-0.36,0.42-0.46,0.66H158.27z"/>
		<path d="M164.52,137.57c0,0.8-0.25,1.44-0.75,1.91c-0.5,0.47-1.18,0.71-2.05,0.71c-0.76,0-1.37-0.17-1.82-0.51
			c-0.46-0.34-0.74-0.84-0.85-1.49l1.51-0.12c0.08,0.32,0.22,0.56,0.42,0.7s0.45,0.22,0.76,0.22c0.38,0,0.68-0.12,0.9-0.36
			s0.34-0.59,0.34-1.04c0-0.4-0.11-0.72-0.32-0.95c-0.21-0.24-0.51-0.36-0.89-0.36c-0.21,0-0.4,0.04-0.57,0.12
			c-0.17,0.08-0.32,0.2-0.46,0.37h-1.47l0.26-4.26h4.55v1.12h-3.18l-0.12,1.91c0.37-0.32,0.82-0.48,1.37-0.48
			c0.48,0,0.9,0.1,1.25,0.3c0.36,0.2,0.63,0.49,0.83,0.86S164.52,137.05,164.52,137.57z"/>
	</g>
	<g>
		<path d="M85.32,79.37c0.96,0,1.62-0.48,1.99-1.44l1.38,0.52c-0.3,0.73-0.73,1.27-1.31,1.63c-0.57,0.36-1.26,0.53-2.07,0.53
			c-0.81,0-1.5-0.15-2.07-0.46c-0.57-0.31-1-0.76-1.3-1.35s-0.45-1.29-0.45-2.12c0-0.83,0.14-1.53,0.43-2.11s0.71-1.01,1.27-1.31
			c0.56-0.3,1.24-0.45,2.05-0.45c0.89,0,1.61,0.18,2.17,0.53c0.56,0.36,0.95,0.88,1.18,1.57l-1.4,0.38c-0.12-0.38-0.35-0.68-0.7-0.9
			c-0.35-0.22-0.75-0.34-1.22-0.34c-0.72,0-1.26,0.22-1.63,0.67c-0.37,0.44-0.56,1.09-0.56,1.95c0,0.58,0.08,1.07,0.25,1.47
			s0.42,0.7,0.75,0.91C84.44,79.27,84.84,79.37,85.32,79.37z"/>
		<path d="M91.25,75.86c0.2-0.44,0.46-0.77,0.77-0.97c0.31-0.2,0.68-0.3,1.1-0.3c0.62,0,1.09,0.19,1.42,0.57s0.49,0.93,0.49,1.67
			v3.68h-1.5v-3.25c0-0.51-0.09-0.9-0.26-1.15s-0.43-0.38-0.78-0.38c-0.37,0-0.66,0.16-0.88,0.47c-0.22,0.31-0.34,0.71-0.34,1.21
			v3.11h-1.51v-7.97h1.51v2.18c0,0.13,0,0.26-0.01,0.39c0,0.13-0.01,0.26-0.01,0.38c-0.01,0.13-0.01,0.25-0.02,0.38H91.25z"/>
		<path d="M97.99,72.54v1.11h-1.51v-1.11H97.99z M97.99,74.7v5.81h-1.51V74.7H97.99z"/>
		<path d="M100.89,80.62c-0.56,0-1-0.15-1.32-0.46c-0.32-0.31-0.47-0.74-0.47-1.29c0-0.6,0.2-1.06,0.59-1.37
			c0.39-0.31,0.96-0.47,1.71-0.49l1.25-0.02v-0.3c0-0.38-0.07-0.66-0.2-0.85c-0.13-0.18-0.35-0.28-0.65-0.28
			c-0.28,0-0.48,0.06-0.62,0.19c-0.13,0.13-0.21,0.34-0.24,0.63l-1.57-0.08c0.2-1.15,1.03-1.72,2.5-1.72c0.73,0,1.3,0.18,1.7,0.54
			s0.6,0.88,0.6,1.54v2.12c0,0.33,0.04,0.55,0.11,0.67c0.07,0.12,0.2,0.19,0.37,0.19c0.11,0,0.23-0.01,0.33-0.03v0.82
			c-0.19,0.05-0.35,0.08-0.48,0.1c-0.13,0.02-0.29,0.04-0.49,0.04c-0.38,0-0.66-0.09-0.84-0.28s-0.29-0.46-0.33-0.82h-0.03
			c-0.21,0.38-0.48,0.67-0.79,0.86C101.68,80.52,101.31,80.62,100.89,80.62z M102.64,77.82l-0.77,0.01
			c-0.35,0.02-0.6,0.06-0.75,0.11c-0.15,0.06-0.26,0.16-0.34,0.29s-0.12,0.3-0.12,0.52c0,0.28,0.06,0.48,0.19,0.62
			c0.13,0.13,0.3,0.2,0.51,0.2c0.24,0,0.45-0.06,0.65-0.19c0.19-0.13,0.35-0.31,0.46-0.53c0.11-0.23,0.17-0.47,0.17-0.72V77.82z"/>
		<path d="M111.18,77.6c0,0.94-0.26,1.68-0.78,2.22c-0.52,0.54-1.25,0.8-2.17,0.8c-0.91,0-1.62-0.27-2.13-0.81s-0.77-1.27-0.77-2.21
			c0-0.93,0.26-1.67,0.77-2.21c0.52-0.54,1.24-0.8,2.16-0.8c0.95,0,1.67,0.26,2.17,0.78C110.93,75.89,111.18,76.63,111.18,77.6z
			 M109.6,77.6c0-0.69-0.11-1.19-0.34-1.5s-0.55-0.47-0.98-0.47c-0.46,0-0.8,0.16-1.03,0.49c-0.23,0.33-0.34,0.82-0.34,1.48
			c0,0.65,0.11,1.14,0.34,1.48c0.22,0.34,0.55,0.51,0.97,0.51c0.47,0,0.81-0.17,1.04-0.5C109.49,78.76,109.6,78.26,109.6,77.6z"/>
	</g>
	<g>
		<path d="M210.22,77.27v3.24h-1.58v-7.57h1.58v3.01h3.3v-3.01h1.58v7.57h-1.58v-3.24H210.22z"/>
		<path d="M218.12,72.54v1.11h-1.51v-1.11H218.12z M218.12,74.7v5.81h-1.51V74.7H218.12z"/>
		<path d="M221.17,78.33v2.18h-1.51v-7.97h1.51v4.57l2.07-2.41h1.62l-2.04,2.27l2.2,3.54h-1.65l-1.55-2.63L221.17,78.33z"/>
		<path d="M227.29,72.54v1.11h-1.51v-1.11H227.29z M227.29,74.7v5.81h-1.51V74.7H227.29z"/>
		<path d="M230.35,77.4v3.12h-1.51V76c0-0.31,0-0.57-0.01-0.77c-0.01-0.2-0.02-0.38-0.03-0.53h1.44c0.01,0.04,0.02,0.14,0.03,0.3
			c0.01,0.16,0.02,0.32,0.03,0.49c0.01,0.17,0.01,0.29,0.01,0.36h0.02c0.2-0.44,0.46-0.77,0.77-0.97c0.31-0.2,0.68-0.3,1.1-0.3
			c0.62,0,1.09,0.19,1.42,0.57s0.49,0.93,0.49,1.67v3.69h-1.5v-3.26c0-0.51-0.09-0.9-0.26-1.15s-0.43-0.38-0.78-0.38
			c-0.37,0-0.66,0.16-0.88,0.47C230.46,76.5,230.35,76.91,230.35,77.4z"/>
		<path d="M237.99,82.84c-0.71,0-1.28-0.14-1.71-0.41c-0.43-0.27-0.7-0.66-0.8-1.16l1.51-0.18c0.05,0.23,0.17,0.42,0.35,0.55
			c0.18,0.13,0.41,0.2,0.7,0.2c0.42,0,0.72-0.13,0.92-0.39s0.29-0.64,0.29-1.15l0.01-0.88h-0.01c-0.17,0.36-0.4,0.63-0.71,0.8
			c-0.31,0.18-0.7,0.27-1.15,0.27c-0.68,0-1.2-0.25-1.57-0.76s-0.56-1.24-0.56-2.18c0-0.95,0.19-1.68,0.57-2.2
			c0.38-0.52,0.94-0.77,1.67-0.77c0.42,0,0.78,0.09,1.07,0.26c0.29,0.17,0.52,0.44,0.69,0.79h0.03c0-0.09,0-0.19,0.01-0.32
			s0.02-0.25,0.03-0.37s0.02-0.2,0.04-0.24h1.43c-0.02,0.39-0.03,0.83-0.03,1.34v4.29c0,0.83-0.23,1.45-0.7,1.87
			C239.57,82.63,238.89,82.84,237.99,82.84z M239.25,77.52c0-0.6-0.11-1.06-0.32-1.4c-0.21-0.33-0.52-0.5-0.91-0.5
			c-0.4,0-0.7,0.16-0.91,0.48s-0.3,0.81-0.3,1.45c0,0.63,0.1,1.1,0.3,1.42c0.2,0.32,0.5,0.48,0.9,0.48s0.71-0.17,0.92-0.5
			C239.15,78.62,239.25,78.14,239.25,77.52z"/>
	</g>
	<g>
		<rect x="191.88" y="95.59" fill="#E6E7E8" width="63.27" height="21.03"/>
	</g>
	<g>
		<path d="M210.22,107.06v3.24h-1.58v-7.57h1.58v3.01h3.3v-3.01h1.58v7.57h-1.58v-3.24H210.22z"/>
		<path d="M218.12,102.33v1.11h-1.51v-1.11H218.12z M218.12,104.49v5.81h-1.51v-5.81H218.12z"/>
		<path d="M221.17,108.12v2.18h-1.51v-7.97h1.51v4.57l2.07-2.41h1.62l-2.04,2.27l2.2,3.54h-1.65l-1.55-2.63L221.17,108.12z"/>
		<path d="M227.29,102.33v1.11h-1.51v-1.11H227.29z M227.29,104.49v5.81h-1.51v-5.81H227.29z"/>
		<path d="M230.35,107.18v3.12h-1.51v-4.51c0-0.31,0-0.57-0.01-0.77c-0.01-0.2-0.02-0.38-0.03-0.53h1.44
			c0.01,0.04,0.02,0.14,0.03,0.3c0.01,0.16,0.02,0.32,0.03,0.49c0.01,0.17,0.01,0.29,0.01,0.36h0.02c0.2-0.44,0.46-0.77,0.77-0.97
			c0.31-0.2,0.68-0.3,1.1-0.3c0.62,0,1.09,0.19,1.42,0.57s0.49,0.93,0.49,1.67v3.69h-1.5v-3.26c0-0.51-0.09-0.9-0.26-1.15
			s-0.43-0.38-0.78-0.38c-0.37,0-0.66,0.16-0.88,0.47C230.46,106.29,230.35,106.69,230.35,107.18z"/>
		<path d="M237.99,112.63c-0.71,0-1.28-0.14-1.71-0.41c-0.43-0.27-0.7-0.66-0.8-1.16l1.51-0.18c0.05,0.23,0.17,0.42,0.35,0.55
			c0.18,0.13,0.41,0.2,0.7,0.2c0.42,0,0.72-0.13,0.92-0.39s0.29-0.64,0.29-1.15l0.01-0.88h-0.01c-0.17,0.36-0.4,0.63-0.71,0.8
			c-0.31,0.18-0.7,0.27-1.15,0.27c-0.68,0-1.2-0.25-1.57-0.76s-0.56-1.24-0.56-2.18c0-0.95,0.19-1.68,0.57-2.2
			c0.38-0.52,0.94-0.77,1.67-0.77c0.42,0,0.78,0.09,1.07,0.26c0.29,0.17,0.52,0.44,0.69,0.79h0.03c0-0.09,0-0.19,0.01-0.32
			s0.02-0.25,0.03-0.37s0.02-0.2,0.04-0.24h1.43c-0.02,0.39-0.03,0.83-0.03,1.34v4.29c0,0.83-0.23,1.45-0.7,1.87
			C239.57,112.42,238.89,112.63,237.99,112.63z M239.25,107.31c0-0.6-0.11-1.06-0.32-1.4c-0.21-0.33-0.52-0.5-0.91-0.5
			c-0.4,0-0.7,0.16-0.91,0.48s-0.3,0.81-0.3,1.45c0,0.63,0.1,1.1,0.3,1.42c0.2,0.32,0.5,0.48,0.9,0.48s0.71-0.17,0.92-0.5
			C239.15,108.4,239.25,107.93,239.25,107.31z"/>
	</g>
	<g>
		<rect x="191.88" y="125.38" fill="#E6E7E8" width="63.27" height="21.03"/>
	</g>
	<g>
		<path d="M210.22,136.84v3.24h-1.58v-7.57h1.58v3.01h3.3v-3.01h1.58v7.57h-1.58v-3.24H210.22z"/>
		<path d="M218.12,132.12v1.11h-1.51v-1.11H218.12z M218.12,134.28v5.81h-1.51v-5.81H218.12z"/>
		<path d="M221.17,137.91v2.18h-1.51v-7.97h1.51v4.57l2.07-2.41h1.62l-2.04,2.27l2.2,3.54h-1.65l-1.55-2.63L221.17,137.91z"/>
		<path d="M227.29,132.12v1.11h-1.51v-1.11H227.29z M227.29,134.28v5.81h-1.51v-5.81H227.29z"/>
		<path d="M230.35,136.97v3.12h-1.51v-4.51c0-0.31,0-0.57-0.01-0.77c-0.01-0.2-0.02-0.38-0.03-0.53h1.44
			c0.01,0.04,0.02,0.14,0.03,0.3c0.01,0.16,0.02,0.32,0.03,0.49c0.01,0.17,0.01,0.29,0.01,0.36h0.02c0.2-0.44,0.46-0.77,0.77-0.97
			c0.31-0.2,0.68-0.3,1.1-0.3c0.62,0,1.09,0.19,1.42,0.57s0.49,0.93,0.49,1.67v3.69h-1.5v-3.26c0-0.51-0.09-0.9-0.26-1.15
			s-0.43-0.38-0.78-0.38c-0.37,0-0.66,0.16-0.88,0.47C230.46,136.08,230.35,136.48,230.35,136.97z"/>
		<path d="M237.99,142.42c-0.71,0-1.28-0.14-1.71-0.41c-0.43-0.27-0.7-0.66-0.8-1.16l1.51-0.18c0.05,0.23,0.17,0.42,0.35,0.55
			c0.18,0.13,0.41,0.2,0.7,0.2c0.42,0,0.72-0.13,0.92-0.39s0.29-0.64,0.29-1.15l0.01-0.88h-0.01c-0.17,0.36-0.4,0.63-0.71,0.8
			c-0.31,0.18-0.7,0.27-1.15,0.27c-0.68,0-1.2-0.25-1.57-0.76s-0.56-1.24-0.56-2.18c0-0.95,0.19-1.68,0.57-2.2
			c0.38-0.52,0.94-0.77,1.67-0.77c0.42,0,0.78,0.09,1.07,0.26c0.29,0.17,0.52,0.44,0.69,0.79h0.03c0-0.09,0-0.19,0.01-0.32
			s0.02-0.25,0.03-0.37s0.02-0.2,0.04-0.24h1.43c-0.02,0.39-0.03,0.83-0.03,1.34v4.29c0,0.83-0.23,1.45-0.7,1.87
			C239.57,142.21,238.89,142.42,237.99,142.42z M239.25,137.1c0-0.6-0.11-1.06-0.32-1.4c-0.21-0.33-0.52-0.5-0.91-0.5
			c-0.4,0-0.7,0.16-0.91,0.48s-0.3,0.81-0.3,1.45c0,0.63,0.1,1.1,0.3,1.42c0.2,0.32,0.5,0.48,0.9,0.48s0.71-0.17,0.92-0.5
			C239.15,138.19,239.25,137.72,239.25,137.1z"/>
	</g>
	<g>
		<rect x="67.56" y="95.59" fill="#E6E7E8" width="58.25" height="21.03"/>
	</g>
	<g>
		<path d="M86.32,109.16c0.96,0,1.62-0.48,1.99-1.44l1.38,0.52c-0.3,0.73-0.73,1.27-1.31,1.63c-0.57,0.36-1.26,0.53-2.07,0.53
			c-0.81,0-1.5-0.15-2.07-0.46c-0.57-0.31-1-0.76-1.3-1.35s-0.45-1.29-0.45-2.12c0-0.83,0.14-1.53,0.43-2.11s0.71-1.01,1.27-1.31
			c0.56-0.3,1.24-0.45,2.05-0.45c0.89,0,1.61,0.18,2.17,0.53c0.56,0.36,0.95,0.88,1.18,1.57l-1.4,0.38c-0.12-0.38-0.35-0.68-0.7-0.9
			c-0.35-0.22-0.75-0.34-1.22-0.34c-0.72,0-1.26,0.22-1.63,0.67c-0.37,0.44-0.56,1.09-0.56,1.95c0,0.58,0.08,1.07,0.25,1.47
			s0.42,0.7,0.75,0.91C85.44,109.06,85.84,109.16,86.32,109.16z"/>
		<path d="M92.25,105.65c0.2-0.44,0.46-0.77,0.77-0.97c0.31-0.2,0.68-0.3,1.1-0.3c0.62,0,1.09,0.19,1.42,0.57s0.49,0.93,0.49,1.67
			v3.68h-1.5v-3.25c0-0.51-0.09-0.9-0.26-1.15s-0.43-0.38-0.78-0.38c-0.37,0-0.66,0.16-0.88,0.47c-0.22,0.31-0.34,0.71-0.34,1.21
			v3.11h-1.51v-7.97h1.51v2.18c0,0.13,0,0.26-0.01,0.39c0,0.13-0.01,0.26-0.01,0.38c-0.01,0.13-0.01,0.25-0.02,0.38H92.25z"/>
		<path d="M98.99,107.45v2.85h-1.51v-4.45c0-0.32,0-0.58-0.01-0.8c-0.01-0.21-0.02-0.4-0.03-0.57h1.44c0.01,0.03,0.01,0.1,0.02,0.21
			c0.01,0.11,0.01,0.24,0.02,0.37c0.01,0.14,0.01,0.27,0.02,0.39c0,0.12,0.01,0.21,0.01,0.26h0.02c0.14-0.4,0.27-0.69,0.39-0.86
			c0.11-0.17,0.25-0.29,0.41-0.37c0.16-0.08,0.35-0.12,0.59-0.12c0.19,0,0.35,0.03,0.47,0.08v1.26c-0.24-0.05-0.46-0.08-0.64-0.08
			c-0.38,0-0.67,0.15-0.88,0.46C99.1,106.4,98.99,106.85,98.99,107.45z"/>
		<path d="M103.28,102.33v1.11h-1.51v-1.11H103.28z M103.28,104.49v5.81h-1.51v-5.81H103.28z"/>
		<path d="M109.72,108.6c0,0.56-0.23,1-0.69,1.32c-0.46,0.32-1.1,0.48-1.91,0.48c-0.8,0-1.41-0.13-1.83-0.38
			c-0.42-0.25-0.71-0.65-0.85-1.18l1.33-0.2c0.08,0.28,0.21,0.47,0.39,0.59s0.51,0.17,0.96,0.17c0.42,0,0.73-0.05,0.92-0.16
			s0.29-0.28,0.29-0.5c0-0.19-0.08-0.33-0.23-0.44c-0.16-0.11-0.42-0.2-0.79-0.28c-0.28-0.06-0.54-0.11-0.76-0.17
			s-0.42-0.11-0.58-0.16c-0.16-0.05-0.29-0.1-0.39-0.15c-0.3-0.15-0.52-0.33-0.68-0.56c-0.16-0.23-0.23-0.51-0.23-0.85
			c0-0.56,0.21-0.99,0.64-1.3c0.43-0.31,1.03-0.46,1.82-0.46c0.69,0,1.25,0.13,1.67,0.4s0.68,0.66,0.79,1.17l-1.34,0.14
			c-0.04-0.24-0.15-0.41-0.32-0.53c-0.17-0.12-0.43-0.17-0.8-0.17c-0.36,0-0.63,0.05-0.81,0.14c-0.18,0.09-0.27,0.24-0.27,0.46
			c0,0.17,0.07,0.3,0.21,0.4c0.14,0.1,0.37,0.18,0.7,0.24c0.45,0.09,0.86,0.19,1.21,0.29c0.35,0.1,0.64,0.22,0.85,0.35
			c0.21,0.14,0.38,0.31,0.51,0.52C109.66,108,109.72,108.27,109.72,108.6z"/>
	</g>
	<g>
		<rect x="67.56" y="125.38" fill="#E6E7E8" width="58.25" height="21.03"/>
	</g>
	<g>
		<path d="M85.37,137.33v2.76h-1.58v-7.57h1.58v3.43l3.41-3.43h1.85l-3.23,3.2l3.5,4.37h-1.87l-2.72-3.48L85.37,137.33z"/>
		<path d="M93.01,137.47c0,0.57,0.11,0.99,0.31,1.28c0.21,0.29,0.51,0.43,0.89,0.43c0.26,0,0.48-0.06,0.65-0.17
			c0.17-0.12,0.29-0.29,0.36-0.52l1.42,0.12c-0.41,1.05-1.25,1.58-2.51,1.58c-0.87,0-1.54-0.26-2.01-0.78
			c-0.47-0.52-0.7-1.27-0.7-2.26c0-0.96,0.24-1.7,0.71-2.21c0.48-0.52,1.15-0.77,2.02-0.77c0.83,0,1.47,0.28,1.91,0.83
			c0.44,0.55,0.66,1.36,0.66,2.43v0.04H93.01z M95.28,136.53c-0.03-0.47-0.14-0.82-0.34-1.06c-0.2-0.23-0.46-0.35-0.79-0.35
			c-0.35,0-0.63,0.12-0.82,0.37s-0.29,0.59-0.3,1.04H95.28z"/>
		<path d="M99.39,132.12v7.97h-1.51v-7.97H99.39z"/>
		<path d="M102.45,132.12v7.97h-1.51v-7.97H102.45z"/>
		<path d="M104.75,142.37c-0.37,0-0.69-0.02-0.95-0.07v-1.07c0.2,0.03,0.37,0.04,0.52,0.04c0.35,0,0.61-0.09,0.79-0.28
			s0.34-0.51,0.51-0.96l-2.3-5.75h1.6l0.91,2.72c0.07,0.2,0.15,0.44,0.24,0.74s0.19,0.65,0.3,1.05c0.08-0.33,0.16-0.63,0.24-0.91
			s0.16-0.57,0.25-0.86l0.86-2.74h1.58l-2.3,6.12c-0.09,0.25-0.19,0.47-0.29,0.66c-0.1,0.19-0.21,0.36-0.32,0.5
			c-0.22,0.3-0.46,0.51-0.71,0.63C105.4,142.31,105.1,142.37,104.75,142.37z"/>
	</g>
	<g>
		<path d="M298.86,78.41c0,0.71-0.23,1.26-0.7,1.64c-0.46,0.39-1.13,0.58-1.99,0.58c-0.81,0-1.46-0.19-1.94-0.56
			c-0.48-0.37-0.76-0.91-0.84-1.62l1.54-0.13c0.1,0.73,0.51,1.09,1.24,1.09c0.36,0,0.64-0.09,0.84-0.27c0.2-0.18,0.3-0.45,0.3-0.82
			c0-0.34-0.12-0.59-0.37-0.77c-0.24-0.18-0.61-0.27-1.09-0.27h-0.53v-1.22h0.49c0.43,0,0.76-0.09,0.98-0.27
			c0.22-0.18,0.33-0.43,0.33-0.76c0-0.31-0.09-0.56-0.26-0.73c-0.17-0.18-0.43-0.27-0.76-0.27c-0.31,0-0.56,0.09-0.75,0.26
			s-0.3,0.42-0.33,0.73l-1.51-0.11c0.08-0.65,0.35-1.16,0.81-1.53s1.07-0.55,1.81-0.55c0.79,0,1.41,0.18,1.86,0.53
			c0.45,0.36,0.67,0.85,0.67,1.48c0,0.47-0.14,0.86-0.42,1.17s-0.68,0.51-1.2,0.61v0.02c0.58,0.07,1.03,0.26,1.34,0.57
			C298.7,77.52,298.86,77.92,298.86,78.41z"/>
	</g>
	<g>
		<rect x="265.67" y="95.59" fill="#E6E7E8" width="60.95" height="21.03"/>
	</g>
	<g>
		<path d="M298.95,109.18v1.12h-5.12v-1.12h1.87v-5.16l-1.82,1.13v-1.19l1.9-1.23h1.43v6.45H298.95z"/>
	</g>
	<g>
		<rect x="265.67" y="125.38" fill="#E6E7E8" width="60.95" height="21.03"/>
	</g>
	<g>
		<path d="M298.82,138.85v1.24h-5.3v-1.05c0.13-0.29,0.3-0.57,0.51-0.85c0.2-0.28,0.45-0.56,0.73-0.84
			c0.29-0.28,0.61-0.57,0.97-0.87c0.27-0.21,0.49-0.41,0.68-0.59c0.19-0.18,0.33-0.34,0.43-0.48c0.11-0.14,0.19-0.28,0.24-0.42
			c0.05-0.14,0.08-0.27,0.08-0.41c0-0.33-0.08-0.58-0.25-0.74c-0.17-0.16-0.41-0.25-0.74-0.25c-0.32,0-0.57,0.09-0.74,0.26
			c-0.17,0.17-0.28,0.43-0.33,0.78l-1.52-0.09c0.09-0.7,0.35-1.24,0.79-1.61s1.04-0.55,1.79-0.55c0.82,0,1.44,0.19,1.88,0.56
			c0.44,0.37,0.65,0.9,0.65,1.57c0,0.38-0.08,0.72-0.24,1.02c-0.16,0.3-0.36,0.58-0.6,0.83c-0.2,0.22-0.43,0.43-0.68,0.62
			c-0.25,0.2-0.5,0.39-0.73,0.57c-0.25,0.2-0.48,0.4-0.68,0.61s-0.36,0.42-0.46,0.66H298.82z"/>
	</g>
	<g>
		<path fill="#FFFFFF" d="M36.22,42.34v1.11h-1.51v-1.11H36.22z M36.22,44.5v5.81h-1.51V44.5H36.22z"/>
		<path fill="#FFFFFF" d="M41.53,50.31c-0.01-0.04-0.02-0.11-0.03-0.23s-0.03-0.24-0.04-0.38s-0.01-0.25-0.01-0.34h-0.02
			c-0.17,0.35-0.4,0.61-0.71,0.79c-0.31,0.18-0.69,0.26-1.15,0.26c-0.68,0-1.2-0.26-1.57-0.79c-0.37-0.53-0.55-1.27-0.55-2.22
			c0-0.96,0.19-1.71,0.58-2.23c0.39-0.52,0.94-0.79,1.65-0.79c0.41,0,0.77,0.09,1.07,0.26s0.53,0.43,0.69,0.77h0.01l-0.01-0.96
			v-2.12h1.51v6.7c0,0.18,0,0.37,0.01,0.59s0.02,0.44,0.03,0.68H41.53z M39.02,47.41c0,0.66,0.1,1.15,0.3,1.48
			c0.2,0.33,0.5,0.49,0.89,0.49c0.4,0,0.71-0.17,0.92-0.52c0.22-0.35,0.33-0.85,0.33-1.49c0-0.63-0.1-1.11-0.31-1.45
			c-0.21-0.34-0.52-0.51-0.93-0.51c-0.4,0-0.71,0.16-0.9,0.49C39.12,46.24,39.02,46.74,39.02,47.41z"/>
	</g>
	<g>
		<path fill="#FFFFFF" d="M83.33,47.2v3.12h-1.51V45.8c0-0.31,0-0.57-0.01-0.77c-0.01-0.2-0.02-0.38-0.03-0.53h1.44
			c0.01,0.04,0.02,0.14,0.03,0.3c0.01,0.16,0.02,0.32,0.03,0.49c0.01,0.17,0.01,0.29,0.01,0.36h0.02c0.2-0.44,0.46-0.77,0.77-0.97
			c0.31-0.2,0.68-0.3,1.1-0.3c0.62,0,1.09,0.19,1.42,0.57s0.49,0.93,0.49,1.67v3.69h-1.5v-3.26c0-0.51-0.09-0.9-0.26-1.15
			s-0.43-0.38-0.78-0.38c-0.37,0-0.66,0.16-0.88,0.47C83.44,46.3,83.33,46.7,83.33,47.2z"/>
		<path fill="#FFFFFF" d="M89.88,50.42c-0.56,0-1-0.15-1.32-0.46c-0.32-0.31-0.47-0.74-0.47-1.29c0-0.6,0.2-1.06,0.59-1.37
			c0.39-0.31,0.96-0.47,1.71-0.49l1.25-0.02v-0.3c0-0.38-0.07-0.66-0.2-0.85c-0.13-0.18-0.35-0.28-0.65-0.28
			c-0.28,0-0.48,0.06-0.62,0.19c-0.13,0.13-0.21,0.34-0.24,0.63l-1.57-0.08c0.2-1.15,1.03-1.72,2.5-1.72c0.73,0,1.3,0.18,1.7,0.54
			s0.6,0.88,0.6,1.54v2.12c0,0.33,0.04,0.55,0.11,0.67c0.07,0.12,0.2,0.19,0.37,0.19c0.11,0,0.23-0.01,0.33-0.03v0.82
			c-0.19,0.05-0.35,0.08-0.48,0.1c-0.13,0.02-0.29,0.04-0.49,0.04c-0.38,0-0.66-0.09-0.84-0.28s-0.29-0.46-0.33-0.82H91.8
			c-0.21,0.38-0.48,0.67-0.79,0.86C90.68,50.32,90.31,50.42,89.88,50.42z M91.64,47.62l-0.77,0.01c-0.35,0.02-0.6,0.06-0.75,0.11
			c-0.15,0.06-0.26,0.16-0.34,0.29s-0.12,0.3-0.12,0.52c0,0.28,0.06,0.48,0.19,0.62c0.13,0.13,0.3,0.2,0.51,0.2
			c0.24,0,0.45-0.06,0.65-0.19c0.19-0.13,0.35-0.31,0.46-0.53c0.11-0.23,0.17-0.47,0.17-0.72V47.62z"/>
		<path fill="#FFFFFF" d="M96.17,47.2v3.12h-1.51V45.8c0-0.31,0-0.57-0.01-0.77c-0.01-0.2-0.02-0.38-0.03-0.53h1.44
			c0.01,0.04,0.02,0.14,0.03,0.3c0.01,0.16,0.02,0.32,0.03,0.49c0.01,0.17,0.01,0.29,0.01,0.36h0.02c0.19-0.44,0.42-0.77,0.7-0.97
			s0.61-0.3,1-0.3c0.44,0,0.8,0.11,1.07,0.32s0.45,0.53,0.54,0.95h0.03c0.2-0.45,0.43-0.78,0.71-0.97s0.63-0.3,1.05-0.3
			c0.57,0,1,0.19,1.29,0.58c0.3,0.38,0.45,0.94,0.45,1.66v3.69h-1.5v-3.26c0-0.51-0.07-0.9-0.22-1.15s-0.37-0.38-0.66-0.38
			c-0.29,0-0.54,0.14-0.74,0.43c-0.2,0.29-0.3,0.68-0.3,1.18v3.19h-1.5v-3.26c0-0.51-0.07-0.9-0.22-1.15
			c-0.15-0.25-0.37-0.38-0.66-0.38c-0.3,0-0.55,0.16-0.74,0.47S96.17,46.7,96.17,47.2z"/>
		<path fill="#FFFFFF" d="M105.69,47.69c0,0.57,0.11,0.99,0.31,1.28c0.21,0.29,0.51,0.43,0.89,0.43c0.26,0,0.48-0.06,0.65-0.17
			c0.17-0.12,0.29-0.29,0.36-0.52l1.42,0.12c-0.41,1.05-1.25,1.58-2.51,1.58c-0.87,0-1.54-0.26-2.01-0.78
			c-0.47-0.52-0.7-1.27-0.7-2.26c0-0.96,0.24-1.7,0.71-2.21c0.48-0.52,1.15-0.77,2.02-0.77c0.83,0,1.47,0.28,1.91,0.83
			c0.44,0.55,0.66,1.36,0.66,2.43v0.04H105.69z M107.95,46.75c-0.03-0.47-0.14-0.82-0.34-1.06c-0.2-0.23-0.46-0.35-0.79-0.35
			c-0.35,0-0.63,0.12-0.82,0.37s-0.29,0.59-0.3,1.04H107.95z"/>
	</g>
	<g>
		<path fill="#FFFFFF" d="M151.74,50.42c-0.56,0-1-0.15-1.32-0.46c-0.32-0.31-0.47-0.74-0.47-1.29c0-0.6,0.2-1.06,0.59-1.37
			c0.39-0.31,0.96-0.47,1.71-0.49l1.25-0.02v-0.3c0-0.38-0.07-0.66-0.2-0.85c-0.13-0.18-0.35-0.28-0.65-0.28
			c-0.28,0-0.48,0.06-0.62,0.19c-0.13,0.13-0.21,0.34-0.24,0.63l-1.57-0.08c0.2-1.15,1.03-1.72,2.5-1.72c0.73,0,1.3,0.18,1.7,0.54
			s0.6,0.88,0.6,1.54v2.12c0,0.33,0.04,0.55,0.11,0.67c0.07,0.12,0.2,0.19,0.37,0.19c0.11,0,0.23-0.01,0.33-0.03v0.82
			c-0.19,0.05-0.35,0.08-0.48,0.1c-0.13,0.02-0.29,0.04-0.49,0.04c-0.38,0-0.66-0.09-0.84-0.28s-0.29-0.46-0.33-0.82h-0.03
			c-0.21,0.38-0.48,0.67-0.79,0.86C152.54,50.32,152.17,50.42,151.74,50.42z M153.5,47.62l-0.77,0.01c-0.35,0.02-0.6,0.06-0.75,0.11
			c-0.15,0.06-0.26,0.16-0.34,0.29s-0.12,0.3-0.12,0.52c0,0.28,0.06,0.48,0.19,0.62c0.13,0.13,0.3,0.2,0.51,0.2
			c0.24,0,0.45-0.06,0.65-0.19c0.19-0.13,0.35-0.31,0.46-0.53c0.11-0.23,0.17-0.47,0.17-0.72V47.62z"/>
		<path fill="#FFFFFF" d="M158.95,52.64c-0.71,0-1.28-0.14-1.71-0.41c-0.43-0.27-0.7-0.66-0.8-1.16l1.51-0.18
			c0.05,0.23,0.17,0.42,0.35,0.55c0.18,0.13,0.41,0.2,0.7,0.2c0.42,0,0.72-0.13,0.92-0.39s0.29-0.64,0.29-1.15l0.01-0.88h-0.01
			c-0.17,0.36-0.4,0.63-0.71,0.8c-0.31,0.18-0.7,0.27-1.15,0.27c-0.68,0-1.2-0.25-1.57-0.76s-0.56-1.24-0.56-2.18
			c0-0.95,0.19-1.68,0.57-2.2c0.38-0.52,0.94-0.77,1.67-0.77c0.42,0,0.78,0.09,1.07,0.26c0.29,0.17,0.52,0.44,0.69,0.79h0.03
			c0-0.09,0-0.19,0.01-0.32s0.02-0.25,0.03-0.37s0.02-0.2,0.04-0.24h1.43c-0.02,0.39-0.03,0.83-0.03,1.34v4.29
			c0,0.83-0.23,1.45-0.7,1.87C160.53,52.43,159.84,52.64,158.95,52.64z M160.21,47.32c0-0.6-0.11-1.06-0.32-1.4
			c-0.21-0.33-0.52-0.5-0.91-0.5c-0.4,0-0.7,0.16-0.91,0.48s-0.3,0.81-0.3,1.45c0,0.63,0.1,1.1,0.3,1.42c0.2,0.32,0.5,0.48,0.9,0.48
			s0.71-0.17,0.92-0.5C160.1,48.42,160.21,47.94,160.21,47.32z"/>
		<path fill="#FFFFFF" d="M164.48,47.7c0,0.57,0.11,0.99,0.31,1.28c0.21,0.29,0.51,0.43,0.89,0.43c0.26,0,0.48-0.06,0.65-0.17
			c0.17-0.12,0.29-0.29,0.36-0.52l1.42,0.12c-0.41,1.05-1.25,1.58-2.51,1.58c-0.87,0-1.54-0.26-2.01-0.78
			c-0.47-0.52-0.7-1.27-0.7-2.26c0-0.96,0.24-1.7,0.71-2.21c0.48-0.52,1.15-0.77,2.02-0.77c0.83,0,1.47,0.28,1.91,0.83
			c0.44,0.55,0.66,1.36,0.66,2.43v0.04H164.48z M166.75,46.75c-0.03-0.47-0.14-0.82-0.34-1.06c-0.2-0.23-0.46-0.35-0.79-0.35
			c-0.35,0-0.63,0.12-0.82,0.37s-0.29,0.59-0.3,1.04H166.75z"/>
	</g>
	<g>
		<path fill="#FFFFFF" d="M208.66,45.66c0.2-0.44,0.46-0.77,0.77-0.97c0.31-0.2,0.68-0.3,1.1-0.3c0.62,0,1.09,0.19,1.42,0.57
			s0.49,0.93,0.49,1.67v3.68h-1.5v-3.25c0-0.51-0.09-0.9-0.26-1.15s-0.43-0.38-0.78-0.38c-0.37,0-0.66,0.16-0.88,0.47
			c-0.22,0.31-0.34,0.71-0.34,1.21v3.11h-1.51v-7.97h1.51v2.18c0,0.13,0,0.26-0.01,0.39c0,0.13-0.01,0.26-0.01,0.38
			c-0.01,0.13-0.01,0.25-0.02,0.38H208.66z"/>
		<path fill="#FFFFFF" d="M219.41,47.4c0,0.94-0.26,1.68-0.78,2.22c-0.52,0.54-1.25,0.8-2.17,0.8c-0.91,0-1.62-0.27-2.13-0.81
			s-0.77-1.27-0.77-2.21c0-0.93,0.26-1.67,0.77-2.21c0.52-0.54,1.24-0.8,2.16-0.8c0.95,0,1.67,0.26,2.17,0.78
			C219.16,45.68,219.41,46.43,219.41,47.4z M217.84,47.4c0-0.69-0.11-1.19-0.34-1.5s-0.55-0.47-0.98-0.47
			c-0.46,0-0.8,0.16-1.03,0.49c-0.23,0.33-0.34,0.82-0.34,1.48c0,0.65,0.11,1.14,0.34,1.48c0.22,0.34,0.55,0.51,0.97,0.51
			c0.47,0,0.81-0.17,1.04-0.5C217.72,48.56,217.84,48.06,217.84,47.4z"/>
		<path fill="#FFFFFF" d="M226.11,47.38c0,0.96-0.19,1.71-0.58,2.24c-0.38,0.53-0.94,0.8-1.65,0.8c-0.41,0-0.77-0.09-1.07-0.27
			s-0.53-0.44-0.69-0.77h-0.01c0,0.08,0,0.19-0.01,0.32s-0.02,0.26-0.03,0.37c-0.01,0.12-0.02,0.2-0.04,0.24h-1.47
			c0.01-0.17,0.03-0.36,0.03-0.58c0.01-0.22,0.01-0.47,0.01-0.74v-6.64h1.51v2.22c0,0.16,0,0.31-0.01,0.47
			c-0.01,0.16-0.01,0.31-0.01,0.47h0.02c0.17-0.37,0.41-0.65,0.72-0.84s0.69-0.28,1.14-0.28c0.69,0,1.21,0.26,1.58,0.78
			C225.93,45.69,226.11,46.43,226.11,47.38z M224.54,47.38c0-0.66-0.1-1.15-0.29-1.47s-0.49-0.48-0.9-0.48
			c-0.41,0-0.72,0.17-0.93,0.51c-0.21,0.34-0.32,0.83-0.32,1.48c0,0.62,0.1,1.1,0.31,1.44c0.21,0.34,0.52,0.52,0.93,0.52
			c0.4,0,0.7-0.17,0.9-0.5C224.44,48.55,224.54,48.05,224.54,47.38z"/>
		<path fill="#FFFFFF" d="M232.83,47.38c0,0.96-0.19,1.71-0.58,2.24c-0.38,0.53-0.94,0.8-1.65,0.8c-0.41,0-0.77-0.09-1.07-0.27
			s-0.53-0.44-0.69-0.77h-0.01c0,0.08,0,0.19-0.01,0.32s-0.02,0.26-0.03,0.37c-0.01,0.12-0.02,0.2-0.04,0.24h-1.47
			c0.01-0.17,0.03-0.36,0.03-0.58c0.01-0.22,0.01-0.47,0.01-0.74v-6.64h1.51v2.22c0,0.16,0,0.31-0.01,0.47
			c-0.01,0.16-0.01,0.31-0.01,0.47h0.02c0.17-0.37,0.41-0.65,0.72-0.84s0.69-0.28,1.14-0.28c0.69,0,1.21,0.26,1.58,0.78
			C232.65,45.69,232.83,46.43,232.83,47.38z M231.26,47.38c0-0.66-0.1-1.15-0.29-1.47s-0.49-0.48-0.9-0.48
			c-0.41,0-0.72,0.17-0.93,0.51c-0.21,0.34-0.32,0.83-0.32,1.48c0,0.62,0.1,1.1,0.31,1.44c0.21,0.34,0.52,0.52,0.93,0.52
			c0.4,0,0.7-0.17,0.9-0.5C231.16,48.55,231.26,48.05,231.26,47.38z"/>
		<path fill="#FFFFFF" d="M234.8,52.59c-0.37,0-0.69-0.02-0.95-0.07v-1.07c0.2,0.03,0.37,0.04,0.52,0.04c0.35,0,0.61-0.09,0.79-0.28
			s0.34-0.51,0.51-0.96l-2.3-5.75h1.6l0.91,2.72c0.07,0.2,0.15,0.44,0.24,0.74s0.19,0.65,0.3,1.05c0.08-0.33,0.16-0.63,0.24-0.91
			s0.16-0.57,0.25-0.86l0.86-2.74h1.58l-2.3,6.12c-0.09,0.25-0.19,0.47-0.29,0.66c-0.1,0.19-0.21,0.36-0.32,0.5
			c-0.22,0.3-0.46,0.51-0.71,0.63C235.46,52.53,235.15,52.59,234.8,52.59z"/>
	</g>
	<g>
		<path fill="#FFFFFF" d="M271.51,50.42c-0.88,0-1.56-0.26-2.04-0.79c-0.48-0.52-0.72-1.26-0.72-2.19c0-0.96,0.24-1.71,0.72-2.24
			c0.48-0.54,1.17-0.8,2.06-0.8c0.68,0,1.25,0.17,1.7,0.52s0.73,0.82,0.84,1.42l-1.52,0.08c-0.04-0.3-0.15-0.53-0.32-0.71
			c-0.17-0.18-0.42-0.27-0.73-0.27c-0.39,0-0.68,0.16-0.88,0.49c-0.19,0.32-0.29,0.81-0.29,1.46c0,0.67,0.1,1.17,0.3,1.51
			c0.2,0.33,0.5,0.5,0.89,0.5c0.29,0,0.53-0.09,0.72-0.27c0.19-0.18,0.31-0.45,0.36-0.81l1.51,0.07c-0.05,0.41-0.2,0.77-0.43,1.07
			c-0.23,0.31-0.54,0.54-0.91,0.71C272.4,50.33,271.98,50.42,271.51,50.42z"/>
		<path fill="#FFFFFF" d="M280.72,47.4c0,0.94-0.26,1.68-0.78,2.22c-0.52,0.54-1.25,0.8-2.17,0.8c-0.91,0-1.62-0.27-2.13-0.81
			s-0.77-1.27-0.77-2.21c0-0.93,0.26-1.67,0.77-2.21c0.52-0.54,1.24-0.8,2.16-0.8c0.95,0,1.67,0.26,2.17,0.78
			C280.47,45.69,280.72,46.43,280.72,47.4z M279.15,47.4c0-0.69-0.11-1.19-0.34-1.5s-0.55-0.47-0.98-0.47
			c-0.46,0-0.8,0.16-1.03,0.49c-0.23,0.33-0.34,0.82-0.34,1.48c0,0.65,0.11,1.14,0.34,1.48c0.22,0.34,0.55,0.51,0.97,0.51
			c0.47,0,0.81-0.17,1.04-0.5C279.03,48.56,279.15,48.06,279.15,47.4z"/>
		<path fill="#FFFFFF" d="M283.43,47.2v3.12h-1.51V45.8c0-0.31,0-0.57-0.01-0.77c-0.01-0.2-0.02-0.38-0.03-0.53h1.44
			c0.01,0.04,0.02,0.14,0.03,0.3c0.01,0.16,0.02,0.32,0.03,0.49c0.01,0.17,0.01,0.29,0.01,0.36h0.02c0.2-0.44,0.46-0.77,0.77-0.97
			c0.31-0.2,0.68-0.3,1.1-0.3c0.62,0,1.09,0.19,1.42,0.57s0.49,0.93,0.49,1.67v3.69h-1.5v-3.26c0-0.51-0.09-0.9-0.26-1.15
			s-0.43-0.38-0.78-0.38c-0.37,0-0.66,0.16-0.88,0.47C283.54,46.3,283.43,46.7,283.43,47.2z"/>
		<path fill="#FFFFFF" d="M291.4,50.22c-0.37,0.12-0.79,0.18-1.27,0.18c-0.44,0-0.79-0.12-1.03-0.36c-0.24-0.24-0.36-0.61-0.36-1.1
			v-3.43h-0.74V44.5h0.81l0.47-1.36h0.95v1.36h1.1v1.02h-1.1v3.02c0,0.28,0.05,0.49,0.16,0.63c0.11,0.13,0.27,0.2,0.5,0.2
			c0.11,0,0.28-0.02,0.51-0.08V50.22z"/>
		<path fill="#FFFFFF" d="M293.65,50.42c-0.56,0-1-0.15-1.32-0.46c-0.32-0.31-0.47-0.74-0.47-1.29c0-0.6,0.2-1.06,0.59-1.37
			c0.39-0.31,0.96-0.47,1.71-0.49l1.25-0.02v-0.3c0-0.38-0.07-0.66-0.2-0.85c-0.13-0.18-0.35-0.28-0.65-0.28
			c-0.28,0-0.48,0.06-0.62,0.19c-0.13,0.13-0.21,0.34-0.24,0.63l-1.57-0.08c0.2-1.15,1.03-1.72,2.5-1.72c0.73,0,1.3,0.18,1.7,0.54
			s0.6,0.88,0.6,1.54v2.12c0,0.33,0.04,0.55,0.11,0.67c0.07,0.12,0.2,0.19,0.37,0.19c0.11,0,0.23-0.01,0.33-0.03v0.82
			c-0.19,0.05-0.35,0.08-0.48,0.1c-0.13,0.02-0.29,0.04-0.49,0.04c-0.38,0-0.66-0.09-0.84-0.28s-0.29-0.46-0.33-0.82h-0.03
			c-0.21,0.38-0.48,0.67-0.79,0.86C294.45,50.32,294.07,50.42,293.65,50.42z M295.4,47.62l-0.77,0.01c-0.35,0.02-0.6,0.06-0.75,0.11
			c-0.15,0.06-0.26,0.16-0.34,0.29s-0.12,0.3-0.12,0.52c0,0.28,0.06,0.48,0.19,0.62c0.13,0.13,0.3,0.2,0.51,0.2
			c0.24,0,0.45-0.06,0.65-0.19c0.19-0.13,0.35-0.31,0.46-0.53c0.11-0.23,0.17-0.47,0.17-0.72V47.62z"/>
		<path fill="#FFFFFF" d="M300.84,50.42c-0.88,0-1.56-0.26-2.04-0.79c-0.48-0.52-0.72-1.26-0.72-2.19c0-0.96,0.24-1.71,0.72-2.24
			c0.48-0.54,1.17-0.8,2.06-0.8c0.68,0,1.25,0.17,1.7,0.52s0.73,0.82,0.84,1.42l-1.52,0.08c-0.04-0.3-0.15-0.53-0.32-0.71
			c-0.17-0.18-0.42-0.27-0.73-0.27c-0.39,0-0.68,0.16-0.88,0.49c-0.19,0.32-0.29,0.81-0.29,1.46c0,0.67,0.1,1.17,0.3,1.51
			c0.2,0.33,0.5,0.5,0.89,0.5c0.29,0,0.53-0.09,0.72-0.27c0.19-0.18,0.31-0.45,0.36-0.81l1.51,0.07c-0.05,0.41-0.2,0.77-0.43,1.07
			c-0.23,0.31-0.54,0.54-0.91,0.71C301.73,50.33,301.31,50.42,300.84,50.42z"/>
		<path fill="#FFFFFF" d="M307.3,50.22c-0.37,0.12-0.79,0.18-1.27,0.18c-0.44,0-0.79-0.12-1.03-0.36c-0.24-0.24-0.36-0.61-0.36-1.1
			v-3.43h-0.74V44.5h0.81l0.47-1.36h0.95v1.36h1.1v1.02h-1.1v3.02c0,0.28,0.05,0.49,0.16,0.63c0.11,0.13,0.27,0.2,0.5,0.2
			c0.11,0,0.28-0.02,0.51-0.08V50.22z"/>
		<path fill="#FFFFFF" d="M313.65,51.23v0.42h-6.32v-0.42H313.65z"/>
		<path fill="#FFFFFF" d="M315.83,42.34v1.11h-1.51v-1.11H315.83z M315.83,44.5v5.81h-1.51V44.5H315.83z"/>
		<path fill="#FFFFFF" d="M321.14,50.31c-0.01-0.04-0.02-0.11-0.03-0.23s-0.03-0.24-0.04-0.38s-0.01-0.25-0.01-0.34h-0.02
			c-0.17,0.35-0.4,0.61-0.71,0.79c-0.31,0.18-0.69,0.26-1.15,0.26c-0.68,0-1.2-0.26-1.57-0.79c-0.37-0.53-0.55-1.27-0.55-2.22
			c0-0.96,0.19-1.71,0.58-2.23c0.39-0.52,0.94-0.79,1.65-0.79c0.41,0,0.77,0.09,1.07,0.26s0.53,0.43,0.69,0.77h0.01l-0.01-0.96
			v-2.12h1.51v6.7c0,0.18,0,0.37,0.01,0.59s0.02,0.44,0.03,0.68H321.14z M318.63,47.41c0,0.66,0.1,1.15,0.3,1.48
			c0.2,0.33,0.5,0.49,0.89,0.49c0.4,0,0.71-0.17,0.92-0.52c0.22-0.35,0.33-0.85,0.33-1.49c0-0.63-0.1-1.11-0.31-1.45
			c-0.21-0.34-0.52-0.51-0.93-0.51c-0.4,0-0.71,0.16-0.9,0.49C318.73,46.24,318.63,46.74,318.63,47.41z"/>
	</g>
	<g>
		<rect x="23.32" y="95.59" fill="#E6E7E8" width="30.66" height="21.03"/>
	</g>
	<g>
		<path d="M40.62,109.06v1.24h-5.3v-1.05c0.13-0.29,0.3-0.57,0.51-0.85c0.2-0.28,0.45-0.56,0.73-0.84c0.29-0.28,0.61-0.57,0.97-0.87
			c0.27-0.21,0.49-0.41,0.68-0.59c0.19-0.18,0.33-0.34,0.43-0.48c0.11-0.14,0.19-0.28,0.24-0.42c0.05-0.14,0.08-0.27,0.08-0.41
			c0-0.33-0.08-0.58-0.25-0.74c-0.17-0.16-0.41-0.25-0.74-0.25c-0.32,0-0.57,0.09-0.74,0.26c-0.17,0.17-0.28,0.43-0.33,0.78
			l-1.52-0.09c0.09-0.7,0.35-1.24,0.79-1.61s1.04-0.55,1.79-0.55c0.82,0,1.44,0.19,1.88,0.56c0.44,0.37,0.65,0.9,0.65,1.57
			c0,0.38-0.08,0.72-0.24,1.02c-0.16,0.3-0.36,0.58-0.6,0.83c-0.2,0.22-0.43,0.43-0.68,0.62c-0.25,0.2-0.5,0.39-0.73,0.57
			c-0.25,0.2-0.48,0.4-0.68,0.61s-0.36,0.42-0.46,0.66H40.62z"/>
	</g>
	<g>
		<rect x="23.32" y="125.38" fill="#E6E7E8" width="30.66" height="21.03"/>
	</g>
	<g>
		<path d="M40.66,137.99c0,0.71-0.23,1.26-0.7,1.64c-0.46,0.39-1.13,0.58-1.99,0.58c-0.81,0-1.46-0.19-1.94-0.56
			c-0.48-0.37-0.76-0.91-0.84-1.62l1.54-0.13c0.1,0.73,0.51,1.09,1.24,1.09c0.36,0,0.64-0.09,0.84-0.27c0.2-0.18,0.3-0.45,0.3-0.82
			c0-0.34-0.12-0.59-0.37-0.77c-0.24-0.18-0.61-0.27-1.09-0.27h-0.53v-1.22h0.49c0.43,0,0.76-0.09,0.98-0.27
			c0.22-0.18,0.33-0.43,0.33-0.76c0-0.31-0.09-0.56-0.26-0.73c-0.17-0.18-0.43-0.27-0.76-0.27c-0.31,0-0.56,0.09-0.75,0.26
			s-0.3,0.42-0.33,0.73l-1.51-0.11c0.08-0.65,0.35-1.16,0.81-1.53s1.07-0.55,1.81-0.55c0.79,0,1.41,0.18,1.86,0.53
			c0.45,0.36,0.67,0.85,0.67,1.48c0,0.47-0.14,0.86-0.42,1.17s-0.68,0.51-1.2,0.61v0.02c0.58,0.07,1.03,0.26,1.34,0.57
			C40.5,137.1,40.66,137.5,40.66,137.99z"/>
	</g>
	<g>
		<rect x="5.8" y="8.18" fill="#414042" width="334.61" height="18.66"/>
	</g>
	<g>
		<path fill="#FFFFFF" d="M151.95,18.63v3.24h-1.58v-7.57h1.58v3.01h3.3v-3.01h1.58v7.57h-1.58v-3.24H151.95z"/>
		<path fill="#FFFFFF" d="M159.85,13.91v1.11h-1.51v-1.11H159.85z M159.85,16.06v5.81h-1.51v-5.81H159.85z"/>
		<path fill="#FFFFFF" d="M162.91,19.7v2.18h-1.51v-7.97h1.51v4.57l2.07-2.41h1.62l-2.04,2.27l2.2,3.54h-1.65l-1.55-2.63
			L162.91,19.7z"/>
		<path fill="#FFFFFF" d="M168.76,19.26c0,0.57,0.11,0.99,0.31,1.28c0.21,0.29,0.51,0.43,0.89,0.43c0.26,0,0.48-0.06,0.65-0.17
			c0.17-0.12,0.29-0.29,0.36-0.52l1.42,0.12c-0.41,1.05-1.25,1.58-2.51,1.58c-0.87,0-1.54-0.26-2.01-0.78
			c-0.47-0.52-0.7-1.27-0.7-2.26c0-0.96,0.24-1.7,0.71-2.21c0.48-0.52,1.15-0.77,2.02-0.77c0.83,0,1.47,0.28,1.91,0.83
			c0.44,0.55,0.66,1.36,0.66,2.43v0.04H168.76z M171.03,18.31c-0.03-0.47-0.14-0.82-0.34-1.06c-0.2-0.23-0.46-0.35-0.79-0.35
			c-0.35,0-0.63,0.12-0.82,0.37s-0.29,0.59-0.3,1.04H171.03z"/>
		<path fill="#FFFFFF" d="M175.14,19.02v2.85h-1.51v-4.45c0-0.32,0-0.58-0.01-0.8c-0.01-0.21-0.02-0.4-0.03-0.57h1.44
			c0.01,0.03,0.01,0.1,0.02,0.21c0.01,0.11,0.01,0.24,0.02,0.37c0.01,0.14,0.01,0.27,0.02,0.39c0,0.12,0.01,0.21,0.01,0.26h0.02
			c0.14-0.4,0.27-0.69,0.39-0.86c0.11-0.17,0.25-0.29,0.41-0.37c0.16-0.08,0.35-0.12,0.59-0.12c0.19,0,0.35,0.03,0.47,0.08v1.26
			c-0.24-0.05-0.46-0.08-0.64-0.08c-0.38,0-0.67,0.15-0.88,0.46C175.25,17.97,175.14,18.43,175.14,19.02z"/>
		<path fill="#FFFFFF" d="M182.81,20.18c0,0.56-0.23,1-0.69,1.32c-0.46,0.32-1.1,0.48-1.91,0.48c-0.8,0-1.41-0.13-1.83-0.38
			c-0.42-0.25-0.71-0.65-0.85-1.18l1.33-0.2c0.08,0.28,0.21,0.47,0.39,0.59s0.51,0.17,0.96,0.17c0.42,0,0.73-0.05,0.92-0.16
			s0.29-0.28,0.29-0.5c0-0.19-0.08-0.33-0.23-0.44c-0.16-0.11-0.42-0.2-0.79-0.28c-0.28-0.06-0.54-0.11-0.76-0.17
			s-0.42-0.11-0.58-0.16c-0.16-0.05-0.29-0.1-0.39-0.15c-0.3-0.15-0.52-0.33-0.68-0.56c-0.16-0.23-0.23-0.51-0.23-0.85
			c0-0.56,0.21-0.99,0.64-1.3c0.43-0.31,1.03-0.46,1.82-0.46c0.69,0,1.25,0.13,1.67,0.4s0.68,0.66,0.79,1.17l-1.34,0.14
			c-0.04-0.24-0.15-0.41-0.32-0.53c-0.17-0.12-0.43-0.17-0.8-0.17c-0.36,0-0.63,0.05-0.81,0.14c-0.18,0.09-0.27,0.24-0.27,0.46
			c0,0.17,0.07,0.3,0.21,0.4c0.14,0.1,0.37,0.18,0.7,0.24c0.45,0.09,0.86,0.19,1.21,0.29c0.35,0.1,0.64,0.22,0.85,0.35
			c0.21,0.14,0.38,0.31,0.51,0.52C182.75,19.57,182.81,19.85,182.81,20.18z"/>
	</g>
</g>
</svg>
