<?xml version="1.0" encoding="utf-8"?>
<!-- Generator: Adobe Illustrator 24.1.0, SVG Export Plug-In . SVG Version: 6.00 Build 0)  -->
<svg version="1.1" xmlns="http://www.w3.org/2000/svg" xmlns:xlink="http://www.w3.org/1999/xlink" x="0px" y="0px"
	 viewBox="0 0 576.52 246.41" enable-background="new 0 0 576.52 246.41" xml:space="preserve">
<g id="api">
</g>
<g id="database">
	<g>
		<rect x="141.86" y="50.7" fill="#414042" width="297.65" height="36.43"/>
	</g>
	<g>
		<rect x="141.86" y="91.26" fill="#6D6E71" width="145" height="36.43"/>
	</g>
	<g>
		<rect x="141.86" y="131.81" fill="#BCBEC0" width="145" height="84.56"/>
	</g>
	<g>
		<rect x="290.69" y="131.81" fill="#BCBEC0" width="148.83" height="24.75"/>
	</g>
	<g>
		<rect x="290.69" y="160.86" fill="#BCBEC0" width="148.83" height="24.75"/>
	</g>
	<g>
		<rect x="290.69" y="191.62" fill="#BCBEC0" width="148.83" height="24.75"/>
	</g>
	<g>
		<rect x="290.69" y="91.26" fill="#6D6E71" width="148.83" height="36.43"/>
	</g>
	<g>
		<path fill="#FFFFFF" d="M264.42,70.35v5.31h-2.59V63.27h2.59v4.93h5.4v-4.93h2.59v12.38h-2.59v-5.31H264.42z"/>
		<path fill="#FFFFFF" d="M277.35,62.61v1.82h-2.47v-1.82H277.35z M277.35,66.15v9.51h-2.47v-9.51H277.35z"/>
		<path fill="#FFFFFF" d="M282.35,72.09v3.57h-2.47V62.61h2.47v7.47l3.39-3.94h2.65l-3.34,3.71l3.59,5.8h-2.7l-2.54-4.31
			L282.35,72.09z"/>
		<path fill="#FFFFFF" d="M292.36,62.61v1.82h-2.47v-1.82H292.36z M292.36,66.15v9.51h-2.47v-9.51H292.36z"/>
		<path fill="#FFFFFF" d="M297.36,70.56v5.1h-2.47v-7.38c0-0.51-0.01-0.93-0.02-1.25s-0.03-0.62-0.05-0.88h2.36
			c0.01,0.07,0.03,0.24,0.04,0.5s0.03,0.53,0.05,0.8c0.01,0.27,0.02,0.47,0.02,0.59h0.04c0.33-0.73,0.75-1.25,1.26-1.58
			s1.1-0.49,1.8-0.49c1.01,0,1.78,0.31,2.32,0.93s0.81,1.53,0.81,2.72v6.04h-2.46v-5.33c0-0.84-0.14-1.46-0.42-1.88
			s-0.71-0.62-1.27-0.62c-0.6,0-1.08,0.26-1.45,0.77S297.36,69.75,297.36,70.56z"/>
		<path fill="#FFFFFF" d="M309.87,79.47c-1.16,0-2.09-0.22-2.8-0.66c-0.71-0.44-1.14-1.07-1.31-1.89l2.47-0.29
			c0.09,0.38,0.28,0.68,0.57,0.9c0.29,0.22,0.67,0.33,1.14,0.33c0.69,0,1.19-0.21,1.5-0.63s0.47-1.05,0.47-1.88l0.02-1.44h-0.02
			c-0.27,0.59-0.66,1.02-1.17,1.31s-1.14,0.43-1.89,0.43c-1.11,0-1.97-0.42-2.58-1.25s-0.91-2.02-0.91-3.57
			c0-1.55,0.31-2.75,0.94-3.59s1.54-1.27,2.73-1.27c0.69,0,1.28,0.14,1.75,0.43c0.48,0.28,0.85,0.71,1.12,1.29h0.04
			c0-0.14,0.01-0.32,0.02-0.53s0.03-0.41,0.05-0.61c0.02-0.19,0.04-0.33,0.06-0.4h2.34c-0.04,0.63-0.05,1.37-0.05,2.2v7.02
			c0,1.35-0.38,2.38-1.15,3.07S311.33,79.47,309.87,79.47z M311.93,70.77c0-0.98-0.17-1.74-0.52-2.29
			c-0.35-0.55-0.85-0.82-1.49-0.82c-0.66,0-1.15,0.26-1.48,0.79c-0.33,0.53-0.5,1.32-0.5,2.37c0,1.03,0.16,1.81,0.49,2.33
			c0.33,0.52,0.82,0.78,1.47,0.78s1.16-0.27,1.51-0.82C311.76,72.55,311.93,71.78,311.93,70.77z"/>
	</g>
	<g>
		<path fill="#414042" d="M57.51,68.04c0,1.32-0.26,2.46-0.77,3.39c-0.51,0.94-1.22,1.65-2.13,2.15c-0.91,0.5-1.95,0.74-3.13,0.74
			h-5.01V61.94h4.48c2.09,0,3.7,0.53,4.84,1.58C56.94,64.57,57.51,66.07,57.51,68.04z M54.9,68.04c0-1.33-0.35-2.34-1.04-3.04
			s-1.68-1.05-2.96-1.05h-1.84v8.38h2.2c0.74,0,1.39-0.17,1.93-0.52c0.54-0.35,0.96-0.84,1.26-1.48S54.9,68.92,54.9,68.04z"/>
		<path fill="#414042" d="M61.72,74.5c-0.92,0-1.64-0.25-2.15-0.75s-0.77-1.21-0.77-2.11c0-0.98,0.32-1.73,0.96-2.24
			c0.64-0.51,1.57-0.78,2.79-0.8l2.05-0.04v-0.48c0-0.62-0.11-1.08-0.33-1.38s-0.57-0.45-1.06-0.45c-0.46,0-0.79,0.1-1.01,0.31
			c-0.21,0.21-0.35,0.55-0.4,1.03l-2.58-0.12c0.32-1.88,1.68-2.82,4.09-2.82c1.2,0,2.13,0.29,2.78,0.89s0.98,1.43,0.98,2.52v3.46
			c0,0.53,0.06,0.9,0.18,1.1c0.12,0.2,0.32,0.3,0.6,0.3c0.19,0,0.37-0.02,0.54-0.05v1.34c-0.3,0.08-0.57,0.13-0.78,0.17
			s-0.48,0.06-0.8,0.06c-0.62,0-1.08-0.15-1.38-0.46c-0.3-0.3-0.47-0.75-0.53-1.35h-0.05c-0.35,0.62-0.78,1.09-1.3,1.4
			S62.42,74.5,61.72,74.5z M64.6,69.92l-1.27,0.02c-0.58,0.03-0.99,0.09-1.22,0.19c-0.24,0.11-0.42,0.26-0.55,0.47
			s-0.19,0.49-0.19,0.84c0,0.45,0.1,0.79,0.31,1.01s0.49,0.33,0.83,0.33c0.39,0,0.74-0.11,1.06-0.32c0.32-0.21,0.57-0.5,0.75-0.88
			s0.27-0.77,0.27-1.18V69.92z"/>
		<path fill="#414042" d="M74.05,74.18c-0.6,0.2-1.29,0.3-2.08,0.3c-0.73,0-1.29-0.2-1.68-0.59s-0.59-0.99-0.59-1.8v-5.61h-1.2
			v-1.67h1.33l0.77-2.23h1.55v2.23h1.8v1.67h-1.8v4.94c0,0.46,0.09,0.8,0.26,1.02s0.45,0.33,0.82,0.33c0.18,0,0.45-0.04,0.83-0.12
			V74.18z"/>
		<path fill="#414042" d="M77.73,74.5c-0.92,0-1.64-0.25-2.15-0.75s-0.77-1.21-0.77-2.11c0-0.98,0.32-1.73,0.96-2.24
			c0.64-0.51,1.57-0.78,2.79-0.8l2.05-0.04v-0.48c0-0.62-0.11-1.08-0.33-1.38s-0.57-0.45-1.06-0.45c-0.46,0-0.79,0.1-1.01,0.31
			c-0.21,0.21-0.35,0.55-0.4,1.03l-2.58-0.12c0.32-1.88,1.68-2.82,4.09-2.82c1.2,0,2.13,0.29,2.78,0.89s0.98,1.43,0.98,2.52v3.46
			c0,0.53,0.06,0.9,0.18,1.1c0.12,0.2,0.32,0.3,0.6,0.3c0.19,0,0.37-0.02,0.54-0.05v1.34c-0.3,0.08-0.57,0.13-0.78,0.17
			s-0.48,0.06-0.8,0.06c-0.62,0-1.08-0.15-1.38-0.46c-0.3-0.3-0.47-0.75-0.53-1.35h-0.05c-0.35,0.62-0.78,1.09-1.3,1.4
			S78.42,74.5,77.73,74.5z M80.6,69.92l-1.27,0.02c-0.58,0.03-0.99,0.09-1.22,0.19c-0.24,0.11-0.42,0.26-0.55,0.47
			s-0.19,0.49-0.19,0.84c0,0.45,0.1,0.79,0.31,1.01s0.49,0.33,0.83,0.33c0.39,0,0.74-0.11,1.06-0.32c0.32-0.21,0.57-0.5,0.75-0.88
			s0.27-0.77,0.27-1.18V69.92z"/>
		<path fill="#414042" d="M94.54,69.53c0,1.57-0.32,2.79-0.94,3.66c-0.63,0.87-1.53,1.31-2.7,1.31c-0.67,0-1.26-0.15-1.75-0.44
			s-0.87-0.71-1.13-1.27h-0.02c0,0.13-0.01,0.31-0.02,0.53s-0.03,0.42-0.04,0.61s-0.04,0.32-0.06,0.39h-2.4
			c0.02-0.28,0.04-0.59,0.05-0.95s0.02-0.77,0.02-1.22V61.28h2.47v3.64c0,0.26,0,0.52-0.01,0.77c-0.01,0.26-0.02,0.52-0.02,0.77
			h0.04c0.28-0.61,0.67-1.07,1.18-1.37s1.13-0.46,1.86-0.46c1.12,0,1.99,0.43,2.59,1.28S94.54,67.97,94.54,69.53z M91.96,69.53
			c0-1.08-0.16-1.88-0.47-2.4s-0.81-0.78-1.47-0.78c-0.67,0-1.18,0.28-1.52,0.84c-0.35,0.56-0.52,1.37-0.52,2.42
			c0,1.01,0.17,1.79,0.51,2.36c0.34,0.56,0.85,0.84,1.52,0.84c0.66,0,1.15-0.27,1.47-0.82C91.8,71.45,91.96,70.63,91.96,69.53z"/>
		<path fill="#414042" d="M98.73,74.5c-0.92,0-1.64-0.25-2.15-0.75s-0.77-1.21-0.77-2.11c0-0.98,0.32-1.73,0.96-2.24
			c0.64-0.51,1.57-0.78,2.79-0.8l2.05-0.04v-0.48c0-0.62-0.11-1.08-0.33-1.38s-0.57-0.45-1.06-0.45c-0.46,0-0.79,0.1-1.01,0.31
			c-0.21,0.21-0.35,0.55-0.4,1.03l-2.58-0.12c0.32-1.88,1.68-2.82,4.09-2.82c1.2,0,2.13,0.29,2.78,0.89s0.98,1.43,0.98,2.52v3.46
			c0,0.53,0.06,0.9,0.18,1.1c0.12,0.2,0.32,0.3,0.6,0.3c0.19,0,0.37-0.02,0.54-0.05v1.34c-0.3,0.08-0.57,0.13-0.78,0.17
			s-0.48,0.06-0.8,0.06c-0.62,0-1.08-0.15-1.38-0.46c-0.3-0.3-0.47-0.75-0.53-1.35h-0.05c-0.35,0.62-0.78,1.09-1.3,1.4
			S99.43,74.5,98.73,74.5z M101.61,69.92l-1.27,0.02c-0.58,0.03-0.99,0.09-1.22,0.19c-0.24,0.11-0.42,0.26-0.55,0.47
			s-0.19,0.49-0.19,0.84c0,0.45,0.1,0.79,0.31,1.01s0.49,0.33,0.83,0.33c0.39,0,0.74-0.11,1.06-0.32c0.32-0.21,0.57-0.5,0.75-0.88
			s0.27-0.77,0.27-1.18V69.92z"/>
		<path fill="#414042" d="M114.56,71.54c0,0.92-0.38,1.64-1.13,2.17s-1.79,0.79-3.12,0.79c-1.31,0-2.31-0.21-3-0.62
			c-0.7-0.41-1.16-1.06-1.38-1.93l2.17-0.33c0.12,0.45,0.33,0.77,0.64,0.96c0.3,0.19,0.83,0.28,1.58,0.28c0.69,0,1.2-0.09,1.51-0.26
			s0.47-0.45,0.47-0.83c0-0.3-0.13-0.55-0.38-0.73c-0.26-0.18-0.69-0.33-1.3-0.45c-0.46-0.09-0.88-0.19-1.24-0.27
			s-0.68-0.17-0.94-0.26c-0.26-0.08-0.47-0.17-0.64-0.24c-0.49-0.24-0.86-0.55-1.11-0.92c-0.25-0.38-0.38-0.84-0.38-1.39
			c0-0.91,0.35-1.62,1.05-2.12s1.69-0.76,2.98-0.76c1.13,0,2.04,0.22,2.73,0.66c0.69,0.44,1.12,1.07,1.29,1.91l-2.19,0.23
			c-0.07-0.39-0.24-0.67-0.52-0.87s-0.71-0.29-1.31-0.29c-0.59,0-1.03,0.07-1.32,0.22s-0.44,0.4-0.44,0.75
			c0,0.28,0.11,0.49,0.34,0.66c0.22,0.16,0.6,0.29,1.14,0.4c0.74,0.15,1.4,0.31,1.98,0.47s1.04,0.35,1.39,0.58
			c0.35,0.22,0.62,0.51,0.83,0.86C114.46,70.55,114.56,71,114.56,71.54z"/>
		<path fill="#414042" d="M118.6,70.04c0,0.93,0.17,1.62,0.51,2.1c0.34,0.47,0.83,0.71,1.46,0.71c0.43,0,0.79-0.1,1.07-0.29
			c0.28-0.19,0.47-0.47,0.58-0.85l2.33,0.2c-0.67,1.72-2.04,2.58-4.1,2.58c-1.43,0-2.53-0.42-3.3-1.27s-1.15-2.08-1.15-3.7
			c0-1.57,0.39-2.78,1.17-3.62s1.88-1.27,3.31-1.27c1.37,0,2.41,0.45,3.13,1.36s1.08,2.23,1.08,3.98v0.07H118.6z M122.3,68.49
			c-0.05-0.77-0.23-1.34-0.55-1.73s-0.76-0.58-1.3-0.58c-0.58,0-1.03,0.2-1.34,0.61c-0.31,0.4-0.48,0.97-0.5,1.7H122.3z"/>
	</g>
	<g>
		<path d="M56.57,39.39c0,1.21-0.45,2.14-1.35,2.78s-2.22,0.96-3.96,0.96c-3.13,0-4.96-1.13-5.48-3.4l2.5-0.41
			c0.17,0.66,0.5,1.13,0.99,1.43s1.17,0.44,2.05,0.44c0.91,0,1.59-0.14,2.04-0.41s0.68-0.69,0.68-1.24c0-0.35-0.1-0.64-0.31-0.87
			s-0.5-0.42-0.88-0.57c-0.19-0.08-0.46-0.16-0.83-0.25s-0.81-0.19-1.35-0.3c-0.62-0.15-1.11-0.27-1.46-0.37s-0.63-0.2-0.84-0.3
			s-0.42-0.2-0.62-0.32c-0.44-0.26-0.78-0.62-1.03-1.05s-0.37-0.99-0.37-1.64c0-1.12,0.42-1.98,1.26-2.57s2.06-0.89,3.67-0.89
			c1.54,0,2.69,0.24,3.46,0.72c0.77,0.48,1.27,1.27,1.49,2.38l-2.51,0.34c-0.13-0.53-0.39-0.93-0.79-1.2c-0.4-0.27-0.96-0.4-1.7-0.4
			c-0.79,0-1.37,0.12-1.77,0.37s-0.59,0.62-0.59,1.11c0,0.32,0.08,0.59,0.25,0.79c0.17,0.21,0.42,0.38,0.74,0.53
			c0.31,0.14,0.98,0.32,2,0.54c0.59,0.13,1.1,0.25,1.53,0.37s0.77,0.22,1.03,0.33c0.26,0.11,0.49,0.23,0.69,0.35
			c0.2,0.12,0.38,0.25,0.52,0.4c0.3,0.29,0.53,0.63,0.69,1.02S56.57,38.88,56.57,39.39z"/>
		<path d="M70.52,36.71c0,1.1-0.18,2.08-0.55,2.94s-0.89,1.57-1.58,2.13s-1.51,0.94-2.48,1.14c0.2,0.58,0.48,1,0.84,1.26
			c0.36,0.26,0.87,0.39,1.52,0.39c0.36,0,0.71-0.03,1.05-0.09l-0.02,1.78c-0.73,0.16-1.44,0.25-2.13,0.25
			c-0.96,0-1.75-0.27-2.37-0.8s-1.13-1.42-1.51-2.65c-1.11-0.11-2.06-0.43-2.85-0.97s-1.39-1.26-1.8-2.17s-0.62-1.98-0.62-3.2
			c0-1.32,0.25-2.46,0.74-3.4s1.21-1.67,2.14-2.17s2.06-0.75,3.36-0.75c1.31,0,2.43,0.25,3.37,0.76s1.65,1.23,2.14,2.17
			S70.52,35.4,70.52,36.71z M67.87,36.71c0-1.34-0.32-2.38-0.95-3.14s-1.52-1.14-2.66-1.14c-1.16,0-2.06,0.38-2.69,1.13
			s-0.95,1.8-0.95,3.15c0,0.9,0.15,1.68,0.43,2.34c0.29,0.66,0.71,1.17,1.25,1.52s1.19,0.53,1.94,0.53c1.16,0,2.05-0.38,2.68-1.14
			S67.87,38.12,67.87,36.71z"/>
		<path d="M81.72,40.96v2h-9.24V30.58h2.59v10.38H81.72z"/>
	</g>
	<g>
		<path d="M285.91,33.45l-3.51,9.51h-2.95l-3.4-9.51h2.61l1.66,5.32c0.05,0.15,0.12,0.4,0.22,0.77c0.1,0.37,0.24,0.84,0.4,1.43
			c0.02-0.08,0.07-0.25,0.15-0.49c0.07-0.25,0.15-0.52,0.24-0.81s0.16-0.54,0.23-0.74l1.77-5.48H285.91z"/>
		<path d="M295.27,40.18c0,0.92-0.38,1.64-1.13,2.17s-1.79,0.79-3.12,0.79c-1.31,0-2.31-0.21-3-0.62c-0.7-0.41-1.16-1.06-1.38-1.93
			l2.17-0.33c0.12,0.45,0.33,0.77,0.64,0.96c0.3,0.19,0.83,0.28,1.58,0.28c0.69,0,1.2-0.09,1.51-0.26s0.47-0.45,0.47-0.83
			c0-0.3-0.13-0.55-0.38-0.73c-0.26-0.18-0.69-0.33-1.3-0.45c-0.46-0.09-0.88-0.18-1.24-0.27s-0.68-0.17-0.94-0.26
			c-0.26-0.08-0.47-0.17-0.64-0.24c-0.49-0.24-0.86-0.55-1.11-0.92c-0.25-0.38-0.38-0.84-0.38-1.39c0-0.91,0.35-1.62,1.05-2.12
			s1.69-0.76,2.98-0.76c1.13,0,2.04,0.22,2.73,0.66c0.69,0.44,1.12,1.08,1.29,1.91l-2.19,0.23c-0.07-0.39-0.24-0.68-0.52-0.87
			s-0.71-0.29-1.31-0.29c-0.59,0-1.03,0.07-1.32,0.22s-0.44,0.4-0.44,0.75c0,0.28,0.11,0.49,0.34,0.65c0.22,0.16,0.6,0.29,1.14,0.4
			c0.74,0.15,1.4,0.31,1.98,0.47s1.04,0.35,1.39,0.58c0.35,0.22,0.62,0.51,0.83,0.86C295.16,39.19,295.27,39.64,295.27,40.18z"/>
	</g>
	<g>
		<path fill="#6D6E71" d="M52.06,104.19v10.38h-2.59v-10.38h-4v-2h10.6v2H52.06z"/>
		<path fill="#6D6E71" d="M57.72,114.75c-0.92,0-1.64-0.25-2.15-0.75c-0.52-0.5-0.77-1.21-0.77-2.11c0-0.98,0.32-1.73,0.96-2.24
			c0.64-0.51,1.57-0.78,2.79-0.8l2.05-0.04v-0.48c0-0.62-0.11-1.08-0.33-1.38c-0.22-0.3-0.57-0.45-1.06-0.45
			c-0.46,0-0.79,0.1-1.01,0.31c-0.21,0.21-0.35,0.55-0.4,1.03l-2.58-0.12c0.32-1.88,1.68-2.82,4.09-2.82c1.2,0,2.13,0.3,2.78,0.89
			s0.98,1.43,0.98,2.52v3.46c0,0.53,0.06,0.9,0.18,1.1c0.12,0.2,0.32,0.3,0.6,0.3c0.19,0,0.37-0.02,0.54-0.05v1.34
			c-0.3,0.08-0.57,0.13-0.78,0.17c-0.22,0.04-0.48,0.06-0.8,0.06c-0.62,0-1.08-0.15-1.38-0.46c-0.3-0.3-0.47-0.75-0.53-1.34h-0.05
			c-0.35,0.62-0.78,1.09-1.3,1.4C59.03,114.59,58.42,114.75,57.72,114.75z M60.6,110.17l-1.27,0.02c-0.58,0.03-0.99,0.09-1.22,0.18
			c-0.24,0.11-0.42,0.26-0.55,0.47s-0.19,0.49-0.19,0.84c0,0.45,0.1,0.79,0.31,1.01c0.21,0.22,0.49,0.33,0.83,0.33
			c0.39,0,0.74-0.11,1.06-0.32c0.32-0.21,0.57-0.5,0.75-0.87c0.18-0.37,0.27-0.77,0.27-1.18V110.17z"/>
		<path fill="#6D6E71" d="M74.54,109.78c0,1.57-0.32,2.79-0.94,3.66c-0.63,0.87-1.53,1.31-2.7,1.31c-0.67,0-1.26-0.15-1.75-0.44
			s-0.87-0.71-1.13-1.27h-0.02c0,0.13-0.01,0.31-0.02,0.53s-0.03,0.42-0.04,0.61c-0.02,0.19-0.04,0.32-0.06,0.39h-2.4
			c0.02-0.28,0.04-0.59,0.05-0.95c0.01-0.36,0.02-0.77,0.02-1.22v-10.87h2.47v3.64c0,0.26,0,0.52-0.01,0.77
			c-0.01,0.26-0.02,0.52-0.02,0.77h0.04c0.28-0.61,0.67-1.07,1.18-1.37s1.13-0.46,1.86-0.46c1.12,0,1.99,0.43,2.59,1.28
			C74.24,107.02,74.54,108.22,74.54,109.78z M71.96,109.78c0-1.08-0.16-1.88-0.47-2.4s-0.81-0.78-1.47-0.78
			c-0.67,0-1.18,0.28-1.52,0.84c-0.35,0.56-0.52,1.37-0.52,2.42c0,1.01,0.17,1.79,0.51,2.36c0.34,0.56,0.85,0.84,1.52,0.84
			c0.66,0,1.15-0.27,1.47-0.82C71.8,111.7,71.96,110.88,71.96,109.78z"/>
		<path fill="#6D6E71" d="M79,101.53v13.04h-2.47v-13.04H79z"/>
		<path fill="#6D6E71" d="M83.57,110.29c0,0.93,0.17,1.62,0.51,2.1c0.34,0.47,0.83,0.71,1.46,0.71c0.43,0,0.79-0.09,1.07-0.29
			c0.28-0.19,0.47-0.47,0.58-0.85l2.33,0.2c-0.67,1.72-2.04,2.58-4.1,2.58c-1.43,0-2.53-0.42-3.3-1.27
			c-0.77-0.85-1.15-2.08-1.15-3.7c0-1.57,0.39-2.78,1.17-3.62s1.88-1.27,3.31-1.27c1.37,0,2.41,0.45,3.13,1.36
			c0.72,0.9,1.08,2.23,1.08,3.98v0.07H83.57z M87.28,108.74c-0.05-0.77-0.23-1.34-0.55-1.73c-0.32-0.38-0.76-0.58-1.3-0.58
			c-0.58,0-1.03,0.2-1.34,0.61c-0.31,0.4-0.48,0.97-0.5,1.7H87.28z"/>
	</g>
	<g>
		<path fill="#808285" d="M52.25,151.93c1.57,0,2.66-0.79,3.26-2.36l2.26,0.85c-0.49,1.2-1.2,2.08-2.14,2.67
			c-0.94,0.58-2.07,0.87-3.38,0.87c-1.32,0-2.45-0.25-3.38-0.76s-1.64-1.24-2.13-2.2c-0.49-0.96-0.73-2.12-0.73-3.46
			c0-1.36,0.23-2.51,0.7-3.45s1.16-1.65,2.07-2.14s2.03-0.73,3.36-0.73c1.45,0,2.64,0.29,3.55,0.88s1.56,1.44,1.92,2.57l-2.29,0.62
			c-0.19-0.62-0.57-1.11-1.14-1.48c-0.57-0.37-1.23-0.55-2-0.55c-1.17,0-2.06,0.36-2.67,1.09c-0.61,0.73-0.91,1.79-0.91,3.19
			c0,0.95,0.14,1.75,0.42,2.4s0.69,1.14,1.23,1.48S51.47,151.93,52.25,151.93z"/>
		<path fill="#808285" d="M68.56,149.03c0,1.54-0.43,2.75-1.28,3.63s-2.04,1.31-3.55,1.31c-1.48,0-2.65-0.44-3.49-1.32
			s-1.27-2.09-1.27-3.62c0-1.53,0.42-2.73,1.27-3.61s2.02-1.31,3.54-1.31c1.55,0,2.74,0.42,3.56,1.27
			C68.15,146.23,68.56,147.44,68.56,149.03z M65.97,149.03c0-1.13-0.18-1.95-0.55-2.46s-0.91-0.76-1.61-0.76
			c-0.75,0-1.31,0.27-1.69,0.8s-0.56,1.34-0.56,2.42c0,1.06,0.18,1.87,0.55,2.42c0.37,0.55,0.89,0.83,1.59,0.83
			c0.76,0,1.33-0.27,1.71-0.81C65.79,150.93,65.97,150.12,65.97,149.03z"/>
		<path fill="#808285" d="M72.99,140.75v13.04h-2.47v-13.04H72.99z"/>
		<path fill="#808285" d="M81.57,151.91c-0.33,0.72-0.75,1.25-1.25,1.57s-1.11,0.49-1.81,0.49c-1.01,0-1.78-0.31-2.32-0.93
			s-0.81-1.53-0.81-2.72v-6.04h2.47v5.33c0,0.83,0.14,1.46,0.42,1.88s0.7,0.63,1.27,0.63c0.6,0,1.08-0.26,1.45-0.77
			s0.55-1.17,0.55-1.97v-5.1H84v7.38c0,0.4,0.01,0.78,0.02,1.14s0.03,0.68,0.05,0.99h-2.36c-0.04-0.42-0.06-0.79-0.08-1.11
			s-0.03-0.58-0.03-0.78H81.57z"/>
		<path fill="#808285" d="M88.98,148.7v5.1h-2.47v-7.38c0-0.51-0.01-0.93-0.02-1.25s-0.03-0.62-0.05-0.88h2.36
			c0.01,0.07,0.03,0.24,0.04,0.5s0.03,0.53,0.05,0.8c0.01,0.27,0.02,0.47,0.02,0.59h0.04c0.3-0.73,0.68-1.25,1.14-1.58
			c0.45-0.33,1-0.49,1.63-0.49c0.73,0,1.31,0.17,1.75,0.52s0.74,0.86,0.89,1.56h0.05c0.32-0.74,0.71-1.27,1.16-1.59
			s1.03-0.48,1.72-0.48c0.93,0,1.63,0.32,2.12,0.95s0.73,1.53,0.73,2.71v6.04h-2.45v-5.33c0-0.84-0.12-1.46-0.36-1.88
			s-0.6-0.62-1.08-0.62s-0.88,0.23-1.2,0.7s-0.48,1.11-0.48,1.93v5.21h-2.45v-5.33c0-0.84-0.12-1.46-0.36-1.88s-0.6-0.62-1.08-0.62
			c-0.5,0-0.9,0.25-1.22,0.76C89.14,147.23,88.98,147.89,88.98,148.7z"/>
		<path fill="#808285" d="M104.99,148.7v5.1h-2.47v-7.38c0-0.51-0.01-0.93-0.02-1.25s-0.03-0.62-0.05-0.88h2.36
			c0.01,0.07,0.03,0.24,0.04,0.5s0.03,0.53,0.05,0.8c0.01,0.27,0.02,0.47,0.02,0.59h0.04c0.33-0.73,0.75-1.25,1.26-1.58
			s1.1-0.49,1.8-0.49c1.01,0,1.78,0.31,2.32,0.93s0.81,1.53,0.81,2.72v6.04h-2.46v-5.33c0-0.84-0.14-1.46-0.42-1.88
			s-0.71-0.62-1.27-0.62c-0.6,0-1.08,0.26-1.45,0.77S104.99,147.89,104.99,148.7z"/>
		<path fill="#808285" d="M49.06,170.69v4.7h-2.59v-12.38h6.19c1.48,0,2.62,0.32,3.42,0.95s1.2,1.55,1.2,2.74
			c0,0.87-0.25,1.62-0.74,2.25s-1.16,1.04-2,1.24l3.35,5.2h-2.92l-2.87-4.7H49.06z M54.67,166.81c0-0.59-0.19-1.04-0.57-1.34
			s-0.95-0.45-1.71-0.45h-3.32v3.66h3.39c0.73,0,1.28-0.16,1.65-0.49S54.67,167.4,54.67,166.81z"/>
		<path fill="#808285" d="M68.56,170.63c0,1.54-0.43,2.75-1.28,3.62s-2.04,1.31-3.55,1.31c-1.48,0-2.65-0.44-3.49-1.32
			s-1.27-2.09-1.27-3.62c0-1.53,0.42-2.73,1.27-3.61s2.02-1.31,3.54-1.31c1.55,0,2.74,0.42,3.56,1.27
			C68.15,167.83,68.56,169.04,68.56,170.63z M65.97,170.63c0-1.13-0.18-1.95-0.55-2.46s-0.91-0.76-1.61-0.76
			c-0.75,0-1.31,0.27-1.69,0.8s-0.56,1.34-0.56,2.42c0,1.06,0.18,1.87,0.55,2.42c0.37,0.55,0.89,0.83,1.59,0.83
			c0.76,0,1.33-0.27,1.71-0.81C65.79,172.53,65.97,171.72,65.97,170.63z"/>
		<path fill="#808285" d="M75.81,169.61l-1.53,5.78h-2.61l-2.46-9.51h2.32l1.21,5.62c0.06,0.27,0.12,0.54,0.18,0.82
			s0.12,0.55,0.18,0.83c0.06-0.28,0.11-0.56,0.16-0.84s0.11-0.56,0.18-0.83l1.49-5.59h2.65l1.46,5.59c0.04,0.15,0.09,0.37,0.15,0.65
			c0.06,0.28,0.13,0.62,0.21,1.03c0.06-0.28,0.13-0.56,0.19-0.84c0.06-0.28,0.12-0.56,0.18-0.84l1.25-5.59h2.29l-2.5,9.51h-2.61
			l-1.51-5.8c-0.04-0.13-0.09-0.37-0.16-0.69s-0.16-0.75-0.25-1.26c-0.08,0.33-0.15,0.66-0.22,0.98S75.9,169.28,75.81,169.61z"/>
	</g>
	<g>
		<path fill="#FFFFFF" d="M328.95,112.57v2h-10.1v-12.38h9.74v2h-7.15v3.11h6.61v2h-6.61v3.26H328.95z"/>
		<path fill="#FFFFFF" d="M330.39,109.82c0-1.57,0.32-2.79,0.96-3.65c0.64-0.86,1.54-1.3,2.71-1.3c0.69,0,1.28,0.14,1.75,0.43
			c0.48,0.28,0.85,0.71,1.12,1.29c0-0.18,0.01-0.38,0.02-0.59c0.01-0.21,0.03-0.41,0.06-0.58s0.04-0.29,0.05-0.35h2.37
			c-0.02,0.32-0.03,0.66-0.04,1.02c-0.01,0.36-0.01,0.75-0.01,1.17v11.06h-2.45v-3.96l0.04-1.36h-0.02
			c-0.27,0.59-0.66,1.03-1.18,1.32c-0.52,0.29-1.16,0.44-1.92,0.44c-1.11,0-1.96-0.43-2.57-1.3S330.39,111.38,330.39,109.82z
			 M336.96,109.77c0-1.01-0.17-1.8-0.51-2.36s-0.84-0.84-1.5-0.84c-0.66,0-1.15,0.27-1.48,0.81c-0.33,0.54-0.5,1.36-0.5,2.44
			c0,1.08,0.16,1.89,0.49,2.43c0.33,0.54,0.82,0.81,1.47,0.81c0.64,0,1.14-0.29,1.5-0.86S336.96,110.82,336.96,109.77z"/>
		<path fill="#FFFFFF" d="M347.95,112.68c-0.33,0.72-0.75,1.25-1.25,1.57s-1.11,0.49-1.81,0.49c-1.01,0-1.78-0.31-2.32-0.93
			s-0.81-1.52-0.81-2.72v-6.04h2.47v5.33c0,0.83,0.14,1.46,0.42,1.88s0.7,0.63,1.27,0.63c0.6,0,1.08-0.26,1.45-0.77
			s0.55-1.17,0.55-1.97v-5.1h2.47v7.38c0,0.4,0.01,0.78,0.02,1.14s0.03,0.68,0.05,0.99h-2.36c-0.04-0.42-0.06-0.79-0.08-1.11
			s-0.03-0.58-0.03-0.78H347.95z"/>
		<path fill="#FFFFFF" d="M355.37,101.53v1.82h-2.47v-1.82H355.37z M355.37,105.06v9.51h-2.47v-9.51H355.37z"/>
		<path fill="#FFFFFF" d="M366.9,109.77c0,1.59-0.32,2.81-0.95,3.68s-1.53,1.3-2.69,1.3c-1.38,0-2.34-0.56-2.88-1.69h-0.05
			c0.04,0.18,0.05,0.71,0.05,1.6v3.65h-2.47v-11.06c0-0.45-0.01-0.86-0.02-1.22s-0.03-0.69-0.05-0.97h2.4
			c0.02,0.07,0.04,0.19,0.06,0.36s0.03,0.36,0.04,0.57c0.01,0.21,0.01,0.42,0.01,0.62h0.04c0.28-0.59,0.67-1.02,1.18-1.31
			s1.13-0.43,1.86-0.43c1.11,0,1.97,0.43,2.58,1.28S366.9,108.2,366.9,109.77z M364.33,109.77c0-1.07-0.16-1.87-0.49-2.4
			c-0.32-0.53-0.82-0.8-1.47-0.8s-1.16,0.29-1.51,0.86c-0.35,0.57-0.52,1.38-0.52,2.41c0,1.03,0.17,1.82,0.52,2.38
			c0.35,0.56,0.84,0.84,1.49,0.84c0.66,0,1.16-0.27,1.49-0.82S364.33,110.87,364.33,109.77z"/>
		<path fill="#FFFFFF" d="M371.37,109.47v5.1h-2.47v-7.38c0-0.51-0.01-0.93-0.02-1.25s-0.03-0.62-0.05-0.87h2.36
			c0.01,0.07,0.03,0.24,0.04,0.5s0.03,0.53,0.05,0.8c0.01,0.27,0.02,0.47,0.02,0.59h0.04c0.3-0.73,0.68-1.25,1.14-1.58
			c0.45-0.33,1-0.49,1.63-0.49c0.73,0,1.31,0.17,1.75,0.52s0.74,0.86,0.89,1.56h0.05c0.32-0.74,0.71-1.27,1.16-1.59
			s1.03-0.48,1.72-0.48c0.93,0,1.63,0.31,2.12,0.94s0.73,1.53,0.73,2.71v6.04h-2.45v-5.33c0-0.84-0.12-1.46-0.36-1.88
			s-0.6-0.62-1.08-0.62s-0.88,0.23-1.2,0.7s-0.48,1.11-0.48,1.93v5.21h-2.45v-5.33c0-0.84-0.12-1.46-0.36-1.88s-0.6-0.62-1.08-0.62
			c-0.5,0-0.9,0.25-1.22,0.76C371.52,108,371.37,108.66,371.37,109.47z"/>
		<path fill="#FFFFFF" d="M386.94,110.29c0,0.93,0.17,1.62,0.51,2.1c0.34,0.47,0.83,0.71,1.46,0.71c0.43,0,0.79-0.1,1.07-0.29
			c0.28-0.19,0.47-0.47,0.58-0.85l2.33,0.2c-0.67,1.72-2.04,2.58-4.1,2.58c-1.43,0-2.53-0.42-3.3-1.27s-1.15-2.08-1.15-3.7
			c0-1.57,0.39-2.78,1.17-3.62s1.88-1.27,3.31-1.27c1.37,0,2.41,0.45,3.13,1.36s1.08,2.23,1.08,3.98v0.07H386.94z M390.65,108.74
			c-0.05-0.77-0.23-1.34-0.55-1.73s-0.76-0.58-1.3-0.58c-0.58,0-1.03,0.2-1.34,0.61c-0.31,0.4-0.48,0.97-0.5,1.7H390.65z"/>
		<path fill="#FFFFFF" d="M397.38,109.47v5.1h-2.47v-7.38c0-0.51-0.01-0.93-0.02-1.25s-0.03-0.62-0.05-0.87h2.36
			c0.01,0.07,0.03,0.24,0.04,0.5s0.03,0.53,0.05,0.8c0.01,0.27,0.02,0.47,0.02,0.59h0.04c0.33-0.73,0.75-1.25,1.26-1.58
			s1.1-0.49,1.8-0.49c1.01,0,1.78,0.31,2.32,0.93s0.81,1.53,0.81,2.72v6.04h-2.46v-5.33c0-0.84-0.14-1.46-0.42-1.88
			s-0.71-0.62-1.27-0.62c-0.6,0-1.08,0.26-1.45,0.77S397.38,108.67,397.38,109.47z"/>
		<path fill="#FFFFFF" d="M410.43,114.43c-0.6,0.2-1.29,0.3-2.08,0.3c-0.73,0-1.29-0.2-1.68-0.59s-0.59-0.99-0.59-1.8v-5.61h-1.2
			v-1.67h1.33l0.77-2.23h1.55v2.23h1.8v1.67h-1.8v4.94c0,0.46,0.09,0.8,0.26,1.02s0.45,0.33,0.82,0.33c0.18,0,0.45-0.04,0.83-0.12
			V114.43z"/>
		<path fill="#FFFFFF" d="M419.92,111.79c0,0.92-0.38,1.64-1.13,2.17s-1.79,0.79-3.12,0.79c-1.31,0-2.31-0.21-3-0.62
			c-0.7-0.41-1.16-1.06-1.38-1.93l2.17-0.33c0.12,0.45,0.33,0.77,0.64,0.96c0.3,0.19,0.83,0.28,1.58,0.28c0.69,0,1.2-0.09,1.51-0.26
			s0.47-0.45,0.47-0.83c0-0.3-0.13-0.55-0.38-0.73c-0.26-0.18-0.69-0.33-1.3-0.45c-0.46-0.09-0.88-0.18-1.24-0.27
			s-0.68-0.17-0.94-0.26c-0.26-0.08-0.47-0.17-0.64-0.24c-0.49-0.24-0.86-0.55-1.11-0.92c-0.25-0.38-0.38-0.84-0.38-1.39
			c0-0.91,0.35-1.62,1.05-2.12s1.69-0.76,2.98-0.76c1.13,0,2.04,0.22,2.73,0.66c0.69,0.44,1.12,1.08,1.29,1.91l-2.19,0.23
			c-0.07-0.39-0.24-0.68-0.52-0.87s-0.71-0.29-1.31-0.29c-0.59,0-1.03,0.07-1.32,0.22s-0.44,0.4-0.44,0.75
			c0,0.28,0.11,0.49,0.34,0.65c0.22,0.16,0.6,0.29,1.14,0.4c0.74,0.15,1.4,0.31,1.98,0.47s1.04,0.35,1.39,0.58
			c0.35,0.22,0.62,0.51,0.83,0.86C419.81,110.8,419.92,111.25,419.92,111.79z"/>
	</g>
	<g>
		<path fill="#FFFFFF" d="M190.98,110.26v5.31h-2.59v-12.38h2.59v4.93h5.4v-4.93h2.59v12.38h-2.59v-5.31H190.98z"/>
		<path fill="#FFFFFF" d="M203.9,102.53v1.82h-2.47v-1.82H203.9z M203.9,106.06v9.51h-2.47v-9.51H203.9z"/>
		<path fill="#FFFFFF" d="M208.91,112v3.57h-2.47v-13.04h2.47V110l3.39-3.94h2.65l-3.34,3.71l3.59,5.8h-2.7l-2.54-4.31L208.91,112z"
			/>
		<path fill="#FFFFFF" d="M218.49,111.29c0,0.93,0.17,1.62,0.51,2.1c0.34,0.47,0.83,0.71,1.46,0.71c0.43,0,0.79-0.1,1.07-0.29
			c0.28-0.19,0.47-0.47,0.58-0.85l2.33,0.2c-0.67,1.72-2.04,2.58-4.1,2.58c-1.43,0-2.53-0.42-3.3-1.27s-1.15-2.08-1.15-3.7
			c0-1.57,0.39-2.78,1.17-3.62s1.88-1.27,3.31-1.27c1.37,0,2.41,0.45,3.13,1.36s1.08,2.23,1.08,3.98v0.07H218.49z M222.19,109.74
			c-0.05-0.77-0.23-1.34-0.55-1.73s-0.76-0.58-1.3-0.58c-0.58,0-1.03,0.2-1.34,0.61c-0.31,0.4-0.48,0.97-0.5,1.7H222.19z"/>
		<path fill="#FFFFFF" d="M228.93,110.9v4.67h-2.47v-7.28c0-0.52-0.01-0.96-0.02-1.31s-0.03-0.66-0.05-0.93h2.36
			c0.01,0.05,0.02,0.17,0.04,0.35s0.02,0.38,0.04,0.61s0.02,0.44,0.03,0.64c0.01,0.2,0.01,0.34,0.01,0.43h0.04
			c0.23-0.66,0.45-1.13,0.64-1.42c0.19-0.28,0.41-0.48,0.67-0.61s0.58-0.19,0.97-0.19c0.32,0,0.57,0.04,0.76,0.13v2.07
			c-0.39-0.09-0.74-0.13-1.05-0.13c-0.62,0-1.09,0.25-1.44,0.75C229.1,109.19,228.93,109.92,228.93,110.9z"/>
		<path fill="#FFFFFF" d="M241.48,112.79c0,0.92-0.38,1.64-1.13,2.17s-1.79,0.79-3.12,0.79c-1.31,0-2.31-0.21-3-0.62
			c-0.7-0.41-1.16-1.06-1.38-1.93l2.17-0.33c0.12,0.45,0.33,0.77,0.64,0.96c0.3,0.19,0.83,0.28,1.58,0.28c0.69,0,1.2-0.09,1.51-0.26
			s0.47-0.45,0.47-0.83c0-0.3-0.13-0.55-0.38-0.73c-0.26-0.18-0.69-0.33-1.3-0.45c-0.46-0.09-0.88-0.18-1.24-0.27
			s-0.68-0.17-0.94-0.26c-0.26-0.08-0.47-0.17-0.64-0.24c-0.49-0.24-0.86-0.55-1.11-0.92c-0.25-0.38-0.38-0.84-0.38-1.39
			c0-0.91,0.35-1.62,1.05-2.12s1.69-0.76,2.98-0.76c1.13,0,2.04,0.22,2.73,0.66c0.69,0.44,1.12,1.08,1.29,1.91l-2.19,0.23
			c-0.07-0.39-0.24-0.68-0.52-0.87s-0.71-0.29-1.31-0.29c-0.59,0-1.03,0.07-1.32,0.22s-0.44,0.4-0.44,0.75
			c0,0.28,0.11,0.49,0.34,0.65c0.22,0.16,0.6,0.29,1.14,0.4c0.74,0.15,1.4,0.31,1.98,0.47s1.04,0.35,1.39,0.58
			c0.35,0.22,0.62,0.51,0.83,0.86C241.37,111.8,241.48,112.25,241.48,112.79z"/>
	</g>
	<g>
		<rect x="158.85" y="148.4" fill="#808285" width="30.72" height="10.79"/>
	</g>
	<g>
		<rect x="158.53" y="163.76" fill="#A7A9AC" width="30.72" height="10.79"/>
	</g>
	<g>
		<rect x="245.26" y="163.76" fill="#A7A9AC" width="30.72" height="10.79"/>
	</g>
	<g>
		<rect x="194.74" y="163.76" fill="#A7A9AC" width="45.74" height="10.79"/>
	</g>
	<g>
		<rect x="194.74" y="179.12" fill="#A7A9AC" width="45.74" height="10.79"/>
	</g>
	<g>
		<rect x="194.74" y="194.48" fill="#A7A9AC" width="45.74" height="10.79"/>
	</g>
	<g>
		<rect x="158.53" y="179.12" fill="#A7A9AC" width="30.72" height="10.79"/>
	</g>
	<g>
		<rect x="245.26" y="179.12" fill="#A7A9AC" width="30.72" height="10.79"/>
	</g>
	<g>
		<rect x="158.53" y="194.48" fill="#A7A9AC" width="30.72" height="10.79"/>
	</g>
	<g>
		<rect x="245.26" y="194.48" fill="#A7A9AC" width="30.72" height="10.79"/>
	</g>
	<g>
		<rect x="245.26" y="148.4" fill="#808285" width="30.72" height="10.79"/>
	</g>
	<g>
		<rect x="194.74" y="148.4" fill="#808285" width="45.74" height="10.79"/>
	</g>
	<g>
		<path fill="#FFFFFF" d="M173.35,150.77v0.81h-1.1v-0.81H173.35z M173.35,152.34v4.23h-1.1v-4.23H173.35z"/>
		<path fill="#FFFFFF" d="M177.21,156.57c0-0.03-0.01-0.08-0.02-0.16c-0.01-0.08-0.02-0.17-0.03-0.27c-0.01-0.1-0.01-0.18-0.01-0.25
			h-0.02c-0.12,0.25-0.29,0.45-0.52,0.57c-0.22,0.13-0.5,0.19-0.84,0.19c-0.49,0-0.87-0.19-1.14-0.58c-0.27-0.38-0.4-0.92-0.4-1.61
			c0-0.7,0.14-1.24,0.42-1.62c0.28-0.38,0.68-0.57,1.2-0.57c0.3,0,0.56,0.06,0.78,0.19s0.38,0.31,0.5,0.56h0.01l-0.01-0.7v-1.54h1.1
			v4.88c0,0.13,0,0.27,0.01,0.43c0,0.15,0.01,0.32,0.02,0.5H177.21z M175.39,154.46c0,0.48,0.07,0.84,0.22,1.08
			c0.14,0.24,0.36,0.36,0.65,0.36c0.29,0,0.51-0.13,0.67-0.38s0.24-0.62,0.24-1.08c0-0.46-0.08-0.81-0.23-1.05s-0.38-0.37-0.67-0.37
			c-0.29,0-0.51,0.12-0.66,0.36S175.39,153.97,175.39,154.46z"/>
	</g>
	<g>
		<path fill="#FFFFFF" d="M175.92,171.09v0.82h-3.72v-0.82h1.36v-3.75l-1.32,0.82v-0.86l1.38-0.89h1.04v4.69H175.92z"/>
	</g>
	<g>
		<path fill="#FFFFFF" d="M259.85,171.01v0.9H256v-0.76c0.1-0.21,0.22-0.42,0.37-0.62c0.15-0.2,0.33-0.41,0.53-0.61
			c0.21-0.21,0.44-0.42,0.71-0.63c0.19-0.16,0.36-0.3,0.49-0.43s0.24-0.24,0.32-0.35c0.08-0.1,0.14-0.2,0.18-0.3
			c0.04-0.1,0.06-0.2,0.06-0.29c0-0.24-0.06-0.42-0.18-0.54c-0.12-0.12-0.3-0.18-0.54-0.18c-0.23,0-0.41,0.06-0.54,0.19
			c-0.12,0.13-0.2,0.32-0.24,0.57l-1.11-0.06c0.06-0.51,0.25-0.9,0.57-1.17c0.32-0.27,0.75-0.4,1.3-0.4c0.59,0,1.05,0.13,1.37,0.41
			c0.32,0.27,0.48,0.65,0.48,1.14c0,0.28-0.06,0.52-0.17,0.74s-0.26,0.42-0.44,0.61c-0.15,0.16-0.31,0.31-0.49,0.45
			c-0.18,0.14-0.36,0.28-0.53,0.42c-0.18,0.15-0.35,0.29-0.5,0.44s-0.26,0.31-0.33,0.48H259.85z"/>
		<path fill="#FFFFFF" d="M264.27,167.28c-0.25,0.39-0.48,0.77-0.7,1.13c-0.22,0.37-0.41,0.73-0.58,1.11
			c-0.16,0.37-0.29,0.75-0.39,1.14c-0.09,0.39-0.14,0.81-0.14,1.25h-1.14c0-0.42,0.05-0.82,0.14-1.19c0.09-0.38,0.24-0.77,0.43-1.19
			c0.13-0.27,0.3-0.58,0.52-0.93c0.21-0.35,0.5-0.78,0.85-1.29h-2.73v-0.9h3.75V167.28z"/>
	</g>
	<g>
		<path fill="#FFFFFF" d="M209.56,171.08c0.7,0,1.18-0.35,1.45-1.05l1,0.38c-0.22,0.53-0.53,0.93-0.95,1.19
			c-0.42,0.26-0.92,0.39-1.5,0.39c-0.59,0-1.09-0.11-1.5-0.34c-0.41-0.23-0.73-0.55-0.95-0.98c-0.22-0.43-0.33-0.94-0.33-1.54
			c0-0.6,0.1-1.12,0.31-1.53c0.21-0.42,0.52-0.73,0.92-0.95c0.41-0.22,0.9-0.33,1.49-0.33c0.65,0,1.17,0.13,1.58,0.39
			c0.41,0.26,0.69,0.64,0.86,1.14l-1.02,0.28c-0.09-0.28-0.25-0.5-0.51-0.66c-0.25-0.16-0.55-0.24-0.89-0.24
			c-0.52,0-0.92,0.16-1.19,0.48c-0.27,0.32-0.4,0.79-0.4,1.42c0,0.42,0.06,0.78,0.19,1.07s0.31,0.51,0.55,0.66
			C208.91,171,209.21,171.08,209.56,171.08z"/>
		<path fill="#FFFFFF" d="M213.87,168.53c0.15-0.32,0.33-0.56,0.56-0.7c0.22-0.15,0.49-0.22,0.8-0.22c0.45,0,0.79,0.14,1.03,0.41
			c0.24,0.28,0.36,0.68,0.36,1.21v2.68h-1.09v-2.37c0-0.37-0.06-0.65-0.19-0.84c-0.12-0.19-0.31-0.28-0.57-0.28
			c-0.27,0-0.48,0.11-0.64,0.34c-0.16,0.23-0.24,0.52-0.24,0.88v2.26h-1.1v-5.8h1.1v1.58c0,0.09,0,0.19,0,0.28s-0.01,0.19-0.01,0.28
			c0,0.09-0.01,0.18-0.02,0.27H213.87z"/>
		<path fill="#FFFFFF" d="M218.77,166.11v0.81h-1.1v-0.81H218.77z M218.77,167.68v4.23h-1.1v-4.23H218.77z"/>
		<path fill="#FFFFFF" d="M220.87,171.99c-0.41,0-0.73-0.11-0.96-0.33s-0.34-0.54-0.34-0.94c0-0.44,0.14-0.77,0.43-1
			s0.7-0.35,1.24-0.36l0.91-0.02v-0.21c0-0.28-0.05-0.48-0.14-0.62c-0.1-0.13-0.25-0.2-0.47-0.2c-0.2,0-0.35,0.05-0.45,0.14
			c-0.09,0.09-0.15,0.25-0.18,0.46l-1.14-0.05c0.14-0.84,0.75-1.25,1.82-1.25c0.53,0,0.95,0.13,1.23,0.39
			c0.29,0.26,0.43,0.64,0.43,1.12v1.54c0,0.24,0.03,0.4,0.08,0.49s0.14,0.13,0.27,0.13c0.08,0,0.16-0.01,0.24-0.02v0.59
			c-0.14,0.03-0.25,0.06-0.35,0.08c-0.1,0.02-0.21,0.03-0.36,0.03c-0.28,0-0.48-0.07-0.61-0.2c-0.13-0.14-0.21-0.33-0.24-0.6h-0.02
			c-0.15,0.28-0.35,0.48-0.58,0.62C221.45,171.92,221.18,171.99,220.87,171.99z M222.15,169.95l-0.56,0.01
			c-0.26,0.01-0.44,0.04-0.54,0.08c-0.11,0.05-0.19,0.12-0.24,0.21s-0.08,0.22-0.08,0.38c0,0.2,0.05,0.35,0.14,0.45
			s0.22,0.15,0.37,0.15c0.17,0,0.33-0.05,0.47-0.14c0.14-0.09,0.25-0.22,0.33-0.39c0.08-0.17,0.12-0.34,0.12-0.53V169.95z"/>
		<path fill="#FFFFFF" d="M228.36,169.79c0,0.68-0.19,1.22-0.57,1.61c-0.38,0.39-0.91,0.58-1.58,0.58c-0.66,0-1.18-0.2-1.55-0.59
			s-0.56-0.93-0.56-1.61c0-0.68,0.19-1.21,0.56-1.6c0.38-0.39,0.9-0.58,1.57-0.58c0.69,0,1.22,0.19,1.58,0.56
			C228.18,168.54,228.36,169.09,228.36,169.79z M227.21,169.79c0-0.5-0.08-0.87-0.25-1.09s-0.4-0.34-0.71-0.34
			c-0.33,0-0.58,0.12-0.75,0.36s-0.25,0.6-0.25,1.08c0,0.47,0.08,0.83,0.24,1.08s0.4,0.37,0.71,0.37c0.34,0,0.59-0.12,0.76-0.36
			C227.13,170.63,227.21,170.27,227.21,169.79z"/>
	</g>
	<g>
		<path fill="#FFFFFF" d="M208.11,154.3v2.27h-1.1v-3.28c0-0.23,0-0.41-0.01-0.56s-0.01-0.27-0.02-0.39h1.05
			c0,0.03,0.01,0.1,0.02,0.22c0.01,0.12,0.01,0.23,0.02,0.36s0.01,0.21,0.01,0.26h0.02c0.15-0.32,0.33-0.56,0.56-0.7
			c0.22-0.15,0.49-0.22,0.8-0.22c0.45,0,0.79,0.14,1.03,0.41c0.24,0.28,0.36,0.68,0.36,1.21v2.68h-1.09v-2.37
			c0-0.37-0.06-0.65-0.19-0.84c-0.12-0.19-0.31-0.28-0.57-0.28c-0.27,0-0.48,0.11-0.64,0.34
			C208.19,153.65,208.11,153.94,208.11,154.3z"/>
		<path fill="#FFFFFF" d="M212.87,156.65c-0.41,0-0.73-0.11-0.96-0.33s-0.34-0.54-0.34-0.94c0-0.44,0.14-0.77,0.43-1
			s0.7-0.35,1.24-0.36l0.91-0.02v-0.21c0-0.28-0.05-0.48-0.14-0.62c-0.1-0.13-0.25-0.2-0.47-0.2c-0.2,0-0.35,0.05-0.45,0.14
			c-0.09,0.09-0.15,0.25-0.18,0.46l-1.14-0.05c0.14-0.84,0.75-1.25,1.82-1.25c0.53,0,0.95,0.13,1.23,0.39
			c0.29,0.26,0.43,0.64,0.43,1.12v1.54c0,0.24,0.03,0.4,0.08,0.49s0.14,0.13,0.27,0.13c0.08,0,0.16-0.01,0.24-0.02v0.59
			c-0.14,0.03-0.25,0.06-0.35,0.08c-0.1,0.02-0.21,0.03-0.36,0.03c-0.28,0-0.48-0.07-0.61-0.2c-0.13-0.14-0.21-0.33-0.24-0.6h-0.02
			c-0.15,0.28-0.35,0.48-0.58,0.62C213.45,156.58,213.18,156.65,212.87,156.65z M214.15,154.61l-0.56,0.01
			c-0.26,0.01-0.44,0.04-0.54,0.08c-0.11,0.05-0.19,0.12-0.24,0.21s-0.08,0.22-0.08,0.38c0,0.2,0.05,0.35,0.14,0.45
			s0.22,0.15,0.37,0.15c0.17,0,0.33-0.05,0.47-0.14c0.14-0.09,0.25-0.22,0.33-0.39c0.08-0.17,0.12-0.34,0.12-0.53V154.61z"/>
		<path fill="#FFFFFF" d="M217.44,154.3v2.27h-1.1v-3.28c0-0.23,0-0.41-0.01-0.56s-0.01-0.27-0.02-0.39h1.05
			c0,0.03,0.01,0.1,0.02,0.22c0.01,0.12,0.01,0.23,0.02,0.36s0.01,0.21,0.01,0.26h0.02c0.14-0.32,0.3-0.56,0.51-0.7
			c0.2-0.15,0.44-0.22,0.72-0.22c0.32,0,0.58,0.08,0.78,0.23c0.2,0.15,0.33,0.38,0.4,0.69h0.02c0.14-0.33,0.32-0.56,0.52-0.71
			c0.2-0.14,0.46-0.21,0.77-0.21c0.41,0,0.73,0.14,0.94,0.42c0.22,0.28,0.32,0.68,0.32,1.21v2.68h-1.09v-2.37
			c0-0.37-0.05-0.65-0.16-0.84c-0.11-0.19-0.27-0.28-0.48-0.28s-0.39,0.1-0.54,0.31s-0.21,0.49-0.21,0.86v2.32h-1.09v-2.37
			c0-0.37-0.05-0.65-0.16-0.84c-0.11-0.19-0.27-0.28-0.48-0.28c-0.22,0-0.4,0.11-0.54,0.34S217.44,153.94,217.44,154.3z"/>
		<path fill="#FFFFFF" d="M224.36,154.67c0,0.41,0.08,0.72,0.23,0.93c0.15,0.21,0.37,0.31,0.65,0.31c0.19,0,0.35-0.04,0.47-0.13
			c0.12-0.08,0.21-0.21,0.26-0.38l1.04,0.09c-0.3,0.77-0.91,1.15-1.82,1.15c-0.64,0-1.12-0.19-1.46-0.56
			c-0.34-0.38-0.51-0.93-0.51-1.65c0-0.7,0.17-1.23,0.52-1.61s0.84-0.56,1.47-0.56c0.61,0,1.07,0.2,1.39,0.6s0.48,0.99,0.48,1.77
			v0.03H224.36z M226.01,153.98c-0.02-0.34-0.1-0.6-0.25-0.77c-0.14-0.17-0.34-0.26-0.58-0.26c-0.26,0-0.46,0.09-0.6,0.27
			s-0.21,0.43-0.22,0.75H226.01z"/>
	</g>
	<g>
		<path fill="#FFFFFF" d="M255,156.67c-0.41,0-0.73-0.11-0.96-0.33s-0.34-0.54-0.34-0.94c0-0.44,0.14-0.77,0.43-1
			s0.7-0.35,1.24-0.36l0.91-0.02v-0.21c0-0.28-0.05-0.48-0.14-0.62c-0.1-0.13-0.25-0.2-0.47-0.2c-0.2,0-0.35,0.05-0.45,0.14
			c-0.09,0.09-0.15,0.25-0.18,0.46l-1.14-0.05c0.14-0.84,0.75-1.25,1.82-1.25c0.53,0,0.95,0.13,1.23,0.39
			c0.29,0.26,0.43,0.64,0.43,1.12v1.54c0,0.24,0.03,0.4,0.08,0.49s0.14,0.13,0.27,0.13c0.08,0,0.16-0.01,0.24-0.02v0.59
			c-0.14,0.03-0.25,0.06-0.35,0.08c-0.1,0.02-0.21,0.03-0.36,0.03c-0.28,0-0.48-0.07-0.61-0.2c-0.13-0.14-0.21-0.33-0.24-0.6h-0.02
			c-0.15,0.28-0.35,0.48-0.58,0.62C255.58,156.6,255.31,156.67,255,156.67z M256.28,154.63l-0.56,0.01
			c-0.26,0.01-0.44,0.04-0.54,0.08c-0.11,0.05-0.19,0.12-0.24,0.21s-0.08,0.22-0.08,0.38c0,0.2,0.05,0.35,0.14,0.45
			s0.22,0.15,0.37,0.15c0.17,0,0.33-0.05,0.47-0.14c0.14-0.09,0.25-0.22,0.33-0.39c0.08-0.17,0.12-0.34,0.12-0.53V154.63z"/>
		<path fill="#FFFFFF" d="M260.24,158.29c-0.52,0-0.93-0.1-1.24-0.29c-0.31-0.2-0.51-0.48-0.58-0.84l1.1-0.13
			c0.04,0.17,0.12,0.3,0.25,0.4c0.13,0.1,0.3,0.14,0.51,0.14c0.3,0,0.53-0.09,0.67-0.28s0.21-0.47,0.21-0.84l0.01-0.64h-0.01
			c-0.12,0.26-0.29,0.46-0.52,0.58s-0.51,0.19-0.84,0.19c-0.49,0-0.87-0.19-1.14-0.55c-0.27-0.37-0.41-0.9-0.41-1.59
			c0-0.69,0.14-1.22,0.42-1.6s0.68-0.56,1.21-0.56c0.31,0,0.57,0.06,0.78,0.19c0.21,0.13,0.38,0.32,0.5,0.57h0.02
			c0-0.06,0-0.14,0.01-0.23s0.01-0.18,0.02-0.27s0.02-0.14,0.03-0.18h1.04c-0.02,0.28-0.02,0.61-0.02,0.98v3.12
			c0,0.6-0.17,1.06-0.51,1.36C261.39,158.13,260.89,158.29,260.24,158.29z M261.16,154.42c0-0.44-0.08-0.77-0.23-1.02
			c-0.16-0.24-0.38-0.37-0.66-0.37c-0.29,0-0.51,0.12-0.66,0.35s-0.22,0.59-0.22,1.05c0,0.46,0.07,0.8,0.22,1.03
			s0.36,0.35,0.65,0.35s0.51-0.12,0.67-0.37C261.08,155.21,261.16,154.87,261.16,154.42z"/>
		<path fill="#FFFFFF" d="M264.27,154.69c0,0.41,0.08,0.72,0.23,0.93c0.15,0.21,0.37,0.31,0.65,0.31c0.19,0,0.35-0.04,0.47-0.13
			c0.12-0.08,0.21-0.21,0.26-0.38l1.04,0.09c-0.3,0.77-0.91,1.15-1.82,1.15c-0.64,0-1.12-0.19-1.46-0.56
			c-0.34-0.38-0.51-0.93-0.51-1.65c0-0.7,0.17-1.23,0.52-1.61s0.84-0.56,1.47-0.56c0.61,0,1.07,0.2,1.39,0.6s0.48,0.99,0.48,1.77
			v0.03H264.27z M265.91,154c-0.02-0.34-0.1-0.6-0.25-0.77c-0.14-0.17-0.34-0.26-0.58-0.26c-0.26,0-0.46,0.09-0.6,0.27
			s-0.21,0.43-0.22,0.75H265.91z"/>
	</g>
	<g>
		<path fill="#FFFFFF" d="M307.92,147.93c-0.35,0-0.63-0.1-0.84-0.31c-0.21-0.2-0.31-0.49-0.31-0.86v-1.28
			c0-0.3-0.07-0.52-0.21-0.67c-0.14-0.15-0.37-0.22-0.68-0.23v-0.76c0.32-0.01,0.54-0.09,0.68-0.24c0.14-0.15,0.21-0.37,0.21-0.66
			v-1.28c0-0.38,0.1-0.67,0.31-0.87s0.49-0.3,0.85-0.3h0.77v0.74h-0.23c-0.24,0-0.41,0.07-0.51,0.2c-0.11,0.14-0.16,0.34-0.16,0.61
			v1.18c0,0.25-0.08,0.46-0.22,0.64s-0.34,0.29-0.58,0.34v0.02c0.25,0.06,0.44,0.18,0.59,0.35c0.15,0.18,0.22,0.39,0.22,0.63v1.18
			c0,0.28,0.05,0.48,0.16,0.62c0.11,0.13,0.28,0.2,0.51,0.2h0.23v0.75H307.92z"/>
		<path fill="#FFFFFF" d="M312.74,140.48v0.81h-1.1v-0.81H312.74z M312.74,142.05v4.23h-1.1v-4.23H312.74z"/>
		<path fill="#FFFFFF" d="M316.6,146.27c0-0.03-0.01-0.08-0.02-0.16c-0.01-0.08-0.02-0.17-0.03-0.27c-0.01-0.1-0.01-0.18-0.01-0.25
			h-0.02c-0.12,0.26-0.29,0.45-0.52,0.57c-0.22,0.13-0.5,0.19-0.84,0.19c-0.49,0-0.87-0.19-1.14-0.58c-0.27-0.38-0.4-0.92-0.4-1.61
			c0-0.7,0.14-1.24,0.42-1.62c0.28-0.38,0.68-0.57,1.2-0.57c0.3,0,0.56,0.06,0.78,0.19s0.38,0.31,0.5,0.56h0.01l-0.01-0.7v-1.54h1.1
			v4.88c0,0.13,0,0.27,0.01,0.43c0,0.15,0.01,0.32,0.02,0.5H316.6z M314.78,144.16c0,0.48,0.07,0.84,0.22,1.08
			c0.14,0.24,0.36,0.36,0.65,0.36c0.29,0,0.51-0.13,0.67-0.38s0.24-0.62,0.24-1.08c0-0.46-0.08-0.81-0.23-1.05s-0.38-0.37-0.67-0.37
			c-0.29,0-0.51,0.12-0.66,0.36S314.78,143.67,314.78,144.16z"/>
		<path fill="#FFFFFF" d="M324.76,142.11v0.87h-4.01v-0.87H324.76z M324.76,144.27v0.86h-4.01v-0.86H324.76z"/>
		<path fill="#FFFFFF" d="M331.54,145.46v0.82h-3.72v-0.82h1.36v-3.75l-1.32,0.82v-0.86l1.38-0.89h1.04v4.69H331.54z"/>
		<path fill="#FFFFFF" d="M333.45,146.01c0,0.31-0.03,0.59-0.1,0.83c-0.07,0.24-0.17,0.46-0.32,0.67h-0.72
			c0.15-0.18,0.28-0.39,0.38-0.61c0.1-0.22,0.14-0.43,0.14-0.63h-0.5v-1.19h1.13V146.01z"/>
		<path fill="#FFFFFF" d="M337.86,144.01v2.27h-1.1v-3.28c0-0.23,0-0.41-0.01-0.56s-0.01-0.27-0.02-0.39h1.05
			c0,0.03,0.01,0.11,0.02,0.22c0.01,0.12,0.01,0.23,0.02,0.36s0.01,0.21,0.01,0.26h0.02c0.15-0.32,0.33-0.56,0.56-0.7
			c0.22-0.14,0.49-0.22,0.8-0.22c0.45,0,0.79,0.14,1.03,0.41c0.24,0.28,0.36,0.68,0.36,1.21v2.68h-1.09v-2.37
			c0-0.37-0.06-0.65-0.19-0.84c-0.12-0.18-0.31-0.28-0.57-0.28c-0.27,0-0.48,0.12-0.64,0.34
			C337.94,143.36,337.86,143.65,337.86,144.01z"/>
		<path fill="#FFFFFF" d="M342.62,146.35c-0.41,0-0.73-0.11-0.96-0.33s-0.34-0.54-0.34-0.94c0-0.44,0.14-0.77,0.43-1
			s0.7-0.34,1.24-0.36l0.91-0.02v-0.21c0-0.28-0.05-0.48-0.14-0.62c-0.1-0.13-0.25-0.2-0.47-0.2c-0.2,0-0.35,0.05-0.45,0.14
			c-0.09,0.09-0.15,0.25-0.18,0.46l-1.14-0.05c0.14-0.84,0.75-1.25,1.82-1.25c0.53,0,0.95,0.13,1.23,0.39
			c0.29,0.26,0.43,0.64,0.43,1.12v1.54c0,0.24,0.03,0.4,0.08,0.49s0.14,0.13,0.27,0.13c0.08,0,0.16-0.01,0.24-0.02v0.59
			c-0.14,0.04-0.25,0.06-0.35,0.08c-0.1,0.02-0.21,0.03-0.36,0.03c-0.28,0-0.48-0.07-0.61-0.2c-0.13-0.13-0.21-0.33-0.24-0.6h-0.02
			c-0.15,0.28-0.35,0.48-0.58,0.62C343.21,146.28,342.93,146.35,342.62,146.35z M343.9,144.32l-0.56,0.01
			c-0.26,0.01-0.44,0.04-0.54,0.08c-0.11,0.05-0.19,0.12-0.24,0.21s-0.08,0.22-0.08,0.38c0,0.2,0.05,0.35,0.14,0.45
			s0.22,0.15,0.37,0.15c0.17,0,0.33-0.05,0.47-0.14c0.14-0.09,0.25-0.22,0.33-0.39c0.08-0.16,0.12-0.34,0.12-0.53V144.32z"/>
		<path fill="#FFFFFF" d="M347.2,144.01v2.27h-1.1v-3.28c0-0.23,0-0.41-0.01-0.56s-0.01-0.27-0.02-0.39h1.05
			c0,0.03,0.01,0.11,0.02,0.22c0.01,0.12,0.01,0.23,0.02,0.36s0.01,0.21,0.01,0.26h0.02c0.14-0.32,0.3-0.56,0.51-0.7
			c0.2-0.14,0.44-0.22,0.72-0.22c0.32,0,0.58,0.08,0.78,0.23c0.2,0.15,0.33,0.38,0.4,0.69h0.02c0.14-0.33,0.32-0.56,0.52-0.71
			c0.2-0.14,0.46-0.21,0.77-0.21c0.41,0,0.73,0.14,0.94,0.42c0.22,0.28,0.32,0.68,0.32,1.21v2.68h-1.09v-2.37
			c0-0.37-0.05-0.65-0.16-0.84c-0.11-0.18-0.27-0.28-0.48-0.28s-0.39,0.1-0.54,0.31s-0.21,0.49-0.21,0.86v2.32h-1.09v-2.37
			c0-0.37-0.05-0.65-0.16-0.84c-0.11-0.18-0.27-0.28-0.48-0.28c-0.22,0-0.4,0.11-0.54,0.34S347.2,143.65,347.2,144.01z"/>
		<path fill="#FFFFFF" d="M354.12,144.37c0,0.41,0.08,0.72,0.23,0.93c0.15,0.21,0.37,0.31,0.65,0.31c0.19,0,0.35-0.04,0.47-0.13
			c0.12-0.08,0.21-0.21,0.26-0.38l1.04,0.09c-0.3,0.77-0.91,1.15-1.82,1.15c-0.64,0-1.12-0.19-1.46-0.56
			c-0.34-0.38-0.51-0.92-0.51-1.65c0-0.7,0.17-1.23,0.52-1.61s0.84-0.56,1.47-0.56c0.61,0,1.07,0.2,1.39,0.6s0.48,0.99,0.48,1.77
			v0.03H354.12z M355.77,143.68c-0.02-0.34-0.1-0.6-0.25-0.77c-0.14-0.17-0.34-0.26-0.58-0.26c-0.26,0-0.46,0.09-0.6,0.27
			s-0.21,0.43-0.22,0.75H355.77z"/>
		<path fill="#FFFFFF" d="M363.67,142.11v0.87h-4.01v-0.87H363.67z M363.67,144.27v0.86h-4.01v-0.86H363.67z"/>
		<path fill="#FFFFFF" d="M369.32,145.44c0.7,0,1.18-0.35,1.45-1.05l1,0.38c-0.22,0.53-0.53,0.93-0.95,1.19
			c-0.42,0.26-0.92,0.39-1.5,0.39c-0.59,0-1.09-0.11-1.5-0.34c-0.41-0.22-0.73-0.55-0.95-0.98c-0.22-0.43-0.33-0.94-0.33-1.54
			c0-0.6,0.1-1.11,0.31-1.53c0.21-0.42,0.52-0.73,0.92-0.95c0.41-0.22,0.9-0.33,1.49-0.33c0.65,0,1.17,0.13,1.58,0.39
			c0.41,0.26,0.69,0.64,0.86,1.14l-1.02,0.28c-0.09-0.28-0.25-0.49-0.51-0.66c-0.25-0.16-0.55-0.24-0.89-0.24
			c-0.52,0-0.92,0.16-1.19,0.48c-0.27,0.32-0.4,0.8-0.4,1.42c0,0.42,0.06,0.78,0.19,1.07s0.31,0.51,0.55,0.66
			C368.68,145.37,368.98,145.44,369.32,145.44z"/>
		<path fill="#FFFFFF" d="M373.64,142.89c0.15-0.32,0.33-0.56,0.56-0.7c0.22-0.14,0.49-0.22,0.8-0.22c0.45,0,0.79,0.14,1.03,0.41
			c0.24,0.28,0.36,0.68,0.36,1.21v2.68h-1.09v-2.37c0-0.37-0.06-0.65-0.19-0.84c-0.12-0.18-0.31-0.28-0.57-0.28
			c-0.27,0-0.48,0.12-0.64,0.34c-0.16,0.23-0.24,0.52-0.24,0.88v2.26h-1.1v-5.8h1.1v1.58c0,0.09,0,0.19,0,0.28s-0.01,0.19-0.01,0.28
			c0,0.09-0.01,0.18-0.02,0.27H373.64z"/>
		<path fill="#FFFFFF" d="M378.54,140.48v0.81h-1.1v-0.81H378.54z M378.54,142.05v4.23h-1.1v-4.23H378.54z"/>
		<path fill="#FFFFFF" d="M380.64,146.35c-0.41,0-0.73-0.11-0.96-0.33s-0.34-0.54-0.34-0.94c0-0.44,0.14-0.77,0.43-1
			s0.7-0.34,1.24-0.36l0.91-0.02v-0.21c0-0.28-0.05-0.48-0.14-0.62c-0.1-0.13-0.25-0.2-0.47-0.2c-0.2,0-0.35,0.05-0.45,0.14
			c-0.09,0.09-0.15,0.25-0.18,0.46l-1.14-0.05c0.14-0.84,0.75-1.25,1.82-1.25c0.53,0,0.95,0.13,1.23,0.39
			c0.29,0.26,0.43,0.64,0.43,1.12v1.54c0,0.24,0.03,0.4,0.08,0.49s0.14,0.13,0.27,0.13c0.08,0,0.16-0.01,0.24-0.02v0.59
			c-0.14,0.04-0.25,0.06-0.35,0.08c-0.1,0.02-0.21,0.03-0.36,0.03c-0.28,0-0.48-0.07-0.61-0.2c-0.13-0.13-0.21-0.33-0.24-0.6h-0.02
			c-0.15,0.28-0.35,0.48-0.58,0.62C381.22,146.28,380.95,146.35,380.64,146.35z M381.92,144.32l-0.56,0.01
			c-0.26,0.01-0.44,0.04-0.54,0.08c-0.11,0.05-0.19,0.12-0.24,0.21s-0.08,0.22-0.08,0.38c0,0.2,0.05,0.35,0.14,0.45
			s0.22,0.15,0.37,0.15c0.17,0,0.33-0.05,0.47-0.14c0.14-0.09,0.25-0.22,0.33-0.39c0.08-0.16,0.12-0.34,0.12-0.53V144.32z"/>
		<path fill="#FFFFFF" d="M388.13,144.16c0,0.69-0.19,1.22-0.57,1.61c-0.38,0.39-0.91,0.58-1.58,0.58c-0.66,0-1.18-0.2-1.55-0.59
			s-0.56-0.93-0.56-1.61c0-0.68,0.19-1.21,0.56-1.6c0.38-0.39,0.9-0.58,1.57-0.58c0.69,0,1.22,0.19,1.58,0.56
			C387.95,142.91,388.13,143.45,388.13,144.16z M386.98,144.16c0-0.5-0.08-0.87-0.25-1.09s-0.4-0.34-0.71-0.34
			c-0.33,0-0.58,0.12-0.75,0.36s-0.25,0.6-0.25,1.08c0,0.47,0.08,0.83,0.24,1.08s0.4,0.37,0.71,0.37c0.34,0,0.59-0.12,0.76-0.36
			C386.9,145,386.98,144.64,386.98,144.16z"/>
		<path fill="#FFFFFF" d="M390.13,146.01c0,0.31-0.03,0.59-0.1,0.83c-0.07,0.24-0.17,0.46-0.32,0.67h-0.72
			c0.15-0.18,0.28-0.39,0.38-0.61c0.1-0.22,0.14-0.43,0.14-0.63H389v-1.19h1.13V146.01z"/>
		<path fill="#FFFFFF" d="M394.42,146.35c-0.41,0-0.73-0.11-0.96-0.33s-0.34-0.54-0.34-0.94c0-0.44,0.14-0.77,0.43-1
			s0.7-0.34,1.24-0.36l0.91-0.02v-0.21c0-0.28-0.05-0.48-0.14-0.62c-0.1-0.13-0.25-0.2-0.47-0.2c-0.2,0-0.35,0.05-0.45,0.14
			c-0.09,0.09-0.15,0.25-0.18,0.46l-1.14-0.05c0.14-0.84,0.75-1.25,1.82-1.25c0.53,0,0.95,0.13,1.23,0.39
			c0.29,0.26,0.43,0.64,0.43,1.12v1.54c0,0.24,0.03,0.4,0.08,0.49s0.14,0.13,0.27,0.13c0.08,0,0.16-0.01,0.24-0.02v0.59
			c-0.14,0.04-0.25,0.06-0.35,0.08c-0.1,0.02-0.21,0.03-0.36,0.03c-0.28,0-0.48-0.07-0.61-0.2c-0.13-0.13-0.21-0.33-0.24-0.6h-0.02
			c-0.15,0.28-0.35,0.48-0.58,0.62C395,146.28,394.73,146.35,394.42,146.35z M395.7,144.32l-0.56,0.01
			c-0.26,0.01-0.44,0.04-0.54,0.08c-0.11,0.05-0.19,0.12-0.24,0.21s-0.08,0.22-0.08,0.38c0,0.2,0.05,0.35,0.14,0.45
			s0.22,0.15,0.37,0.15c0.17,0,0.33-0.05,0.47-0.14c0.14-0.09,0.25-0.22,0.33-0.39c0.08-0.16,0.12-0.34,0.12-0.53V144.32z"/>
		<path fill="#FFFFFF" d="M399.66,147.97c-0.52,0-0.93-0.1-1.24-0.29c-0.31-0.2-0.51-0.48-0.58-0.84l1.1-0.13
			c0.04,0.17,0.12,0.3,0.25,0.4c0.13,0.1,0.3,0.14,0.51,0.14c0.3,0,0.53-0.09,0.67-0.28s0.21-0.46,0.21-0.84l0.01-0.64h-0.01
			c-0.12,0.26-0.29,0.46-0.52,0.58s-0.51,0.19-0.84,0.19c-0.49,0-0.87-0.18-1.14-0.55c-0.27-0.37-0.41-0.9-0.41-1.59
			c0-0.69,0.14-1.22,0.42-1.6s0.68-0.56,1.21-0.56c0.31,0,0.57,0.06,0.78,0.19c0.21,0.13,0.38,0.32,0.5,0.57h0.02
			c0-0.06,0-0.14,0.01-0.23s0.01-0.18,0.02-0.27s0.02-0.14,0.03-0.18h1.04c-0.02,0.28-0.02,0.61-0.02,0.98v3.12
			c0,0.6-0.17,1.06-0.51,1.36C400.81,147.82,400.32,147.97,399.66,147.97z M400.58,144.1c0-0.43-0.08-0.77-0.23-1.02
			c-0.16-0.24-0.38-0.37-0.66-0.37c-0.29,0-0.51,0.12-0.66,0.35s-0.22,0.59-0.22,1.05c0,0.46,0.07,0.8,0.22,1.03
			s0.36,0.35,0.65,0.35s0.51-0.12,0.67-0.37C400.5,144.9,400.58,144.55,400.58,144.1z"/>
		<path fill="#FFFFFF" d="M403.69,144.37c0,0.41,0.08,0.72,0.23,0.93c0.15,0.21,0.37,0.31,0.65,0.31c0.19,0,0.35-0.04,0.47-0.13
			c0.12-0.08,0.21-0.21,0.26-0.38l1.04,0.09c-0.3,0.77-0.91,1.15-1.82,1.15c-0.64,0-1.12-0.19-1.46-0.56
			c-0.34-0.38-0.51-0.92-0.51-1.65c0-0.7,0.17-1.23,0.52-1.61s0.84-0.56,1.47-0.56c0.61,0,1.07,0.2,1.39,0.6s0.48,0.99,0.48,1.77
			v0.03H403.69z M405.34,143.68c-0.02-0.34-0.1-0.6-0.25-0.77c-0.14-0.17-0.34-0.26-0.58-0.26c-0.26,0-0.46,0.09-0.6,0.27
			s-0.21,0.43-0.22,0.75H405.34z"/>
		<path fill="#FFFFFF" d="M413.24,142.11v0.87h-4.01v-0.87H413.24z M413.24,144.27v0.86h-4.01v-0.86H413.24z"/>
		<path fill="#FFFFFF" d="M419.92,145.37v0.9h-3.85v-0.76c0.1-0.21,0.22-0.42,0.37-0.62c0.15-0.2,0.33-0.4,0.53-0.61
			c0.21-0.2,0.44-0.41,0.71-0.63c0.19-0.16,0.36-0.3,0.49-0.43s0.24-0.24,0.32-0.35c0.08-0.1,0.14-0.2,0.18-0.3
			c0.04-0.1,0.06-0.2,0.06-0.29c0-0.24-0.06-0.42-0.18-0.54c-0.12-0.12-0.3-0.18-0.54-0.18c-0.23,0-0.41,0.06-0.54,0.19
			c-0.12,0.13-0.2,0.32-0.24,0.57l-1.11-0.06c0.06-0.51,0.25-0.9,0.57-1.17c0.32-0.27,0.75-0.4,1.3-0.4c0.59,0,1.05,0.14,1.37,0.41
			c0.32,0.27,0.48,0.65,0.48,1.14c0,0.28-0.06,0.52-0.17,0.74s-0.26,0.42-0.44,0.61c-0.15,0.16-0.31,0.31-0.49,0.45
			c-0.18,0.14-0.36,0.28-0.53,0.42c-0.18,0.15-0.35,0.29-0.5,0.44s-0.26,0.31-0.33,0.48H419.92z"/>
		<path fill="#FFFFFF" d="M424.34,141.64c-0.25,0.39-0.48,0.77-0.7,1.13c-0.22,0.37-0.41,0.74-0.58,1.11s-0.29,0.75-0.39,1.14
			c-0.09,0.39-0.14,0.81-0.14,1.25h-1.14c0-0.42,0.05-0.82,0.14-1.19c0.09-0.38,0.24-0.77,0.43-1.19c0.13-0.27,0.3-0.58,0.52-0.93
			c0.21-0.35,0.5-0.78,0.85-1.29h-2.73v-0.9h3.75V141.64z"/>
		<path fill="#FFFFFF" d="M427.08,147.19h0.22c0.24,0,0.42-0.07,0.52-0.2c0.1-0.13,0.15-0.34,0.15-0.62v-1.18
			c0-0.24,0.07-0.45,0.22-0.63s0.34-0.3,0.59-0.36v-0.02c-0.24-0.05-0.43-0.16-0.58-0.34c-0.15-0.18-0.23-0.39-0.23-0.64v-1.18
			c0-0.27-0.05-0.48-0.15-0.61c-0.1-0.13-0.28-0.2-0.52-0.2h-0.22v-0.74h0.77c0.36,0,0.64,0.1,0.85,0.3s0.31,0.49,0.31,0.87v1.28
			c0,0.29,0.07,0.51,0.21,0.66s0.37,0.23,0.69,0.24v0.76c-0.32,0.01-0.54,0.08-0.69,0.23c-0.14,0.15-0.21,0.37-0.21,0.66v1.28
			c0,0.37-0.1,0.65-0.31,0.86c-0.21,0.21-0.49,0.31-0.84,0.31h-0.77V147.19z"/>
	</g>
	<g>
		<path fill="#414042" d="M139.86,52.7v32.43H30.57V52.7H139.86 M141.86,50.7H28.57v36.43h113.29V50.7L141.86,50.7z"/>
	</g>
	<g>
		<path fill="#6D6E71" d="M139.86,93.26v32.43H30.57V93.26H139.86 M141.86,91.26H28.57v36.43h113.29V91.26L141.86,91.26z"/>
	</g>
	<g>
		<path fill="#BCBEC0" d="M139.86,133.81v80.56H30.57v-80.56H139.86 M141.86,131.81H28.57v84.56h113.29V131.81L141.86,131.81z"/>
	</g>
	<g>
		<path fill="#414042" d="M462.2,68.55c0,1.32-0.26,2.46-0.77,3.39c-0.51,0.94-1.22,1.65-2.13,2.15c-0.91,0.49-1.95,0.74-3.13,0.74
			h-5.01V62.45h4.48c2.09,0,3.7,0.53,4.84,1.58C461.63,65.08,462.2,66.59,462.2,68.55z M459.59,68.55c0-1.33-0.35-2.34-1.04-3.05
			c-0.69-0.7-1.68-1.05-2.96-1.05h-1.84v8.38h2.2c0.74,0,1.39-0.17,1.93-0.52c0.54-0.35,0.96-0.84,1.26-1.48
			S459.59,69.43,459.59,68.55z"/>
		<path fill="#414042" d="M466.41,75.01c-0.92,0-1.64-0.25-2.15-0.75c-0.52-0.5-0.77-1.21-0.77-2.11c0-0.98,0.32-1.73,0.96-2.24
			c0.64-0.51,1.57-0.78,2.79-0.8l2.05-0.04v-0.48c0-0.62-0.11-1.08-0.33-1.38c-0.22-0.3-0.57-0.45-1.06-0.45
			c-0.46,0-0.79,0.1-1.01,0.31c-0.21,0.21-0.35,0.55-0.4,1.03l-2.58-0.12c0.32-1.88,1.68-2.82,4.09-2.82c1.2,0,2.13,0.3,2.78,0.89
			s0.98,1.43,0.98,2.52v3.46c0,0.53,0.06,0.9,0.18,1.1c0.12,0.2,0.32,0.3,0.6,0.3c0.19,0,0.37-0.02,0.54-0.05v1.34
			c-0.3,0.08-0.57,0.13-0.78,0.17c-0.22,0.04-0.48,0.06-0.8,0.06c-0.62,0-1.08-0.15-1.38-0.46c-0.3-0.3-0.47-0.75-0.53-1.34h-0.05
			c-0.35,0.62-0.78,1.09-1.3,1.4C467.72,74.85,467.11,75.01,466.41,75.01z M469.29,70.43l-1.27,0.02c-0.58,0.03-0.99,0.09-1.22,0.18
			c-0.24,0.11-0.42,0.26-0.55,0.47s-0.19,0.49-0.19,0.84c0,0.45,0.1,0.79,0.31,1.01c0.21,0.22,0.49,0.33,0.83,0.33
			c0.39,0,0.74-0.11,1.06-0.32c0.32-0.21,0.57-0.5,0.75-0.88c0.18-0.37,0.27-0.77,0.27-1.18V70.43z"/>
		<path fill="#414042" d="M478.75,74.69c-0.6,0.2-1.29,0.3-2.08,0.3c-0.73,0-1.29-0.2-1.68-0.59c-0.39-0.39-0.59-0.99-0.59-1.8
			v-5.61h-1.2v-1.67h1.33l0.77-2.23h1.55v2.23h1.8v1.67h-1.8v4.94c0,0.46,0.09,0.8,0.26,1.02c0.18,0.22,0.45,0.33,0.82,0.33
			c0.18,0,0.45-0.04,0.83-0.12V74.69z"/>
		<path fill="#414042" d="M482.42,75.01c-0.92,0-1.64-0.25-2.15-0.75c-0.52-0.5-0.77-1.21-0.77-2.11c0-0.98,0.32-1.73,0.96-2.24
			c0.64-0.51,1.57-0.78,2.79-0.8l2.05-0.04v-0.48c0-0.62-0.11-1.08-0.33-1.38c-0.22-0.3-0.57-0.45-1.06-0.45
			c-0.46,0-0.79,0.1-1.01,0.31c-0.21,0.21-0.35,0.55-0.4,1.03l-2.58-0.12c0.32-1.88,1.68-2.82,4.09-2.82c1.2,0,2.13,0.3,2.78,0.89
			s0.98,1.43,0.98,2.52v3.46c0,0.53,0.06,0.9,0.18,1.1c0.12,0.2,0.32,0.3,0.6,0.3c0.19,0,0.37-0.02,0.54-0.05v1.34
			c-0.3,0.08-0.57,0.13-0.78,0.17c-0.22,0.04-0.48,0.06-0.8,0.06c-0.62,0-1.08-0.15-1.38-0.46c-0.3-0.3-0.47-0.75-0.53-1.34h-0.05
			c-0.35,0.62-0.78,1.09-1.3,1.4C483.73,74.85,483.12,75.01,482.42,75.01z M485.29,70.43l-1.27,0.02c-0.58,0.03-0.99,0.09-1.22,0.18
			c-0.24,0.11-0.42,0.26-0.55,0.47s-0.19,0.49-0.19,0.84c0,0.45,0.1,0.79,0.31,1.01c0.21,0.22,0.49,0.33,0.83,0.33
			c0.39,0,0.74-0.11,1.06-0.32c0.32-0.21,0.57-0.5,0.75-0.88c0.18-0.37,0.27-0.77,0.27-1.18V70.43z"/>
		<path fill="#414042" d="M499.23,70.04c0,1.57-0.32,2.79-0.94,3.66c-0.63,0.87-1.53,1.3-2.7,1.3c-0.67,0-1.26-0.15-1.75-0.44
			s-0.87-0.71-1.13-1.27h-0.02c0,0.13-0.01,0.31-0.02,0.53s-0.03,0.42-0.04,0.61c-0.02,0.19-0.04,0.32-0.06,0.39h-2.4
			c0.02-0.28,0.04-0.59,0.05-0.95c0.01-0.36,0.02-0.77,0.02-1.22V61.79h2.47v3.64c0,0.26,0,0.52-0.01,0.77
			c-0.01,0.26-0.02,0.52-0.02,0.77h0.04c0.28-0.61,0.67-1.07,1.18-1.37s1.13-0.46,1.86-0.46c1.12,0,1.99,0.43,2.59,1.28
			C498.93,67.28,499.23,68.48,499.23,70.04z M496.66,70.04c0-1.08-0.16-1.88-0.47-2.4s-0.81-0.78-1.47-0.78
			c-0.67,0-1.18,0.28-1.52,0.84c-0.35,0.56-0.52,1.37-0.52,2.42c0,1.01,0.17,1.79,0.51,2.36c0.34,0.56,0.85,0.84,1.52,0.84
			c0.66,0,1.15-0.27,1.47-0.82C496.5,71.96,496.66,71.14,496.66,70.04z"/>
		<path fill="#414042" d="M503.43,75.01c-0.92,0-1.64-0.25-2.15-0.75c-0.52-0.5-0.77-1.21-0.77-2.11c0-0.98,0.32-1.73,0.96-2.24
			c0.64-0.51,1.57-0.78,2.79-0.8l2.05-0.04v-0.48c0-0.62-0.11-1.08-0.33-1.38c-0.22-0.3-0.57-0.45-1.06-0.45
			c-0.46,0-0.79,0.1-1.01,0.31c-0.21,0.21-0.35,0.55-0.4,1.03l-2.58-0.12c0.32-1.88,1.68-2.82,4.09-2.82c1.2,0,2.13,0.3,2.78,0.89
			s0.98,1.43,0.98,2.52v3.46c0,0.53,0.06,0.9,0.18,1.1c0.12,0.2,0.32,0.3,0.6,0.3c0.19,0,0.37-0.02,0.54-0.05v1.34
			c-0.3,0.08-0.57,0.13-0.78,0.17c-0.22,0.04-0.48,0.06-0.8,0.06c-0.62,0-1.08-0.15-1.38-0.46c-0.3-0.3-0.47-0.75-0.53-1.34h-0.05
			c-0.35,0.62-0.78,1.09-1.3,1.4C504.73,74.85,504.12,75.01,503.43,75.01z M506.3,70.43l-1.27,0.02c-0.58,0.03-0.99,0.09-1.22,0.18
			c-0.24,0.11-0.42,0.26-0.55,0.47s-0.19,0.49-0.19,0.84c0,0.45,0.1,0.79,0.31,1.01c0.21,0.22,0.49,0.33,0.83,0.33
			c0.39,0,0.74-0.11,1.06-0.32c0.32-0.21,0.57-0.5,0.75-0.88c0.18-0.37,0.27-0.77,0.27-1.18V70.43z"/>
		<path fill="#414042" d="M519.25,72.06c0,0.92-0.38,1.64-1.13,2.17c-0.75,0.53-1.79,0.79-3.12,0.79c-1.31,0-2.31-0.21-3-0.62
			c-0.7-0.41-1.16-1.06-1.38-1.93l2.17-0.33c0.12,0.45,0.33,0.77,0.64,0.96c0.3,0.19,0.83,0.28,1.58,0.28c0.69,0,1.2-0.09,1.51-0.26
			s0.47-0.45,0.47-0.83c0-0.3-0.13-0.55-0.38-0.72c-0.26-0.18-0.69-0.33-1.3-0.45c-0.46-0.09-0.88-0.18-1.24-0.27
			s-0.68-0.17-0.94-0.26c-0.26-0.09-0.47-0.17-0.64-0.24c-0.49-0.24-0.86-0.55-1.11-0.92c-0.25-0.38-0.38-0.84-0.38-1.39
			c0-0.91,0.35-1.62,1.05-2.12c0.7-0.51,1.69-0.76,2.98-0.76c1.13,0,2.04,0.22,2.73,0.66c0.69,0.44,1.12,1.08,1.29,1.91l-2.19,0.23
			c-0.07-0.39-0.24-0.67-0.52-0.87c-0.28-0.19-0.71-0.29-1.31-0.29c-0.59,0-1.03,0.07-1.32,0.22c-0.29,0.15-0.44,0.4-0.44,0.75
			c0,0.28,0.11,0.49,0.34,0.66c0.22,0.16,0.6,0.29,1.14,0.4c0.74,0.15,1.4,0.31,1.98,0.47c0.58,0.16,1.04,0.35,1.39,0.58
			c0.35,0.22,0.62,0.51,0.83,0.86C519.15,71.06,519.25,71.51,519.25,72.06z"/>
		<path fill="#414042" d="M523.29,70.55c0,0.93,0.17,1.62,0.51,2.1c0.34,0.47,0.83,0.71,1.46,0.71c0.43,0,0.79-0.1,1.07-0.29
			c0.28-0.19,0.47-0.47,0.58-0.85l2.33,0.2c-0.67,1.72-2.04,2.58-4.1,2.58c-1.43,0-2.53-0.42-3.3-1.27
			c-0.77-0.85-1.15-2.08-1.15-3.71c0-1.57,0.39-2.78,1.17-3.62s1.88-1.27,3.31-1.27c1.37,0,2.41,0.45,3.13,1.36
			c0.72,0.91,1.08,2.23,1.08,3.98v0.07H523.29z M527,69.01c-0.05-0.77-0.23-1.34-0.55-1.73c-0.32-0.38-0.76-0.58-1.3-0.58
			c-0.58,0-1.03,0.2-1.34,0.61c-0.31,0.4-0.48,0.97-0.5,1.7H527z"/>
	</g>
	<g>
		<path d="M459.72,35.66v7.3h-2.3V30.58h2.96l5.48,9.62c-0.11-0.89-0.16-1.7-0.16-2.42v-7.2h2.3v12.38h-3.04l-5.4-9.54
			c0.05,0.46,0.09,0.88,0.12,1.25C459.71,35.05,459.72,35.38,459.72,35.66z"/>
		<path d="M479.5,38.2c0,1.54-0.43,2.75-1.28,3.63s-2.04,1.31-3.55,1.31c-1.48,0-2.65-0.44-3.49-1.32s-1.27-2.09-1.27-3.62
			c0-1.53,0.42-2.73,1.27-3.61s2.02-1.31,3.54-1.31c1.55,0,2.74,0.42,3.56,1.27C479.09,35.39,479.5,36.61,479.5,38.2z M476.92,38.2
			c0-1.13-0.18-1.95-0.55-2.46s-0.91-0.76-1.61-0.76c-0.75,0-1.31,0.27-1.69,0.8s-0.56,1.34-0.56,2.42c0,1.06,0.18,1.87,0.55,2.42
			c0.37,0.55,0.89,0.83,1.59,0.83c0.76,0,1.33-0.27,1.71-0.81C476.73,40.1,476.92,39.28,476.92,38.2z"/>
		<path d="M491.51,39.39c0,1.21-0.45,2.14-1.35,2.78s-2.22,0.96-3.96,0.96c-3.13,0-4.96-1.13-5.48-3.4l2.5-0.41
			c0.17,0.66,0.5,1.13,0.99,1.43s1.17,0.44,2.05,0.44c0.91,0,1.59-0.14,2.04-0.41s0.68-0.69,0.68-1.24c0-0.35-0.1-0.64-0.31-0.87
			s-0.5-0.42-0.88-0.57c-0.19-0.08-0.46-0.16-0.83-0.25s-0.81-0.19-1.35-0.3c-0.62-0.15-1.11-0.27-1.46-0.37s-0.63-0.2-0.84-0.3
			s-0.42-0.2-0.62-0.32c-0.44-0.26-0.78-0.62-1.03-1.05s-0.37-0.99-0.37-1.64c0-1.12,0.42-1.98,1.26-2.57s2.06-0.89,3.67-0.89
			c1.54,0,2.69,0.24,3.46,0.72c0.77,0.48,1.27,1.27,1.49,2.38l-2.51,0.34c-0.13-0.53-0.39-0.93-0.79-1.2c-0.4-0.27-0.96-0.4-1.7-0.4
			c-0.79,0-1.37,0.12-1.77,0.37s-0.59,0.62-0.59,1.11c0,0.32,0.08,0.59,0.25,0.79c0.17,0.21,0.42,0.38,0.74,0.53
			c0.31,0.14,0.98,0.32,2,0.54c0.59,0.13,1.1,0.25,1.53,0.37s0.77,0.22,1.03,0.33c0.26,0.11,0.49,0.23,0.69,0.35
			c0.2,0.12,0.38,0.25,0.52,0.4c0.3,0.29,0.53,0.63,0.69,1.02S491.51,38.88,491.51,39.39z"/>
		<path d="M505.46,36.71c0,1.1-0.18,2.08-0.55,2.94s-0.89,1.57-1.58,2.13s-1.51,0.94-2.48,1.14c0.2,0.58,0.48,1,0.84,1.26
			c0.36,0.26,0.87,0.39,1.52,0.39c0.36,0,0.71-0.03,1.05-0.09l-0.02,1.78c-0.73,0.16-1.44,0.25-2.13,0.25
			c-0.96,0-1.75-0.27-2.37-0.8s-1.13-1.42-1.51-2.65c-1.11-0.11-2.06-0.43-2.85-0.97s-1.39-1.26-1.8-2.17s-0.62-1.98-0.62-3.2
			c0-1.32,0.25-2.46,0.74-3.4s1.21-1.67,2.14-2.17s2.06-0.75,3.36-0.75c1.31,0,2.43,0.25,3.37,0.76s1.65,1.23,2.14,2.17
			S505.46,35.4,505.46,36.71z M502.81,36.71c0-1.34-0.32-2.38-0.95-3.14s-1.52-1.14-2.66-1.14c-1.16,0-2.06,0.38-2.69,1.13
			s-0.95,1.8-0.95,3.15c0,0.9,0.15,1.68,0.43,2.34c0.29,0.66,0.71,1.17,1.25,1.52s1.19,0.53,1.94,0.53c1.16,0,2.05-0.38,2.68-1.14
			S502.81,38.12,502.81,36.71z"/>
		<path d="M516.66,40.96v2h-9.24V30.58h2.59v10.38H516.66z"/>
	</g>
	<g>
		<path fill="#6D6E71" d="M456.95,113.22c1.57,0,2.66-0.79,3.26-2.36l2.26,0.85c-0.49,1.2-1.2,2.08-2.14,2.67
			c-0.94,0.58-2.07,0.88-3.38,0.88c-1.32,0-2.45-0.25-3.38-0.76s-1.64-1.24-2.13-2.2c-0.49-0.96-0.73-2.12-0.73-3.46
			c0-1.36,0.23-2.51,0.7-3.45s1.16-1.65,2.07-2.14s2.03-0.73,3.36-0.73c1.45,0,2.64,0.29,3.55,0.87s1.56,1.44,1.92,2.57l-2.29,0.62
			c-0.19-0.62-0.57-1.11-1.14-1.48c-0.57-0.37-1.23-0.55-2-0.55c-1.17,0-2.06,0.36-2.67,1.09c-0.61,0.73-0.91,1.79-0.91,3.19
			c0,0.95,0.14,1.75,0.42,2.4s0.69,1.14,1.23,1.48S456.16,113.22,456.95,113.22z"/>
		<path fill="#6D6E71" d="M473.25,110.32c0,1.54-0.43,2.75-1.28,3.62s-2.04,1.31-3.55,1.31c-1.48,0-2.65-0.44-3.49-1.32
			s-1.27-2.09-1.27-3.62c0-1.53,0.42-2.73,1.27-3.61s2.02-1.31,3.54-1.31c1.55,0,2.74,0.42,3.56,1.27
			C472.84,107.51,473.25,108.73,473.25,110.32z M470.67,110.32c0-1.13-0.18-1.95-0.55-2.46s-0.91-0.77-1.61-0.77
			c-0.75,0-1.31,0.27-1.69,0.8s-0.56,1.34-0.56,2.42c0,1.06,0.18,1.87,0.55,2.42c0.37,0.55,0.89,0.83,1.59,0.83
			c0.76,0,1.33-0.27,1.71-0.81C470.48,112.22,470.67,111.4,470.67,110.32z"/>
		<path fill="#6D6E71" d="M477.68,102.04v13.04h-2.47v-13.04H477.68z"/>
		<path fill="#6D6E71" d="M482.68,102.04v13.04h-2.47v-13.04H482.68z"/>
		<path fill="#6D6E71" d="M487.25,110.8c0,0.93,0.17,1.62,0.51,2.1c0.34,0.47,0.83,0.71,1.46,0.71c0.43,0,0.79-0.1,1.07-0.29
			c0.28-0.19,0.47-0.47,0.58-0.85l2.33,0.2c-0.67,1.72-2.04,2.58-4.1,2.58c-1.43,0-2.53-0.42-3.3-1.27s-1.15-2.08-1.15-3.7
			c0-1.57,0.39-2.78,1.17-3.62s1.88-1.27,3.31-1.27c1.37,0,2.41,0.45,3.13,1.36s1.08,2.23,1.08,3.98v0.07H487.25z M490.96,109.25
			c-0.05-0.77-0.23-1.34-0.55-1.73s-0.76-0.58-1.3-0.58c-0.58,0-1.03,0.2-1.34,0.61c-0.31,0.4-0.48,0.97-0.5,1.7H490.96z"/>
		<path fill="#6D6E71" d="M499.19,115.26c-1.44,0-2.55-0.43-3.34-1.29s-1.18-2.06-1.18-3.59c0-1.57,0.4-2.79,1.19-3.67
			s1.91-1.31,3.37-1.31c1.12,0,2.04,0.28,2.78,0.84s1.19,1.34,1.38,2.33l-2.49,0.12c-0.07-0.49-0.25-0.87-0.53-1.16
			s-0.68-0.44-1.2-0.44c-0.64,0-1.12,0.27-1.43,0.8s-0.47,1.33-0.47,2.4c0,1.1,0.16,1.92,0.49,2.46c0.33,0.55,0.81,0.82,1.46,0.82
			c0.47,0,0.86-0.15,1.18-0.44s0.51-0.74,0.59-1.32l2.48,0.12c-0.09,0.67-0.32,1.25-0.71,1.75s-0.88,0.89-1.49,1.17
			S499.96,115.26,499.19,115.26z"/>
		<path fill="#6D6E71" d="M509.75,114.94c-0.6,0.2-1.29,0.3-2.08,0.3c-0.73,0-1.29-0.2-1.68-0.59s-0.59-0.99-0.59-1.8v-5.61h-1.2
			v-1.67h1.33l0.77-2.23h1.55v2.23h1.8v1.67h-1.8v4.94c0,0.46,0.09,0.8,0.26,1.02s0.45,0.33,0.82,0.33c0.18,0,0.45-0.04,0.83-0.12
			V114.94z"/>
		<path fill="#6D6E71" d="M513.7,102.04v1.82h-2.47v-1.82H513.7z M513.7,105.57v9.51h-2.47v-9.51H513.7z"/>
		<path fill="#6D6E71" d="M525.27,110.32c0,1.54-0.43,2.75-1.28,3.62s-2.04,1.31-3.55,1.31c-1.48,0-2.65-0.44-3.49-1.32
			s-1.27-2.09-1.27-3.62c0-1.53,0.42-2.73,1.27-3.61s2.02-1.31,3.54-1.31c1.55,0,2.74,0.42,3.56,1.27
			C524.86,107.51,525.27,108.73,525.27,110.32z M522.68,110.32c0-1.13-0.18-1.95-0.55-2.46s-0.91-0.77-1.61-0.77
			c-0.75,0-1.31,0.27-1.69,0.8s-0.56,1.34-0.56,2.42c0,1.06,0.18,1.87,0.55,2.42c0.37,0.55,0.89,0.83,1.59,0.83
			c0.76,0,1.33-0.27,1.71-0.81C522.49,112.22,522.68,111.4,522.68,110.32z"/>
		<path fill="#6D6E71" d="M529.7,109.99v5.1h-2.47v-7.38c0-0.51-0.01-0.93-0.02-1.25s-0.03-0.62-0.05-0.87h2.36
			c0.01,0.07,0.03,0.24,0.04,0.5s0.03,0.53,0.05,0.8c0.01,0.27,0.02,0.47,0.02,0.59h0.04c0.33-0.73,0.75-1.25,1.26-1.58
			s1.1-0.49,1.8-0.49c1.01,0,1.78,0.31,2.32,0.93s0.81,1.53,0.81,2.72v6.04h-2.46v-5.34c0-0.84-0.14-1.46-0.42-1.88
			s-0.71-0.62-1.27-0.62c-0.6,0-1.08,0.26-1.45,0.77S529.7,109.18,529.7,109.99z"/>
	</g>
	<g>
		<path fill="#808285" d="M462.2,148.02c0,1.32-0.26,2.46-0.77,3.39c-0.51,0.94-1.22,1.65-2.13,2.15c-0.91,0.5-1.95,0.74-3.13,0.74
			h-5.01v-12.38h4.48c2.09,0,3.7,0.53,4.84,1.58S462.2,146.06,462.2,148.02z M459.59,148.02c0-1.33-0.35-2.35-1.04-3.05
			s-1.68-1.05-2.96-1.05h-1.84v8.38h2.2c0.74,0,1.39-0.17,1.93-0.52c0.54-0.35,0.96-0.84,1.26-1.48S459.59,148.9,459.59,148.02z"/>
		<path fill="#808285" d="M473.25,149.54c0,1.54-0.43,2.75-1.28,3.62s-2.04,1.31-3.55,1.31c-1.48,0-2.65-0.44-3.49-1.32
			s-1.27-2.09-1.27-3.62c0-1.53,0.42-2.73,1.27-3.61s2.02-1.31,3.54-1.31c1.55,0,2.74,0.42,3.56,1.27
			C472.84,146.74,473.25,147.96,473.25,149.54z M470.67,149.54c0-1.13-0.18-1.95-0.55-2.46s-0.91-0.76-1.61-0.76
			c-0.75,0-1.31,0.27-1.69,0.8s-0.56,1.34-0.56,2.42c0,1.06,0.18,1.87,0.55,2.42c0.37,0.55,0.89,0.83,1.59,0.83
			c0.76,0,1.33-0.27,1.71-0.81C470.48,151.44,470.67,150.63,470.67,149.54z"/>
		<path fill="#808285" d="M479.18,154.48c-1.44,0-2.55-0.43-3.34-1.29s-1.18-2.05-1.18-3.59c0-1.57,0.4-2.79,1.19-3.67
			s1.91-1.31,3.37-1.31c1.12,0,2.04,0.28,2.78,0.84s1.19,1.34,1.38,2.33l-2.49,0.12c-0.07-0.49-0.25-0.88-0.53-1.17
			s-0.68-0.43-1.2-0.43c-0.64,0-1.12,0.26-1.43,0.79s-0.47,1.33-0.47,2.4c0,1.1,0.16,1.92,0.49,2.46c0.33,0.55,0.81,0.82,1.46,0.82
			c0.47,0,0.86-0.15,1.18-0.44s0.51-0.74,0.59-1.32l2.48,0.11c-0.09,0.67-0.32,1.25-0.71,1.75s-0.88,0.89-1.49,1.17
			S479.94,154.48,479.18,154.48z"/>
		<path fill="#808285" d="M491.27,152.42c-0.33,0.72-0.75,1.25-1.25,1.57s-1.11,0.49-1.81,0.49c-1.01,0-1.78-0.31-2.32-0.93
			s-0.81-1.52-0.81-2.72v-6.04h2.47v5.33c0,0.83,0.14,1.46,0.42,1.88s0.7,0.63,1.27,0.63c0.6,0,1.08-0.26,1.45-0.77
			s0.55-1.17,0.55-1.97v-5.1h2.47v7.38c0,0.4,0.01,0.78,0.02,1.14s0.03,0.68,0.05,0.99h-2.36c-0.04-0.42-0.06-0.79-0.08-1.11
			s-0.03-0.58-0.03-0.78H491.27z"/>
		<path fill="#808285" d="M498.69,149.21v5.1h-2.47v-7.38c0-0.51-0.01-0.93-0.02-1.25s-0.03-0.62-0.05-0.87h2.36
			c0.01,0.07,0.03,0.24,0.04,0.5s0.03,0.53,0.05,0.8c0.01,0.27,0.02,0.47,0.02,0.59h0.04c0.3-0.73,0.68-1.25,1.14-1.58
			c0.45-0.33,1-0.49,1.63-0.49c0.73,0,1.31,0.17,1.75,0.52s0.74,0.86,0.89,1.56h0.05c0.32-0.74,0.71-1.27,1.16-1.59
			s1.03-0.48,1.72-0.48c0.93,0,1.63,0.31,2.12,0.94s0.73,1.53,0.73,2.71v6.04h-2.45v-5.33c0-0.84-0.12-1.46-0.36-1.88
			s-0.6-0.62-1.08-0.62s-0.88,0.23-1.2,0.7s-0.48,1.11-0.48,1.93v5.21h-2.45v-5.33c0-0.84-0.12-1.46-0.36-1.88s-0.6-0.62-1.08-0.62
			c-0.5,0-0.9,0.25-1.22,0.76C498.84,147.74,498.69,148.4,498.69,149.21z"/>
		<path fill="#808285" d="M514.26,150.03c0,0.93,0.17,1.62,0.51,2.1c0.34,0.47,0.83,0.71,1.46,0.71c0.43,0,0.79-0.1,1.07-0.29
			c0.28-0.19,0.47-0.47,0.58-0.85l2.33,0.2c-0.67,1.72-2.04,2.58-4.1,2.58c-1.43,0-2.53-0.42-3.3-1.27s-1.15-2.08-1.15-3.7
			c0-1.57,0.39-2.78,1.17-3.62s1.88-1.27,3.31-1.27c1.37,0,2.41,0.45,3.13,1.36s1.08,2.23,1.08,3.98v0.07H514.26z M517.97,148.48
			c-0.05-0.77-0.23-1.34-0.55-1.73s-0.76-0.58-1.3-0.58c-0.58,0-1.03,0.2-1.34,0.61c-0.31,0.4-0.48,0.97-0.5,1.7H517.97z"/>
		<path fill="#808285" d="M524.7,149.21v5.1h-2.47v-7.38c0-0.51-0.01-0.93-0.02-1.25s-0.03-0.62-0.05-0.87h2.36
			c0.01,0.07,0.03,0.24,0.04,0.5s0.03,0.53,0.05,0.8c0.01,0.27,0.02,0.47,0.02,0.59h0.04c0.33-0.73,0.75-1.25,1.26-1.58
			s1.1-0.49,1.8-0.49c1.01,0,1.78,0.31,2.32,0.93s0.81,1.53,0.81,2.72v6.04h-2.46v-5.33c0-0.84-0.14-1.46-0.42-1.88
			s-0.71-0.62-1.27-0.62c-0.6,0-1.08,0.26-1.45,0.77S524.7,148.41,524.7,149.21z"/>
		<path fill="#808285" d="M537.75,154.17c-0.6,0.2-1.29,0.3-2.08,0.3c-0.73,0-1.29-0.2-1.68-0.59s-0.59-0.99-0.59-1.8v-5.61h-1.2
			v-1.67h1.33l0.77-2.23h1.55v2.23h1.8v1.67h-1.8v4.94c0,0.46,0.09,0.8,0.26,1.02s0.45,0.33,0.82,0.33c0.18,0,0.45-0.04,0.83-0.12
			V154.17z"/>
	</g>
	<g>
		<path fill="#414042" d="M550.81,52.7v32.43H441.51V52.7H550.81 M552.81,50.7H439.51v36.43h113.29V50.7L552.81,50.7z"/>
	</g>
	<g>
		<path fill="#6D6E71" d="M550.81,93.26v32.43H441.51V93.26H550.81 M552.81,91.26H439.51v36.43h113.29V91.26L552.81,91.26z"/>
	</g>
	<g>
		<g>
			<path fill="#BCBEC0" d="M550.81,133.81v80.56H441.51v-80.56H550.81 M552.81,131.81H439.51v84.56h113.29V131.81L552.81,131.81z"/>
		</g>
	</g>
</g>
</svg>
