<?xml version="1.0" encoding="utf-8"?>
<!-- Generator: Adobe Illustrator 24.1.0, SVG Export Plug-In . SVG Version: 6.00 Build 0)  -->
<svg version="1.1" xmlns="http://www.w3.org/2000/svg" xmlns:xlink="http://www.w3.org/1999/xlink" x="0px" y="0px"
	 viewBox="0 0 504.48 275.08" enable-background="new 0 0 504.48 275.08" xml:space="preserve">
<g id="api">
</g>
<g id="database">
	<g>
		<path d="M268.1,40v5.6h-1.98V33.22h1.98v5.13h6.27v-5.13h1.99V45.6h-1.99V40H268.1z"/>
		<path d="M287.33,40.84c0,1.62-0.39,2.85-1.16,3.69c-0.77,0.83-1.88,1.25-3.3,1.25c-1.42,0-2.51-0.43-3.27-1.29
			s-1.13-2.08-1.13-3.65c0-1.61,0.38-2.83,1.13-3.67s1.86-1.26,3.31-1.26c1.48,0,2.59,0.41,3.32,1.22
			C286.96,37.95,287.33,39.18,287.33,40.84z M285.36,40.84c0-1.25-0.19-2.16-0.57-2.73s-1-0.85-1.85-0.85c-0.87,0-1.5,0.29-1.9,0.87
			c-0.4,0.58-0.6,1.48-0.6,2.7c0,1.19,0.2,2.09,0.59,2.69c0.39,0.6,1,0.91,1.81,0.91c0.89,0,1.53-0.29,1.93-0.88
			C285.16,42.97,285.36,42.06,285.36,40.84z"/>
		<path d="M291.19,40.74v4.86h-1.88v-7.29c0-0.4,0-0.78-0.01-1.14c-0.01-0.36-0.02-0.72-0.04-1.08h1.78c0.01,0.2,0.02,0.4,0.04,0.61
			s0.02,0.4,0.03,0.58s0.01,0.34,0.02,0.48s0.01,0.24,0.01,0.3h0.04c0.19-0.6,0.39-1.05,0.6-1.36c0.2-0.29,0.43-0.49,0.69-0.61
			s0.59-0.18,0.98-0.18c0.25,0,0.47,0.03,0.68,0.1v1.66c-0.26-0.07-0.57-0.11-0.91-0.11c-0.64,0-1.13,0.27-1.48,0.81
			C291.37,38.92,291.19,39.71,291.19,40.74z"/>
		<path d="M297.5,32.56v1.62h-1.88v-1.62H297.5z M297.5,36.09v9.51h-1.88v-9.51H297.5z"/>
		<path d="M306.91,44.18v1.42h-7.45v-1.39l5.04-6.71h-4.72v-1.41h6.87v1.39l-5.04,6.71H306.91z"/>
		<path d="M317.32,40.84c0,1.62-0.39,2.85-1.16,3.69c-0.77,0.83-1.88,1.25-3.3,1.25c-1.42,0-2.51-0.43-3.27-1.29
			s-1.13-2.08-1.13-3.65c0-1.61,0.38-2.83,1.13-3.67s1.86-1.26,3.31-1.26c1.48,0,2.59,0.41,3.32,1.22
			C316.96,37.95,317.32,39.18,317.32,40.84z M315.36,40.84c0-1.25-0.19-2.16-0.57-2.73s-1-0.85-1.85-0.85c-0.87,0-1.5,0.29-1.9,0.87
			c-0.4,0.58-0.6,1.48-0.6,2.7c0,1.19,0.2,2.09,0.59,2.69c0.39,0.6,1,0.91,1.81,0.91c0.89,0,1.53-0.29,1.93-0.88
			C315.16,42.97,315.36,42.06,315.36,40.84z"/>
		<path d="M321.19,40.23v5.37h-1.88v-7.44c0-0.54,0-0.98-0.01-1.31c-0.01-0.33-0.02-0.58-0.04-0.75h1.78
			c0.01,0.1,0.02,0.25,0.04,0.45s0.02,0.41,0.03,0.64c0.01,0.23,0.02,0.44,0.02,0.62h0.03c0.36-0.68,0.78-1.17,1.27-1.45
			c0.49-0.29,1.08-0.44,1.78-0.44c1.03,0,1.8,0.28,2.3,0.84c0.5,0.56,0.75,1.43,0.75,2.6v6.24h-1.88v-5.8
			c0-0.88-0.14-1.51-0.43-1.89s-0.77-0.56-1.44-0.56c-0.7,0-1.26,0.26-1.68,0.78C321.4,38.64,321.19,39.34,321.19,40.23z"/>
		<path d="M333.57,45.5c-0.54,0.16-1.12,0.25-1.76,0.25c-0.66,0-1.16-0.19-1.51-0.56c-0.34-0.37-0.51-0.93-0.51-1.67v-6.1h-1.13
			v-1.33h1.21l0.57-2.16h1.22v2.16h1.77v1.33h-1.77v5.64c0,0.46,0.08,0.79,0.24,0.99s0.42,0.29,0.79,0.29
			c0.19,0,0.48-0.04,0.88-0.12V45.5z"/>
		<path d="M337.31,45.77c-0.94,0-1.66-0.25-2.15-0.76s-0.74-1.2-0.74-2.08c0-0.98,0.32-1.74,0.97-2.26s1.65-0.8,3.02-0.83l2.1-0.04
			v-0.5c0-0.73-0.15-1.25-0.43-1.57c-0.29-0.32-0.75-0.48-1.38-0.48c-0.63,0-1.08,0.11-1.37,0.34s-0.46,0.6-0.52,1.12l-1.96-0.14
			c0.29-1.77,1.59-2.65,3.91-2.65c1.2,0,2.1,0.28,2.72,0.84s0.93,1.37,0.93,2.43v3.88c0,0.49,0.06,0.85,0.18,1.08
			c0.12,0.23,0.35,0.34,0.67,0.34c0.18,0,0.35-0.02,0.53-0.06v1.1c-0.23,0.06-0.46,0.1-0.66,0.13c-0.21,0.03-0.43,0.04-0.67,0.04
			c-0.6,0-1.04-0.15-1.31-0.46c-0.28-0.31-0.44-0.78-0.48-1.41h-0.05c-0.39,0.69-0.85,1.19-1.38,1.49S338.05,45.77,337.31,45.77z
			 M340.51,41l-1.57,0.03c-0.69,0.02-1.2,0.09-1.53,0.22c-0.34,0.13-0.6,0.33-0.78,0.59c-0.18,0.26-0.27,0.61-0.27,1.05
			c0,0.5,0.13,0.88,0.38,1.14c0.26,0.26,0.61,0.39,1.07,0.39c0.52,0,0.98-0.12,1.39-0.37s0.72-0.58,0.96-1.01
			c0.23-0.43,0.35-0.88,0.35-1.34V41z"/>
		<path d="M346.85,32.56V45.6h-1.87V32.56H346.85z"/>
		<path d="M364.3,42.13c0,1.17-0.45,2.07-1.34,2.7s-2.18,0.95-3.84,0.95c-3.05,0-4.83-1.08-5.32-3.23l1.92-0.35
			c0.18,0.71,0.56,1.24,1.13,1.57c0.57,0.33,1.35,0.5,2.34,0.5c1.03,0,1.81-0.17,2.35-0.51s0.81-0.84,0.81-1.5
			c0-0.39-0.1-0.7-0.29-0.95s-0.46-0.45-0.81-0.61c-0.29-0.13-0.64-0.25-1.07-0.36s-0.92-0.22-1.48-0.34
			c-0.64-0.15-1.16-0.28-1.57-0.41c-0.41-0.12-0.74-0.26-1-0.39s-0.49-0.28-0.69-0.44c-0.34-0.27-0.6-0.6-0.79-0.98
			c-0.19-0.38-0.28-0.84-0.28-1.37c0-1.08,0.41-1.92,1.23-2.5s2-0.87,3.54-0.87c1.45,0,2.56,0.22,3.31,0.67
			c0.75,0.45,1.26,1.2,1.53,2.26l-1.93,0.31c-0.16-0.62-0.48-1.07-0.95-1.35c-0.47-0.29-1.13-0.43-1.98-0.43
			c-0.92,0-1.62,0.15-2.1,0.45s-0.72,0.75-0.72,1.34c0,0.36,0.09,0.66,0.29,0.9c0.19,0.23,0.47,0.43,0.83,0.6
			c0.35,0.16,1.08,0.36,2.19,0.61c0.51,0.12,0.99,0.23,1.44,0.35s0.86,0.25,1.22,0.41c0.25,0.1,0.48,0.22,0.69,0.36
			c0.21,0.14,0.4,0.29,0.56,0.46c0.25,0.26,0.44,0.57,0.58,0.93C364.23,41.25,364.3,41.66,364.3,42.13z"/>
		<path d="M370.07,45.77c-1.37,0-2.42-0.42-3.15-1.27s-1.09-2.06-1.09-3.65s0.37-2.81,1.1-3.66c0.73-0.85,1.78-1.28,3.14-1.28
			c1.02,0,1.86,0.26,2.54,0.79c0.67,0.52,1.09,1.25,1.27,2.17l-1.92,0.12c-0.08-0.52-0.27-0.93-0.59-1.23s-0.77-0.46-1.35-0.46
			c-0.77,0-1.33,0.27-1.69,0.82s-0.54,1.44-0.54,2.68c0,1.21,0.19,2.11,0.56,2.69c0.38,0.59,0.94,0.88,1.69,0.88
			c0.53,0,0.98-0.15,1.34-0.45s0.58-0.76,0.66-1.38l1.89,0.11c-0.08,0.63-0.3,1.18-0.64,1.65c-0.35,0.47-0.79,0.83-1.34,1.09
			S370.77,45.77,370.07,45.77z"/>
		<path d="M378,45.77c-0.94,0-1.66-0.25-2.15-0.76s-0.74-1.2-0.74-2.08c0-0.98,0.32-1.74,0.97-2.26s1.65-0.8,3.02-0.83l2.1-0.04
			v-0.5c0-0.73-0.15-1.25-0.43-1.57c-0.29-0.32-0.75-0.48-1.38-0.48c-0.63,0-1.08,0.11-1.37,0.34s-0.46,0.6-0.52,1.12l-1.96-0.14
			c0.29-1.77,1.59-2.65,3.91-2.65c1.2,0,2.1,0.28,2.72,0.84s0.93,1.37,0.93,2.43v3.88c0,0.49,0.06,0.85,0.18,1.08
			c0.12,0.23,0.35,0.34,0.67,0.34c0.18,0,0.35-0.02,0.53-0.06v1.1c-0.23,0.06-0.46,0.1-0.66,0.13c-0.21,0.03-0.43,0.04-0.67,0.04
			c-0.6,0-1.04-0.15-1.31-0.46c-0.28-0.31-0.44-0.78-0.48-1.41h-0.05c-0.39,0.69-0.85,1.19-1.38,1.49S378.74,45.77,378,45.77z
			 M381.19,41l-1.57,0.03c-0.69,0.02-1.2,0.09-1.53,0.22c-0.34,0.13-0.6,0.33-0.78,0.59c-0.18,0.26-0.27,0.61-0.27,1.05
			c0,0.5,0.13,0.88,0.38,1.14c0.26,0.26,0.61,0.39,1.07,0.39c0.52,0,0.98-0.12,1.39-0.37s0.72-0.58,0.96-1.01
			c0.23-0.43,0.35-0.88,0.35-1.34V41z"/>
		<path d="M387.53,32.56V45.6h-1.87V32.56H387.53z"/>
		<path d="M391.86,32.56v1.62h-1.88v-1.62H391.86z M391.86,36.09v9.51h-1.88v-9.51H391.86z"/>
		<path d="M396.22,40.23v5.37h-1.88v-7.44c0-0.54,0-0.98-0.01-1.31c-0.01-0.33-0.02-0.58-0.04-0.75h1.78
			c0.01,0.1,0.02,0.25,0.04,0.45s0.02,0.41,0.03,0.64c0.01,0.23,0.02,0.44,0.02,0.62h0.03c0.36-0.68,0.78-1.17,1.27-1.45
			c0.49-0.29,1.08-0.44,1.78-0.44c1.03,0,1.8,0.28,2.3,0.84c0.5,0.56,0.75,1.43,0.75,2.6v6.24h-1.88v-5.8
			c0-0.88-0.14-1.51-0.43-1.89s-0.77-0.56-1.44-0.56c-0.7,0-1.26,0.26-1.68,0.78C396.43,38.64,396.22,39.34,396.22,40.23z"/>
		<path d="M408.39,49.36c-1.08,0-1.94-0.21-2.58-0.63s-1.05-1.01-1.23-1.79l1.89-0.25c0.1,0.42,0.32,0.74,0.66,0.97
			c0.34,0.23,0.78,0.35,1.32,0.35c0.75,0,1.31-0.22,1.68-0.67c0.37-0.45,0.55-1.12,0.55-2.01l0.01-1.5h-0.02
			c-0.29,0.6-0.69,1.06-1.21,1.36c-0.52,0.3-1.14,0.45-1.85,0.45c-1.15,0-2.01-0.4-2.58-1.19s-0.85-2-0.85-3.63
			c0-1.63,0.3-2.86,0.91-3.67s1.5-1.22,2.7-1.22c0.68,0,1.26,0.15,1.75,0.45s0.87,0.73,1.14,1.3h0.03c0-0.12,0.01-0.3,0.02-0.54
			c0.01-0.24,0.03-0.46,0.05-0.67s0.04-0.34,0.05-0.38h1.78c-0.04,0.42-0.05,1.1-0.05,2.05v7.18c0,1.34-0.35,2.35-1.05,3.03
			C410.8,49.02,409.76,49.36,408.39,49.36z M410.68,40.8c0-1.1-0.22-1.96-0.65-2.58c-0.43-0.63-1-0.94-1.7-0.94
			c-0.76,0-1.31,0.28-1.67,0.85s-0.54,1.46-0.54,2.69c0,1.21,0.17,2.09,0.51,2.65s0.9,0.83,1.67,0.83c0.72,0,1.3-0.31,1.73-0.93
			C410.47,42.74,410.68,41.89,410.68,40.8z"/>
	</g>
	<g>
		<path d="M42.18,33.21L37.29,45.6h-2.03l-4.9-12.38h2.07l3.14,8.46c0.12,0.32,0.24,0.67,0.35,1.05c0.11,0.38,0.23,0.77,0.36,1.19
			c0.14-0.49,0.27-0.92,0.38-1.29c0.12-0.38,0.22-0.69,0.32-0.95l3.12-8.46H42.18z"/>
		<path d="M44,41.22c0,1.04,0.21,1.83,0.62,2.38s1.02,0.83,1.8,0.83c0.6,0,1.09-0.12,1.46-0.37s0.62-0.57,0.76-0.98l1.7,0.33
			c-0.6,1.58-1.92,2.36-3.95,2.36c-1.42,0-2.5-0.42-3.24-1.26c-0.74-0.84-1.12-2.08-1.12-3.72c0-1.57,0.38-2.78,1.12-3.62
			s1.82-1.26,3.2-1.26c1.39,0,2.44,0.43,3.14,1.3s1.06,2.15,1.06,3.85v0.16H44z M48.66,39.9c-0.07-0.93-0.3-1.61-0.69-2.04
			c-0.39-0.43-0.94-0.65-1.65-0.65c-0.7,0-1.26,0.24-1.66,0.71s-0.62,1.13-0.65,1.98H48.66z"/>
		<path d="M54.42,40.74v4.86h-1.88v-7.29c0-0.4,0-0.78-0.01-1.14c-0.01-0.36-0.02-0.72-0.04-1.08h1.78c0.01,0.2,0.02,0.4,0.04,0.61
			s0.02,0.4,0.03,0.58s0.01,0.34,0.02,0.48s0.01,0.24,0.01,0.3h0.04c0.19-0.6,0.39-1.05,0.6-1.36c0.2-0.29,0.43-0.49,0.69-0.61
			s0.59-0.18,0.98-0.18c0.25,0,0.47,0.03,0.68,0.1v1.66c-0.26-0.07-0.57-0.11-0.91-0.11c-0.64,0-1.13,0.27-1.48,0.81
			C54.59,38.92,54.42,39.71,54.42,40.74z"/>
		<path d="M62.79,45.5c-0.54,0.16-1.12,0.25-1.76,0.25c-0.66,0-1.16-0.19-1.51-0.56c-0.34-0.37-0.51-0.93-0.51-1.67v-6.1h-1.13
			v-1.33h1.21l0.57-2.16h1.22v2.16h1.77v1.33h-1.77v5.64c0,0.46,0.08,0.79,0.24,0.99s0.42,0.29,0.79,0.29
			c0.19,0,0.48-0.04,0.88-0.12V45.5z"/>
		<path d="M66.06,32.55v1.62h-1.88v-1.62H66.06z M66.06,36.09v9.51h-1.88v-9.51H66.06z"/>
		<path d="M72.27,45.77c-1.37,0-2.42-0.42-3.15-1.27s-1.09-2.06-1.09-3.65s0.37-2.81,1.1-3.66c0.73-0.85,1.78-1.28,3.14-1.28
			c1.02,0,1.86,0.26,2.54,0.79c0.67,0.52,1.09,1.25,1.27,2.17l-1.92,0.12c-0.08-0.52-0.27-0.93-0.59-1.23s-0.77-0.46-1.35-0.46
			c-0.77,0-1.33,0.27-1.69,0.82s-0.54,1.44-0.54,2.68c0,1.21,0.19,2.11,0.56,2.69c0.38,0.59,0.94,0.88,1.69,0.88
			c0.53,0,0.98-0.15,1.34-0.45s0.58-0.76,0.66-1.38l1.89,0.11c-0.08,0.63-0.3,1.18-0.64,1.65c-0.35,0.47-0.79,0.83-1.34,1.09
			S72.97,45.77,72.27,45.77z"/>
		<path d="M80.2,45.77c-0.94,0-1.66-0.25-2.15-0.76s-0.74-1.2-0.74-2.08c0-0.98,0.32-1.74,0.97-2.26s1.65-0.8,3.02-0.83l2.1-0.04
			v-0.5c0-0.73-0.15-1.25-0.43-1.57c-0.29-0.32-0.75-0.48-1.38-0.48c-0.63,0-1.08,0.11-1.37,0.34s-0.46,0.6-0.52,1.12l-1.96-0.14
			c0.29-1.77,1.59-2.65,3.91-2.65c1.2,0,2.1,0.28,2.72,0.84s0.93,1.37,0.93,2.43v3.88c0,0.49,0.06,0.85,0.18,1.08
			c0.12,0.23,0.35,0.34,0.67,0.34c0.18,0,0.35-0.02,0.53-0.06v1.1c-0.23,0.06-0.46,0.1-0.66,0.13c-0.21,0.03-0.43,0.04-0.67,0.04
			c-0.6,0-1.04-0.15-1.31-0.46c-0.28-0.31-0.44-0.78-0.48-1.41h-0.05c-0.39,0.69-0.85,1.19-1.38,1.49S80.94,45.77,80.2,45.77z
			 M83.4,41l-1.57,0.03c-0.69,0.02-1.2,0.09-1.53,0.22c-0.34,0.13-0.6,0.33-0.78,0.59c-0.18,0.26-0.27,0.61-0.27,1.05
			c0,0.5,0.13,0.88,0.38,1.14c0.26,0.26,0.61,0.39,1.07,0.39c0.52,0,0.98-0.12,1.39-0.37s0.72-0.58,0.96-1.01
			c0.23-0.43,0.35-0.88,0.35-1.34V41z"/>
		<path d="M89.73,32.55V45.6h-1.87V32.55H89.73z"/>
		<path d="M107.19,42.13c0,1.17-0.45,2.07-1.34,2.7s-2.18,0.95-3.84,0.95c-3.05,0-4.83-1.08-5.32-3.23l1.92-0.35
			c0.18,0.71,0.56,1.24,1.13,1.57c0.57,0.33,1.35,0.5,2.34,0.5c1.03,0,1.81-0.17,2.35-0.51s0.81-0.84,0.81-1.5
			c0-0.39-0.1-0.7-0.29-0.95s-0.46-0.45-0.81-0.61c-0.29-0.13-0.64-0.25-1.07-0.36s-0.92-0.22-1.48-0.34
			c-0.64-0.15-1.16-0.28-1.57-0.41c-0.41-0.12-0.74-0.26-1-0.39s-0.49-0.28-0.69-0.44c-0.34-0.27-0.6-0.6-0.79-0.98
			c-0.19-0.38-0.28-0.84-0.28-1.37c0-1.08,0.41-1.92,1.23-2.5s2-0.87,3.54-0.87c1.45,0,2.56,0.22,3.31,0.67
			c0.75,0.45,1.26,1.2,1.53,2.26l-1.93,0.31c-0.16-0.62-0.48-1.07-0.95-1.35c-0.47-0.29-1.13-0.43-1.98-0.43
			c-0.92,0-1.62,0.15-2.1,0.45s-0.72,0.75-0.72,1.34c0,0.36,0.09,0.66,0.29,0.9c0.19,0.23,0.47,0.43,0.83,0.6
			c0.35,0.16,1.08,0.36,2.19,0.61c0.51,0.12,0.99,0.23,1.44,0.35s0.86,0.25,1.22,0.41c0.25,0.1,0.48,0.22,0.69,0.36
			c0.21,0.14,0.4,0.29,0.56,0.46c0.25,0.26,0.44,0.57,0.58,0.93C107.12,41.25,107.19,41.66,107.19,42.13z"/>
		<path d="M112.95,45.77c-1.37,0-2.42-0.42-3.15-1.27s-1.09-2.06-1.09-3.65s0.37-2.81,1.1-3.66c0.73-0.85,1.78-1.28,3.14-1.28
			c1.02,0,1.86,0.26,2.54,0.79c0.67,0.52,1.09,1.25,1.27,2.17l-1.92,0.12c-0.08-0.52-0.27-0.93-0.59-1.23s-0.77-0.46-1.35-0.46
			c-0.77,0-1.33,0.27-1.69,0.82s-0.54,1.44-0.54,2.68c0,1.21,0.19,2.11,0.56,2.69c0.38,0.59,0.94,0.88,1.69,0.88
			c0.53,0,0.98-0.15,1.34-0.45s0.58-0.76,0.66-1.38l1.89,0.11c-0.08,0.63-0.3,1.18-0.64,1.65c-0.35,0.47-0.79,0.83-1.34,1.09
			S113.66,45.77,112.95,45.77z"/>
		<path d="M120.88,45.77c-0.94,0-1.66-0.25-2.15-0.76s-0.74-1.2-0.74-2.08c0-0.98,0.32-1.74,0.97-2.26s1.65-0.8,3.02-0.83l2.1-0.04
			v-0.5c0-0.73-0.15-1.25-0.43-1.57c-0.29-0.32-0.75-0.48-1.38-0.48c-0.63,0-1.08,0.11-1.37,0.34s-0.46,0.6-0.52,1.12l-1.96-0.14
			c0.29-1.77,1.59-2.65,3.91-2.65c1.2,0,2.1,0.28,2.72,0.84s0.93,1.37,0.93,2.43v3.88c0,0.49,0.06,0.85,0.18,1.08
			c0.12,0.23,0.35,0.34,0.67,0.34c0.18,0,0.35-0.02,0.53-0.06v1.1c-0.23,0.06-0.46,0.1-0.66,0.13c-0.21,0.03-0.43,0.04-0.67,0.04
			c-0.6,0-1.04-0.15-1.31-0.46c-0.28-0.31-0.44-0.78-0.48-1.41h-0.05c-0.39,0.69-0.85,1.19-1.38,1.49S121.63,45.77,120.88,45.77z
			 M124.08,41l-1.57,0.03c-0.69,0.02-1.2,0.09-1.53,0.22c-0.34,0.13-0.6,0.33-0.78,0.59c-0.18,0.26-0.27,0.61-0.27,1.05
			c0,0.5,0.13,0.88,0.38,1.14c0.26,0.26,0.61,0.39,1.07,0.39c0.52,0,0.98-0.12,1.39-0.37s0.72-0.58,0.96-1.01
			c0.23-0.43,0.35-0.88,0.35-1.34V41z"/>
		<path d="M130.42,32.55V45.6h-1.87V32.55H130.42z"/>
		<path d="M134.75,32.55v1.62h-1.88v-1.62H134.75z M134.75,36.09v9.51h-1.88v-9.51H134.75z"/>
		<path d="M139.11,40.23v5.37h-1.88v-7.44c0-0.54,0-0.98-0.01-1.31c-0.01-0.33-0.02-0.58-0.04-0.75h1.78
			c0.01,0.1,0.02,0.25,0.04,0.45s0.02,0.41,0.03,0.64c0.01,0.23,0.02,0.44,0.02,0.62h0.03c0.36-0.68,0.78-1.17,1.27-1.45
			c0.49-0.29,1.08-0.44,1.78-0.44c1.03,0,1.8,0.28,2.3,0.84c0.5,0.56,0.75,1.43,0.75,2.6v6.24h-1.88v-5.8
			c0-0.88-0.14-1.51-0.43-1.89s-0.77-0.56-1.44-0.56c-0.7,0-1.26,0.26-1.68,0.78C139.32,38.64,139.11,39.34,139.11,40.23z"/>
		<path d="M151.28,49.36c-1.08,0-1.94-0.21-2.58-0.63s-1.05-1.01-1.23-1.79l1.89-0.25c0.1,0.42,0.32,0.74,0.66,0.97
			c0.34,0.23,0.78,0.35,1.32,0.35c0.75,0,1.31-0.22,1.68-0.67c0.37-0.45,0.55-1.12,0.55-2.01l0.01-1.5h-0.02
			c-0.29,0.6-0.69,1.06-1.21,1.36c-0.52,0.3-1.14,0.45-1.85,0.45c-1.15,0-2.01-0.4-2.58-1.19s-0.85-2-0.85-3.63
			c0-1.63,0.3-2.86,0.91-3.67s1.5-1.22,2.7-1.22c0.68,0,1.26,0.15,1.75,0.45s0.87,0.73,1.14,1.3h0.03c0-0.12,0.01-0.3,0.02-0.54
			c0.01-0.24,0.03-0.46,0.05-0.67s0.04-0.34,0.05-0.38h1.78c-0.04,0.42-0.05,1.1-0.05,2.05v7.18c0,1.34-0.35,2.35-1.05,3.03
			C153.69,49.02,152.65,49.36,151.28,49.36z M153.57,40.8c0-1.1-0.22-1.96-0.65-2.58c-0.43-0.63-1-0.94-1.7-0.94
			c-0.76,0-1.31,0.28-1.67,0.85s-0.54,1.46-0.54,2.69c0,1.21,0.17,2.09,0.51,2.65s0.9,0.83,1.67,0.83c0.72,0,1.3-0.31,1.73-0.93
			C153.35,42.74,153.57,41.89,153.57,40.8z"/>
	</g>
	<g>
		<path fill="#58595B" d="M284.44,62.49v92.68h-81.52V62.49H284.44 M285.19,61.74h-83.02v94.18h83.02V61.74L285.19,61.74z"/>
	</g>
	<g>
		<rect x="202.17" y="61.74" fill="#58595B" width="83.02" height="17.53"/>
	</g>
	<g>
		<rect x="211.41" y="86.63" fill="#D1D3D4" width="64.55" height="15.33"/>
	</g>
	<g>
		<rect x="211.41" y="109.32" fill="#D1D3D4" width="64.55" height="15.33"/>
	</g>
	<g>
		<rect x="211.41" y="132.01" fill="#D1D3D4" width="64.55" height="15.33"/>
	</g>
	<g>
		<path fill="#58595B" d="M378.42,62.49v92.68h-81.52V62.49H378.42 M379.17,61.74h-83.02v94.18h83.02V61.74L379.17,61.74z"/>
	</g>
	<g>
		<rect x="296.16" y="61.74" fill="#58595B" width="83.02" height="17.53"/>
	</g>
	<g>
		<rect x="305.39" y="86.63" fill="#D1D3D4" width="64.55" height="15.33"/>
	</g>
	<g>
		<rect x="305.39" y="109.32" fill="#D1D3D4" width="64.55" height="15.33"/>
	</g>
	<g>
		<rect x="305.39" y="132.01" fill="#D1D3D4" width="64.55" height="15.33"/>
	</g>
	<g>
		<path fill="#58595B" d="M475.92,62.49v92.68h-81.52V62.49H475.92 M476.67,61.74h-83.02v94.18h83.02V61.74L476.67,61.74z"/>
	</g>
	<g>
		<rect x="393.66" y="61.74" fill="#58595B" width="83.02" height="17.53"/>
	</g>
	<g>
		<rect x="402.89" y="86.63" fill="#D1D3D4" width="64.55" height="15.33"/>
	</g>
	<g>
		<rect x="402.89" y="109.32" fill="#D1D3D4" width="64.55" height="15.33"/>
	</g>
	<g>
		<rect x="402.89" y="132.01" fill="#D1D3D4" width="64.55" height="15.33"/>
	</g>
	<g>
		<path fill="#58595B" d="M133.04,59.51v184H51.52v-184H133.04 M133.79,58.76H50.77v185.5h83.02V58.76L133.79,58.76z"/>
	</g>
	<g>
		<rect x="50.77" y="58.76" fill="#58595B" width="83.02" height="17.53"/>
	</g>
	<g>
		<rect x="60" y="83.65" fill="#D1D3D4" width="64.55" height="15.33"/>
	</g>
	<g>
		<rect x="60" y="106.34" fill="#D1D3D4" width="64.55" height="15.33"/>
	</g>
	<g>
		<rect x="60" y="129.04" fill="#D1D3D4" width="64.55" height="15.33"/>
	</g>
	<g>
		<rect x="60" y="172.68" fill="#D1D3D4" width="64.55" height="15.33"/>
	</g>
	<g>
		<rect x="60" y="197.12" fill="#D1D3D4" width="64.55" height="15.33"/>
	</g>
	<g>
		<rect x="60" y="218.4" fill="#D1D3D4" width="64.55" height="15.33"/>
	</g>
</g>
</svg>
