<?xml version="1.0" encoding="utf-8"?>
<!-- Generator: Adobe Illustrator 24.1.0, SVG Export Plug-In . SVG Version: 6.00 Build 0)  -->
<svg version="1.1" xmlns="http://www.w3.org/2000/svg" xmlns:xlink="http://www.w3.org/1999/xlink" x="0px" y="0px"
	 viewBox="0 0 660.05 201.37" enable-background="new 0 0 660.05 201.37" xml:space="preserve">
<g id="api">
</g>
<g id="database">
	<g>
		<path fill="#58595B" d="M290.69,41.22v128.94H25.38V41.22H290.69 M291.44,40.47H24.63v130.44h266.81V40.47L291.44,40.47z"/>
	</g>
	<g>
		<path fill="#58595B" d="M644.68,42.54v92.11H361.65V42.54H644.68 M645.43,41.79H360.9v93.61h284.53V41.79L645.43,41.79z"/>
	</g>
	<g>
		<rect x="42.15" y="49.64" fill="#6D6E71" width="30.66" height="21.03"/>
	</g>
	<g>
		<rect x="42.15" y="79.43" fill="#E6E7E8" width="30.66" height="21.03"/>
	</g>
	<g>
		<rect x="86.39" y="49.64" fill="#6D6E71" width="58.25" height="21.03"/>
	</g>
	<g>
		<rect x="86.39" y="79.43" fill="#E6E7E8" width="58.25" height="21.03"/>
	</g>
	<g>
		<rect x="155.17" y="49.64" fill="#6D6E71" width="45.01" height="21.03"/>
	</g>
	<g>
		<rect x="155.17" y="79.43" fill="#E6E7E8" width="45.01" height="21.03"/>
	</g>
	<g>
		<rect x="210.71" y="49.64" fill="#6D6E71" width="63.27" height="21.03"/>
	</g>
	<g>
		<rect x="210.71" y="79.43" fill="#E6E7E8" width="63.27" height="9.65"/>
	</g>
	<g>
		<path d="M59.58,93.02v1.12h-5.12v-1.12h1.87v-5.16l-1.82,1.13v-1.19l1.9-1.23h1.43v6.45H59.58z"/>
	</g>
	<g>
		<path d="M177.1,92.9v1.24h-5.3V93.1c0.13-0.29,0.3-0.57,0.51-0.85c0.2-0.28,0.45-0.56,0.73-0.84c0.29-0.28,0.61-0.57,0.97-0.87
			c0.27-0.21,0.49-0.41,0.68-0.59c0.19-0.18,0.33-0.34,0.43-0.48c0.11-0.14,0.19-0.28,0.24-0.42c0.05-0.14,0.08-0.27,0.08-0.41
			c0-0.33-0.08-0.58-0.25-0.74c-0.17-0.17-0.41-0.25-0.74-0.25c-0.32,0-0.57,0.09-0.74,0.26c-0.17,0.17-0.28,0.43-0.33,0.78
			l-1.52-0.09c0.09-0.7,0.35-1.24,0.79-1.61c0.44-0.37,1.04-0.55,1.79-0.55c0.82,0,1.44,0.19,1.88,0.56
			c0.44,0.37,0.65,0.89,0.65,1.57c0,0.38-0.08,0.72-0.24,1.02c-0.16,0.3-0.36,0.58-0.6,0.83c-0.2,0.22-0.43,0.43-0.68,0.62
			c-0.25,0.2-0.5,0.39-0.73,0.58c-0.25,0.2-0.48,0.4-0.68,0.61s-0.36,0.42-0.46,0.66H177.1z"/>
		<path d="M183.18,87.77c-0.34,0.54-0.66,1.06-0.96,1.56c-0.3,0.5-0.57,1.01-0.79,1.52c-0.23,0.51-0.4,1.03-0.53,1.57
			c-0.13,0.54-0.2,1.11-0.2,1.71h-1.57c0-0.58,0.06-1.12,0.19-1.64c0.12-0.52,0.32-1.06,0.6-1.64c0.18-0.37,0.42-0.8,0.71-1.28
			c0.29-0.48,0.68-1.07,1.17-1.77h-3.76v-1.24h5.16V87.77z"/>
	</g>
	<g>
		<rect x="155.17" y="109.22" fill="#E6E7E8" width="45.01" height="21.03"/>
	</g>
	<g>
		<path d="M177.1,122.69v1.24h-5.3v-1.05c0.13-0.29,0.3-0.57,0.51-0.85c0.2-0.28,0.45-0.56,0.73-0.84c0.29-0.28,0.61-0.57,0.97-0.87
			c0.27-0.21,0.49-0.41,0.68-0.59c0.19-0.18,0.33-0.34,0.43-0.48c0.11-0.14,0.19-0.28,0.24-0.42c0.05-0.14,0.08-0.27,0.08-0.41
			c0-0.33-0.08-0.58-0.25-0.74c-0.17-0.17-0.41-0.25-0.74-0.25c-0.32,0-0.57,0.09-0.74,0.26c-0.17,0.17-0.28,0.43-0.33,0.78
			l-1.52-0.09c0.09-0.7,0.35-1.24,0.79-1.61c0.44-0.37,1.04-0.55,1.79-0.55c0.82,0,1.44,0.19,1.88,0.56
			c0.44,0.37,0.65,0.89,0.65,1.57c0,0.38-0.08,0.72-0.24,1.02c-0.16,0.3-0.36,0.58-0.6,0.83c-0.2,0.22-0.43,0.43-0.68,0.62
			c-0.25,0.2-0.5,0.39-0.73,0.58c-0.25,0.2-0.48,0.4-0.68,0.61s-0.36,0.42-0.46,0.66H177.1z"/>
		<path d="M183.25,120.03c0,1.34-0.25,2.35-0.74,3.01s-1.19,1-2.09,1c-0.67,0-1.19-0.14-1.57-0.43c-0.38-0.29-0.65-0.74-0.8-1.35
			l1.42-0.2c0.14,0.53,0.46,0.79,0.97,0.79c0.42,0,0.75-0.2,0.97-0.61c0.23-0.41,0.34-1,0.35-1.8c-0.14,0.27-0.36,0.48-0.67,0.63
			c-0.31,0.15-0.64,0.23-1,0.23c-0.44,0-0.83-0.1-1.15-0.31c-0.33-0.21-0.58-0.5-0.75-0.87c-0.18-0.38-0.27-0.82-0.27-1.34
			c0-0.79,0.23-1.42,0.69-1.86c0.46-0.45,1.11-0.67,1.95-0.67c0.91,0,1.58,0.31,2.02,0.94
			C183.03,117.82,183.25,118.77,183.25,120.03z M181.66,118.97c0-0.47-0.1-0.84-0.31-1.12s-0.48-0.42-0.82-0.42
			c-0.33,0-0.6,0.12-0.79,0.36c-0.19,0.24-0.29,0.58-0.29,1c0,0.42,0.09,0.75,0.29,1.01c0.19,0.25,0.45,0.38,0.79,0.38
			c0.21,0,0.41-0.05,0.57-0.15c0.17-0.1,0.3-0.24,0.4-0.42S181.66,119.21,181.66,118.97z"/>
	</g>
	<g>
		<path d="M104.16,93c0.96,0,1.62-0.48,1.99-1.44l1.38,0.52c-0.3,0.73-0.73,1.27-1.31,1.63c-0.57,0.36-1.26,0.53-2.07,0.53
			c-0.81,0-1.5-0.16-2.07-0.46s-1-0.76-1.3-1.35c-0.3-0.59-0.45-1.29-0.45-2.12c0-0.83,0.14-1.53,0.43-2.11
			c0.29-0.57,0.71-1.01,1.27-1.31s1.24-0.45,2.05-0.45c0.89,0,1.61,0.18,2.17,0.53s0.95,0.88,1.18,1.57l-1.4,0.38
			c-0.12-0.38-0.35-0.68-0.7-0.9c-0.35-0.22-0.75-0.34-1.22-0.34c-0.72,0-1.26,0.22-1.63,0.67c-0.37,0.44-0.56,1.09-0.56,1.95
			c0,0.58,0.08,1.07,0.25,1.47s0.42,0.7,0.75,0.91C103.27,92.9,103.68,93,104.16,93z"/>
		<path d="M110.09,89.49c0.2-0.44,0.46-0.77,0.77-0.97c0.31-0.2,0.68-0.3,1.1-0.3c0.62,0,1.09,0.19,1.42,0.57
			c0.33,0.38,0.49,0.93,0.49,1.67v3.68h-1.5v-3.25c0-0.51-0.09-0.9-0.26-1.15c-0.17-0.25-0.43-0.38-0.78-0.38
			c-0.37,0-0.66,0.16-0.88,0.47c-0.22,0.31-0.34,0.71-0.34,1.21v3.11h-1.51v-7.97h1.51v2.17c0,0.13,0,0.26-0.01,0.39
			c0,0.13-0.01,0.26-0.01,0.38c-0.01,0.12-0.01,0.25-0.02,0.38H110.09z"/>
		<path d="M116.83,86.17v1.11h-1.51v-1.11H116.83z M116.83,88.33v5.81h-1.51v-5.81H116.83z"/>
		<path d="M119.72,94.25c-0.56,0-1-0.15-1.32-0.46c-0.32-0.31-0.47-0.74-0.47-1.29c0-0.6,0.2-1.06,0.59-1.37
			c0.39-0.31,0.96-0.47,1.71-0.49l1.25-0.02v-0.3c0-0.38-0.07-0.66-0.2-0.85c-0.13-0.18-0.35-0.28-0.65-0.28
			c-0.28,0-0.48,0.06-0.62,0.19s-0.21,0.34-0.24,0.63l-1.57-0.08c0.2-1.15,1.03-1.72,2.5-1.72c0.73,0,1.3,0.18,1.7,0.54
			c0.4,0.36,0.6,0.88,0.6,1.54v2.12c0,0.33,0.04,0.55,0.11,0.67c0.07,0.12,0.2,0.19,0.37,0.19c0.11,0,0.23-0.01,0.33-0.03v0.82
			c-0.19,0.05-0.35,0.08-0.48,0.1c-0.13,0.02-0.29,0.04-0.49,0.04c-0.38,0-0.66-0.09-0.84-0.28c-0.18-0.19-0.29-0.46-0.33-0.82
			h-0.03c-0.21,0.38-0.48,0.67-0.79,0.86C120.51,94.15,120.14,94.25,119.72,94.25z M121.47,91.45l-0.77,0.01
			c-0.35,0.02-0.6,0.06-0.75,0.11c-0.15,0.06-0.26,0.16-0.34,0.29s-0.12,0.3-0.12,0.52c0,0.28,0.06,0.48,0.19,0.62
			c0.13,0.13,0.3,0.2,0.51,0.2c0.24,0,0.45-0.06,0.65-0.19c0.19-0.13,0.35-0.31,0.46-0.53c0.11-0.23,0.17-0.47,0.17-0.72V91.45z"/>
		<path d="M130.01,91.23c0,0.94-0.26,1.68-0.78,2.22c-0.52,0.54-1.25,0.8-2.17,0.8c-0.91,0-1.62-0.27-2.13-0.81
			s-0.77-1.28-0.77-2.21c0-0.93,0.26-1.67,0.77-2.21s1.24-0.8,2.16-0.8c0.95,0,1.67,0.26,2.17,0.78
			C129.76,89.52,130.01,90.26,130.01,91.23z M128.43,91.23c0-0.69-0.11-1.19-0.34-1.5c-0.23-0.31-0.55-0.47-0.98-0.47
			c-0.46,0-0.8,0.16-1.03,0.49c-0.23,0.33-0.34,0.82-0.34,1.48c0,0.65,0.11,1.14,0.34,1.48c0.22,0.34,0.55,0.51,0.97,0.51
			c0.47,0,0.81-0.17,1.04-0.5C128.32,92.39,128.43,91.89,128.43,91.23z"/>
	</g>
	<g>
		<path d="M313.17,109.33c-0.78,0-1.39-0.17-1.81-0.51c-0.42-0.34-0.7-0.89-0.84-1.65l1.57-0.23c0.06,0.39,0.18,0.68,0.36,0.87
			c0.18,0.19,0.42,0.28,0.73,0.28c0.32,0,0.55-0.11,0.72-0.32c0.16-0.21,0.25-0.51,0.25-0.91v-3.97h-1.51v-1.24h3.09v5.17
			c0,0.79-0.22,1.4-0.67,1.84S313.97,109.33,313.17,109.33z"/>
		<path d="M323.38,107.04c0,0.74-0.27,1.31-0.82,1.7c-0.55,0.39-1.36,0.59-2.42,0.59c-1.92,0-3.03-0.69-3.35-2.08l1.53-0.25
			c0.1,0.4,0.31,0.69,0.61,0.87s0.72,0.27,1.25,0.27c0.55,0,0.97-0.08,1.25-0.25c0.28-0.17,0.41-0.42,0.41-0.76
			c0-0.21-0.06-0.39-0.19-0.53s-0.3-0.26-0.54-0.35c-0.11-0.05-0.28-0.1-0.5-0.15s-0.5-0.12-0.83-0.19
			c-0.38-0.09-0.68-0.17-0.89-0.23c-0.21-0.06-0.39-0.12-0.52-0.18c-0.13-0.06-0.25-0.12-0.38-0.2c-0.27-0.16-0.48-0.38-0.63-0.64
			s-0.22-0.6-0.22-1c0-0.68,0.26-1.21,0.77-1.57c0.51-0.36,1.26-0.54,2.24-0.54c0.94,0,1.64,0.15,2.11,0.44
			c0.47,0.29,0.77,0.78,0.91,1.46l-1.54,0.21c-0.08-0.33-0.24-0.57-0.48-0.74c-0.24-0.17-0.59-0.25-1.04-0.25
			c-0.48,0-0.84,0.08-1.08,0.23c-0.24,0.15-0.36,0.38-0.36,0.68c0,0.2,0.05,0.36,0.15,0.48c0.1,0.12,0.25,0.23,0.45,0.32
			c0.19,0.09,0.6,0.2,1.22,0.33c0.36,0.08,0.67,0.15,0.93,0.22c0.26,0.07,0.47,0.14,0.63,0.2c0.16,0.07,0.3,0.14,0.42,0.21
			c0.12,0.08,0.23,0.16,0.32,0.24c0.18,0.18,0.32,0.38,0.42,0.63C323.33,106.44,323.38,106.72,323.38,107.04z"/>
		<path d="M331.9,105.4c0,0.79-0.16,1.48-0.47,2.06c-0.32,0.59-0.76,1.05-1.34,1.37c-0.57,0.33-1.25,0.49-2.02,0.49
			c-0.79,0-1.47-0.16-2.04-0.48c-0.57-0.32-1.01-0.77-1.31-1.36c-0.3-0.59-0.46-1.29-0.46-2.09c0-0.81,0.15-1.5,0.45-2.08
			c0.3-0.58,0.74-1.02,1.31-1.32c0.57-0.31,1.26-0.46,2.05-0.46c0.8,0,1.49,0.16,2.06,0.46s1.01,0.75,1.31,1.33
			C331.75,103.91,331.9,104.6,331.9,105.4z M330.29,105.4c0-0.82-0.19-1.46-0.58-1.92c-0.39-0.46-0.93-0.7-1.63-0.7
			c-0.71,0-1.26,0.23-1.64,0.69s-0.58,1.1-0.58,1.93c0,0.55,0.09,1.03,0.27,1.43c0.18,0.4,0.43,0.71,0.77,0.93
			c0.33,0.22,0.72,0.33,1.18,0.33c0.71,0,1.26-0.23,1.64-0.7C330.09,106.92,330.29,106.26,330.29,105.4z"/>
		<path d="M334.51,104.76v4.46h-1.41v-7.57h1.81l3.35,5.88c-0.06-0.54-0.1-1.04-0.1-1.48v-4.4h1.41v7.57h-1.86l-3.3-5.83
			c0.03,0.28,0.06,0.54,0.07,0.76C334.5,104.38,334.51,104.58,334.51,104.76z"/>
	</g>
	<g>
		<rect x="210.71" y="109.22" fill="#E6E7E8" width="63.27" height="21.03"/>
	</g>
	<g>
		<path d="M229.05,120.69v3.24h-1.58v-7.57h1.58v3.01h3.3v-3.01h1.58v7.57h-1.58v-3.24H229.05z"/>
		<path d="M236.95,115.96v1.11h-1.51v-1.11H236.95z M236.95,118.12v5.81h-1.51v-5.81H236.95z"/>
		<path d="M240,121.75v2.18h-1.51v-7.97H240v4.57l2.07-2.41h1.62l-2.04,2.27l2.2,3.54h-1.65l-1.55-2.63L240,121.75z"/>
		<path d="M246.12,115.96v1.11h-1.51v-1.11H246.12z M246.12,118.12v5.81h-1.51v-5.81H246.12z"/>
		<path d="M249.18,120.82v3.12h-1.51v-4.51c0-0.31,0-0.57-0.01-0.77c-0.01-0.2-0.02-0.38-0.03-0.53h1.44
			c0.01,0.04,0.02,0.14,0.03,0.3s0.02,0.32,0.03,0.49c0.01,0.17,0.01,0.29,0.01,0.36h0.02c0.2-0.44,0.46-0.77,0.77-0.97
			c0.31-0.2,0.68-0.3,1.1-0.3c0.62,0,1.09,0.19,1.42,0.57c0.33,0.38,0.49,0.93,0.49,1.66v3.69h-1.5v-3.26
			c0-0.51-0.09-0.89-0.26-1.15c-0.17-0.25-0.43-0.38-0.78-0.38c-0.37,0-0.66,0.16-0.88,0.47
			C249.29,119.92,249.18,120.32,249.18,120.82z"/>
		<path d="M256.82,126.26c-0.71,0-1.28-0.13-1.71-0.41s-0.7-0.66-0.8-1.16l1.51-0.18c0.05,0.23,0.17,0.42,0.35,0.55
			c0.18,0.13,0.41,0.2,0.7,0.2c0.42,0,0.72-0.13,0.92-0.39s0.29-0.64,0.29-1.15l0.01-0.88h-0.01c-0.17,0.36-0.4,0.62-0.71,0.8
			c-0.31,0.18-0.7,0.27-1.15,0.27c-0.68,0-1.2-0.25-1.57-0.76s-0.56-1.24-0.56-2.18c0-0.95,0.19-1.68,0.57-2.2
			c0.38-0.52,0.94-0.77,1.67-0.77c0.42,0,0.78,0.09,1.07,0.26c0.29,0.17,0.52,0.44,0.69,0.79h0.03c0-0.09,0-0.19,0.01-0.32
			s0.02-0.25,0.03-0.37c0.01-0.12,0.02-0.2,0.04-0.24h1.43c-0.02,0.39-0.03,0.83-0.03,1.34v4.29c0,0.83-0.23,1.45-0.7,1.87
			C258.4,126.05,257.72,126.26,256.82,126.26z M258.08,120.94c0-0.6-0.11-1.06-0.32-1.4c-0.21-0.33-0.52-0.5-0.91-0.5
			c-0.4,0-0.7,0.16-0.91,0.48c-0.2,0.32-0.3,0.81-0.3,1.45c0,0.63,0.1,1.1,0.3,1.42c0.2,0.32,0.5,0.48,0.9,0.48s0.71-0.17,0.92-0.5
			S258.08,121.56,258.08,120.94z"/>
	</g>
	<g>
		<rect x="210.71" y="139.01" fill="#E6E7E8" width="63.27" height="21.03"/>
	</g>
	<g>
		<path d="M229.05,150.47v3.24h-1.58v-7.57h1.58v3.01h3.3v-3.01h1.58v7.57h-1.58v-3.24H229.05z"/>
		<path d="M236.95,145.75v1.11h-1.51v-1.11H236.95z M236.95,147.91v5.81h-1.51v-5.81H236.95z"/>
		<path d="M240,151.54v2.18h-1.51v-7.97H240v4.57l2.07-2.41h1.62l-2.04,2.27l2.2,3.54h-1.65l-1.55-2.63L240,151.54z"/>
		<path d="M246.12,145.75v1.11h-1.51v-1.11H246.12z M246.12,147.91v5.81h-1.51v-5.81H246.12z"/>
		<path d="M249.18,150.6v3.12h-1.51v-4.51c0-0.31,0-0.57-0.01-0.77c-0.01-0.2-0.02-0.38-0.03-0.53h1.44
			c0.01,0.04,0.02,0.14,0.03,0.3s0.02,0.32,0.03,0.49c0.01,0.17,0.01,0.29,0.01,0.36h0.02c0.2-0.44,0.46-0.77,0.77-0.97
			c0.31-0.2,0.68-0.3,1.1-0.3c0.62,0,1.09,0.19,1.42,0.57c0.33,0.38,0.49,0.93,0.49,1.67v3.69h-1.5v-3.26c0-0.51-0.09-0.9-0.26-1.15
			c-0.17-0.25-0.43-0.38-0.78-0.38c-0.37,0-0.66,0.16-0.88,0.47C249.29,149.71,249.18,150.11,249.18,150.6z"/>
		<path d="M256.82,156.05c-0.71,0-1.28-0.13-1.71-0.41s-0.7-0.66-0.8-1.16l1.51-0.18c0.05,0.23,0.17,0.42,0.35,0.55
			c0.18,0.13,0.41,0.2,0.7,0.2c0.42,0,0.72-0.13,0.92-0.39s0.29-0.64,0.29-1.15l0.01-0.88h-0.01c-0.17,0.36-0.4,0.62-0.71,0.8
			c-0.31,0.18-0.7,0.27-1.15,0.27c-0.68,0-1.2-0.25-1.57-0.76c-0.37-0.51-0.56-1.24-0.56-2.18c0-0.95,0.19-1.68,0.57-2.2
			c0.38-0.52,0.94-0.77,1.67-0.77c0.42,0,0.78,0.09,1.07,0.26c0.29,0.17,0.52,0.44,0.69,0.79h0.03c0-0.09,0-0.19,0.01-0.32
			s0.02-0.25,0.03-0.37s0.02-0.2,0.04-0.24h1.43c-0.02,0.39-0.03,0.83-0.03,1.34v4.29c0,0.83-0.23,1.45-0.7,1.87
			C258.4,155.84,257.72,156.05,256.82,156.05z M258.08,150.73c0-0.6-0.11-1.06-0.32-1.4c-0.21-0.33-0.52-0.5-0.91-0.5
			c-0.4,0-0.7,0.16-0.91,0.48c-0.2,0.32-0.3,0.81-0.3,1.45c0,0.63,0.1,1.1,0.3,1.42c0.2,0.32,0.5,0.48,0.9,0.48s0.71-0.17,0.92-0.5
			C257.98,151.82,258.08,151.35,258.08,150.73z"/>
	</g>
	<g>
		<rect x="86.39" y="109.22" fill="#E6E7E8" width="58.25" height="21.03"/>
	</g>
	<g>
		<path d="M105.16,122.79c0.96,0,1.62-0.48,1.99-1.44l1.38,0.52c-0.3,0.73-0.73,1.27-1.31,1.63c-0.57,0.36-1.26,0.53-2.07,0.53
			c-0.81,0-1.5-0.16-2.07-0.46s-1-0.76-1.3-1.34c-0.3-0.59-0.45-1.29-0.45-2.12c0-0.83,0.14-1.53,0.43-2.11
			c0.29-0.57,0.71-1.01,1.27-1.31c0.56-0.3,1.24-0.45,2.05-0.45c0.89,0,1.61,0.18,2.17,0.53s0.95,0.88,1.18,1.57l-1.4,0.38
			c-0.12-0.38-0.35-0.68-0.7-0.9c-0.35-0.22-0.75-0.34-1.22-0.34c-0.72,0-1.26,0.22-1.63,0.67c-0.37,0.44-0.56,1.09-0.56,1.95
			c0,0.58,0.08,1.07,0.25,1.47s0.42,0.7,0.75,0.91S104.68,122.79,105.16,122.79z"/>
		<path d="M111.09,119.28c0.2-0.44,0.46-0.77,0.77-0.97c0.31-0.2,0.68-0.3,1.1-0.3c0.62,0,1.09,0.19,1.42,0.57s0.49,0.93,0.49,1.67
			v3.68h-1.5v-3.25c0-0.51-0.09-0.89-0.26-1.15s-0.43-0.38-0.78-0.38c-0.37,0-0.66,0.16-0.88,0.47c-0.22,0.31-0.34,0.71-0.34,1.21
			v3.11h-1.51v-7.97h1.51v2.17c0,0.13,0,0.26-0.01,0.39c0,0.13-0.01,0.26-0.01,0.38c-0.01,0.13-0.01,0.25-0.02,0.38H111.09z"/>
		<path d="M117.83,121.08v2.85h-1.51v-4.45c0-0.32,0-0.58-0.01-0.8s-0.02-0.4-0.03-0.57h1.44c0.01,0.03,0.01,0.1,0.02,0.21
			c0.01,0.11,0.01,0.24,0.02,0.37c0.01,0.14,0.01,0.27,0.02,0.39c0,0.12,0.01,0.21,0.01,0.26h0.02c0.14-0.4,0.27-0.69,0.39-0.86
			c0.11-0.17,0.25-0.29,0.41-0.37c0.16-0.08,0.35-0.12,0.59-0.12c0.19,0,0.35,0.03,0.47,0.08v1.26c-0.24-0.05-0.46-0.08-0.64-0.08
			c-0.38,0-0.67,0.15-0.88,0.46C117.93,120.03,117.83,120.48,117.83,121.08z"/>
		<path d="M122.11,115.96v1.11h-1.51v-1.11H122.11z M122.11,118.12v5.81h-1.51v-5.81H122.11z"/>
		<path d="M128.55,122.23c0,0.56-0.23,1-0.69,1.32c-0.46,0.32-1.1,0.48-1.91,0.48c-0.8,0-1.41-0.13-1.83-0.38
			c-0.42-0.25-0.71-0.65-0.85-1.18l1.33-0.2c0.08,0.28,0.21,0.47,0.39,0.59s0.51,0.17,0.96,0.17c0.42,0,0.73-0.05,0.92-0.16
			s0.29-0.28,0.29-0.5c0-0.19-0.08-0.33-0.23-0.44c-0.16-0.11-0.42-0.2-0.79-0.28c-0.28-0.06-0.54-0.11-0.76-0.17
			c-0.22-0.05-0.42-0.11-0.58-0.16c-0.16-0.05-0.29-0.1-0.39-0.15c-0.3-0.15-0.52-0.33-0.68-0.56c-0.16-0.23-0.23-0.51-0.23-0.85
			c0-0.55,0.21-0.99,0.64-1.3c0.43-0.31,1.03-0.46,1.82-0.46c0.69,0,1.25,0.13,1.67,0.4c0.42,0.27,0.68,0.66,0.79,1.17l-1.34,0.14
			c-0.04-0.24-0.15-0.41-0.32-0.53c-0.17-0.12-0.43-0.17-0.8-0.17c-0.36,0-0.63,0.05-0.81,0.14c-0.18,0.09-0.27,0.25-0.27,0.46
			c0,0.17,0.07,0.3,0.21,0.4s0.37,0.18,0.7,0.25c0.45,0.09,0.86,0.19,1.21,0.29c0.35,0.1,0.64,0.21,0.85,0.35
			c0.21,0.14,0.38,0.31,0.51,0.52S128.55,121.9,128.55,122.23z"/>
	</g>
	<g>
		<rect x="86.39" y="139.01" fill="#E6E7E8" width="58.25" height="21.03"/>
	</g>
	<g>
		<path d="M104.21,150.96v2.76h-1.58v-7.57h1.58v3.43l3.41-3.43h1.85l-3.23,3.2l3.5,4.37h-1.87l-2.72-3.47L104.21,150.96z"/>
		<path d="M111.84,151.1c0,0.57,0.11,0.99,0.31,1.28c0.21,0.29,0.51,0.43,0.89,0.43c0.26,0,0.48-0.06,0.65-0.17
			c0.17-0.12,0.29-0.29,0.36-0.52l1.42,0.12c-0.41,1.05-1.25,1.58-2.51,1.58c-0.87,0-1.54-0.26-2.01-0.78
			c-0.47-0.52-0.7-1.27-0.7-2.26c0-0.96,0.24-1.7,0.71-2.21c0.48-0.52,1.15-0.77,2.02-0.77c0.83,0,1.47,0.28,1.91,0.83
			c0.44,0.55,0.66,1.36,0.66,2.43v0.04H111.84z M114.11,150.16c-0.03-0.47-0.14-0.82-0.34-1.06s-0.46-0.35-0.79-0.35
			c-0.35,0-0.63,0.12-0.82,0.37s-0.29,0.59-0.3,1.04H114.11z"/>
		<path d="M118.22,145.75v7.97h-1.51v-7.97H118.22z"/>
		<path d="M121.28,145.75v7.97h-1.51v-7.97H121.28z"/>
		<path d="M123.58,156c-0.37,0-0.69-0.02-0.95-0.07v-1.07c0.2,0.03,0.37,0.04,0.52,0.04c0.35,0,0.61-0.09,0.79-0.28
			c0.17-0.19,0.34-0.51,0.51-0.96l-2.3-5.75h1.6l0.91,2.72c0.07,0.2,0.15,0.44,0.24,0.74c0.09,0.3,0.19,0.65,0.3,1.05
			c0.08-0.33,0.16-0.63,0.24-0.91s0.16-0.57,0.25-0.86l0.86-2.75h1.58l-2.3,6.12c-0.09,0.25-0.19,0.46-0.29,0.66
			c-0.1,0.19-0.21,0.36-0.32,0.5c-0.22,0.3-0.46,0.51-0.71,0.63C124.24,155.94,123.93,156,123.58,156z"/>
	</g>
	<g>
		<path fill="#FFFFFF" d="M55.05,55.97v1.11h-1.51v-1.11H55.05z M55.05,58.13v5.81h-1.51v-5.81H55.05z"/>
		<path fill="#FFFFFF" d="M60.36,63.94c-0.01-0.04-0.02-0.11-0.03-0.22c-0.01-0.12-0.03-0.24-0.04-0.38
			c-0.01-0.14-0.01-0.25-0.01-0.34h-0.02c-0.17,0.35-0.4,0.62-0.71,0.79c-0.31,0.17-0.69,0.26-1.15,0.26c-0.68,0-1.2-0.26-1.57-0.79
			c-0.37-0.53-0.55-1.27-0.55-2.22c0-0.96,0.19-1.71,0.58-2.23c0.39-0.53,0.94-0.79,1.65-0.79c0.41,0,0.77,0.09,1.07,0.26
			s0.53,0.43,0.69,0.77h0.01l-0.01-0.96v-2.12h1.51v6.7c0,0.18,0,0.38,0.01,0.59s0.02,0.44,0.03,0.68H60.36z M57.85,61.04
			c0,0.66,0.1,1.15,0.3,1.48c0.2,0.33,0.5,0.49,0.89,0.49c0.4,0,0.71-0.17,0.92-0.52s0.33-0.85,0.33-1.49c0-0.63-0.1-1.11-0.31-1.45
			c-0.21-0.34-0.52-0.51-0.93-0.51c-0.4,0-0.71,0.16-0.9,0.49C57.95,59.87,57.85,60.37,57.85,61.04z"/>
	</g>
	<g>
		<path fill="#FFFFFF" d="M102.16,60.83v3.12h-1.51v-4.51c0-0.31,0-0.57-0.01-0.77c-0.01-0.2-0.02-0.38-0.03-0.53h1.44
			c0.01,0.04,0.02,0.14,0.03,0.3c0.01,0.16,0.02,0.32,0.03,0.49c0.01,0.17,0.01,0.29,0.01,0.36h0.02c0.2-0.44,0.46-0.77,0.77-0.97
			c0.31-0.2,0.68-0.3,1.1-0.3c0.62,0,1.09,0.19,1.42,0.57c0.33,0.38,0.49,0.93,0.49,1.67v3.69h-1.5v-3.26
			c0-0.51-0.09-0.89-0.26-1.15c-0.17-0.25-0.43-0.38-0.78-0.38c-0.37,0-0.66,0.16-0.88,0.47S102.16,60.34,102.16,60.83z"/>
		<path fill="#FFFFFF" d="M108.72,64.05c-0.56,0-1-0.15-1.32-0.46c-0.32-0.31-0.47-0.74-0.47-1.29c0-0.6,0.2-1.06,0.59-1.37
			c0.39-0.31,0.96-0.47,1.71-0.49l1.25-0.02v-0.3c0-0.38-0.07-0.66-0.2-0.85c-0.13-0.18-0.35-0.28-0.65-0.28
			c-0.28,0-0.48,0.06-0.62,0.19s-0.21,0.34-0.24,0.63l-1.57-0.08c0.2-1.15,1.03-1.72,2.5-1.72c0.73,0,1.3,0.18,1.7,0.54
			c0.4,0.36,0.6,0.88,0.6,1.54v2.12c0,0.33,0.04,0.55,0.11,0.67c0.07,0.12,0.2,0.19,0.37,0.19c0.11,0,0.23-0.01,0.33-0.03v0.82
			c-0.19,0.05-0.35,0.08-0.48,0.1c-0.13,0.02-0.29,0.04-0.49,0.04c-0.38,0-0.66-0.09-0.84-0.28c-0.18-0.19-0.29-0.46-0.33-0.82
			h-0.03c-0.21,0.38-0.48,0.67-0.79,0.86C109.51,63.95,109.14,64.05,108.72,64.05z M110.47,61.25l-0.77,0.01
			c-0.35,0.02-0.6,0.06-0.75,0.11c-0.15,0.06-0.26,0.16-0.34,0.29s-0.12,0.3-0.12,0.52c0,0.28,0.06,0.48,0.19,0.62
			c0.13,0.13,0.3,0.2,0.51,0.2c0.24,0,0.45-0.06,0.65-0.19c0.19-0.13,0.35-0.31,0.46-0.53c0.11-0.23,0.17-0.47,0.17-0.72V61.25z"/>
		<path fill="#FFFFFF" d="M115,60.83v3.12h-1.51v-4.51c0-0.31,0-0.57-0.01-0.77c-0.01-0.2-0.02-0.38-0.03-0.53h1.44
			c0.01,0.04,0.02,0.14,0.03,0.3c0.01,0.16,0.02,0.32,0.03,0.49c0.01,0.17,0.01,0.29,0.01,0.36h0.02c0.19-0.44,0.42-0.77,0.7-0.97
			c0.28-0.2,0.61-0.3,1-0.3c0.44,0,0.8,0.11,1.07,0.32c0.27,0.21,0.45,0.53,0.54,0.95h0.03c0.2-0.45,0.43-0.78,0.71-0.97
			c0.28-0.2,0.63-0.3,1.05-0.3c0.57,0,1,0.19,1.29,0.58c0.3,0.38,0.45,0.94,0.45,1.66v3.69h-1.5v-3.26c0-0.51-0.07-0.89-0.22-1.15
			c-0.15-0.25-0.37-0.38-0.66-0.38c-0.29,0-0.54,0.14-0.74,0.43c-0.2,0.29-0.3,0.68-0.3,1.18v3.19h-1.5v-3.26
			c0-0.51-0.07-0.89-0.22-1.15c-0.15-0.25-0.37-0.38-0.66-0.38c-0.3,0-0.55,0.16-0.74,0.47S115,60.33,115,60.83z"/>
		<path fill="#FFFFFF" d="M124.52,61.33c0,0.57,0.11,0.99,0.31,1.28c0.21,0.29,0.51,0.43,0.89,0.43c0.26,0,0.48-0.06,0.65-0.17
			s0.29-0.29,0.36-0.52l1.42,0.12c-0.41,1.05-1.25,1.58-2.51,1.58c-0.87,0-1.54-0.26-2.01-0.78c-0.47-0.52-0.7-1.27-0.7-2.26
			c0-0.96,0.24-1.7,0.71-2.21c0.48-0.52,1.15-0.77,2.02-0.77c0.83,0,1.47,0.28,1.91,0.83c0.44,0.55,0.66,1.36,0.66,2.43v0.04H124.52
			z M126.79,60.38c-0.03-0.47-0.14-0.82-0.34-1.05c-0.2-0.24-0.46-0.35-0.79-0.35c-0.35,0-0.63,0.12-0.82,0.37s-0.29,0.59-0.3,1.04
			H126.79z"/>
	</g>
	<g>
		<path fill="#FFFFFF" d="M170.57,64.05c-0.56,0-1-0.15-1.32-0.46c-0.32-0.31-0.47-0.74-0.47-1.29c0-0.6,0.2-1.06,0.59-1.37
			c0.39-0.31,0.96-0.47,1.71-0.49l1.25-0.02v-0.3c0-0.38-0.07-0.66-0.2-0.85C172,59.09,171.78,59,171.48,59
			c-0.28,0-0.48,0.06-0.62,0.19s-0.21,0.34-0.24,0.63l-1.57-0.08c0.2-1.15,1.03-1.72,2.5-1.72c0.73,0,1.3,0.18,1.7,0.54
			c0.4,0.36,0.6,0.88,0.6,1.54v2.12c0,0.33,0.04,0.55,0.11,0.67c0.07,0.12,0.2,0.19,0.37,0.19c0.11,0,0.23-0.01,0.33-0.03v0.82
			c-0.19,0.05-0.35,0.08-0.48,0.1c-0.13,0.02-0.29,0.04-0.49,0.04c-0.38,0-0.66-0.09-0.84-0.28c-0.18-0.19-0.29-0.46-0.33-0.82
			h-0.03c-0.21,0.38-0.48,0.67-0.79,0.86C171.37,63.95,171,64.05,170.57,64.05z M172.33,61.25l-0.77,0.01
			c-0.35,0.02-0.6,0.06-0.75,0.11c-0.15,0.06-0.26,0.16-0.34,0.29s-0.12,0.3-0.12,0.52c0,0.28,0.06,0.48,0.19,0.62
			c0.13,0.13,0.3,0.2,0.51,0.2c0.24,0,0.45-0.06,0.65-0.19c0.19-0.13,0.35-0.31,0.46-0.53c0.11-0.23,0.17-0.47,0.17-0.72V61.25z"/>
		<path fill="#FFFFFF" d="M177.78,66.27c-0.71,0-1.28-0.14-1.71-0.41c-0.43-0.27-0.7-0.66-0.8-1.16l1.51-0.18
			c0.05,0.23,0.17,0.42,0.35,0.55c0.18,0.13,0.41,0.2,0.7,0.2c0.42,0,0.72-0.13,0.92-0.39s0.29-0.64,0.29-1.15l0.01-0.88h-0.01
			c-0.17,0.36-0.4,0.63-0.71,0.8c-0.31,0.18-0.7,0.27-1.15,0.27c-0.68,0-1.2-0.25-1.57-0.76c-0.37-0.51-0.56-1.24-0.56-2.18
			c0-0.95,0.19-1.68,0.57-2.2c0.38-0.52,0.94-0.77,1.67-0.77c0.42,0,0.78,0.09,1.07,0.26s0.52,0.44,0.69,0.79h0.03
			c0-0.09,0-0.19,0.01-0.32s0.02-0.25,0.03-0.37s0.02-0.2,0.04-0.24h1.43c-0.02,0.39-0.03,0.83-0.03,1.34v4.29
			c0,0.83-0.23,1.45-0.7,1.88C179.36,66.06,178.67,66.27,177.78,66.27z M179.04,60.96c0-0.6-0.11-1.06-0.32-1.4s-0.52-0.5-0.91-0.5
			c-0.4,0-0.7,0.16-0.91,0.48s-0.3,0.81-0.3,1.45c0,0.63,0.1,1.1,0.3,1.42c0.2,0.32,0.5,0.47,0.9,0.47s0.71-0.17,0.92-0.5
			S179.04,61.57,179.04,60.96z"/>
		<path fill="#FFFFFF" d="M183.31,61.33c0,0.57,0.11,0.99,0.31,1.28c0.21,0.29,0.51,0.43,0.89,0.43c0.26,0,0.48-0.06,0.65-0.17
			s0.29-0.29,0.36-0.52l1.42,0.12c-0.41,1.05-1.25,1.58-2.51,1.58c-0.87,0-1.54-0.26-2.01-0.78c-0.47-0.52-0.7-1.27-0.7-2.26
			c0-0.96,0.24-1.7,0.71-2.21c0.48-0.52,1.15-0.77,2.02-0.77c0.83,0,1.47,0.28,1.91,0.83c0.44,0.55,0.66,1.36,0.66,2.43v0.04H183.31
			z M185.58,60.38c-0.03-0.47-0.14-0.82-0.34-1.05c-0.2-0.24-0.46-0.35-0.79-0.35c-0.35,0-0.63,0.12-0.82,0.37s-0.29,0.59-0.3,1.04
			H185.58z"/>
	</g>
	<g>
		<path fill="#FFFFFF" d="M227.49,59.29c0.2-0.44,0.46-0.77,0.77-0.97c0.31-0.2,0.68-0.3,1.1-0.3c0.62,0,1.09,0.19,1.42,0.57
			c0.33,0.38,0.49,0.94,0.49,1.67v3.68h-1.5v-3.25c0-0.51-0.09-0.9-0.26-1.15c-0.17-0.25-0.43-0.38-0.78-0.38
			c-0.37,0-0.66,0.16-0.88,0.47c-0.22,0.31-0.34,0.71-0.34,1.21v3.11H226v-7.97h1.51v2.18c0,0.13,0,0.26-0.01,0.39
			c0,0.13-0.01,0.26-0.01,0.38c-0.01,0.13-0.01,0.25-0.02,0.38H227.49z"/>
		<path fill="#FFFFFF" d="M238.25,61.03c0,0.94-0.26,1.68-0.78,2.21c-0.52,0.54-1.25,0.8-2.17,0.8c-0.91,0-1.62-0.27-2.13-0.8
			s-0.77-1.28-0.77-2.21c0-0.94,0.26-1.67,0.77-2.21s1.24-0.8,2.16-0.8c0.95,0,1.67,0.26,2.17,0.78
			C238,59.32,238.25,60.06,238.25,61.03z M236.67,61.03c0-0.69-0.11-1.19-0.34-1.5c-0.23-0.31-0.55-0.47-0.98-0.47
			c-0.46,0-0.8,0.16-1.03,0.49c-0.23,0.33-0.34,0.82-0.34,1.48c0,0.65,0.11,1.14,0.34,1.48c0.22,0.34,0.55,0.51,0.97,0.51
			c0.47,0,0.81-0.17,1.04-0.5C236.55,62.19,236.67,61.69,236.67,61.03z"/>
		<path fill="#FFFFFF" d="M244.94,61.02c0,0.96-0.19,1.71-0.58,2.24s-0.94,0.8-1.65,0.8c-0.41,0-0.77-0.09-1.07-0.27
			c-0.3-0.18-0.53-0.44-0.69-0.77h-0.01c0,0.08,0,0.19-0.01,0.32c-0.01,0.13-0.02,0.26-0.03,0.37c-0.01,0.12-0.02,0.2-0.04,0.24
			h-1.47c0.01-0.17,0.03-0.36,0.03-0.58c0.01-0.22,0.01-0.47,0.01-0.74v-6.64h1.51v2.22c0,0.16,0,0.31-0.01,0.47
			c-0.01,0.16-0.01,0.31-0.01,0.47h0.02c0.17-0.37,0.41-0.65,0.72-0.84c0.31-0.19,0.69-0.28,1.14-0.28c0.69,0,1.21,0.26,1.58,0.78
			S244.94,60.06,244.94,61.02z M243.37,61.02c0-0.66-0.1-1.15-0.29-1.47c-0.19-0.32-0.49-0.48-0.9-0.48c-0.41,0-0.72,0.17-0.93,0.51
			c-0.21,0.34-0.32,0.83-0.32,1.48c0,0.62,0.1,1.1,0.31,1.44c0.21,0.34,0.52,0.52,0.93,0.52c0.4,0,0.7-0.17,0.9-0.5
			C243.27,62.19,243.37,61.68,243.37,61.02z"/>
		<path fill="#FFFFFF" d="M251.66,61.02c0,0.96-0.19,1.71-0.58,2.24s-0.94,0.8-1.65,0.8c-0.41,0-0.77-0.09-1.07-0.27
			c-0.3-0.18-0.53-0.44-0.69-0.77h-0.01c0,0.08,0,0.19-0.01,0.32c-0.01,0.13-0.02,0.26-0.03,0.37c-0.01,0.12-0.02,0.2-0.04,0.24
			h-1.47c0.01-0.17,0.03-0.36,0.03-0.58c0.01-0.22,0.01-0.47,0.01-0.74v-6.64h1.51v2.22c0,0.16,0,0.31-0.01,0.47
			c-0.01,0.16-0.01,0.31-0.01,0.47h0.02c0.17-0.37,0.41-0.65,0.72-0.84c0.31-0.19,0.69-0.28,1.14-0.28c0.69,0,1.21,0.26,1.58,0.78
			S251.66,60.06,251.66,61.02z M250.09,61.02c0-0.66-0.1-1.15-0.29-1.47c-0.19-0.32-0.49-0.48-0.9-0.48c-0.41,0-0.72,0.17-0.93,0.51
			c-0.21,0.34-0.32,0.83-0.32,1.48c0,0.62,0.1,1.1,0.31,1.44c0.21,0.34,0.52,0.52,0.93,0.52c0.4,0,0.7-0.17,0.9-0.5
			C249.99,62.19,250.09,61.68,250.09,61.02z"/>
		<path fill="#FFFFFF" d="M253.63,66.22c-0.37,0-0.69-0.02-0.95-0.07v-1.07c0.2,0.03,0.37,0.04,0.52,0.04
			c0.35,0,0.61-0.09,0.79-0.28s0.34-0.51,0.51-0.96l-2.3-5.75h1.6l0.91,2.72c0.07,0.2,0.15,0.44,0.24,0.74s0.19,0.65,0.3,1.05
			c0.08-0.33,0.16-0.63,0.24-0.91s0.16-0.57,0.25-0.86l0.86-2.74h1.58l-2.3,6.12c-0.09,0.25-0.19,0.46-0.29,0.66
			c-0.1,0.19-0.21,0.36-0.32,0.5c-0.22,0.3-0.46,0.51-0.71,0.63S253.98,66.22,253.63,66.22z"/>
	</g>
	<g>
		<rect x="42.15" y="109.22" fill="#E6E7E8" width="30.66" height="21.03"/>
	</g>
	<g>
		<path d="M59.45,122.69v1.24h-5.3v-1.05c0.13-0.29,0.3-0.57,0.51-0.85c0.2-0.28,0.45-0.56,0.73-0.84c0.29-0.28,0.61-0.57,0.97-0.87
			c0.27-0.21,0.49-0.41,0.68-0.59c0.19-0.18,0.33-0.34,0.43-0.48c0.11-0.14,0.19-0.28,0.24-0.42c0.05-0.14,0.08-0.27,0.08-0.41
			c0-0.33-0.08-0.58-0.25-0.74c-0.17-0.17-0.41-0.25-0.74-0.25c-0.32,0-0.57,0.09-0.74,0.26c-0.17,0.17-0.28,0.43-0.33,0.78
			l-1.52-0.09c0.09-0.7,0.35-1.24,0.79-1.61c0.44-0.37,1.04-0.55,1.79-0.55c0.82,0,1.44,0.19,1.88,0.56
			c0.44,0.37,0.65,0.89,0.65,1.57c0,0.38-0.08,0.72-0.24,1.02c-0.16,0.3-0.36,0.58-0.6,0.83c-0.2,0.22-0.43,0.43-0.68,0.62
			c-0.25,0.2-0.5,0.39-0.73,0.58c-0.25,0.2-0.48,0.4-0.68,0.61s-0.36,0.42-0.46,0.66H59.45z"/>
	</g>
	<g>
		<rect x="42.15" y="139.01" fill="#E6E7E8" width="30.66" height="21.03"/>
	</g>
	<g>
		<rect x="366.46" y="49.76" fill="#E6E7E8" width="271.02" height="23.12"/>
	</g>
	<g>
		<rect x="366.46" y="77.4" fill="#E6E7E8" width="271.02" height="23.12"/>
	</g>
	<g>
		<rect x="366.46" y="105.04" fill="#E6E7E8" width="271.02" height="23.12"/>
	</g>
	<g>
		<path d="M59.49,151.62c0,0.71-0.23,1.26-0.7,1.64c-0.46,0.39-1.13,0.58-1.99,0.58c-0.81,0-1.46-0.19-1.94-0.56
			c-0.48-0.38-0.76-0.91-0.84-1.62l1.54-0.13c0.1,0.73,0.51,1.09,1.24,1.09c0.36,0,0.64-0.09,0.84-0.27c0.2-0.18,0.3-0.45,0.3-0.82
			c0-0.34-0.12-0.59-0.37-0.77c-0.24-0.18-0.61-0.27-1.09-0.27h-0.53v-1.22h0.49c0.43,0,0.76-0.09,0.98-0.27
			c0.22-0.18,0.33-0.43,0.33-0.76c0-0.31-0.09-0.56-0.26-0.73c-0.17-0.18-0.43-0.27-0.76-0.27c-0.31,0-0.56,0.09-0.75,0.26
			s-0.3,0.42-0.33,0.73l-1.51-0.11c0.08-0.65,0.35-1.16,0.81-1.53c0.46-0.37,1.07-0.55,1.81-0.55c0.79,0,1.41,0.18,1.86,0.53
			c0.45,0.36,0.67,0.85,0.67,1.48c0,0.47-0.14,0.86-0.42,1.17c-0.28,0.3-0.68,0.51-1.2,0.61v0.02c0.58,0.07,1.03,0.26,1.34,0.57
			S59.49,151.13,59.49,151.62z"/>
	</g>
	<g>
		<rect x="24.63" y="21.82" fill="#414042" width="266.81" height="18.66"/>
	</g>
	<g>
		<path fill="#FFFFFF" d="M136,32.26v3.24h-1.58v-7.57H136v3.01h3.3v-3.01h1.58v7.57h-1.58v-3.24H136z"/>
		<path fill="#FFFFFF" d="M143.9,27.54v1.11h-1.51v-1.11H143.9z M143.9,29.7v5.81h-1.51V29.7H143.9z"/>
		<path fill="#FFFFFF" d="M146.96,33.33v2.18h-1.51v-7.97h1.51v4.57l2.07-2.41h1.62l-2.04,2.27l2.2,3.54h-1.65l-1.55-2.63
			L146.96,33.33z"/>
		<path fill="#FFFFFF" d="M152.81,32.89c0,0.57,0.11,0.99,0.31,1.28c0.21,0.29,0.51,0.43,0.89,0.43c0.26,0,0.48-0.06,0.65-0.17
			s0.29-0.29,0.36-0.52l1.42,0.12c-0.41,1.05-1.25,1.58-2.51,1.58c-0.87,0-1.54-0.26-2.01-0.78c-0.47-0.52-0.7-1.27-0.7-2.26
			c0-0.96,0.24-1.7,0.71-2.21c0.48-0.52,1.15-0.77,2.02-0.77c0.83,0,1.47,0.28,1.91,0.83c0.44,0.55,0.66,1.36,0.66,2.43v0.04H152.81
			z M155.08,31.95c-0.03-0.47-0.14-0.82-0.34-1.05c-0.2-0.24-0.46-0.35-0.79-0.35c-0.35,0-0.63,0.12-0.82,0.37s-0.29,0.59-0.3,1.04
			H155.08z"/>
		<path fill="#FFFFFF" d="M159.19,32.66v2.85h-1.51v-4.45c0-0.32,0-0.58-0.01-0.8s-0.02-0.4-0.03-0.57h1.44
			c0.01,0.03,0.01,0.1,0.02,0.21c0.01,0.11,0.01,0.24,0.02,0.37c0.01,0.14,0.01,0.27,0.02,0.39c0,0.12,0.01,0.21,0.01,0.26h0.02
			c0.14-0.4,0.27-0.69,0.39-0.86c0.11-0.17,0.25-0.29,0.41-0.37c0.16-0.08,0.35-0.12,0.59-0.12c0.19,0,0.35,0.03,0.47,0.08v1.26
			c-0.24-0.05-0.46-0.08-0.64-0.08c-0.38,0-0.67,0.15-0.88,0.46C159.3,31.61,159.19,32.06,159.19,32.66z"/>
		<path fill="#FFFFFF" d="M166.86,33.81c0,0.56-0.23,1-0.69,1.32c-0.46,0.32-1.1,0.48-1.91,0.48c-0.8,0-1.41-0.13-1.83-0.38
			c-0.42-0.25-0.71-0.65-0.85-1.18l1.33-0.2c0.08,0.28,0.21,0.47,0.39,0.59c0.18,0.11,0.51,0.17,0.96,0.17
			c0.42,0,0.73-0.05,0.92-0.16s0.29-0.28,0.29-0.5c0-0.19-0.08-0.33-0.23-0.44c-0.16-0.11-0.42-0.2-0.79-0.28
			c-0.28-0.06-0.54-0.11-0.76-0.17s-0.42-0.11-0.58-0.16s-0.29-0.1-0.39-0.15c-0.3-0.15-0.52-0.33-0.68-0.56
			c-0.16-0.23-0.23-0.51-0.23-0.85c0-0.55,0.21-0.99,0.64-1.3s1.03-0.46,1.82-0.46c0.69,0,1.25,0.13,1.67,0.4s0.68,0.66,0.79,1.17
			l-1.34,0.14c-0.04-0.24-0.15-0.41-0.32-0.53c-0.17-0.12-0.43-0.17-0.8-0.17c-0.36,0-0.63,0.05-0.81,0.14
			c-0.18,0.09-0.27,0.24-0.27,0.46c0,0.17,0.07,0.3,0.21,0.4s0.37,0.18,0.7,0.24c0.45,0.09,0.86,0.19,1.21,0.29
			c0.35,0.1,0.64,0.21,0.85,0.35c0.21,0.14,0.38,0.31,0.51,0.52S166.86,33.48,166.86,33.81z"/>
	</g>
	<g>
		<rect x="360.9" y="23.12" fill="#414042" width="284.53" height="18.66"/>
	</g>
	<g>
		<path fill="#FFFFFF" d="M493.9,33.57v3.24h-1.58v-7.57h1.58v3.01h3.3v-3.01h1.58v7.57h-1.58v-3.24H493.9z"/>
		<path fill="#FFFFFF" d="M501.8,28.84v1.11h-1.51v-1.11H501.8z M501.8,31v5.81h-1.51V31H501.8z"/>
		<path fill="#FFFFFF" d="M504.86,34.63v2.18h-1.51v-7.97h1.51v4.57l2.07-2.41h1.62l-2.04,2.27l2.2,3.54h-1.65l-1.55-2.63
			L504.86,34.63z"/>
		<path fill="#FFFFFF" d="M510.71,34.2c0,0.57,0.11,0.99,0.31,1.28c0.21,0.29,0.51,0.43,0.89,0.43c0.26,0,0.48-0.06,0.65-0.17
			c0.17-0.12,0.29-0.29,0.36-0.52l1.42,0.12c-0.41,1.05-1.25,1.58-2.51,1.58c-0.87,0-1.54-0.26-2.01-0.78
			c-0.47-0.52-0.7-1.27-0.7-2.26c0-0.96,0.24-1.7,0.71-2.21c0.48-0.52,1.15-0.77,2.02-0.77c0.83,0,1.47,0.28,1.91,0.83
			c0.44,0.55,0.66,1.36,0.66,2.43v0.04H510.71z M512.98,33.25c-0.03-0.47-0.14-0.82-0.34-1.06s-0.46-0.35-0.79-0.35
			c-0.35,0-0.63,0.12-0.82,0.37s-0.29,0.59-0.3,1.04H512.98z"/>
		<path fill="#FFFFFF" d="M517.09,33.96v2.85h-1.51v-4.45c0-0.32,0-0.58-0.01-0.8c-0.01-0.21-0.02-0.4-0.03-0.57h1.44
			c0.01,0.03,0.01,0.1,0.02,0.21c0.01,0.11,0.01,0.24,0.02,0.37c0.01,0.14,0.01,0.27,0.02,0.39c0,0.12,0.01,0.21,0.01,0.26h0.02
			c0.14-0.4,0.27-0.69,0.39-0.87c0.11-0.17,0.25-0.29,0.41-0.37c0.16-0.08,0.35-0.12,0.59-0.12c0.19,0,0.35,0.03,0.47,0.08v1.26
			c-0.24-0.05-0.46-0.08-0.64-0.08c-0.38,0-0.67,0.15-0.88,0.46C517.2,32.91,517.09,33.36,517.09,33.96z"/>
		<path fill="#FFFFFF" d="M524.76,35.12c0,0.56-0.23,1-0.69,1.32s-1.1,0.48-1.91,0.48c-0.8,0-1.41-0.13-1.83-0.38
			c-0.42-0.25-0.71-0.64-0.85-1.18l1.33-0.2c0.08,0.28,0.21,0.47,0.39,0.58c0.18,0.12,0.51,0.17,0.96,0.17
			c0.42,0,0.73-0.05,0.92-0.16s0.29-0.28,0.29-0.5c0-0.19-0.08-0.33-0.23-0.44c-0.16-0.11-0.42-0.2-0.79-0.28
			c-0.28-0.06-0.54-0.11-0.76-0.17s-0.42-0.11-0.58-0.16c-0.16-0.05-0.29-0.1-0.39-0.15c-0.3-0.15-0.52-0.33-0.68-0.56
			c-0.16-0.23-0.23-0.51-0.23-0.85c0-0.56,0.21-0.99,0.64-1.3c0.43-0.31,1.03-0.46,1.82-0.46c0.69,0,1.25,0.13,1.67,0.4
			s0.68,0.66,0.79,1.17l-1.34,0.14c-0.04-0.24-0.15-0.41-0.32-0.53s-0.43-0.17-0.8-0.17c-0.36,0-0.63,0.05-0.81,0.14
			c-0.18,0.09-0.27,0.25-0.27,0.46c0,0.17,0.07,0.3,0.21,0.4c0.14,0.1,0.37,0.18,0.7,0.25c0.45,0.09,0.86,0.19,1.21,0.29
			s0.64,0.22,0.85,0.35c0.21,0.14,0.38,0.31,0.51,0.52C524.7,34.51,524.76,34.78,524.76,35.12z"/>
	</g>
	<g>
		<path d="M224.65,82.62v4.67h-0.88v-4.67H224.65z"/>
		<path d="M226.34,87.36c-0.33,0-0.59-0.09-0.77-0.27c-0.19-0.18-0.28-0.43-0.28-0.76c0-0.35,0.12-0.62,0.34-0.8
			c0.23-0.18,0.56-0.28,1-0.29l0.73-0.01v-0.17c0-0.22-0.04-0.39-0.12-0.5s-0.21-0.16-0.38-0.16c-0.16,0-0.28,0.04-0.36,0.11
			c-0.08,0.08-0.12,0.2-0.14,0.37l-0.92-0.04c0.12-0.67,0.6-1.01,1.46-1.01c0.43,0,0.76,0.11,0.99,0.32
			c0.23,0.21,0.35,0.51,0.35,0.9v1.24c0,0.19,0.02,0.32,0.06,0.39s0.12,0.11,0.22,0.11c0.07,0,0.13-0.01,0.2-0.02v0.48
			c-0.11,0.03-0.2,0.05-0.28,0.06s-0.17,0.02-0.29,0.02c-0.22,0-0.38-0.05-0.49-0.16c-0.11-0.11-0.17-0.27-0.19-0.48h-0.02
			c-0.12,0.22-0.28,0.39-0.46,0.5C226.81,87.3,226.59,87.36,226.34,87.36z M227.37,85.72l-0.45,0.01c-0.21,0.01-0.35,0.03-0.44,0.07
			c-0.09,0.04-0.15,0.09-0.2,0.17c-0.04,0.08-0.07,0.18-0.07,0.3c0,0.16,0.04,0.28,0.11,0.36s0.17,0.12,0.3,0.12
			c0.14,0,0.26-0.04,0.38-0.11c0.11-0.08,0.2-0.18,0.27-0.31c0.07-0.13,0.1-0.27,0.1-0.42V85.72z"/>
		<path d="M230.02,85.47v1.83h-0.88v-2.64c0-0.18,0-0.33-0.01-0.45c-0.01-0.12-0.01-0.22-0.02-0.31h0.84c0,0.03,0.01,0.08,0.02,0.18
			c0.01,0.09,0.01,0.19,0.02,0.29c0,0.1,0.01,0.17,0.01,0.21h0.01c0.12-0.26,0.27-0.45,0.45-0.57c0.18-0.12,0.4-0.18,0.65-0.18
			c0.36,0,0.64,0.11,0.83,0.33s0.29,0.55,0.29,0.98v2.16h-0.88v-1.91c0-0.3-0.05-0.52-0.15-0.67c-0.1-0.15-0.25-0.22-0.46-0.22
			c-0.21,0-0.39,0.09-0.52,0.28S230.02,85.18,230.02,85.47z"/>
		<path d="M235.28,87.29c0-0.02-0.01-0.07-0.02-0.13c-0.01-0.07-0.02-0.14-0.02-0.22s-0.01-0.15-0.01-0.2h-0.01
			c-0.1,0.21-0.24,0.36-0.42,0.46c-0.18,0.1-0.4,0.15-0.67,0.15c-0.4,0-0.7-0.15-0.92-0.46c-0.22-0.31-0.32-0.74-0.32-1.3
			c0-0.56,0.11-1,0.34-1.31c0.23-0.31,0.55-0.46,0.97-0.46c0.24,0,0.45,0.05,0.62,0.15c0.17,0.1,0.31,0.25,0.4,0.45h0.01l-0.01-0.56
			v-1.24h0.88v3.93c0,0.11,0,0.22,0.01,0.34s0.01,0.26,0.02,0.4H235.28z M233.82,85.59c0,0.39,0.06,0.68,0.17,0.87
			c0.12,0.19,0.29,0.29,0.52,0.29c0.23,0,0.41-0.1,0.54-0.31c0.13-0.2,0.19-0.5,0.19-0.87c0-0.37-0.06-0.65-0.18-0.85
			s-0.3-0.3-0.54-0.3c-0.24,0-0.41,0.1-0.53,0.29S233.82,85.2,233.82,85.59z"/>
		<path d="M238.09,84.04v0.89h-0.91v-0.89H238.09z M238.09,86.41v0.88h-0.91v-0.88H238.09z"/>
		<path d="M241.86,85.39v1.9h-0.93v-4.43h0.93v1.77h1.93v-1.77h0.93v4.43h-0.93v-1.9H241.86z"/>
		<path d="M246.49,82.62v0.65h-0.88v-0.65H246.49z M246.49,83.89v3.41h-0.88v-3.41H246.49z"/>
		<path d="M248.28,86.02v1.28h-0.88v-4.67h0.88v2.68l1.21-1.41h0.95l-1.2,1.33l1.29,2.08h-0.96l-0.91-1.54L248.28,86.02z"/>
		<path d="M251.87,82.62v0.65h-0.88v-0.65H251.87z M251.87,83.89v3.41h-0.88v-3.41H251.87z"/>
		<path d="M253.66,85.47v1.83h-0.88v-2.64c0-0.18,0-0.33-0.01-0.45c-0.01-0.12-0.01-0.22-0.02-0.31h0.84c0,0.03,0.01,0.08,0.02,0.18
			c0.01,0.09,0.01,0.19,0.02,0.29c0,0.1,0.01,0.17,0.01,0.21h0.01c0.12-0.26,0.27-0.45,0.45-0.57c0.18-0.12,0.4-0.18,0.65-0.18
			c0.36,0,0.64,0.11,0.83,0.33s0.29,0.55,0.29,0.98v2.16h-0.88v-1.91c0-0.3-0.05-0.52-0.15-0.67c-0.1-0.15-0.25-0.22-0.46-0.22
			c-0.21,0-0.39,0.09-0.52,0.28S253.66,85.18,253.66,85.47z"/>
		<path d="M258.14,88.66c-0.42,0-0.75-0.08-1-0.24c-0.25-0.16-0.41-0.38-0.47-0.68l0.88-0.1c0.03,0.14,0.1,0.24,0.2,0.32
			c0.11,0.08,0.24,0.12,0.41,0.12c0.25,0,0.43-0.08,0.54-0.23c0.11-0.15,0.17-0.38,0.17-0.67l0.01-0.52h-0.01
			c-0.1,0.21-0.24,0.37-0.42,0.47c-0.18,0.1-0.41,0.16-0.68,0.16c-0.4,0-0.71-0.15-0.92-0.45c-0.22-0.3-0.33-0.72-0.33-1.28
			c0-0.56,0.11-0.99,0.34-1.29c0.22-0.3,0.55-0.45,0.98-0.45c0.25,0,0.46,0.05,0.63,0.15c0.17,0.1,0.3,0.25,0.4,0.46h0.02
			c0-0.05,0-0.11,0.01-0.19c0-0.08,0.01-0.15,0.02-0.22c0.01-0.07,0.01-0.12,0.02-0.14h0.84c-0.01,0.23-0.02,0.49-0.02,0.79v2.51
			c0,0.48-0.14,0.85-0.41,1.1C259.06,88.54,258.66,88.66,258.14,88.66z M258.88,85.54c0-0.35-0.06-0.62-0.19-0.82
			s-0.3-0.29-0.53-0.29c-0.24,0-0.41,0.09-0.53,0.28c-0.12,0.19-0.18,0.47-0.18,0.85c0,0.37,0.06,0.65,0.18,0.83
			c0.12,0.19,0.29,0.28,0.53,0.28c0.23,0,0.41-0.1,0.54-0.29S258.88,85.9,258.88,85.54z"/>
	</g>
	<g>
		<rect x="210.71" y="90.99" fill="#E6E7E8" width="63.27" height="9.47"/>
	</g>
	<g>
		<path d="M225.66,95.74l-0.55,2.07h-0.93l-0.88-3.41h0.83l0.43,2.01c0.02,0.1,0.04,0.19,0.06,0.29c0.02,0.1,0.04,0.2,0.06,0.3
			c0.02-0.1,0.04-0.2,0.06-0.3c0.02-0.1,0.04-0.2,0.07-0.3l0.54-2h0.95l0.52,2c0.02,0.05,0.03,0.13,0.05,0.23
			c0.02,0.1,0.05,0.22,0.07,0.37c0.02-0.1,0.05-0.2,0.07-0.3c0.02-0.1,0.04-0.2,0.06-0.3l0.45-2h0.82l-0.89,3.41h-0.94l-0.54-2.08
			c-0.01-0.05-0.03-0.13-0.06-0.25s-0.05-0.27-0.09-0.45c-0.03,0.12-0.05,0.23-0.08,0.35C225.72,95.5,225.69,95.62,225.66,95.74z"/>
		<path d="M229.57,97.87c-0.33,0-0.59-0.09-0.77-0.27c-0.19-0.18-0.28-0.43-0.28-0.76c0-0.35,0.12-0.62,0.34-0.8
			c0.23-0.18,0.56-0.28,1-0.29l0.73-0.01v-0.17c0-0.22-0.04-0.39-0.12-0.5s-0.21-0.16-0.38-0.16c-0.16,0-0.28,0.04-0.36,0.11
			c-0.08,0.08-0.12,0.2-0.14,0.37l-0.92-0.04c0.12-0.67,0.6-1.01,1.46-1.01c0.43,0,0.76,0.11,0.99,0.32
			c0.23,0.21,0.35,0.51,0.35,0.9v1.24c0,0.19,0.02,0.32,0.06,0.39s0.12,0.11,0.22,0.11c0.07,0,0.13-0.01,0.2-0.02v0.48
			c-0.11,0.03-0.2,0.05-0.28,0.06s-0.17,0.02-0.29,0.02c-0.22,0-0.38-0.05-0.49-0.16c-0.11-0.11-0.17-0.27-0.19-0.48h-0.02
			c-0.12,0.22-0.28,0.39-0.46,0.5C230.03,97.81,229.82,97.87,229.57,97.87z M230.59,96.23l-0.45,0.01
			c-0.21,0.01-0.35,0.03-0.44,0.07c-0.09,0.04-0.15,0.09-0.2,0.17c-0.04,0.08-0.07,0.18-0.07,0.3c0,0.16,0.04,0.28,0.11,0.36
			s0.17,0.12,0.3,0.12c0.14,0,0.26-0.04,0.38-0.11c0.11-0.08,0.2-0.18,0.27-0.31c0.07-0.13,0.1-0.27,0.1-0.42V96.23z"/>
		<path d="M233.98,97.76c-0.21,0.07-0.46,0.11-0.75,0.11c-0.26,0-0.46-0.07-0.6-0.21s-0.21-0.36-0.21-0.64V95h-0.43v-0.6h0.47
			l0.28-0.8h0.55v0.8h0.65V95h-0.65v1.77c0,0.17,0.03,0.29,0.1,0.37c0.06,0.08,0.16,0.12,0.29,0.12c0.06,0,0.16-0.01,0.3-0.04V97.76
			z"/>
		<path d="M235.24,96.27c0,0.33,0.06,0.58,0.18,0.75s0.3,0.25,0.52,0.25c0.16,0,0.28-0.03,0.38-0.1s0.17-0.17,0.21-0.3l0.83,0.07
			c-0.24,0.62-0.73,0.92-1.47,0.92c-0.51,0-0.91-0.15-1.18-0.45c-0.27-0.3-0.41-0.75-0.41-1.33c0-0.56,0.14-0.99,0.42-1.3
			c0.28-0.3,0.68-0.45,1.19-0.45c0.49,0,0.86,0.16,1.12,0.49c0.26,0.32,0.39,0.8,0.39,1.42v0.03H235.24z M236.57,95.72
			c-0.02-0.27-0.08-0.48-0.2-0.62s-0.27-0.21-0.46-0.21c-0.21,0-0.37,0.07-0.48,0.22c-0.11,0.15-0.17,0.35-0.18,0.61H236.57z"/>
		<path d="M238.98,96.14v1.67h-0.88V95.2c0-0.19,0-0.34-0.01-0.47s-0.01-0.24-0.02-0.33h0.84c0,0.02,0.01,0.06,0.01,0.13
			c0,0.07,0.01,0.14,0.01,0.22s0.01,0.16,0.01,0.23c0,0.07,0,0.12,0,0.15h0.01c0.08-0.23,0.16-0.4,0.23-0.51
			c0.07-0.1,0.15-0.17,0.24-0.22c0.09-0.05,0.21-0.07,0.35-0.07c0.11,0,0.21,0.02,0.27,0.05v0.74c-0.14-0.03-0.27-0.05-0.38-0.05
			c-0.22,0-0.39,0.09-0.52,0.27C239.04,95.52,238.98,95.79,238.98,96.14z"/>
		<path d="M241.68,94.55v0.89h-0.91v-0.89H241.68z M241.68,96.92v0.88h-0.91v-0.88H241.68z"/>
		<path d="M248.47,95.56c0,0.47-0.09,0.88-0.28,1.21c-0.18,0.33-0.44,0.59-0.76,0.77c-0.32,0.18-0.7,0.27-1.12,0.27h-1.79v-4.43h1.6
			c0.75,0,1.33,0.19,1.73,0.57C248.27,94.31,248.47,94.85,248.47,95.56z M247.54,95.56c0-0.48-0.12-0.84-0.37-1.09
			c-0.25-0.25-0.6-0.38-1.06-0.38h-0.66v3h0.79c0.27,0,0.5-0.06,0.69-0.19c0.2-0.12,0.35-0.3,0.45-0.53
			C247.49,96.14,247.54,95.87,247.54,95.56z"/>
		<path d="M250.08,93.14v0.65h-0.88v-0.65H250.08z M250.08,94.4v3.41h-0.88V94.4H250.08z"/>
		<path d="M254.09,94.4l-1.26,3.41h-1.06l-1.22-3.41h0.93l0.6,1.9c0.02,0.05,0.04,0.14,0.08,0.28s0.08,0.3,0.14,0.51
			c0.01-0.03,0.03-0.09,0.05-0.18c0.03-0.09,0.05-0.18,0.09-0.29c0.03-0.1,0.06-0.19,0.08-0.26l0.63-1.96H254.09z"/>
		<path d="M255.45,93.14v0.65h-0.88v-0.65H255.45z M255.45,94.4v3.41h-0.88V94.4H255.45z"/>
		<path d="M257.25,95.98v1.83h-0.88v-2.64c0-0.18,0-0.33-0.01-0.45c-0.01-0.12-0.01-0.22-0.02-0.31h0.84c0,0.03,0.01,0.08,0.02,0.18
			c0.01,0.09,0.01,0.19,0.02,0.29c0,0.1,0.01,0.17,0.01,0.21h0.01c0.12-0.26,0.27-0.45,0.45-0.57c0.18-0.12,0.4-0.18,0.65-0.18
			c0.36,0,0.64,0.11,0.83,0.33s0.29,0.55,0.29,0.98v2.16h-0.88V95.9c0-0.3-0.05-0.52-0.15-0.67c-0.1-0.15-0.25-0.22-0.46-0.22
			c-0.21,0-0.39,0.09-0.52,0.28S257.25,95.69,257.25,95.98z"/>
		<path d="M261.72,99.17c-0.42,0-0.75-0.08-1-0.24c-0.25-0.16-0.41-0.38-0.47-0.68l0.88-0.1c0.03,0.14,0.1,0.24,0.2,0.32
			c0.11,0.08,0.24,0.12,0.41,0.12c0.25,0,0.43-0.08,0.54-0.23c0.11-0.15,0.17-0.38,0.17-0.67l0.01-0.52h-0.01
			c-0.1,0.21-0.24,0.37-0.42,0.47c-0.18,0.1-0.41,0.16-0.68,0.16c-0.4,0-0.71-0.15-0.92-0.45c-0.22-0.3-0.33-0.72-0.33-1.28
			c0-0.56,0.11-0.99,0.34-1.29c0.22-0.3,0.55-0.45,0.98-0.45c0.25,0,0.46,0.05,0.63,0.15c0.17,0.1,0.3,0.25,0.4,0.46h0.02
			c0-0.05,0-0.11,0.01-0.19c0-0.08,0.01-0.15,0.02-0.22c0.01-0.07,0.01-0.12,0.02-0.14h0.84c-0.01,0.23-0.02,0.49-0.02,0.79v2.51
			c0,0.48-0.14,0.85-0.41,1.1C262.65,99.05,262.25,99.17,261.72,99.17z M262.46,96.06c0-0.35-0.06-0.62-0.19-0.82
			s-0.3-0.29-0.53-0.29c-0.24,0-0.41,0.09-0.53,0.28c-0.12,0.19-0.18,0.47-0.18,0.85c0,0.37,0.06,0.65,0.18,0.83
			c0.12,0.19,0.29,0.28,0.53,0.28c0.23,0,0.41-0.1,0.54-0.29S262.46,96.42,262.46,96.06z"/>
	</g>
	<g>
		<path d="M373.55,66.79c-0.38,0-0.68-0.11-0.89-0.34c-0.21-0.23-0.32-0.55-0.32-0.96v-1.54c0-0.34-0.08-0.59-0.23-0.76
			c-0.16-0.17-0.4-0.26-0.73-0.27v-0.66c0.33-0.01,0.57-0.1,0.73-0.27c0.16-0.17,0.23-0.42,0.23-0.76V59.7
			c0-0.42,0.1-0.74,0.31-0.96c0.21-0.22,0.51-0.33,0.9-0.33h0.68v0.65h-0.27c-0.27,0-0.46,0.08-0.57,0.23s-0.17,0.39-0.17,0.7v1.49
			c0,0.28-0.08,0.51-0.24,0.72c-0.16,0.2-0.37,0.33-0.63,0.39v0.01c0.27,0.06,0.48,0.19,0.64,0.39s0.24,0.44,0.24,0.72v1.49
			c0,0.31,0.06,0.54,0.17,0.7c0.11,0.16,0.3,0.24,0.57,0.24h0.27v0.66H373.55z"/>
		<path d="M375.95,58.4v0.81h-0.94V58.4H375.95z M375.95,60.17v4.75h-0.94v-4.75H375.95z"/>
		<path d="M380.25,64.92c-0.01-0.03-0.01-0.09-0.02-0.18c-0.01-0.09-0.02-0.19-0.02-0.3s-0.01-0.2-0.01-0.29h-0.02
			c-0.14,0.3-0.33,0.52-0.58,0.65c-0.25,0.14-0.55,0.2-0.91,0.2c-0.58,0-1.02-0.21-1.31-0.62c-0.29-0.41-0.44-1.02-0.44-1.83
			c0-0.82,0.15-1.44,0.45-1.86c0.3-0.42,0.74-0.63,1.32-0.63c0.35,0,0.65,0.07,0.89,0.2c0.24,0.13,0.43,0.34,0.57,0.63h0.01
			l-0.01-0.62V58.4h0.94v5.52c0,0.21,0,0.4,0.01,0.57c0,0.17,0.01,0.31,0.02,0.43H380.25z M377.92,62.55c0,0.62,0.09,1.07,0.26,1.35
			c0.17,0.28,0.44,0.42,0.81,0.42c0.41,0,0.71-0.15,0.9-0.45s0.29-0.76,0.29-1.37c0-0.59-0.1-1.03-0.29-1.32
			c-0.19-0.29-0.49-0.43-0.89-0.43c-0.38,0-0.65,0.14-0.82,0.43C378.01,61.46,377.92,61.92,377.92,62.55z"/>
		<path d="M383.56,60.24v1.02h-0.99v-1.02H383.56z M383.56,63.9v1.02h-0.99V63.9H383.56z"/>
		<path d="M391.53,64.17v0.76h-3.98v-0.76h1.56v-4.58l-1.43,0.98v-0.82l1.49-1.01h0.87v5.44H391.53z"/>
		<path d="M393.67,64.68c0,0.33-0.03,0.6-0.09,0.83c-0.06,0.23-0.16,0.44-0.29,0.65h-0.63c0.15-0.2,0.27-0.41,0.35-0.62
			s0.12-0.42,0.12-0.61h-0.45v-1.09h1V64.68z"/>
		<path d="M398.47,62.24v2.69h-0.94V61.2c0-0.27,0-0.49-0.01-0.66c0-0.17-0.01-0.29-0.02-0.38h0.89c0.01,0.05,0.01,0.12,0.02,0.22
			c0.01,0.1,0.01,0.21,0.02,0.32c0,0.11,0.01,0.22,0.01,0.31h0.01c0.18-0.34,0.39-0.58,0.63-0.73c0.24-0.15,0.54-0.22,0.89-0.22
			c0.52,0,0.9,0.14,1.15,0.42c0.25,0.28,0.38,0.71,0.38,1.3v3.12h-0.94v-2.9c0-0.44-0.07-0.76-0.22-0.95
			c-0.14-0.19-0.38-0.28-0.72-0.28c-0.35,0-0.63,0.13-0.84,0.39C398.58,61.45,398.47,61.8,398.47,62.24z"/>
		<path d="M403.87,65.01c-0.47,0-0.83-0.13-1.08-0.38s-0.37-0.6-0.37-1.04c0-0.49,0.16-0.87,0.48-1.13s0.83-0.4,1.51-0.42l1.05-0.02
			v-0.25c0-0.36-0.07-0.62-0.22-0.79c-0.15-0.16-0.38-0.24-0.69-0.24c-0.31,0-0.54,0.06-0.68,0.17c-0.14,0.12-0.23,0.3-0.26,0.56
			l-0.98-0.07c0.14-0.88,0.8-1.33,1.96-1.33c0.6,0,1.05,0.14,1.36,0.42c0.31,0.28,0.46,0.69,0.46,1.21v1.94
			c0,0.25,0.03,0.43,0.09,0.54c0.06,0.11,0.17,0.17,0.33,0.17c0.09,0,0.18-0.01,0.26-0.03v0.55c-0.12,0.03-0.23,0.05-0.33,0.07
			c-0.1,0.01-0.22,0.02-0.34,0.02c-0.3,0-0.52-0.08-0.66-0.23c-0.14-0.15-0.22-0.39-0.24-0.71h-0.03c-0.19,0.35-0.42,0.59-0.69,0.75
			C404.56,64.94,404.24,65.01,403.87,65.01z M405.47,62.63l-0.79,0.01c-0.34,0.01-0.6,0.05-0.76,0.11c-0.17,0.07-0.3,0.16-0.39,0.29
			c-0.09,0.13-0.13,0.31-0.13,0.52c0,0.25,0.06,0.44,0.19,0.57c0.13,0.13,0.31,0.2,0.53,0.2c0.26,0,0.49-0.06,0.69-0.18
			s0.36-0.29,0.48-0.51c0.12-0.22,0.18-0.44,0.18-0.67V62.63z"/>
		<path d="M408.64,62.24v2.69h-0.94V61.2c0-0.27,0-0.49-0.01-0.66c0-0.17-0.01-0.29-0.02-0.38h0.89c0.01,0.06,0.01,0.14,0.02,0.24
			c0.01,0.11,0.01,0.21,0.02,0.33c0,0.11,0.01,0.21,0.01,0.29h0.01c0.16-0.34,0.36-0.59,0.58-0.73c0.22-0.14,0.49-0.21,0.81-0.21
			c0.36,0,0.65,0.08,0.86,0.23c0.21,0.15,0.36,0.39,0.44,0.72h0.02c0.16-0.34,0.36-0.58,0.59-0.72c0.23-0.15,0.51-0.22,0.85-0.22
			c0.47,0,0.83,0.14,1.05,0.42c0.23,0.28,0.34,0.71,0.34,1.31v3.12h-0.93v-2.9c0-0.45-0.06-0.76-0.18-0.95
			c-0.12-0.19-0.33-0.28-0.63-0.28c-0.31,0-0.56,0.12-0.74,0.37c-0.18,0.25-0.27,0.6-0.27,1.05v2.71h-0.93v-2.9
			c0-0.45-0.06-0.76-0.19-0.95c-0.12-0.19-0.34-0.28-0.64-0.28c-0.31,0-0.55,0.13-0.74,0.38C408.73,61.44,408.64,61.79,408.64,62.24
			z"/>
		<path d="M416.1,62.74c0,0.52,0.1,0.92,0.31,1.19c0.21,0.28,0.51,0.41,0.9,0.41c0.3,0,0.54-0.06,0.73-0.19
			c0.18-0.12,0.31-0.29,0.38-0.49l0.85,0.16c-0.3,0.79-0.96,1.18-1.97,1.18c-0.71,0-1.25-0.21-1.62-0.63
			c-0.37-0.42-0.56-1.04-0.56-1.86c0-0.78,0.19-1.39,0.56-1.81c0.38-0.42,0.91-0.63,1.6-0.63c0.7,0,1.22,0.22,1.57,0.65
			c0.35,0.43,0.53,1.07,0.53,1.93v0.08H416.1z M418.44,62.08c-0.04-0.46-0.15-0.8-0.34-1.02c-0.2-0.22-0.47-0.33-0.82-0.33
			c-0.35,0-0.63,0.12-0.83,0.36c-0.2,0.24-0.31,0.57-0.32,0.99H418.44z"/>
		<path d="M421.58,60.24v1.02h-0.99v-1.02H421.58z M421.58,63.9v1.02h-0.99V63.9H421.58z"/>
		<path d="M428.43,64.21c0.84,0,1.46-0.42,1.85-1.25l0.83,0.37c-0.25,0.55-0.61,0.97-1.07,1.25c-0.46,0.28-1.01,0.42-1.64,0.42
			c-0.64,0-1.19-0.13-1.64-0.39c-0.46-0.26-0.8-0.63-1.05-1.11c-0.24-0.48-0.37-1.05-0.37-1.72c0-0.66,0.12-1.23,0.36-1.71
			c0.24-0.47,0.58-0.83,1.04-1.08c0.45-0.25,1-0.37,1.64-0.37c0.68,0,1.25,0.13,1.69,0.4c0.45,0.27,0.77,0.67,0.97,1.19l-0.91,0.28
			c-0.13-0.34-0.34-0.61-0.65-0.8c-0.31-0.19-0.67-0.28-1.09-0.28c-0.65,0-1.16,0.21-1.51,0.62c-0.36,0.42-0.53,1-0.53,1.74
			c0,0.5,0.08,0.92,0.25,1.28c0.17,0.36,0.4,0.64,0.71,0.84S428,64.21,428.43,64.21z"/>
		<path d="M432.96,61.03c0.17-0.33,0.38-0.57,0.62-0.72c0.24-0.15,0.54-0.23,0.91-0.23c0.51,0,0.89,0.14,1.15,0.42
			c0.25,0.28,0.38,0.72,0.38,1.3v3.12h-0.94v-2.9c0-0.43-0.07-0.74-0.22-0.94s-0.38-0.29-0.72-0.29c-0.35,0-0.62,0.13-0.83,0.39
			c-0.21,0.26-0.32,0.6-0.32,1.02v2.72h-0.94V58.4h0.94v1.72c0,0.11,0,0.23-0.01,0.35c0,0.12-0.01,0.23-0.01,0.33
			c0,0.1-0.01,0.17-0.02,0.22H432.96z"/>
		<path d="M438.14,58.4v0.81h-0.94V58.4H438.14z M438.14,60.17v4.75h-0.94v-4.75H438.14z"/>
		<path d="M440.54,65.01c-0.47,0-0.83-0.13-1.08-0.38s-0.37-0.6-0.37-1.04c0-0.49,0.16-0.87,0.48-1.13s0.83-0.4,1.51-0.42l1.05-0.02
			v-0.25c0-0.36-0.07-0.62-0.22-0.79c-0.15-0.16-0.38-0.24-0.69-0.24c-0.31,0-0.54,0.06-0.68,0.17c-0.14,0.12-0.23,0.3-0.26,0.56
			l-0.98-0.07c0.14-0.88,0.8-1.33,1.96-1.33c0.6,0,1.05,0.14,1.36,0.42c0.31,0.28,0.46,0.69,0.46,1.21v1.94
			c0,0.25,0.03,0.43,0.09,0.54c0.06,0.11,0.17,0.17,0.33,0.17c0.09,0,0.18-0.01,0.26-0.03v0.55c-0.12,0.03-0.23,0.05-0.33,0.07
			c-0.1,0.01-0.22,0.02-0.34,0.02c-0.3,0-0.52-0.08-0.66-0.23c-0.14-0.15-0.22-0.39-0.24-0.71h-0.03c-0.19,0.35-0.42,0.59-0.69,0.75
			C441.23,64.94,440.91,65.01,440.54,65.01z M442.14,62.63l-0.79,0.01c-0.34,0.01-0.6,0.05-0.76,0.11c-0.17,0.07-0.3,0.16-0.39,0.29
			c-0.09,0.13-0.13,0.31-0.13,0.52c0,0.25,0.06,0.44,0.19,0.57c0.13,0.13,0.31,0.2,0.53,0.2c0.26,0,0.49-0.06,0.69-0.18
			s0.36-0.29,0.48-0.51c0.12-0.22,0.18-0.44,0.18-0.67V62.63z"/>
		<path d="M448.56,62.54c0,0.81-0.19,1.43-0.58,1.84c-0.39,0.42-0.94,0.63-1.65,0.63c-0.71,0-1.26-0.21-1.63-0.64
			c-0.38-0.43-0.56-1.04-0.56-1.83c0-0.8,0.19-1.41,0.57-1.83c0.38-0.42,0.93-0.63,1.66-0.63c0.74,0,1.29,0.2,1.66,0.61
			C448.38,61.1,448.56,61.72,448.56,62.54z M447.57,62.54c0-0.63-0.1-1.08-0.29-1.36c-0.19-0.28-0.5-0.42-0.92-0.42
			c-0.43,0-0.75,0.15-0.95,0.44c-0.2,0.29-0.3,0.74-0.3,1.35c0,0.59,0.1,1.04,0.3,1.34c0.2,0.3,0.5,0.45,0.9,0.45
			c0.45,0,0.77-0.15,0.96-0.44C447.48,63.61,447.57,63.15,447.57,62.54z"/>
		<path d="M450.69,64.68c0,0.33-0.03,0.6-0.09,0.83c-0.06,0.23-0.16,0.44-0.29,0.65h-0.63c0.15-0.2,0.27-0.41,0.35-0.62
			s0.12-0.42,0.12-0.61h-0.45v-1.09h1V64.68z"/>
		<path d="M455.72,65.01c-0.47,0-0.83-0.13-1.08-0.38s-0.37-0.6-0.37-1.04c0-0.49,0.16-0.87,0.48-1.13s0.83-0.4,1.51-0.42l1.05-0.02
			v-0.25c0-0.36-0.07-0.62-0.22-0.79c-0.15-0.16-0.38-0.24-0.69-0.24c-0.31,0-0.54,0.06-0.68,0.17c-0.14,0.12-0.23,0.3-0.26,0.56
			l-0.98-0.07c0.14-0.88,0.8-1.33,1.96-1.33c0.6,0,1.05,0.14,1.36,0.42c0.31,0.28,0.46,0.69,0.46,1.21v1.94
			c0,0.25,0.03,0.43,0.09,0.54c0.06,0.11,0.17,0.17,0.33,0.17c0.09,0,0.18-0.01,0.26-0.03v0.55c-0.12,0.03-0.23,0.05-0.33,0.07
			c-0.1,0.01-0.22,0.02-0.34,0.02c-0.3,0-0.52-0.08-0.66-0.23c-0.14-0.15-0.22-0.39-0.24-0.71h-0.03c-0.19,0.35-0.42,0.59-0.69,0.75
			C456.41,64.94,456.09,65.01,455.72,65.01z M457.32,62.63l-0.79,0.01c-0.34,0.01-0.6,0.05-0.76,0.11c-0.17,0.07-0.3,0.16-0.39,0.29
			c-0.09,0.13-0.13,0.31-0.13,0.52c0,0.25,0.06,0.44,0.19,0.57c0.13,0.13,0.31,0.2,0.53,0.2c0.26,0,0.49-0.06,0.69-0.18
			s0.36-0.29,0.48-0.51c0.12-0.22,0.18-0.44,0.18-0.67V62.63z"/>
		<path d="M461.41,66.81c-0.54,0-0.97-0.1-1.29-0.31c-0.32-0.21-0.53-0.51-0.62-0.89l0.94-0.12c0.05,0.21,0.16,0.37,0.33,0.49
			c0.17,0.12,0.39,0.17,0.66,0.17c0.38,0,0.66-0.11,0.84-0.34c0.19-0.22,0.28-0.56,0.28-1l0-0.75h-0.01
			c-0.14,0.3-0.35,0.53-0.6,0.68c-0.26,0.15-0.57,0.23-0.92,0.23c-0.58,0-1-0.2-1.29-0.59c-0.28-0.4-0.43-1-0.43-1.81
			c0-0.82,0.15-1.43,0.45-1.84s0.75-0.61,1.35-0.61c0.34,0,0.63,0.07,0.88,0.22c0.25,0.15,0.43,0.37,0.57,0.65h0.01
			c0-0.06,0-0.15,0.01-0.27c0.01-0.12,0.01-0.23,0.02-0.34c0.01-0.11,0.02-0.17,0.02-0.19h0.89c-0.02,0.21-0.03,0.55-0.03,1.02v3.59
			c0,0.67-0.17,1.18-0.52,1.51C462.62,66.64,462.1,66.81,461.41,66.81z M462.56,62.52c0-0.55-0.11-0.98-0.32-1.29
			c-0.22-0.31-0.5-0.47-0.85-0.47c-0.38,0-0.66,0.14-0.83,0.43s-0.27,0.73-0.27,1.34c0,0.61,0.08,1.05,0.25,1.32
			c0.17,0.28,0.45,0.41,0.84,0.41c0.36,0,0.65-0.16,0.86-0.46C462.45,63.5,462.56,63.07,462.56,62.52z"/>
		<path d="M465.46,62.74c0,0.52,0.1,0.92,0.31,1.19c0.21,0.28,0.51,0.41,0.9,0.41c0.3,0,0.54-0.06,0.73-0.19
			c0.18-0.12,0.31-0.29,0.38-0.49l0.85,0.16c-0.3,0.79-0.96,1.18-1.97,1.18c-0.71,0-1.25-0.21-1.62-0.63
			c-0.37-0.42-0.56-1.04-0.56-1.86c0-0.78,0.19-1.39,0.56-1.81c0.38-0.42,0.91-0.63,1.6-0.63c0.7,0,1.22,0.22,1.57,0.65
			c0.35,0.43,0.53,1.07,0.53,1.93v0.08H465.46z M467.79,62.08c-0.04-0.46-0.15-0.8-0.34-1.02c-0.2-0.22-0.47-0.33-0.82-0.33
			c-0.35,0-0.63,0.12-0.83,0.36c-0.2,0.24-0.31,0.57-0.32,0.99H467.79z"/>
		<path d="M470.94,60.24v1.02h-0.99v-1.02H470.94z M470.94,63.9v1.02h-0.99V63.9H470.94z"/>
		<path d="M478.86,64.14v0.79h-4.18v-0.66c0.14-0.31,0.3-0.59,0.5-0.84c0.2-0.25,0.41-0.49,0.65-0.7c0.24-0.22,0.49-0.43,0.74-0.63
			c0.15-0.12,0.28-0.23,0.4-0.34c0.12-0.11,0.22-0.21,0.32-0.31c0.15-0.16,0.28-0.33,0.37-0.5c0.09-0.17,0.14-0.36,0.14-0.56
			c0-0.32-0.09-0.56-0.27-0.73c-0.18-0.17-0.43-0.25-0.76-0.25c-0.31,0-0.57,0.08-0.76,0.25c-0.19,0.17-0.31,0.41-0.34,0.73
			l-0.95-0.08c0.06-0.52,0.27-0.93,0.63-1.23s0.83-0.44,1.42-0.44c0.64,0,1.13,0.15,1.47,0.45c0.34,0.3,0.51,0.72,0.51,1.26
			c0,0.26-0.06,0.52-0.17,0.76c-0.12,0.24-0.28,0.47-0.49,0.7c-0.13,0.14-0.3,0.29-0.5,0.47c-0.21,0.18-0.45,0.38-0.71,0.59
			c-0.29,0.24-0.53,0.46-0.72,0.66c-0.19,0.2-0.33,0.41-0.41,0.6H478.86z"/>
		<path d="M483.85,59.49c-0.3,0.47-0.57,0.9-0.8,1.29c-0.23,0.39-0.42,0.74-0.57,1.07c-0.23,0.5-0.41,1.01-0.54,1.51
			c-0.12,0.5-0.18,1.03-0.18,1.57h-0.98c0-0.43,0.05-0.86,0.14-1.28c0.09-0.42,0.24-0.87,0.44-1.33c0.17-0.39,0.38-0.82,0.64-1.27
			s0.58-0.96,0.97-1.52h-3.24v-0.79h4.13V59.49z"/>
		<path d="M486.05,64.68c0,0.33-0.03,0.6-0.09,0.83c-0.06,0.23-0.16,0.44-0.29,0.65h-0.63c0.15-0.2,0.27-0.41,0.35-0.62
			s0.12-0.42,0.12-0.61h-0.45v-1.09h1V64.68z"/>
		<path d="M490.83,61.03c0.17-0.33,0.38-0.57,0.62-0.72c0.24-0.15,0.54-0.23,0.91-0.23c0.51,0,0.89,0.14,1.15,0.42
			c0.25,0.28,0.38,0.72,0.38,1.3v3.12h-0.94v-2.9c0-0.43-0.07-0.74-0.22-0.94s-0.38-0.29-0.72-0.29c-0.35,0-0.62,0.13-0.83,0.39
			c-0.21,0.26-0.32,0.6-0.32,1.02v2.72h-0.94V58.4h0.94v1.72c0,0.11,0,0.23-0.01,0.35c0,0.12-0.01,0.23-0.01,0.33
			c0,0.1-0.01,0.17-0.02,0.22H490.83z"/>
		<path d="M499.25,62.54c0,0.81-0.19,1.43-0.58,1.84c-0.39,0.42-0.94,0.63-1.65,0.63c-0.71,0-1.26-0.21-1.63-0.64
			c-0.38-0.43-0.56-1.04-0.56-1.83c0-0.8,0.19-1.41,0.57-1.83c0.38-0.42,0.93-0.63,1.66-0.63c0.74,0,1.29,0.2,1.66,0.61
			C499.07,61.1,499.25,61.72,499.25,62.54z M498.27,62.54c0-0.63-0.1-1.08-0.29-1.36c-0.19-0.28-0.5-0.42-0.92-0.42
			c-0.43,0-0.75,0.15-0.95,0.44c-0.2,0.29-0.3,0.74-0.3,1.35c0,0.59,0.1,1.04,0.3,1.34c0.2,0.3,0.5,0.45,0.9,0.45
			c0.45,0,0.77-0.15,0.96-0.44C498.17,63.61,498.27,63.15,498.27,62.54z"/>
		<path d="M504.42,62.52c0,0.81-0.15,1.43-0.45,1.85s-0.74,0.63-1.33,0.63c-0.35,0-0.65-0.07-0.89-0.2
			c-0.24-0.14-0.43-0.35-0.58-0.63h-0.01c0,0.06,0,0.15-0.01,0.26c-0.01,0.11-0.01,0.21-0.02,0.31c-0.01,0.1-0.01,0.16-0.02,0.18
			h-0.91c0.01-0.1,0.02-0.23,0.02-0.4c0.01-0.17,0.01-0.37,0.01-0.61V58.4h0.94v1.85c0,0.11,0,0.22,0,0.34
			c0,0.12-0.01,0.24-0.01,0.37h0.02c0.14-0.3,0.34-0.53,0.58-0.67c0.25-0.14,0.55-0.21,0.91-0.21c0.59,0,1.03,0.21,1.32,0.62
			C504.27,61.11,504.42,61.72,504.42,62.52z M503.43,62.54c0-0.62-0.09-1.07-0.26-1.35s-0.44-0.42-0.81-0.42
			c-0.41,0-0.71,0.15-0.91,0.44c-0.19,0.3-0.29,0.75-0.29,1.37c0,0.58,0.09,1.02,0.29,1.31c0.19,0.29,0.49,0.44,0.9,0.44
			c0.38,0,0.65-0.14,0.82-0.43C503.35,63.62,503.43,63.17,503.43,62.54z"/>
		<path d="M509.59,62.52c0,0.81-0.15,1.43-0.45,1.85s-0.74,0.63-1.33,0.63c-0.35,0-0.65-0.07-0.89-0.2
			c-0.24-0.14-0.43-0.35-0.58-0.63h-0.01c0,0.06,0,0.15-0.01,0.26c-0.01,0.11-0.01,0.21-0.02,0.31c-0.01,0.1-0.01,0.16-0.02,0.18
			h-0.91c0.01-0.1,0.02-0.23,0.02-0.4c0.01-0.17,0.01-0.37,0.01-0.61V58.4h0.94v1.85c0,0.11,0,0.22,0,0.34
			c0,0.12-0.01,0.24-0.01,0.37h0.02c0.14-0.3,0.34-0.53,0.58-0.67c0.25-0.14,0.55-0.21,0.91-0.21c0.59,0,1.03,0.21,1.32,0.62
			C509.44,61.11,509.59,61.72,509.59,62.52z M508.6,62.54c0-0.62-0.09-1.07-0.26-1.35s-0.44-0.42-0.81-0.42
			c-0.41,0-0.71,0.15-0.91,0.44c-0.19,0.3-0.29,0.75-0.29,1.37c0,0.58,0.09,1.02,0.29,1.31c0.19,0.29,0.49,0.44,0.9,0.44
			c0.38,0,0.65-0.14,0.82-0.43C508.52,63.62,508.6,63.17,508.6,62.54z"/>
		<path d="M510.93,66.79c-0.24,0-0.45-0.02-0.62-0.05v-0.69c0.13,0.02,0.26,0.03,0.39,0.03c0.26,0,0.48-0.09,0.67-0.26
			s0.36-0.48,0.51-0.93L510,60.17h1l0.91,2.5c0.07,0.18,0.14,0.39,0.22,0.63c0.08,0.24,0.15,0.47,0.21,0.71
			c0.07-0.23,0.14-0.45,0.21-0.66c0.07-0.21,0.14-0.43,0.21-0.64l0.84-2.52h0.99l-1.85,4.84c-0.09,0.23-0.18,0.44-0.27,0.62
			c-0.09,0.18-0.18,0.33-0.26,0.45c-0.17,0.25-0.36,0.43-0.57,0.54S511.2,66.79,510.93,66.79z"/>
		<path d="M516.45,60.24v1.02h-0.99v-1.02H516.45z M516.45,63.9v1.02h-0.99V63.9H516.45z"/>
		<path d="M522.11,66.79c-0.38,0-0.68-0.11-0.89-0.34c-0.21-0.23-0.32-0.55-0.32-0.96v-1.54c0-0.34-0.08-0.59-0.23-0.76
			c-0.16-0.17-0.4-0.26-0.73-0.27v-0.66c0.33-0.01,0.57-0.1,0.73-0.27c0.16-0.17,0.23-0.42,0.23-0.76V59.7
			c0-0.42,0.1-0.74,0.31-0.96c0.21-0.22,0.51-0.33,0.9-0.33h0.68v0.65h-0.27c-0.27,0-0.46,0.08-0.57,0.23s-0.17,0.39-0.17,0.7v1.49
			c0,0.28-0.08,0.51-0.24,0.72c-0.16,0.2-0.37,0.33-0.63,0.39v0.01c0.27,0.06,0.48,0.19,0.64,0.39s0.24,0.44,0.24,0.72v1.49
			c0,0.31,0.06,0.54,0.17,0.7c0.11,0.16,0.3,0.24,0.57,0.24h0.27v0.66H522.11z"/>
		<path d="M524.52,58.4v6.52h-0.94V58.4H524.52z"/>
		<path d="M526.92,65.01c-0.47,0-0.83-0.13-1.08-0.38s-0.37-0.6-0.37-1.04c0-0.49,0.16-0.87,0.48-1.13s0.83-0.4,1.51-0.42l1.05-0.02
			v-0.25c0-0.36-0.07-0.62-0.22-0.79c-0.15-0.16-0.38-0.24-0.69-0.24c-0.31,0-0.54,0.06-0.68,0.17c-0.14,0.12-0.23,0.3-0.26,0.56
			l-0.98-0.07c0.14-0.88,0.8-1.33,1.96-1.33c0.6,0,1.05,0.14,1.36,0.42c0.31,0.28,0.46,0.69,0.46,1.21v1.94
			c0,0.25,0.03,0.43,0.09,0.54c0.06,0.11,0.17,0.17,0.33,0.17c0.09,0,0.18-0.01,0.26-0.03v0.55c-0.12,0.03-0.23,0.05-0.33,0.07
			c-0.1,0.01-0.22,0.02-0.34,0.02c-0.3,0-0.52-0.08-0.66-0.23c-0.14-0.15-0.22-0.39-0.24-0.71h-0.03c-0.19,0.35-0.42,0.59-0.69,0.75
			C527.61,64.94,527.29,65.01,526.92,65.01z M528.52,62.63l-0.79,0.01c-0.34,0.01-0.6,0.05-0.76,0.11c-0.17,0.07-0.3,0.16-0.39,0.29
			c-0.09,0.13-0.13,0.31-0.13,0.52c0,0.25,0.06,0.44,0.19,0.57c0.13,0.13,0.31,0.2,0.53,0.2c0.26,0,0.49-0.06,0.69-0.18
			s0.36-0.29,0.48-0.51c0.12-0.22,0.18-0.44,0.18-0.67V62.63z"/>
		<path d="M531.7,62.24v2.69h-0.94V61.2c0-0.27,0-0.49-0.01-0.66c0-0.17-0.01-0.29-0.02-0.38h0.89c0.01,0.05,0.01,0.12,0.02,0.22
			c0.01,0.1,0.01,0.21,0.02,0.32c0,0.11,0.01,0.22,0.01,0.31h0.01c0.18-0.34,0.39-0.58,0.63-0.73c0.24-0.15,0.54-0.22,0.89-0.22
			c0.52,0,0.9,0.14,1.15,0.42c0.25,0.28,0.38,0.71,0.38,1.3v3.12h-0.94v-2.9c0-0.44-0.07-0.76-0.22-0.95
			c-0.14-0.19-0.38-0.28-0.72-0.28c-0.35,0-0.63,0.13-0.84,0.39C531.81,61.45,531.7,61.8,531.7,62.24z"/>
		<path d="M538.99,64.92c-0.01-0.03-0.01-0.09-0.02-0.18c-0.01-0.09-0.02-0.19-0.02-0.3s-0.01-0.2-0.01-0.29h-0.02
			c-0.14,0.3-0.33,0.52-0.58,0.65c-0.25,0.14-0.55,0.2-0.91,0.2c-0.58,0-1.02-0.21-1.31-0.62c-0.29-0.41-0.44-1.02-0.44-1.83
			c0-0.82,0.15-1.44,0.45-1.86c0.3-0.42,0.74-0.63,1.32-0.63c0.35,0,0.65,0.07,0.89,0.2c0.24,0.13,0.43,0.34,0.57,0.63h0.01
			l-0.01-0.62V58.4h0.94v5.52c0,0.21,0,0.4,0.01,0.57c0,0.17,0.01,0.31,0.02,0.43H538.99z M536.66,62.55c0,0.62,0.09,1.07,0.26,1.35
			c0.17,0.28,0.44,0.42,0.81,0.42c0.41,0,0.71-0.15,0.9-0.45s0.29-0.76,0.29-1.37c0-0.59-0.1-1.03-0.29-1.32
			c-0.19-0.29-0.49-0.43-0.89-0.43c-0.38,0-0.65,0.14-0.82,0.43C536.75,61.46,536.66,61.92,536.66,62.55z"/>
		<path d="M542.3,60.24v1.02h-0.99v-1.02H542.3z M542.3,63.9v1.02h-0.99V63.9H542.3z"/>
		<path d="M547.33,62.13v2.8h-0.99v-6.19h0.99v2.57h3.13v-2.57h0.99v6.19h-0.99v-2.8H547.33z"/>
		<path d="M553.69,58.4v0.81h-0.94V58.4H553.69z M553.69,60.17v4.75h-0.94v-4.75H553.69z"/>
		<path d="M555.86,63.2v1.72h-0.94V58.4h0.94v3.96l1.96-2.19h1.06l-1.84,1.98l1.95,2.77h-1.07l-1.49-2.17L555.86,63.2z"/>
		<path d="M560.53,58.4v0.81h-0.94V58.4H560.53z M560.53,60.17v4.75h-0.94v-4.75H560.53z"/>
		<path d="M562.71,62.24v2.69h-0.94V61.2c0-0.27,0-0.49-0.01-0.66c0-0.17-0.01-0.29-0.02-0.38h0.89c0.01,0.05,0.01,0.12,0.02,0.22
			c0.01,0.1,0.01,0.21,0.02,0.32c0,0.11,0.01,0.22,0.01,0.31h0.01c0.18-0.34,0.39-0.58,0.63-0.73c0.24-0.15,0.54-0.22,0.89-0.22
			c0.52,0,0.9,0.14,1.15,0.42c0.25,0.28,0.38,0.71,0.38,1.3v3.12h-0.94v-2.9c0-0.44-0.07-0.76-0.22-0.95
			c-0.14-0.19-0.38-0.28-0.72-0.28c-0.35,0-0.63,0.13-0.84,0.39C562.81,61.45,562.71,61.8,562.71,62.24z"/>
		<path d="M568.79,66.81c-0.54,0-0.97-0.1-1.29-0.31c-0.32-0.21-0.53-0.51-0.62-0.89l0.94-0.12c0.05,0.21,0.16,0.37,0.33,0.49
			c0.17,0.12,0.39,0.17,0.66,0.17c0.38,0,0.66-0.11,0.84-0.34c0.19-0.22,0.28-0.56,0.28-1l0-0.75h-0.01
			c-0.14,0.3-0.35,0.53-0.6,0.68c-0.26,0.15-0.57,0.23-0.92,0.23c-0.58,0-1-0.2-1.29-0.59c-0.28-0.4-0.43-1-0.43-1.81
			c0-0.82,0.15-1.43,0.45-1.84s0.75-0.61,1.35-0.61c0.34,0,0.63,0.07,0.88,0.22c0.25,0.15,0.43,0.37,0.57,0.65h0.01
			c0-0.06,0-0.15,0.01-0.27c0.01-0.12,0.01-0.23,0.02-0.34c0.01-0.11,0.02-0.17,0.02-0.19h0.89c-0.02,0.21-0.03,0.55-0.03,1.02v3.59
			c0,0.67-0.17,1.18-0.52,1.51C570,66.64,569.48,66.81,568.79,66.81z M569.93,62.52c0-0.55-0.11-0.98-0.32-1.29
			c-0.22-0.31-0.5-0.47-0.85-0.47c-0.38,0-0.66,0.14-0.83,0.43s-0.27,0.73-0.27,1.34c0,0.61,0.08,1.05,0.25,1.32
			c0.17,0.28,0.45,0.41,0.84,0.41c0.36,0,0.65-0.16,0.86-0.46C569.83,63.5,569.93,63.07,569.93,62.52z"/>
		<path d="M573.24,64.68c0,0.33-0.03,0.6-0.09,0.83c-0.06,0.23-0.16,0.44-0.29,0.65h-0.63c0.15-0.2,0.27-0.41,0.35-0.62
			s0.12-0.42,0.12-0.61h-0.45v-1.09h1V64.68z"/>
		<path d="M579.63,61.72l-0.83,3.2h-1.04l-1.3-4.75h0.91l0.75,3.13c0.02,0.11,0.05,0.23,0.08,0.37c0.03,0.14,0.06,0.29,0.09,0.44
			c0.03-0.14,0.06-0.28,0.09-0.42c0.03-0.14,0.06-0.27,0.1-0.41l0.83-3.12h1.01l0.8,3.11c0.03,0.12,0.06,0.25,0.09,0.39
			s0.07,0.29,0.1,0.45c0.03-0.14,0.06-0.29,0.1-0.44c0.03-0.15,0.06-0.29,0.09-0.41l0.77-3.1h0.9l-1.33,4.75h-1.05l-0.8-3.21
			c-0.03-0.11-0.05-0.23-0.08-0.36c-0.03-0.14-0.06-0.29-0.09-0.46c-0.02,0.1-0.05,0.23-0.08,0.38
			C579.7,61.44,579.67,61.58,579.63,61.72z"/>
		<path d="M584.93,65.01c-0.47,0-0.83-0.13-1.08-0.38s-0.37-0.6-0.37-1.04c0-0.49,0.16-0.87,0.48-1.13s0.83-0.4,1.51-0.42l1.05-0.02
			v-0.25c0-0.36-0.07-0.62-0.22-0.79c-0.15-0.16-0.38-0.24-0.69-0.24c-0.31,0-0.54,0.06-0.68,0.17c-0.14,0.12-0.23,0.3-0.26,0.56
			l-0.98-0.07c0.14-0.88,0.8-1.33,1.96-1.33c0.6,0,1.05,0.14,1.36,0.42c0.31,0.28,0.46,0.69,0.46,1.21v1.94
			c0,0.25,0.03,0.43,0.09,0.54c0.06,0.11,0.17,0.17,0.33,0.17c0.09,0,0.18-0.01,0.26-0.03v0.55c-0.12,0.03-0.23,0.05-0.33,0.07
			c-0.1,0.01-0.22,0.02-0.34,0.02c-0.3,0-0.52-0.08-0.66-0.23c-0.14-0.15-0.22-0.39-0.24-0.71h-0.03c-0.19,0.35-0.42,0.59-0.69,0.75
			C585.62,64.94,585.3,65.01,584.93,65.01z M586.53,62.63l-0.79,0.01c-0.34,0.01-0.6,0.05-0.76,0.11c-0.17,0.07-0.3,0.16-0.39,0.29
			c-0.09,0.13-0.13,0.31-0.13,0.52c0,0.25,0.06,0.44,0.19,0.57c0.13,0.13,0.31,0.2,0.53,0.2c0.26,0,0.49-0.06,0.69-0.18
			s0.36-0.29,0.48-0.51c0.12-0.22,0.18-0.44,0.18-0.67V62.63z"/>
		<path d="M590.73,64.88c-0.27,0.08-0.56,0.12-0.88,0.12c-0.33,0-0.58-0.09-0.75-0.28c-0.17-0.19-0.26-0.46-0.26-0.84v-3.05h-0.57
			v-0.66h0.61l0.29-1.08h0.61v1.08h0.88v0.66h-0.88v2.82c0,0.23,0.04,0.4,0.12,0.49c0.08,0.1,0.21,0.15,0.4,0.15
			c0.09,0,0.24-0.02,0.44-0.06V64.88z"/>
		<path d="M592.18,62.74c0,0.52,0.1,0.92,0.31,1.19c0.21,0.28,0.51,0.41,0.9,0.41c0.3,0,0.54-0.06,0.73-0.19
			c0.18-0.12,0.31-0.29,0.38-0.49l0.85,0.16c-0.3,0.79-0.96,1.18-1.97,1.18c-0.71,0-1.25-0.21-1.62-0.63
			c-0.37-0.42-0.56-1.04-0.56-1.86c0-0.78,0.19-1.39,0.56-1.81c0.38-0.42,0.91-0.63,1.6-0.63c0.7,0,1.22,0.22,1.57,0.65
			c0.35,0.43,0.53,1.07,0.53,1.93v0.08H592.18z M594.51,62.08c-0.04-0.46-0.15-0.8-0.34-1.02c-0.2-0.22-0.47-0.33-0.82-0.33
			c-0.35,0-0.63,0.12-0.83,0.36c-0.2,0.24-0.31,0.57-0.32,0.99H594.51z"/>
		<path d="M597.39,62.49v2.43h-0.94v-3.64c0-0.2,0-0.39-0.01-0.57c0-0.18-0.01-0.36-0.02-0.54h0.89c0.01,0.1,0.01,0.2,0.02,0.3
			s0.01,0.2,0.01,0.29c0,0.09,0.01,0.17,0.01,0.24c0,0.07,0,0.12,0,0.15h0.02c0.1-0.3,0.2-0.53,0.3-0.68
			c0.1-0.14,0.21-0.25,0.35-0.3c0.13-0.06,0.29-0.09,0.49-0.09c0.12,0,0.24,0.02,0.34,0.05v0.83c-0.13-0.04-0.29-0.05-0.46-0.05
			c-0.32,0-0.57,0.14-0.74,0.41C597.47,61.59,597.39,61.98,597.39,62.49z"/>
		<path d="M600.82,60.24v1.02h-0.99v-1.02H600.82z M600.82,63.9v1.02h-0.99V63.9H600.82z"/>
		<path d="M607.74,61.77c0,0.66-0.13,1.22-0.38,1.69s-0.61,0.83-1.06,1.08c-0.45,0.25-0.98,0.38-1.57,0.38h-2.38v-6.19h2.11
			c1.05,0,1.86,0.26,2.43,0.79C607.46,60.05,607.74,60.8,607.74,61.77z M606.74,61.77c0-0.73-0.2-1.29-0.59-1.68
			c-0.4-0.38-0.97-0.58-1.71-0.58h-1.1v4.63h1.29c0.43,0,0.8-0.1,1.12-0.29s0.56-0.47,0.74-0.82
			C606.66,62.68,606.74,62.26,606.74,61.77z"/>
		<path d="M609.71,58.4v0.81h-0.94V58.4H609.71z M609.71,60.17v4.75h-0.94v-4.75H609.71z"/>
		<path d="M614.96,60.17l-1.77,4.75h-1.12l-1.72-4.75h1l0.98,2.95c0.02,0.07,0.06,0.19,0.11,0.36c0.05,0.18,0.12,0.41,0.2,0.7
			c0.03-0.09,0.06-0.19,0.1-0.32c0.04-0.12,0.07-0.25,0.11-0.38c0.04-0.13,0.07-0.24,0.11-0.33l1.01-2.98H614.96z"/>
		<path d="M616.54,58.4v0.81h-0.94V58.4H616.54z M616.54,60.17v4.75h-0.94v-4.75H616.54z"/>
		<path d="M618.72,62.24v2.69h-0.94V61.2c0-0.27,0-0.49-0.01-0.66c0-0.17-0.01-0.29-0.02-0.38h0.89c0.01,0.05,0.01,0.12,0.02,0.22
			c0.01,0.1,0.01,0.21,0.02,0.32c0,0.11,0.01,0.22,0.01,0.31h0.01c0.18-0.34,0.39-0.58,0.63-0.73c0.24-0.15,0.54-0.22,0.89-0.22
			c0.52,0,0.9,0.14,1.15,0.42c0.25,0.28,0.38,0.71,0.38,1.3v3.12h-0.94v-2.9c0-0.44-0.07-0.76-0.22-0.95
			c-0.14-0.19-0.38-0.28-0.72-0.28c-0.35,0-0.63,0.13-0.84,0.39C618.82,61.45,618.72,61.8,618.72,62.24z"/>
		<path d="M624.8,66.81c-0.54,0-0.97-0.1-1.29-0.31c-0.32-0.21-0.53-0.51-0.62-0.89l0.94-0.12c0.05,0.21,0.16,0.37,0.33,0.49
			c0.17,0.12,0.39,0.17,0.66,0.17c0.38,0,0.66-0.11,0.84-0.34c0.19-0.22,0.28-0.56,0.28-1l0-0.75h-0.01
			c-0.14,0.3-0.35,0.53-0.6,0.68c-0.26,0.15-0.57,0.23-0.92,0.23c-0.58,0-1-0.2-1.29-0.59c-0.28-0.4-0.43-1-0.43-1.81
			c0-0.82,0.15-1.43,0.45-1.84s0.75-0.61,1.35-0.61c0.34,0,0.63,0.07,0.88,0.22c0.25,0.15,0.43,0.37,0.57,0.65h0.01
			c0-0.06,0-0.15,0.01-0.27c0.01-0.12,0.01-0.23,0.02-0.34c0.01-0.11,0.02-0.17,0.02-0.19h0.89c-0.02,0.21-0.03,0.55-0.03,1.02v3.59
			c0,0.67-0.17,1.18-0.52,1.51C626.01,66.64,625.49,66.81,624.8,66.81z M625.95,62.52c0-0.55-0.11-0.98-0.32-1.29
			c-0.22-0.31-0.5-0.47-0.85-0.47c-0.38,0-0.66,0.14-0.83,0.43s-0.27,0.73-0.27,1.34c0,0.61,0.08,1.05,0.25,1.32
			c0.17,0.28,0.45,0.41,0.84,0.41c0.36,0,0.65-0.16,0.86-0.46C625.84,63.5,625.95,63.07,625.95,62.52z"/>
		<path d="M627.65,66.13h0.26c0.27,0,0.46-0.08,0.58-0.24c0.12-0.16,0.17-0.39,0.17-0.7v-1.49c0-0.28,0.08-0.52,0.23-0.72
			c0.16-0.2,0.37-0.33,0.63-0.39v-0.01c-0.25-0.06-0.46-0.19-0.62-0.38c-0.16-0.2-0.24-0.44-0.24-0.72v-1.49
			c0-0.31-0.06-0.55-0.17-0.7c-0.12-0.16-0.31-0.23-0.58-0.23h-0.26V58.4h0.68c0.39,0,0.69,0.11,0.89,0.33
			c0.21,0.22,0.31,0.54,0.31,0.96v1.54c0,0.33,0.08,0.59,0.24,0.76c0.16,0.17,0.4,0.26,0.74,0.27v0.66
			c-0.34,0.01-0.58,0.1-0.74,0.27c-0.16,0.17-0.24,0.42-0.24,0.76v1.54c0,0.41-0.11,0.73-0.32,0.95c-0.21,0.23-0.51,0.34-0.88,0.34
			h-0.68V66.13z"/>
		<path d="M630.83,66.13h0.26c0.27,0,0.46-0.08,0.58-0.24c0.12-0.16,0.17-0.39,0.17-0.7v-1.49c0-0.28,0.08-0.52,0.23-0.72
			c0.16-0.2,0.37-0.33,0.63-0.39v-0.01c-0.25-0.06-0.46-0.19-0.62-0.38c-0.16-0.2-0.24-0.44-0.24-0.72v-1.49
			c0-0.31-0.06-0.55-0.17-0.7c-0.12-0.16-0.31-0.23-0.58-0.23h-0.26V58.4h0.68c0.39,0,0.69,0.11,0.89,0.33
			c0.21,0.22,0.31,0.54,0.31,0.96v1.54c0,0.33,0.08,0.59,0.24,0.76c0.16,0.17,0.4,0.26,0.74,0.27v0.66
			c-0.34,0.01-0.58,0.1-0.74,0.27c-0.16,0.17-0.24,0.42-0.24,0.76v1.54c0,0.41-0.11,0.73-0.32,0.95c-0.21,0.23-0.51,0.34-0.88,0.34
			h-0.68V66.13z"/>
	</g>
	<g>
		<path d="M373.55,93.9c-0.38,0-0.68-0.11-0.89-0.34c-0.21-0.23-0.32-0.55-0.32-0.96v-1.54c0-0.34-0.08-0.59-0.23-0.76
			c-0.16-0.17-0.4-0.26-0.73-0.27v-0.66c0.33-0.01,0.57-0.1,0.73-0.27c0.16-0.17,0.23-0.42,0.23-0.76V86.8
			c0-0.42,0.1-0.74,0.31-0.96c0.21-0.22,0.51-0.33,0.9-0.33h0.68v0.65h-0.27c-0.27,0-0.46,0.08-0.57,0.23s-0.17,0.39-0.17,0.7v1.49
			c0,0.28-0.08,0.51-0.24,0.72c-0.16,0.2-0.37,0.33-0.63,0.39v0.01c0.27,0.06,0.48,0.19,0.64,0.39s0.24,0.44,0.24,0.72v1.49
			c0,0.31,0.06,0.54,0.17,0.7c0.11,0.16,0.3,0.24,0.57,0.24h0.27v0.66H373.55z"/>
		<path d="M375.95,85.51v0.81h-0.94v-0.81H375.95z M375.95,87.27v4.75h-0.94v-4.75H375.95z"/>
		<path d="M380.25,92.03c-0.01-0.03-0.01-0.09-0.02-0.18c-0.01-0.09-0.02-0.19-0.02-0.3s-0.01-0.2-0.01-0.29h-0.02
			c-0.14,0.3-0.33,0.52-0.58,0.65c-0.25,0.14-0.55,0.2-0.91,0.2c-0.58,0-1.02-0.21-1.31-0.62c-0.29-0.41-0.44-1.02-0.44-1.83
			c0-0.82,0.15-1.44,0.45-1.86c0.3-0.42,0.74-0.63,1.32-0.63c0.35,0,0.65,0.07,0.89,0.2c0.24,0.13,0.43,0.34,0.57,0.63h0.01
			l-0.01-0.62v-1.89h0.94v5.52c0,0.21,0,0.4,0.01,0.57c0,0.17,0.01,0.31,0.02,0.43H380.25z M377.92,89.65
			c0,0.62,0.09,1.07,0.26,1.35c0.17,0.28,0.44,0.42,0.81,0.42c0.41,0,0.71-0.15,0.9-0.45s0.29-0.76,0.29-1.37
			c0-0.59-0.1-1.03-0.29-1.32c-0.19-0.29-0.49-0.43-0.89-0.43c-0.38,0-0.65,0.14-0.82,0.43C378.01,88.57,377.92,89.02,377.92,89.65z
			"/>
		<path d="M383.56,87.34v1.02h-0.99v-1.02H383.56z M383.56,91.01v1.02h-0.99v-1.02H383.56z"/>
		<path d="M391.49,91.24v0.79h-4.18v-0.66c0.14-0.31,0.3-0.59,0.5-0.84c0.2-0.25,0.41-0.49,0.65-0.7c0.24-0.22,0.49-0.43,0.74-0.63
			c0.15-0.12,0.28-0.23,0.4-0.34c0.12-0.11,0.22-0.21,0.32-0.31c0.15-0.16,0.28-0.33,0.37-0.5c0.09-0.17,0.14-0.36,0.14-0.56
			c0-0.32-0.09-0.56-0.27-0.73c-0.18-0.17-0.43-0.25-0.76-0.25c-0.31,0-0.57,0.08-0.76,0.25c-0.19,0.17-0.31,0.41-0.34,0.73
			l-0.95-0.08c0.06-0.52,0.27-0.93,0.63-1.23s0.83-0.44,1.42-0.44c0.64,0,1.13,0.15,1.47,0.45c0.34,0.3,0.51,0.72,0.51,1.26
			c0,0.26-0.06,0.52-0.17,0.76c-0.12,0.24-0.28,0.47-0.49,0.7c-0.13,0.14-0.3,0.29-0.5,0.47c-0.21,0.18-0.45,0.38-0.71,0.59
			c-0.29,0.24-0.53,0.46-0.72,0.66c-0.19,0.2-0.33,0.41-0.41,0.6H391.49z"/>
		<path d="M393.67,91.78c0,0.33-0.03,0.6-0.09,0.83c-0.06,0.23-0.16,0.44-0.29,0.65h-0.63c0.15-0.2,0.27-0.41,0.35-0.62
			s0.12-0.42,0.12-0.61h-0.45v-1.09h1V91.78z"/>
		<path d="M398.47,89.34v2.69h-0.94v-3.72c0-0.27,0-0.49-0.01-0.66c0-0.17-0.01-0.29-0.02-0.38h0.89c0.01,0.05,0.01,0.12,0.02,0.22
			c0.01,0.1,0.01,0.21,0.02,0.32c0,0.11,0.01,0.22,0.01,0.31h0.01c0.18-0.34,0.39-0.58,0.63-0.73c0.24-0.15,0.54-0.22,0.89-0.22
			c0.52,0,0.9,0.14,1.15,0.42c0.25,0.28,0.38,0.71,0.38,1.3v3.12h-0.94v-2.9c0-0.44-0.07-0.76-0.22-0.95
			c-0.14-0.19-0.38-0.28-0.72-0.28c-0.35,0-0.63,0.13-0.84,0.39C398.58,88.55,398.47,88.9,398.47,89.34z"/>
		<path d="M403.87,92.12c-0.47,0-0.83-0.13-1.08-0.38s-0.37-0.6-0.37-1.04c0-0.49,0.16-0.87,0.48-1.13s0.83-0.4,1.51-0.42l1.05-0.02
			v-0.25c0-0.36-0.07-0.62-0.22-0.79c-0.15-0.16-0.38-0.24-0.69-0.24c-0.31,0-0.54,0.06-0.68,0.17c-0.14,0.12-0.23,0.3-0.26,0.56
			l-0.98-0.07c0.14-0.88,0.8-1.33,1.96-1.33c0.6,0,1.05,0.14,1.36,0.42c0.31,0.28,0.46,0.69,0.46,1.21v1.94
			c0,0.25,0.03,0.43,0.09,0.54c0.06,0.11,0.17,0.17,0.33,0.17c0.09,0,0.18-0.01,0.26-0.03v0.55c-0.12,0.03-0.23,0.05-0.33,0.07
			c-0.1,0.01-0.22,0.02-0.34,0.02c-0.3,0-0.52-0.08-0.66-0.23c-0.14-0.15-0.22-0.39-0.24-0.71h-0.03c-0.19,0.35-0.42,0.59-0.69,0.75
			C404.56,92.04,404.24,92.12,403.87,92.12z M405.47,89.73l-0.79,0.01c-0.34,0.01-0.6,0.05-0.76,0.11c-0.17,0.07-0.3,0.16-0.39,0.29
			c-0.09,0.13-0.13,0.31-0.13,0.52c0,0.25,0.06,0.44,0.19,0.57c0.13,0.13,0.31,0.2,0.53,0.2c0.26,0,0.49-0.06,0.69-0.18
			s0.36-0.29,0.48-0.51c0.12-0.22,0.18-0.44,0.18-0.67V89.73z"/>
		<path d="M408.64,89.34v2.69h-0.94v-3.72c0-0.27,0-0.49-0.01-0.66c0-0.17-0.01-0.29-0.02-0.38h0.89c0.01,0.06,0.01,0.14,0.02,0.24
			c0.01,0.11,0.01,0.21,0.02,0.33c0,0.11,0.01,0.21,0.01,0.29h0.01c0.16-0.34,0.36-0.59,0.58-0.73c0.22-0.14,0.49-0.21,0.81-0.21
			c0.36,0,0.65,0.08,0.86,0.23c0.21,0.15,0.36,0.39,0.44,0.72h0.02c0.16-0.34,0.36-0.58,0.59-0.72c0.23-0.15,0.51-0.22,0.85-0.22
			c0.47,0,0.83,0.14,1.05,0.42c0.23,0.28,0.34,0.71,0.34,1.31v3.12h-0.93v-2.9c0-0.45-0.06-0.76-0.18-0.95
			c-0.12-0.19-0.33-0.28-0.63-0.28c-0.31,0-0.56,0.12-0.74,0.37c-0.18,0.25-0.27,0.6-0.27,1.05v2.71h-0.93v-2.9
			c0-0.45-0.06-0.76-0.19-0.95c-0.12-0.19-0.34-0.28-0.64-0.28c-0.31,0-0.55,0.13-0.74,0.38C408.73,88.54,408.64,88.9,408.64,89.34z
			"/>
		<path d="M416.1,89.84c0,0.52,0.1,0.92,0.31,1.19c0.21,0.28,0.51,0.41,0.9,0.41c0.3,0,0.54-0.06,0.73-0.19
			c0.18-0.12,0.31-0.29,0.38-0.49l0.85,0.16c-0.3,0.79-0.96,1.18-1.97,1.18c-0.71,0-1.25-0.21-1.62-0.63
			c-0.37-0.42-0.56-1.04-0.56-1.86c0-0.78,0.19-1.39,0.56-1.81c0.38-0.42,0.91-0.63,1.6-0.63c0.7,0,1.22,0.22,1.57,0.65
			c0.35,0.43,0.53,1.07,0.53,1.93v0.08H416.1z M418.44,89.18c-0.04-0.46-0.15-0.8-0.34-1.02c-0.2-0.22-0.47-0.33-0.82-0.33
			c-0.35,0-0.63,0.12-0.83,0.36c-0.2,0.24-0.31,0.57-0.32,0.99H418.44z"/>
		<path d="M421.58,87.34v1.02h-0.99v-1.02H421.58z M421.58,91.01v1.02h-0.99v-1.02H421.58z"/>
		<path d="M428.43,91.32c0.84,0,1.46-0.42,1.85-1.25l0.83,0.37c-0.25,0.55-0.61,0.97-1.07,1.25c-0.46,0.28-1.01,0.42-1.64,0.42
			c-0.64,0-1.19-0.13-1.64-0.39c-0.46-0.26-0.8-0.63-1.05-1.11c-0.24-0.48-0.37-1.05-0.37-1.72c0-0.66,0.12-1.23,0.36-1.71
			c0.24-0.47,0.58-0.83,1.04-1.08c0.45-0.25,1-0.37,1.64-0.37c0.68,0,1.25,0.13,1.69,0.4c0.45,0.27,0.77,0.67,0.97,1.19l-0.91,0.28
			c-0.13-0.34-0.34-0.61-0.65-0.8c-0.31-0.19-0.67-0.28-1.09-0.28c-0.65,0-1.16,0.21-1.51,0.62c-0.36,0.42-0.53,1-0.53,1.74
			c0,0.5,0.08,0.92,0.25,1.28c0.17,0.36,0.4,0.64,0.71,0.84S428,91.32,428.43,91.32z"/>
		<path d="M432.96,88.13c0.17-0.33,0.38-0.57,0.62-0.72c0.24-0.15,0.54-0.23,0.91-0.23c0.51,0,0.89,0.14,1.15,0.42
			c0.25,0.28,0.38,0.72,0.38,1.3v3.12h-0.94v-2.9c0-0.43-0.07-0.74-0.22-0.94s-0.38-0.29-0.72-0.29c-0.35,0-0.62,0.13-0.83,0.39
			c-0.21,0.26-0.32,0.6-0.32,1.02v2.72h-0.94v-6.52h0.94v1.72c0,0.11,0,0.23-0.01,0.35c0,0.12-0.01,0.23-0.01,0.33
			c0,0.1-0.01,0.17-0.02,0.22H432.96z"/>
		<path d="M438.15,89.6v2.43h-0.94v-3.64c0-0.2,0-0.39-0.01-0.57c0-0.18-0.01-0.36-0.02-0.54h0.89c0.01,0.1,0.01,0.2,0.02,0.3
			s0.01,0.2,0.01,0.29c0,0.09,0.01,0.17,0.01,0.24c0,0.07,0,0.12,0,0.15h0.02c0.1-0.3,0.2-0.53,0.3-0.68
			c0.1-0.14,0.21-0.25,0.35-0.3c0.13-0.06,0.29-0.09,0.49-0.09c0.12,0,0.24,0.02,0.34,0.05v0.83c-0.13-0.04-0.29-0.05-0.46-0.05
			c-0.32,0-0.57,0.14-0.74,0.41C438.24,88.69,438.15,89.08,438.15,89.6z"/>
		<path d="M441.3,85.51v0.81h-0.94v-0.81H441.3z M441.3,87.27v4.75h-0.94v-4.75H441.3z"/>
		<path d="M446.25,90.69c0,0.45-0.18,0.81-0.53,1.05s-0.84,0.37-1.47,0.37c-0.61,0-1.08-0.1-1.41-0.3c-0.33-0.2-0.55-0.51-0.65-0.93
			l0.83-0.14c0.07,0.24,0.2,0.42,0.39,0.53c0.19,0.11,0.47,0.17,0.85,0.17c0.38,0,0.66-0.06,0.84-0.17
			c0.18-0.11,0.26-0.28,0.26-0.51c0-0.18-0.06-0.32-0.19-0.42c-0.13-0.11-0.34-0.2-0.63-0.27c-0.31-0.08-0.55-0.14-0.75-0.19
			c-0.19-0.05-0.35-0.1-0.47-0.14c-0.12-0.04-0.21-0.08-0.28-0.12c-0.21-0.12-0.37-0.26-0.49-0.43s-0.17-0.38-0.17-0.63
			c0-0.44,0.16-0.78,0.48-1.01c0.32-0.24,0.79-0.35,1.4-0.35c0.54,0,0.97,0.1,1.29,0.29c0.32,0.2,0.52,0.5,0.6,0.91l-0.84,0.1
			c-0.04-0.21-0.15-0.36-0.32-0.47c-0.17-0.11-0.42-0.16-0.73-0.16c-0.34,0-0.59,0.05-0.75,0.15c-0.16,0.1-0.24,0.25-0.24,0.45
			c0,0.15,0.05,0.28,0.15,0.37c0.1,0.1,0.29,0.18,0.56,0.24c0.37,0.08,0.71,0.18,1.03,0.27c0.32,0.1,0.55,0.2,0.71,0.3
			c0.17,0.12,0.3,0.26,0.39,0.42C446.2,90.24,446.25,90.45,446.25,90.69z"/>
		<path d="M448.35,91.78c0,0.33-0.03,0.6-0.09,0.83c-0.06,0.23-0.16,0.44-0.29,0.65h-0.63c0.15-0.2,0.27-0.41,0.35-0.62
			s0.12-0.42,0.12-0.61h-0.45v-1.09h1V91.78z"/>
		<path d="M453.37,92.12c-0.47,0-0.83-0.13-1.08-0.38s-0.37-0.6-0.37-1.04c0-0.49,0.16-0.87,0.48-1.13s0.83-0.4,1.51-0.42l1.05-0.02
			v-0.25c0-0.36-0.07-0.62-0.22-0.79c-0.15-0.16-0.38-0.24-0.69-0.24c-0.31,0-0.54,0.06-0.68,0.17c-0.14,0.12-0.23,0.3-0.26,0.56
			l-0.98-0.07c0.14-0.88,0.8-1.33,1.96-1.33c0.6,0,1.05,0.14,1.36,0.42c0.31,0.28,0.46,0.69,0.46,1.21v1.94
			c0,0.25,0.03,0.43,0.09,0.54c0.06,0.11,0.17,0.17,0.33,0.17c0.09,0,0.18-0.01,0.26-0.03v0.55c-0.12,0.03-0.23,0.05-0.33,0.07
			c-0.1,0.01-0.22,0.02-0.34,0.02c-0.3,0-0.52-0.08-0.66-0.23c-0.14-0.15-0.22-0.39-0.24-0.71h-0.03c-0.19,0.35-0.42,0.59-0.69,0.75
			C454.07,92.04,453.75,92.12,453.37,92.12z M454.97,89.73l-0.79,0.01c-0.34,0.01-0.6,0.05-0.76,0.11c-0.17,0.07-0.3,0.16-0.39,0.29
			c-0.09,0.13-0.13,0.31-0.13,0.52c0,0.25,0.06,0.44,0.19,0.57c0.13,0.13,0.31,0.2,0.53,0.2c0.26,0,0.49-0.06,0.69-0.18
			s0.36-0.29,0.48-0.51c0.12-0.22,0.18-0.44,0.18-0.67V89.73z"/>
		<path d="M459.07,93.91c-0.54,0-0.97-0.1-1.29-0.31c-0.32-0.21-0.53-0.51-0.62-0.89l0.94-0.12c0.05,0.21,0.16,0.37,0.33,0.49
			c0.17,0.12,0.39,0.17,0.66,0.17c0.38,0,0.66-0.11,0.84-0.34c0.19-0.22,0.28-0.56,0.28-1l0-0.75h-0.01
			c-0.14,0.3-0.35,0.53-0.6,0.68c-0.26,0.15-0.57,0.23-0.92,0.23c-0.58,0-1-0.2-1.29-0.59c-0.28-0.4-0.43-1-0.43-1.81
			c0-0.82,0.15-1.43,0.45-1.84s0.75-0.61,1.35-0.61c0.34,0,0.63,0.07,0.88,0.22c0.25,0.15,0.43,0.37,0.57,0.65h0.01
			c0-0.06,0-0.15,0.01-0.27c0.01-0.12,0.01-0.23,0.02-0.34c0.01-0.11,0.02-0.17,0.02-0.19h0.89c-0.02,0.21-0.03,0.55-0.03,1.02v3.59
			c0,0.67-0.17,1.18-0.52,1.51C460.28,93.74,459.76,93.91,459.07,93.91z M460.22,89.63c0-0.55-0.11-0.98-0.32-1.29
			c-0.22-0.31-0.5-0.47-0.85-0.47c-0.38,0-0.66,0.14-0.83,0.43s-0.27,0.73-0.27,1.34c0,0.61,0.08,1.05,0.25,1.32
			c0.17,0.28,0.45,0.41,0.84,0.41c0.36,0,0.65-0.16,0.86-0.46C460.11,90.6,460.22,90.17,460.22,89.63z"/>
		<path d="M463.12,89.84c0,0.52,0.1,0.92,0.31,1.19c0.21,0.28,0.51,0.41,0.9,0.41c0.3,0,0.54-0.06,0.73-0.19
			c0.18-0.12,0.31-0.29,0.38-0.49l0.85,0.16c-0.3,0.79-0.96,1.18-1.97,1.18c-0.71,0-1.25-0.21-1.62-0.63
			c-0.37-0.42-0.56-1.04-0.56-1.86c0-0.78,0.19-1.39,0.56-1.81c0.38-0.42,0.91-0.63,1.6-0.63c0.7,0,1.22,0.22,1.57,0.65
			c0.35,0.43,0.53,1.07,0.53,1.93v0.08H463.12z M465.45,89.18c-0.04-0.46-0.15-0.8-0.34-1.02c-0.2-0.22-0.47-0.33-0.82-0.33
			c-0.35,0-0.63,0.12-0.83,0.36c-0.2,0.24-0.31,0.57-0.32,0.99H465.45z"/>
		<path d="M468.59,87.34v1.02h-0.99v-1.02H468.59z M468.59,91.01v1.02h-0.99v-1.02H468.59z"/>
		<path d="M476.52,91.24v0.79h-4.18v-0.66c0.14-0.31,0.3-0.59,0.5-0.84c0.2-0.25,0.41-0.49,0.65-0.7c0.24-0.22,0.49-0.43,0.74-0.63
			c0.15-0.12,0.28-0.23,0.4-0.34c0.12-0.11,0.22-0.21,0.32-0.31c0.15-0.16,0.28-0.33,0.37-0.5c0.09-0.17,0.14-0.36,0.14-0.56
			c0-0.32-0.09-0.56-0.27-0.73c-0.18-0.17-0.43-0.25-0.76-0.25c-0.31,0-0.57,0.08-0.76,0.25c-0.19,0.17-0.31,0.41-0.34,0.73
			l-0.95-0.08c0.06-0.52,0.27-0.93,0.63-1.23s0.83-0.44,1.42-0.44c0.64,0,1.13,0.15,1.47,0.45c0.34,0.3,0.51,0.72,0.51,1.26
			c0,0.26-0.06,0.52-0.17,0.76c-0.12,0.24-0.28,0.47-0.49,0.7c-0.13,0.14-0.3,0.29-0.5,0.47c-0.21,0.18-0.45,0.38-0.71,0.59
			c-0.29,0.24-0.53,0.46-0.72,0.66c-0.19,0.2-0.33,0.41-0.41,0.6H476.52z"/>
		<path d="M481.55,88.82c0,1.08-0.2,1.89-0.59,2.46c-0.39,0.56-0.95,0.84-1.67,0.84c-0.5,0-0.9-0.11-1.2-0.32
			c-0.3-0.21-0.51-0.56-0.64-1.02l0.89-0.14c0.14,0.49,0.46,0.73,0.96,0.73c0.42,0,0.74-0.2,0.97-0.59s0.35-0.96,0.36-1.7
			c-0.11,0.25-0.31,0.45-0.58,0.6c-0.27,0.15-0.57,0.22-0.9,0.22c-0.37,0-0.69-0.09-0.96-0.26c-0.27-0.17-0.48-0.41-0.63-0.72
			c-0.15-0.31-0.22-0.68-0.22-1.1c0-0.65,0.18-1.16,0.55-1.53c0.37-0.37,0.88-0.55,1.54-0.55c0.71,0,1.24,0.26,1.6,0.77
			C481.37,87.02,481.55,87.79,481.55,88.82z M480.54,88.02c0-0.46-0.1-0.83-0.31-1.11c-0.21-0.28-0.49-0.42-0.83-0.42
			c-0.35,0-0.62,0.12-0.82,0.36c-0.2,0.24-0.3,0.56-0.3,0.97c0,0.42,0.1,0.75,0.3,0.99c0.2,0.24,0.47,0.37,0.81,0.37
			c0.21,0,0.4-0.05,0.58-0.15c0.17-0.1,0.31-0.24,0.42-0.41C480.48,88.45,480.54,88.25,480.54,88.02z"/>
		<path d="M483.7,91.78c0,0.33-0.03,0.6-0.09,0.83c-0.06,0.23-0.16,0.44-0.29,0.65h-0.63c0.15-0.2,0.27-0.41,0.35-0.62
			s0.12-0.42,0.12-0.61h-0.45v-1.09h1V91.78z"/>
		<path d="M488.49,88.13c0.17-0.33,0.38-0.57,0.62-0.72c0.24-0.15,0.54-0.23,0.91-0.23c0.51,0,0.89,0.14,1.15,0.42
			c0.25,0.28,0.38,0.72,0.38,1.3v3.12h-0.94v-2.9c0-0.43-0.07-0.74-0.22-0.94s-0.38-0.29-0.72-0.29c-0.35,0-0.62,0.13-0.83,0.39
			c-0.21,0.26-0.32,0.6-0.32,1.02v2.72h-0.94v-6.52h0.94v1.72c0,0.11,0,0.23-0.01,0.35c0,0.12-0.01,0.23-0.01,0.33
			c0,0.1-0.01,0.17-0.02,0.22H488.49z"/>
		<path d="M496.91,89.65c0,0.81-0.19,1.43-0.58,1.84c-0.39,0.42-0.94,0.63-1.65,0.63c-0.71,0-1.26-0.21-1.63-0.64
			c-0.38-0.43-0.56-1.04-0.56-1.83c0-0.8,0.19-1.41,0.57-1.83c0.38-0.42,0.93-0.63,1.66-0.63c0.74,0,1.29,0.2,1.66,0.61
			C496.73,88.2,496.91,88.82,496.91,89.65z M495.93,89.65c0-0.63-0.1-1.08-0.29-1.36c-0.19-0.28-0.5-0.42-0.92-0.42
			c-0.43,0-0.75,0.15-0.95,0.44c-0.2,0.29-0.3,0.74-0.3,1.35c0,0.59,0.1,1.04,0.3,1.34c0.2,0.3,0.5,0.45,0.9,0.45
			c0.45,0,0.77-0.15,0.96-0.44C495.83,90.71,495.93,90.26,495.93,89.65z"/>
		<path d="M502.08,89.63c0,0.81-0.15,1.43-0.45,1.85s-0.74,0.63-1.33,0.63c-0.35,0-0.65-0.07-0.89-0.2
			c-0.24-0.14-0.43-0.35-0.58-0.63h-0.01c0,0.06,0,0.15-0.01,0.26c-0.01,0.11-0.01,0.21-0.02,0.31c-0.01,0.1-0.01,0.16-0.02,0.18
			h-0.91c0.01-0.1,0.02-0.23,0.02-0.4c0.01-0.17,0.01-0.37,0.01-0.61v-5.51h0.94v1.85c0,0.11,0,0.22,0,0.34
			c0,0.12-0.01,0.24-0.01,0.37h0.02c0.14-0.3,0.34-0.53,0.58-0.67c0.25-0.14,0.55-0.21,0.91-0.21c0.59,0,1.03,0.21,1.32,0.62
			C501.93,88.22,502.08,88.82,502.08,89.63z M501.09,89.65c0-0.62-0.09-1.07-0.26-1.35s-0.44-0.42-0.81-0.42
			c-0.41,0-0.71,0.15-0.91,0.44c-0.19,0.3-0.29,0.75-0.29,1.37c0,0.58,0.09,1.02,0.29,1.31c0.19,0.29,0.49,0.44,0.9,0.44
			c0.38,0,0.65-0.14,0.82-0.43C501,90.73,501.09,90.27,501.09,89.65z"/>
		<path d="M507.24,89.63c0,0.81-0.15,1.43-0.45,1.85s-0.74,0.63-1.33,0.63c-0.35,0-0.65-0.07-0.89-0.2
			c-0.24-0.14-0.43-0.35-0.58-0.63h-0.01c0,0.06,0,0.15-0.01,0.26c-0.01,0.11-0.01,0.21-0.02,0.31c-0.01,0.1-0.01,0.16-0.02,0.18
			h-0.91c0.01-0.1,0.02-0.23,0.02-0.4c0.01-0.17,0.01-0.37,0.01-0.61v-5.51H504v1.85c0,0.11,0,0.22,0,0.34
			c0,0.12-0.01,0.24-0.01,0.37H504c0.14-0.3,0.34-0.53,0.58-0.67c0.25-0.14,0.55-0.21,0.91-0.21c0.59,0,1.03,0.21,1.32,0.62
			C507.1,88.22,507.24,88.82,507.24,89.63z M506.26,89.65c0-0.62-0.09-1.07-0.26-1.35s-0.44-0.42-0.81-0.42
			c-0.41,0-0.71,0.15-0.91,0.44c-0.19,0.3-0.29,0.75-0.29,1.37c0,0.58,0.09,1.02,0.29,1.31c0.19,0.29,0.49,0.44,0.9,0.44
			c0.38,0,0.65-0.14,0.82-0.43C506.17,90.73,506.26,90.27,506.26,89.65z"/>
		<path d="M508.59,93.9c-0.24,0-0.45-0.02-0.62-0.05v-0.69c0.13,0.02,0.26,0.03,0.39,0.03c0.26,0,0.48-0.09,0.67-0.26
			s0.36-0.48,0.51-0.93l-1.88-4.72h1l0.91,2.5c0.07,0.18,0.14,0.39,0.22,0.63c0.08,0.24,0.15,0.47,0.21,0.71
			c0.07-0.23,0.14-0.45,0.21-0.66c0.07-0.21,0.14-0.43,0.21-0.64l0.84-2.52h0.99l-1.85,4.84c-0.09,0.23-0.18,0.44-0.27,0.62
			c-0.09,0.18-0.18,0.33-0.26,0.45c-0.17,0.25-0.36,0.43-0.57,0.54S508.86,93.9,508.59,93.9z"/>
		<path d="M514.11,87.34v1.02h-0.99v-1.02H514.11z M514.11,91.01v1.02h-0.99v-1.02H514.11z"/>
		<path d="M519.13,89.23v2.8h-0.99v-6.19h0.99v2.57h3.13v-2.57h0.99v6.19h-0.99v-2.8H519.13z"/>
		<path d="M525.5,85.51v0.81h-0.94v-0.81H525.5z M525.5,87.27v4.75h-0.94v-4.75H525.5z"/>
		<path d="M527.67,90.31v1.72h-0.94v-6.52h0.94v3.96l1.96-2.19h1.06l-1.84,1.98l1.95,2.77h-1.07l-1.49-2.17L527.67,90.31z"/>
		<path d="M532.33,85.51v0.81h-0.94v-0.81H532.33z M532.33,87.27v4.75h-0.94v-4.75H532.33z"/>
		<path d="M534.52,89.34v2.69h-0.94v-3.72c0-0.27,0-0.49-0.01-0.66c0-0.17-0.01-0.29-0.02-0.38h0.89c0.01,0.05,0.01,0.12,0.02,0.22
			c0.01,0.1,0.01,0.21,0.02,0.32c0,0.11,0.01,0.22,0.01,0.31h0.01c0.18-0.34,0.39-0.58,0.63-0.73c0.24-0.15,0.54-0.22,0.89-0.22
			c0.52,0,0.9,0.14,1.15,0.42c0.25,0.28,0.38,0.71,0.38,1.3v3.12h-0.94v-2.9c0-0.44-0.07-0.76-0.22-0.95
			c-0.14-0.19-0.38-0.28-0.72-0.28c-0.35,0-0.63,0.13-0.84,0.39C534.62,88.55,534.52,88.9,534.52,89.34z"/>
		<path d="M540.6,93.91c-0.54,0-0.97-0.1-1.29-0.31c-0.32-0.21-0.53-0.51-0.62-0.89l0.94-0.12c0.05,0.21,0.16,0.37,0.33,0.49
			c0.17,0.12,0.39,0.17,0.66,0.17c0.38,0,0.66-0.11,0.84-0.34c0.19-0.22,0.28-0.56,0.28-1l0-0.75h-0.01
			c-0.14,0.3-0.35,0.53-0.6,0.68c-0.26,0.15-0.57,0.23-0.92,0.23c-0.58,0-1-0.2-1.29-0.59c-0.28-0.4-0.43-1-0.43-1.81
			c0-0.82,0.15-1.43,0.45-1.84s0.75-0.61,1.35-0.61c0.34,0,0.63,0.07,0.88,0.22c0.25,0.15,0.43,0.37,0.57,0.65h0.01
			c0-0.06,0-0.15,0.01-0.27c0.01-0.12,0.01-0.23,0.02-0.34c0.01-0.11,0.02-0.17,0.02-0.19h0.89c-0.02,0.21-0.03,0.55-0.03,1.02v3.59
			c0,0.67-0.17,1.18-0.52,1.51C541.8,93.74,541.29,93.91,540.6,93.91z M541.74,89.63c0-0.55-0.11-0.98-0.32-1.29
			c-0.22-0.31-0.5-0.47-0.85-0.47c-0.38,0-0.66,0.14-0.83,0.43s-0.27,0.73-0.27,1.34c0,0.61,0.08,1.05,0.25,1.32
			c0.17,0.28,0.45,0.41,0.84,0.41c0.36,0,0.65-0.16,0.86-0.46C541.64,90.6,541.74,90.17,541.74,89.63z"/>
		<path d="M543.45,93.24h0.26c0.27,0,0.46-0.08,0.58-0.24c0.12-0.16,0.17-0.39,0.17-0.7v-1.49c0-0.28,0.08-0.52,0.23-0.72
			c0.16-0.2,0.37-0.33,0.63-0.39v-0.01c-0.25-0.06-0.46-0.19-0.62-0.38c-0.16-0.2-0.24-0.44-0.24-0.72V87.1
			c0-0.31-0.06-0.55-0.17-0.7c-0.12-0.16-0.31-0.23-0.58-0.23h-0.26v-0.65h0.68c0.39,0,0.69,0.11,0.89,0.33
			c0.21,0.22,0.31,0.54,0.31,0.96v1.54c0,0.33,0.08,0.59,0.24,0.76c0.16,0.17,0.4,0.26,0.74,0.27v0.66
			c-0.34,0.01-0.58,0.1-0.74,0.27c-0.16,0.17-0.24,0.42-0.24,0.76v1.54c0,0.41-0.11,0.73-0.32,0.95c-0.21,0.23-0.51,0.34-0.88,0.34
			h-0.68V93.24z"/>
	</g>
	<g>
		<path d="M373.55,121.84c-0.38,0-0.68-0.11-0.89-0.34c-0.21-0.23-0.32-0.55-0.32-0.96V119c0-0.34-0.08-0.59-0.23-0.76
			c-0.16-0.17-0.4-0.26-0.73-0.27v-0.66c0.33-0.01,0.57-0.1,0.73-0.27c0.16-0.17,0.23-0.42,0.23-0.76v-1.54
			c0-0.42,0.1-0.74,0.31-0.96c0.21-0.22,0.51-0.33,0.9-0.33h0.68v0.65h-0.27c-0.27,0-0.46,0.08-0.57,0.23s-0.17,0.39-0.17,0.7v1.49
			c0,0.28-0.08,0.51-0.24,0.72c-0.16,0.2-0.37,0.33-0.63,0.39v0.01c0.27,0.06,0.48,0.19,0.64,0.39s0.24,0.44,0.24,0.72v1.49
			c0,0.31,0.06,0.54,0.17,0.7c0.11,0.16,0.3,0.24,0.57,0.24h0.27v0.66H373.55z"/>
		<path d="M375.95,113.45v0.81h-0.94v-0.81H375.95z M375.95,115.22v4.75h-0.94v-4.75H375.95z"/>
		<path d="M380.25,119.97c-0.01-0.03-0.01-0.09-0.02-0.18c-0.01-0.09-0.02-0.19-0.02-0.3s-0.01-0.2-0.01-0.29h-0.02
			c-0.14,0.3-0.33,0.52-0.58,0.65c-0.25,0.14-0.55,0.2-0.91,0.2c-0.58,0-1.02-0.21-1.31-0.62c-0.29-0.41-0.44-1.02-0.44-1.83
			c0-0.82,0.15-1.44,0.45-1.86c0.3-0.42,0.74-0.63,1.32-0.63c0.35,0,0.65,0.07,0.89,0.2c0.24,0.13,0.43,0.34,0.57,0.63h0.01
			l-0.01-0.62v-1.89h0.94v5.52c0,0.21,0,0.4,0.01,0.57c0,0.17,0.01,0.31,0.02,0.43H380.25z M377.92,117.59
			c0,0.62,0.09,1.07,0.26,1.35c0.17,0.28,0.44,0.42,0.81,0.42c0.41,0,0.71-0.15,0.9-0.45s0.29-0.76,0.29-1.37
			c0-0.59-0.1-1.03-0.29-1.32c-0.19-0.29-0.49-0.43-0.89-0.43c-0.38,0-0.65,0.14-0.82,0.43
			C378.01,116.51,377.92,116.97,377.92,117.59z"/>
		<path d="M383.56,115.29v1.02h-0.99v-1.02H383.56z M383.56,118.95v1.02h-0.99v-1.02H383.56z"/>
		<path d="M391.53,118.26c0,0.57-0.18,1.02-0.55,1.33c-0.37,0.31-0.9,0.47-1.58,0.47c-0.64,0-1.15-0.14-1.53-0.43
			s-0.6-0.72-0.67-1.28l0.96-0.09c0.1,0.69,0.51,1.03,1.24,1.03c0.36,0,0.65-0.09,0.86-0.27c0.21-0.18,0.31-0.45,0.31-0.81
			c0-0.32-0.12-0.56-0.36-0.74s-0.59-0.26-1.05-0.26h-0.44v-0.79h0.42c0.41,0,0.72-0.09,0.94-0.26c0.22-0.17,0.33-0.42,0.33-0.73
			c0-0.3-0.09-0.55-0.27-0.72c-0.18-0.18-0.44-0.27-0.78-0.27c-0.32,0-0.58,0.08-0.77,0.25c-0.2,0.17-0.31,0.4-0.34,0.7l-0.94-0.07
			c0.06-0.52,0.27-0.92,0.64-1.21c0.37-0.29,0.84-0.43,1.43-0.43c0.63,0,1.12,0.15,1.47,0.43c0.35,0.29,0.53,0.69,0.53,1.21
			c0,0.39-0.11,0.71-0.33,0.96c-0.22,0.25-0.55,0.41-0.97,0.5v0.02c0.47,0.05,0.83,0.21,1.09,0.47
			C391.41,117.53,391.53,117.86,391.53,118.26z"/>
		<path d="M393.67,119.72c0,0.33-0.03,0.6-0.09,0.83c-0.06,0.23-0.16,0.44-0.29,0.65h-0.63c0.15-0.2,0.27-0.41,0.35-0.62
			s0.12-0.42,0.12-0.61h-0.45v-1.09h1V119.72z"/>
		<path d="M398.47,117.29v2.69h-0.94v-3.72c0-0.27,0-0.49-0.01-0.66c0-0.17-0.01-0.29-0.02-0.38h0.89c0.01,0.05,0.01,0.12,0.02,0.22
			c0.01,0.1,0.01,0.21,0.02,0.32c0,0.11,0.01,0.22,0.01,0.31h0.01c0.18-0.34,0.39-0.58,0.63-0.73c0.24-0.15,0.54-0.22,0.89-0.22
			c0.52,0,0.9,0.14,1.15,0.42c0.25,0.28,0.38,0.71,0.38,1.3v3.12h-0.94v-2.9c0-0.44-0.07-0.76-0.22-0.95
			c-0.14-0.19-0.38-0.28-0.72-0.28c-0.35,0-0.63,0.13-0.84,0.39C398.58,116.49,398.47,116.84,398.47,117.29z"/>
		<path d="M403.87,120.06c-0.47,0-0.83-0.13-1.08-0.38s-0.37-0.6-0.37-1.04c0-0.49,0.16-0.87,0.48-1.13s0.83-0.4,1.51-0.42
			l1.05-0.02v-0.25c0-0.36-0.07-0.62-0.22-0.79c-0.15-0.16-0.38-0.24-0.69-0.24c-0.31,0-0.54,0.06-0.68,0.17
			c-0.14,0.12-0.23,0.3-0.26,0.56l-0.98-0.07c0.14-0.88,0.8-1.33,1.96-1.33c0.6,0,1.05,0.14,1.36,0.42
			c0.31,0.28,0.46,0.69,0.46,1.21v1.94c0,0.25,0.03,0.43,0.09,0.54c0.06,0.11,0.17,0.17,0.33,0.17c0.09,0,0.18-0.01,0.26-0.03v0.55
			c-0.12,0.03-0.23,0.05-0.33,0.07c-0.1,0.01-0.22,0.02-0.34,0.02c-0.3,0-0.52-0.08-0.66-0.23c-0.14-0.15-0.22-0.39-0.24-0.71h-0.03
			c-0.19,0.35-0.42,0.59-0.69,0.75C404.56,119.98,404.24,120.06,403.87,120.06z M405.47,117.67l-0.79,0.01
			c-0.34,0.01-0.6,0.05-0.76,0.11c-0.17,0.07-0.3,0.16-0.39,0.29c-0.09,0.13-0.13,0.31-0.13,0.52c0,0.25,0.06,0.44,0.19,0.57
			c0.13,0.13,0.31,0.2,0.53,0.2c0.26,0,0.49-0.06,0.69-0.18s0.36-0.29,0.48-0.51c0.12-0.22,0.18-0.44,0.18-0.67V117.67z"/>
		<path d="M408.64,117.29v2.69h-0.94v-3.72c0-0.27,0-0.49-0.01-0.66c0-0.17-0.01-0.29-0.02-0.38h0.89c0.01,0.06,0.01,0.14,0.02,0.24
			c0.01,0.11,0.01,0.21,0.02,0.33c0,0.11,0.01,0.21,0.01,0.29h0.01c0.16-0.34,0.36-0.59,0.58-0.73c0.22-0.14,0.49-0.21,0.81-0.21
			c0.36,0,0.65,0.08,0.86,0.23c0.21,0.15,0.36,0.39,0.44,0.72h0.02c0.16-0.34,0.36-0.58,0.59-0.72c0.23-0.15,0.51-0.22,0.85-0.22
			c0.47,0,0.83,0.14,1.05,0.42c0.23,0.28,0.34,0.71,0.34,1.31v3.12h-0.93v-2.9c0-0.45-0.06-0.76-0.18-0.95
			c-0.12-0.19-0.33-0.28-0.63-0.28c-0.31,0-0.56,0.12-0.74,0.37c-0.18,0.25-0.27,0.6-0.27,1.05v2.71h-0.93v-2.9
			c0-0.45-0.06-0.76-0.19-0.95c-0.12-0.19-0.34-0.28-0.64-0.28c-0.31,0-0.55,0.13-0.74,0.38
			C408.73,116.49,408.64,116.84,408.64,117.29z"/>
		<path d="M416.1,117.78c0,0.52,0.1,0.92,0.31,1.19c0.21,0.28,0.51,0.41,0.9,0.41c0.3,0,0.54-0.06,0.73-0.19
			c0.18-0.12,0.31-0.29,0.38-0.49l0.85,0.16c-0.3,0.79-0.96,1.18-1.97,1.18c-0.71,0-1.25-0.21-1.62-0.63
			c-0.37-0.42-0.56-1.04-0.56-1.86c0-0.78,0.19-1.39,0.56-1.81c0.38-0.42,0.91-0.63,1.6-0.63c0.7,0,1.22,0.22,1.57,0.65
			c0.35,0.43,0.53,1.07,0.53,1.93v0.08H416.1z M418.44,117.12c-0.04-0.46-0.15-0.8-0.34-1.02c-0.2-0.22-0.47-0.33-0.82-0.33
			c-0.35,0-0.63,0.12-0.83,0.36c-0.2,0.24-0.31,0.57-0.32,0.99H418.44z"/>
		<path d="M421.58,115.29v1.02h-0.99v-1.02H421.58z M421.58,118.95v1.02h-0.99v-1.02H421.58z"/>
		<path d="M426.6,117.64v2.33h-0.99v-6.19h0.99v3.01l2.92-3.01h1.16l-2.64,2.67l2.94,3.52h-1.2l-2.39-2.94L426.6,117.64z"/>
		<path d="M432.45,117.78c0,0.52,0.1,0.92,0.31,1.19c0.21,0.28,0.51,0.41,0.9,0.41c0.3,0,0.54-0.06,0.73-0.19
			c0.18-0.12,0.31-0.29,0.38-0.49l0.85,0.16c-0.3,0.79-0.96,1.18-1.97,1.18c-0.71,0-1.25-0.21-1.62-0.63
			c-0.37-0.42-0.56-1.04-0.56-1.86c0-0.78,0.19-1.39,0.56-1.81c0.38-0.42,0.91-0.63,1.6-0.63c0.7,0,1.22,0.22,1.57,0.65
			c0.35,0.43,0.53,1.07,0.53,1.93v0.08H432.45z M434.78,117.12c-0.04-0.46-0.15-0.8-0.34-1.02c-0.2-0.22-0.47-0.33-0.82-0.33
			c-0.35,0-0.63,0.12-0.83,0.36c-0.2,0.24-0.31,0.57-0.32,0.99H434.78z"/>
		<path d="M437.65,113.45v6.52h-0.94v-6.52H437.65z"/>
		<path d="M439.81,113.45v6.52h-0.94v-6.52H439.81z"/>
		<path d="M441.4,121.84c-0.24,0-0.45-0.02-0.62-0.05v-0.69c0.13,0.02,0.26,0.03,0.39,0.03c0.26,0,0.48-0.09,0.67-0.26
			s0.36-0.48,0.51-0.93l-1.88-4.72h1l0.91,2.5c0.07,0.18,0.14,0.39,0.22,0.63c0.08,0.24,0.15,0.47,0.21,0.71
			c0.07-0.23,0.14-0.45,0.21-0.66c0.07-0.21,0.14-0.43,0.21-0.64l0.84-2.52h0.99l-1.85,4.84c-0.09,0.23-0.18,0.44-0.27,0.62
			c-0.09,0.18-0.18,0.33-0.26,0.45c-0.17,0.25-0.36,0.43-0.57,0.54S441.67,121.84,441.4,121.84z"/>
		<path d="M446.19,119.72c0,0.33-0.03,0.6-0.09,0.83c-0.06,0.23-0.16,0.44-0.29,0.65h-0.63c0.15-0.2,0.27-0.41,0.35-0.62
			s0.12-0.42,0.12-0.61h-0.45v-1.09h1V119.72z"/>
		<path d="M450.97,116.07c0.17-0.33,0.38-0.57,0.62-0.72c0.24-0.15,0.54-0.23,0.91-0.23c0.51,0,0.89,0.14,1.15,0.42
			c0.25,0.28,0.38,0.72,0.38,1.3v3.12h-0.94v-2.9c0-0.43-0.07-0.74-0.22-0.94s-0.38-0.29-0.72-0.29c-0.35,0-0.62,0.13-0.83,0.39
			c-0.21,0.26-0.32,0.6-0.32,1.02v2.72h-0.94v-6.52h0.94v1.72c0,0.11,0,0.23-0.01,0.35c0,0.12-0.01,0.23-0.01,0.33
			c0,0.1-0.01,0.17-0.02,0.22H450.97z"/>
		<path d="M459.39,117.59c0,0.81-0.19,1.43-0.58,1.84c-0.39,0.42-0.94,0.63-1.65,0.63c-0.71,0-1.26-0.21-1.63-0.64
			c-0.38-0.43-0.56-1.04-0.56-1.83c0-0.8,0.19-1.41,0.57-1.83c0.38-0.42,0.93-0.63,1.66-0.63c0.74,0,1.29,0.2,1.66,0.61
			C459.21,116.15,459.39,116.76,459.39,117.59z M458.41,117.59c0-0.63-0.1-1.08-0.29-1.36c-0.19-0.28-0.5-0.42-0.92-0.42
			c-0.43,0-0.75,0.15-0.95,0.44c-0.2,0.29-0.3,0.74-0.3,1.35c0,0.59,0.1,1.04,0.3,1.34c0.2,0.3,0.5,0.45,0.9,0.45
			c0.45,0,0.77-0.15,0.96-0.44C458.31,118.65,458.41,118.2,458.41,117.59z"/>
		<path d="M464.56,117.57c0,0.81-0.15,1.43-0.45,1.85s-0.74,0.63-1.33,0.63c-0.35,0-0.65-0.07-0.89-0.2
			c-0.24-0.14-0.43-0.35-0.58-0.63h-0.01c0,0.06,0,0.15-0.01,0.26c-0.01,0.11-0.01,0.21-0.02,0.31c-0.01,0.1-0.01,0.16-0.02,0.18
			h-0.91c0.01-0.1,0.02-0.23,0.02-0.4c0.01-0.17,0.01-0.37,0.01-0.61v-5.51h0.94v1.85c0,0.11,0,0.22,0,0.34
			c0,0.12-0.01,0.24-0.01,0.37h0.02c0.14-0.3,0.34-0.53,0.58-0.67c0.25-0.14,0.55-0.21,0.91-0.21c0.59,0,1.03,0.21,1.32,0.62
			C464.41,116.16,464.56,116.77,464.56,117.57z M463.57,117.59c0-0.62-0.09-1.07-0.26-1.35s-0.44-0.42-0.81-0.42
			c-0.41,0-0.71,0.15-0.91,0.44c-0.19,0.3-0.29,0.75-0.29,1.37c0,0.58,0.09,1.02,0.29,1.31c0.19,0.29,0.49,0.44,0.9,0.44
			c0.38,0,0.65-0.14,0.82-0.43C463.49,118.67,463.57,118.21,463.57,117.59z"/>
		<path d="M469.73,117.57c0,0.81-0.15,1.43-0.45,1.85s-0.74,0.63-1.33,0.63c-0.35,0-0.65-0.07-0.89-0.2
			c-0.24-0.14-0.43-0.35-0.58-0.63h-0.01c0,0.06,0,0.15-0.01,0.26c-0.01,0.11-0.01,0.21-0.02,0.31c-0.01,0.1-0.01,0.16-0.02,0.18
			h-0.91c0.01-0.1,0.02-0.23,0.02-0.4c0.01-0.17,0.01-0.37,0.01-0.61v-5.51h0.94v1.85c0,0.11,0,0.22,0,0.34
			c0,0.12-0.01,0.24-0.01,0.37h0.02c0.14-0.3,0.34-0.53,0.58-0.67c0.25-0.14,0.55-0.21,0.91-0.21c0.59,0,1.03,0.21,1.32,0.62
			C469.58,116.16,469.73,116.77,469.73,117.57z M468.74,117.59c0-0.62-0.09-1.07-0.26-1.35s-0.44-0.42-0.81-0.42
			c-0.41,0-0.71,0.15-0.91,0.44c-0.19,0.3-0.29,0.75-0.29,1.37c0,0.58,0.09,1.02,0.29,1.31c0.19,0.29,0.49,0.44,0.9,0.44
			c0.38,0,0.65-0.14,0.82-0.43C468.66,118.67,468.74,118.21,468.74,117.59z"/>
		<path d="M471.08,121.84c-0.24,0-0.45-0.02-0.62-0.05v-0.69c0.13,0.02,0.26,0.03,0.39,0.03c0.26,0,0.48-0.09,0.67-0.26
			s0.36-0.48,0.51-0.93l-1.88-4.72h1l0.91,2.5c0.07,0.18,0.14,0.39,0.22,0.63c0.08,0.24,0.15,0.47,0.21,0.71
			c0.07-0.23,0.14-0.45,0.21-0.66c0.07-0.21,0.14-0.43,0.21-0.64l0.84-2.52h0.99l-1.85,4.84c-0.09,0.23-0.18,0.44-0.27,0.62
			c-0.09,0.18-0.18,0.33-0.26,0.45c-0.17,0.25-0.36,0.43-0.57,0.54S471.34,121.84,471.08,121.84z"/>
		<path d="M476.6,115.29v1.02h-0.99v-1.02H476.6z M476.6,118.95v1.02h-0.99v-1.02H476.6z"/>
		<path d="M481.62,117.17v2.8h-0.99v-6.19h0.99v2.57h3.13v-2.57h0.99v6.19h-0.99v-2.8H481.62z"/>
		<path d="M487.99,113.45v0.81h-0.94v-0.81H487.99z M487.99,115.22v4.75h-0.94v-4.75H487.99z"/>
		<path d="M490.15,118.25v1.72h-0.94v-6.52h0.94v3.96l1.96-2.19h1.06l-1.84,1.98l1.95,2.77h-1.07l-1.49-2.17L490.15,118.25z"/>
		<path d="M494.82,113.45v0.81h-0.94v-0.81H494.82z M494.82,115.22v4.75h-0.94v-4.75H494.82z"/>
		<path d="M497,117.29v2.69h-0.94v-3.72c0-0.27,0-0.49-0.01-0.66c0-0.17-0.01-0.29-0.02-0.38h0.89c0.01,0.05,0.01,0.12,0.02,0.22
			c0.01,0.1,0.01,0.21,0.02,0.32c0,0.11,0.01,0.22,0.01,0.31h0.01c0.18-0.34,0.39-0.58,0.63-0.73c0.24-0.15,0.54-0.22,0.89-0.22
			c0.52,0,0.9,0.14,1.15,0.42c0.25,0.28,0.38,0.71,0.38,1.3v3.12h-0.94v-2.9c0-0.44-0.07-0.76-0.22-0.95
			c-0.14-0.19-0.38-0.28-0.72-0.28c-0.35,0-0.63,0.13-0.84,0.39C497.1,116.49,497,116.84,497,117.29z"/>
		<path d="M503.08,121.85c-0.54,0-0.97-0.1-1.29-0.31c-0.32-0.21-0.53-0.51-0.62-0.89l0.94-0.12c0.05,0.21,0.16,0.37,0.33,0.49
			c0.17,0.12,0.39,0.17,0.66,0.17c0.38,0,0.66-0.11,0.84-0.34c0.19-0.22,0.28-0.56,0.28-1l0-0.75h-0.01
			c-0.14,0.3-0.35,0.53-0.6,0.68c-0.26,0.15-0.57,0.23-0.92,0.23c-0.58,0-1-0.2-1.29-0.59c-0.28-0.4-0.43-1-0.43-1.81
			c0-0.82,0.15-1.43,0.45-1.84s0.75-0.61,1.35-0.61c0.34,0,0.63,0.07,0.88,0.22c0.25,0.15,0.43,0.37,0.57,0.65h0.01
			c0-0.06,0-0.15,0.01-0.27c0.01-0.12,0.01-0.23,0.02-0.34c0.01-0.11,0.02-0.17,0.02-0.19h0.89c-0.02,0.21-0.03,0.55-0.03,1.02v3.59
			c0,0.67-0.17,1.18-0.52,1.51C504.29,121.68,503.77,121.85,503.08,121.85z M504.23,117.57c0-0.55-0.11-0.98-0.32-1.29
			c-0.22-0.31-0.5-0.47-0.85-0.47c-0.38,0-0.66,0.14-0.83,0.43s-0.27,0.73-0.27,1.34c0,0.61,0.08,1.05,0.25,1.32
			c0.17,0.28,0.45,0.41,0.84,0.41c0.36,0,0.65-0.16,0.86-0.46C504.12,118.54,504.23,118.12,504.23,117.57z"/>
		<path d="M505.93,121.18h0.26c0.27,0,0.46-0.08,0.58-0.24c0.12-0.16,0.17-0.39,0.17-0.7v-1.49c0-0.28,0.08-0.52,0.23-0.72
			c0.16-0.2,0.37-0.33,0.63-0.39v-0.01c-0.25-0.06-0.46-0.19-0.62-0.38c-0.16-0.2-0.24-0.44-0.24-0.72v-1.49
			c0-0.31-0.06-0.55-0.17-0.7c-0.12-0.16-0.31-0.23-0.58-0.23h-0.26v-0.65h0.68c0.39,0,0.69,0.11,0.89,0.33
			c0.21,0.22,0.31,0.54,0.31,0.96v1.54c0,0.33,0.08,0.59,0.24,0.76c0.16,0.17,0.4,0.26,0.74,0.27v0.66
			c-0.34,0.01-0.58,0.1-0.74,0.27c-0.16,0.17-0.24,0.42-0.24,0.76v1.54c0,0.41-0.11,0.73-0.32,0.95c-0.21,0.23-0.51,0.34-0.88,0.34
			h-0.68V121.18z"/>
	</g>
	<g>
		<g>
			<rect x="310.91" y="91.53" fill="#414042" width="21.61" height="1"/>
		</g>
		<g>
			<g>
				<polygon fill="#414042" points="331.06,97.01 339.69,92.03 331.06,87.04 				"/>
			</g>
		</g>
	</g>
</g>
</svg>
