<?xml version="1.0" encoding="utf-8"?>
<!-- Generator: Adobe Illustrator 24.1.0, SVG Export Plug-In . SVG Version: 6.00 Build 0)  -->
<svg version="1.1" id="Layer_1" xmlns="http://www.w3.org/2000/svg" xmlns:xlink="http://www.w3.org/1999/xlink" x="0px" y="0px"
	 viewBox="0 0 501.48 301.16" enable-background="new 0 0 501.48 301.16" xml:space="preserve">
<rect x="261.47" y="20.88" fill="#414042" width="223.64" height="27.34"/>
<g>
	<rect x="18.87" y="48.73" fill="#FFFFFF" width="222.64" height="234.91"/>
	<path fill="#414042" d="M241.01,49.23v233.91H19.37V49.23H241.01 M242.01,48.23H18.37v235.91h223.64V48.23L242.01,48.23z"/>
</g>
<g>
	<rect x="261.97" y="48.73" fill="#FFFFFF" width="222.64" height="234.91"/>
	<g>
		<path fill="#414042" d="M484.11,49.23v233.91H262.47V49.23H484.11 M485.11,48.23H261.47v235.91h223.64V48.23L485.11,48.23z"/>
	</g>
</g>
<rect x="45.59" y="70.12" fill="#FFFFFF" stroke="#414042" stroke-miterlimit="10" width="169.2" height="27.75"/>
<rect x="45.59" y="169.89" fill="#FFFFFF" stroke="#414042" stroke-miterlimit="10" width="169.2" height="84.18"/>
<rect x="45.59" y="118.06" fill="#FFFFFF" stroke="#414042" stroke-miterlimit="10" width="59.76" height="27.75"/>
<rect x="112.45" y="118.06" fill="#FFFFFF" stroke="#414042" stroke-miterlimit="10" width="102.34" height="27.75"/>
<g>
	<g>
		<path d="M107.89,107.3v3.54h-1.73v-8.26h1.73v3.29h3.6v-3.29h1.73v8.26h-1.73v-3.54H107.89z"/>
		<path d="M121.56,109.5v1.34h-6.73v-8.26h6.49v1.34h-4.76v2.07h4.41v1.34h-4.41v2.17H121.56z"/>
		<path d="M124.79,108.73l-0.73,2.11h-1.73l3.01-8.26h2.04l3,8.26h-1.71l-0.73-2.11H124.79z M126.36,103.85
			c-0.04,0.16-0.09,0.34-0.16,0.56s-0.12,0.37-0.15,0.46l-0.87,2.55h2.37l-0.89-2.6c-0.05-0.16-0.11-0.32-0.15-0.49
			S126.41,104.01,126.36,103.85z"/>
		<path d="M138.86,106.65c0,0.88-0.17,1.64-0.51,2.26s-0.81,1.1-1.42,1.43s-1.3,0.5-2.09,0.5h-3.34v-8.26h2.99
			c1.39,0,2.47,0.35,3.23,1.05S138.86,105.34,138.86,106.65z M137.11,106.65c0-0.89-0.23-1.56-0.69-2.03s-1.12-0.7-1.97-0.7h-1.22
			v5.58h1.46c0.5,0,0.92-0.12,1.29-0.35s0.64-0.56,0.84-0.99S137.11,107.23,137.11,106.65z"/>
		<path d="M146.89,109.5v1.34h-6.73v-8.26h6.49v1.34h-4.76v2.07h4.41v1.34h-4.41v2.17H146.89z"/>
		<path d="M149.89,107.7v3.13h-1.73v-8.26h4.12c0.98,0,1.74,0.21,2.28,0.64s0.8,1.03,0.8,1.83c0,0.58-0.16,1.08-0.49,1.5
			s-0.77,0.7-1.33,0.83l2.23,3.47h-1.95l-1.92-3.13H149.89z M153.63,105.11c0-0.39-0.13-0.69-0.38-0.89s-0.63-0.3-1.14-0.3h-2.21
			v2.44h2.26c0.48,0,0.85-0.11,1.1-0.33S153.63,105.51,153.63,105.11z"/>
	</g>
</g>
<g>
	<g>
		<g>
			<path fill="#E6E7E8" d="M328.31,37.14l-0.91,4.69h-2.59l2.41-12.38h5.72c0.94,0,1.74,0.14,2.4,0.43s1.17,0.7,1.51,1.23
				s0.52,1.16,0.52,1.88c0,0.97-0.32,1.79-0.95,2.46s-1.5,1.09-2.59,1.26l2.41,5.12h-2.87l-2.02-4.69H328.31z M332.16,35.12
				c0.85,0,1.49-0.17,1.93-0.51c0.44-0.34,0.65-0.83,0.65-1.46c0-0.54-0.19-0.96-0.56-1.25s-0.89-0.43-1.57-0.43h-3.2l-0.71,3.66
				H332.16z"/>
			<path fill="#E6E7E8" d="M340.65,37.65c-0.04,0.21-0.06,0.47-0.06,0.78c0,0.62,0.14,1.1,0.41,1.43c0.27,0.33,0.67,0.5,1.21,0.5
				c0.43,0,0.81-0.12,1.12-0.37s0.56-0.62,0.76-1.12l2.15,0.65c-0.44,0.93-0.98,1.58-1.63,1.94s-1.5,0.54-2.56,0.54
				c-1.25,0-2.22-0.34-2.93-1.02s-1.05-1.62-1.05-2.83s0.21-2.28,0.63-3.19c0.42-0.91,1.02-1.61,1.8-2.09
				c0.78-0.49,1.67-0.73,2.69-0.73c1.22,0,2.17,0.31,2.83,0.94s1,1.52,1,2.67c0,0.58-0.07,1.21-0.21,1.89H340.65z M340.94,36.01
				h3.79l0.03-0.49c0-0.63-0.15-1.08-0.43-1.37c-0.29-0.29-0.67-0.43-1.14-0.43c-0.56,0-1.04,0.19-1.42,0.58
				S341.1,35.26,340.94,36.01z"/>
			<path fill="#E6E7E8" d="M356.3,38.9c0,1.02-0.38,1.79-1.13,2.32c-0.75,0.53-1.85,0.79-3.29,0.79c-1.18,0-2.11-0.21-2.79-0.62
				s-1.14-1.06-1.38-1.93l2.21-0.32c0.12,0.44,0.35,0.76,0.68,0.95s0.81,0.29,1.46,0.29c1.3,0,1.95-0.4,1.95-1.2
				c0-0.3-0.12-0.53-0.36-0.7c-0.25-0.16-0.78-0.33-1.61-0.5c-0.7-0.16-1.28-0.35-1.73-0.59c-0.52-0.27-0.89-0.59-1.11-0.97
				c-0.23-0.38-0.34-0.82-0.34-1.34c0-0.94,0.37-1.66,1.1-2.15s1.79-0.75,3.15-0.75c1.21,0,2.11,0.21,2.7,0.62s0.96,1.05,1.1,1.91
				l-2.21,0.25c-0.1-0.4-0.29-0.7-0.58-0.88s-0.68-0.27-1.18-0.27c-0.6,0-1.05,0.09-1.35,0.26s-0.45,0.44-0.45,0.79
				c0,0.19,0.06,0.35,0.18,0.48s0.28,0.24,0.5,0.33c0.21,0.09,0.73,0.24,1.56,0.43c0.8,0.18,1.42,0.42,1.86,0.71
				c0.38,0.25,0.64,0.54,0.81,0.88S356.3,38.45,356.3,38.9z"/>
			<path fill="#E6E7E8" d="M363.34,42.01c-0.73,0-1.33-0.15-1.78-0.46s-0.78-0.73-0.97-1.28h-0.02c-0.02,0.18-0.06,0.41-0.1,0.69
				c-0.04,0.28-0.1,0.6-0.18,0.97c-0.12,0.6-0.23,1.21-0.35,1.82s-0.23,1.22-0.35,1.83h-2.46l2.14-11.06
				c0.03-0.16,0.06-0.33,0.09-0.48s0.06-0.32,0.08-0.48c0.03-0.21,0.06-0.41,0.09-0.62s0.06-0.41,0.08-0.61h2.42
				c0,0.05-0.01,0.18-0.03,0.38s-0.04,0.41-0.07,0.62s-0.06,0.38-0.1,0.49h0.04c0.42-0.59,0.87-1.01,1.36-1.27
				c0.48-0.26,1.07-0.39,1.76-0.39c0.93,0,1.66,0.28,2.18,0.83s0.78,1.31,0.78,2.28c0,1.18-0.18,2.33-0.54,3.45
				s-0.87,1.96-1.53,2.49C365.2,41.74,364.36,42.01,363.34,42.01z M363.92,33.86c-0.74,0-1.33,0.26-1.77,0.77s-0.76,1.29-0.96,2.33
				c-0.03,0.18-0.06,0.35-0.08,0.51s-0.04,0.31-0.05,0.45s-0.02,0.27-0.02,0.38c0,0.63,0.16,1.12,0.47,1.47s0.74,0.53,1.3,0.53
				c0.6,0,1.08-0.19,1.42-0.56c0.18-0.19,0.33-0.44,0.47-0.76c0.14-0.32,0.25-0.67,0.35-1.05c0.1-0.38,0.17-0.76,0.22-1.15
				s0.08-0.74,0.08-1.05c0-0.62-0.11-1.09-0.34-1.4S364.41,33.86,363.92,33.86z"/>
			<path fill="#E6E7E8" d="M378.93,35.83c0,0.6-0.06,1.18-0.18,1.72s-0.3,1.05-0.54,1.52c-0.48,0.94-1.16,1.67-2.04,2.18
				s-1.86,0.76-2.97,0.76c-1.28,0-2.29-0.34-3.03-1.03s-1.12-1.63-1.12-2.83c0-1.18,0.23-2.22,0.7-3.13s1.13-1.61,1.99-2.11
				c0.86-0.5,1.84-0.75,2.94-0.75c1.38,0,2.43,0.32,3.15,0.96S378.93,34.67,378.93,35.83z M376.35,36.02c0-1.45-0.61-2.17-1.83-2.17
				c-0.66,0-1.19,0.18-1.59,0.53c-0.26,0.23-0.49,0.56-0.68,0.96s-0.33,0.85-0.43,1.33s-0.15,0.94-0.15,1.38
				c0,0.76,0.15,1.33,0.46,1.71s0.76,0.57,1.37,0.57c0.33,0,0.62-0.04,0.88-0.13s0.49-0.21,0.68-0.37c0.38-0.33,0.68-0.83,0.9-1.5
				C376.18,37.65,376.31,36.88,376.35,36.02z"/>
			<path fill="#E6E7E8" d="M383.33,36.51l-1.04,5.33h-2.48l1.46-7.48c0.05-0.23,0.1-0.52,0.15-0.86s0.12-0.73,0.18-1.17h2.36
				c0,0.04-0.01,0.17-0.04,0.39c-0.03,0.23-0.06,0.46-0.09,0.71s-0.06,0.42-0.08,0.53h0.03c0.44-0.61,0.92-1.06,1.46-1.35
				c0.53-0.29,1.14-0.44,1.82-0.44c0.89,0,1.56,0.21,2.01,0.64s0.68,1.05,0.68,1.85c0,0.15-0.02,0.38-0.06,0.7s-0.08,0.57-0.12,0.74
				l-1.12,5.74H386l1.04-5.23c0.15-0.74,0.23-1.23,0.23-1.45c0-0.76-0.45-1.13-1.34-1.13c-0.39,0-0.77,0.11-1.14,0.33
				s-0.68,0.52-0.94,0.89S383.42,36.04,383.33,36.51z"/>
			<path fill="#E6E7E8" d="M399.29,38.9c0,1.02-0.38,1.79-1.13,2.32c-0.75,0.53-1.85,0.79-3.29,0.79c-1.18,0-2.11-0.21-2.79-0.62
				s-1.14-1.06-1.38-1.93l2.21-0.32c0.12,0.44,0.35,0.76,0.68,0.95s0.81,0.29,1.46,0.29c1.3,0,1.95-0.4,1.95-1.2
				c0-0.3-0.12-0.53-0.36-0.7c-0.25-0.16-0.78-0.33-1.61-0.5c-0.7-0.16-1.28-0.35-1.73-0.59c-0.52-0.27-0.89-0.59-1.11-0.97
				c-0.23-0.38-0.34-0.82-0.34-1.34c0-0.94,0.37-1.66,1.1-2.15s1.79-0.75,3.15-0.75c1.21,0,2.11,0.21,2.7,0.62s0.96,1.05,1.1,1.91
				l-2.21,0.25c-0.1-0.4-0.29-0.7-0.58-0.88s-0.68-0.27-1.18-0.27c-0.6,0-1.05,0.09-1.35,0.26s-0.45,0.44-0.45,0.79
				c0,0.19,0.06,0.35,0.18,0.48s0.28,0.24,0.5,0.33c0.21,0.09,0.73,0.24,1.56,0.43c0.8,0.18,1.42,0.42,1.86,0.71
				c0.38,0.25,0.64,0.54,0.81,0.88S399.29,38.45,399.29,38.9z"/>
			<path fill="#E6E7E8" d="M403.66,37.65c-0.04,0.21-0.06,0.47-0.06,0.78c0,0.62,0.14,1.1,0.41,1.43c0.27,0.33,0.67,0.5,1.21,0.5
				c0.43,0,0.81-0.12,1.12-0.37s0.56-0.62,0.76-1.12l2.15,0.65c-0.44,0.93-0.98,1.58-1.63,1.94s-1.5,0.54-2.56,0.54
				c-1.25,0-2.22-0.34-2.93-1.02s-1.05-1.62-1.05-2.83s0.21-2.28,0.63-3.19c0.42-0.91,1.02-1.61,1.8-2.09
				c0.78-0.49,1.67-0.73,2.69-0.73c1.22,0,2.17,0.31,2.83,0.94s1,1.52,1,2.67c0,0.58-0.07,1.21-0.21,1.89H403.66z M403.95,36.01
				h3.79l0.03-0.49c0-0.63-0.15-1.08-0.43-1.37c-0.29-0.29-0.67-0.43-1.14-0.43c-0.56,0-1.04,0.19-1.42,0.58
				S404.12,35.26,403.95,36.01z"/>
		</g>
	</g>
</g>
<g>
	<g>
		<path d="M365.4,266.66c-0.86,0-1.51-0.19-1.97-0.56s-0.76-0.97-0.92-1.8l1.72-0.25c0.07,0.43,0.2,0.74,0.39,0.95
			s0.46,0.31,0.79,0.31c0.34,0,0.6-0.12,0.78-0.35s0.27-0.56,0.27-0.99v-4.33h-1.65v-1.35h3.37v5.64c0,0.86-0.24,1.53-0.73,2.01
			S366.28,266.66,365.4,266.66z"/>
		<path d="M376.54,264.16c0,0.81-0.3,1.43-0.9,1.85s-1.48,0.64-2.64,0.64c-2.09,0-3.31-0.76-3.65-2.27l1.67-0.28
			c0.11,0.44,0.33,0.75,0.66,0.95s0.78,0.3,1.37,0.3c0.61,0,1.06-0.09,1.36-0.28s0.45-0.46,0.45-0.83c0-0.23-0.07-0.43-0.21-0.58
			s-0.33-0.28-0.59-0.38c-0.12-0.05-0.31-0.11-0.55-0.17s-0.54-0.13-0.9-0.2c-0.41-0.1-0.74-0.18-0.97-0.25s-0.42-0.13-0.56-0.2
			s-0.28-0.14-0.41-0.21c-0.29-0.18-0.52-0.41-0.69-0.7s-0.25-0.66-0.25-1.1c0-0.75,0.28-1.32,0.84-1.71s1.38-0.59,2.45-0.59
			c1.02,0,1.79,0.16,2.31,0.48s0.84,0.85,0.99,1.59l-1.68,0.23c-0.09-0.36-0.26-0.62-0.52-0.8s-0.64-0.27-1.13-0.27
			c-0.52,0-0.92,0.08-1.18,0.25s-0.39,0.41-0.39,0.74c0,0.21,0.06,0.39,0.17,0.53s0.28,0.25,0.5,0.35c0.21,0.09,0.65,0.21,1.33,0.36
			c0.39,0.09,0.73,0.17,1.02,0.24s0.51,0.15,0.69,0.22c0.17,0.07,0.33,0.15,0.46,0.23s0.25,0.17,0.35,0.26
			c0.2,0.19,0.35,0.42,0.46,0.68S376.54,263.82,376.54,264.16z"/>
		<path d="M385.84,262.38c0,0.86-0.17,1.61-0.52,2.25s-0.83,1.14-1.46,1.5s-1.36,0.53-2.21,0.53c-0.86,0-1.61-0.17-2.23-0.52
			s-1.1-0.84-1.43-1.48s-0.5-1.4-0.5-2.29s0.17-1.64,0.5-2.27s0.81-1.11,1.43-1.44s1.37-0.5,2.24-0.5c0.88,0,1.62,0.17,2.24,0.51
			s1.1,0.82,1.43,1.45S385.84,261.5,385.84,262.38z M384.07,262.38c0-0.89-0.21-1.59-0.63-2.09s-1.01-0.76-1.78-0.76
			c-0.77,0-1.37,0.25-1.79,0.75s-0.63,1.2-0.63,2.1c0,0.6,0.1,1.12,0.29,1.56s0.47,0.77,0.83,1.01s0.79,0.35,1.29,0.35
			c0.77,0,1.37-0.25,1.79-0.76S384.07,263.31,384.07,262.38z"/>
		<path d="M388.68,261.67v4.87h-1.54v-8.26h1.97l3.65,6.41c-0.07-0.59-0.11-1.13-0.11-1.61v-4.8h1.54v8.26h-2.03l-3.6-6.36
			c0.04,0.31,0.06,0.59,0.08,0.83S388.68,261.49,388.68,261.67z"/>
	</g>
</g>
<g>
	<g>
		<path d="M47.42,155.85v5h-1.54v-8.26h2.31l1.48,4.62c0.07,0.26,0.13,0.52,0.21,0.78s0.14,0.52,0.21,0.78
			c0.04-0.15,0.08-0.3,0.12-0.44s0.08-0.29,0.12-0.44s0.08-0.29,0.13-0.44l1.52-4.85h2.3v8.26h-1.54v-5c0-0.11,0-0.34,0.01-0.68
			s0.02-0.71,0.04-1.12c-0.14,0.52-0.26,0.97-0.36,1.34s-0.19,0.65-0.25,0.86l-1.49,4.61h-1.23l-1.49-4.61l-0.63-2.2
			c0.02,0.45,0.04,0.83,0.05,1.13S47.42,155.7,47.42,155.85z"/>
		<path d="M62.61,159.52v1.34h-6.73v-8.26h6.49v1.34h-4.76v2.07h4.41v1.34h-4.41v2.17H62.61z"/>
		<path d="M67.61,153.93v6.92h-1.73v-6.92h-2.67v-1.34h7.07v1.34H67.61z"/>
		<path d="M72.94,157.31v3.54h-1.73v-8.26h1.73v3.29h3.6v-3.29h1.73v8.26h-1.73v-3.54H72.94z"/>
		<path d="M87.91,156.69c0,0.86-0.17,1.61-0.52,2.25s-0.83,1.14-1.46,1.5s-1.36,0.53-2.21,0.53c-0.86,0-1.61-0.17-2.23-0.52
			s-1.1-0.84-1.43-1.48s-0.5-1.4-0.5-2.29s0.17-1.64,0.5-2.27s0.81-1.11,1.43-1.44s1.37-0.5,2.24-0.5c0.88,0,1.62,0.17,2.24,0.51
			s1.1,0.82,1.43,1.45S87.91,155.81,87.91,156.69z M86.15,156.69c0-0.89-0.21-1.59-0.63-2.09s-1.01-0.76-1.78-0.76
			c-0.77,0-1.37,0.25-1.79,0.75s-0.63,1.2-0.63,2.1c0,0.6,0.1,1.12,0.29,1.56s0.47,0.77,0.83,1.01s0.79,0.35,1.29,0.35
			c0.77,0,1.37-0.25,1.79-0.76S86.15,157.62,86.15,156.69z"/>
		<path d="M96.58,156.66c0,0.88-0.17,1.64-0.51,2.26s-0.81,1.1-1.42,1.43s-1.3,0.5-2.09,0.5h-3.34v-8.26h2.99
			c1.39,0,2.47,0.35,3.23,1.05S96.58,155.35,96.58,156.66z M94.84,156.66c0-0.89-0.23-1.56-0.69-2.03s-1.12-0.7-1.97-0.7h-1.22v5.58
			h1.46c0.5,0,0.92-0.12,1.29-0.35s0.64-0.56,0.84-0.99S94.84,157.25,94.84,156.66z"/>
	</g>
</g>
<g>
	<g>
		<path d="M161.29,159.52v1.34h-6.73v-8.26h6.49v1.34h-4.76v2.07h4.41v1.34h-4.41v2.17H161.29z"/>
		<path d="M164.09,155.98v4.87h-1.54v-8.26h1.97l3.65,6.41c-0.07-0.59-0.11-1.13-0.11-1.61v-4.8h1.54v8.26h-2.03l-3.6-6.36
			c0.04,0.31,0.06,0.59,0.08,0.83S164.09,155.8,164.09,155.98z"/>
		<path d="M178.58,156.66c0,0.88-0.17,1.64-0.51,2.26s-0.81,1.1-1.42,1.43s-1.3,0.5-2.09,0.5h-3.34v-8.26h2.99
			c1.39,0,2.47,0.35,3.23,1.05S178.58,155.35,178.58,156.66z M176.84,156.66c0-0.89-0.23-1.56-0.69-2.03s-1.12-0.7-1.97-0.7h-1.22
			v5.58h1.46c0.5,0,0.92-0.12,1.29-0.35s0.64-0.56,0.84-0.99S176.84,157.25,176.84,156.66z"/>
		<path d="M186.68,155.21c0,0.54-0.12,1.01-0.37,1.42s-0.59,0.73-1.04,0.97s-0.98,0.35-1.61,0.35h-2.05v2.91h-1.73v-8.26h3.71
			c0.99,0,1.75,0.23,2.28,0.68S186.68,154.38,186.68,155.21z M184.94,155.24c0-0.87-0.51-1.3-1.54-1.3h-1.79v2.68h1.83
			c0.48,0,0.84-0.12,1.1-0.35S184.94,155.68,184.94,155.24z"/>
		<path d="M195.92,156.69c0,0.86-0.17,1.61-0.52,2.25s-0.83,1.14-1.46,1.5s-1.36,0.53-2.21,0.53c-0.86,0-1.61-0.17-2.23-0.52
			s-1.1-0.84-1.43-1.48s-0.5-1.4-0.5-2.29s0.17-1.64,0.5-2.27s0.81-1.11,1.43-1.44s1.37-0.5,2.24-0.5c0.88,0,1.62,0.17,2.24,0.51
			s1.1,0.82,1.43,1.45S195.92,155.81,195.92,156.69z M194.16,156.69c0-0.89-0.21-1.59-0.63-2.09s-1.01-0.76-1.78-0.76
			c-0.77,0-1.37,0.25-1.79,0.75s-0.63,1.2-0.63,2.1c0,0.6,0.1,1.12,0.29,1.56s0.47,0.77,0.83,1.01s0.79,0.35,1.29,0.35
			c0.77,0,1.37-0.25,1.79-0.76S194.16,157.62,194.16,156.69z"/>
		<path d="M198.96,152.6v8.26h-1.73v-8.26H198.96z"/>
		<path d="M202.1,155.98v4.87h-1.54v-8.26h1.97l3.65,6.41c-0.07-0.59-0.11-1.13-0.11-1.61v-4.8h1.54v8.26h-2.03l-3.6-6.36
			c0.04,0.31,0.06,0.59,0.08,0.83S202.1,155.8,202.1,155.98z"/>
		<path d="M212.95,153.93v6.92h-1.73v-6.92h-2.67v-1.34h7.07v1.34H212.95z"/>
	</g>
</g>
<g>
	<g>
		<path d="M97.18,266.19c0,0.75-0.28,1.33-0.84,1.74s-1.34,0.62-2.34,0.62h-4.13v-8.26h3.78c1.01,0,1.77,0.17,2.29,0.52
			s0.78,0.87,0.78,1.55c0,0.47-0.13,0.86-0.39,1.19s-0.66,0.54-1.19,0.65c0.67,0.08,1.18,0.29,1.53,0.63S97.18,265.63,97.18,266.19z
			 M94.97,262.6c0-0.37-0.12-0.63-0.35-0.79s-0.59-0.23-1.05-0.23h-1.97v2.04h1.98c0.49,0,0.84-0.08,1.06-0.25
			S94.97,262.94,94.97,262.6z M95.45,266.05c0-0.77-0.55-1.16-1.66-1.16h-2.19v2.37h2.26c0.55,0,0.96-0.1,1.22-0.3
			S95.45,266.46,95.45,266.05z"/>
		<path d="M106.56,264.38c0,0.86-0.17,1.61-0.52,2.25s-0.83,1.14-1.46,1.5s-1.36,0.53-2.21,0.53c-0.86,0-1.61-0.17-2.23-0.52
			s-1.1-0.84-1.43-1.48s-0.5-1.4-0.5-2.29s0.17-1.64,0.5-2.27s0.81-1.11,1.43-1.44s1.37-0.5,2.24-0.5c0.88,0,1.62,0.17,2.24,0.51
			s1.1,0.82,1.43,1.45S106.56,263.5,106.56,264.38z M104.79,264.38c0-0.89-0.21-1.59-0.63-2.09s-1.01-0.76-1.78-0.76
			c-0.77,0-1.37,0.25-1.79,0.75s-0.63,1.2-0.63,2.1c0,0.6,0.1,1.12,0.29,1.56s0.47,0.77,0.83,1.01s0.79,0.35,1.29,0.35
			c0.77,0,1.37-0.25,1.79-0.76S104.79,265.31,104.79,264.38z"/>
		<path d="M115.22,264.35c0,0.88-0.17,1.64-0.51,2.26s-0.81,1.1-1.42,1.43s-1.3,0.5-2.09,0.5h-3.34v-8.26h2.99
			c1.39,0,2.47,0.35,3.23,1.05S115.22,263.05,115.22,264.35z M113.48,264.35c0-0.89-0.23-1.56-0.69-2.03s-1.12-0.7-1.97-0.7h-1.22
			v5.58h1.46c0.5,0,0.92-0.12,1.29-0.35s0.64-0.56,0.84-0.99S113.48,264.94,113.48,264.35z"/>
		<path d="M120.6,265.16v3.39h-1.72v-3.39l-2.94-4.87h1.81l1.98,3.49l2-3.49h1.81L120.6,265.16z"/>
		<path d="M126.95,259.85l-1.68,8.94h-1.42l1.71-8.94H126.95z"/>
		<path d="M134.66,262.9c0,0.54-0.12,1.01-0.37,1.42s-0.59,0.73-1.04,0.97s-0.98,0.35-1.61,0.35h-2.05v2.91h-1.73v-8.26h3.71
			c0.99,0,1.75,0.23,2.28,0.68S134.66,262.07,134.66,262.9z M132.92,262.93c0-0.87-0.51-1.3-1.54-1.3h-1.79v2.68h1.83
			c0.48,0,0.84-0.12,1.1-0.35S132.92,263.38,132.92,262.93z"/>
		<path d="M137.83,266.43l-0.73,2.11h-1.73l3.01-8.26h2.04l3,8.26h-1.71l-0.73-2.11H137.83z M139.4,261.56
			c-0.04,0.16-0.09,0.34-0.16,0.56s-0.12,0.37-0.15,0.46l-0.87,2.55h2.37l-0.89-2.6c-0.05-0.16-0.11-0.32-0.15-0.49
			S139.45,261.72,139.4,261.56z"/>
		<path d="M146.27,265.41v3.13h-1.73v-8.26h4.12c0.98,0,1.74,0.21,2.28,0.64s0.8,1.03,0.8,1.83c0,0.58-0.16,1.08-0.49,1.5
			s-0.77,0.7-1.33,0.83l2.23,3.47h-1.95l-1.92-3.13H146.27z M150,262.82c0-0.39-0.13-0.69-0.38-0.89s-0.63-0.3-1.14-0.3h-2.21v2.44
			h2.26c0.48,0,0.85-0.11,1.1-0.33S150,263.21,150,262.82z"/>
		<path d="M155.16,266.43l-0.73,2.11h-1.73l3.01-8.26h2.04l3,8.26h-1.71l-0.73-2.11H155.16z M156.73,261.56
			c-0.04,0.16-0.09,0.34-0.16,0.56s-0.12,0.37-0.15,0.46l-0.87,2.55h2.37l-0.89-2.6c-0.05-0.16-0.11-0.32-0.15-0.49
			S156.78,261.72,156.73,261.56z"/>
		<path d="M163.4,263.54v5h-1.54v-8.26h2.31l1.48,4.62c0.07,0.26,0.13,0.52,0.21,0.78s0.14,0.52,0.21,0.78
			c0.04-0.15,0.08-0.3,0.12-0.44s0.08-0.29,0.12-0.44s0.08-0.29,0.13-0.44l1.52-4.85h2.3v8.26h-1.54v-5c0-0.11,0-0.34,0.01-0.68
			s0.02-0.71,0.04-1.12c-0.14,0.52-0.26,0.97-0.36,1.34s-0.19,0.65-0.25,0.86l-1.49,4.61h-1.23l-1.49-4.61l-0.63-2.2
			c0.02,0.45,0.04,0.83,0.05,1.13S163.4,263.39,163.4,263.54z"/>
	</g>
</g>
<rect x="288.69" y="70.12" fill="none" stroke="#414042" stroke-miterlimit="10" width="169.2" height="183.96"/>
<rect x="18.37" y="20.88" fill="#414042" width="223.64" height="27.34"/>
<g>
	<g>
		<path fill="#E6E7E8" d="M95.57,36.14l-0.91,4.69h-2.59l2.41-12.38h5.72c0.94,0,1.74,0.14,2.4,0.43s1.17,0.7,1.51,1.23
			s0.52,1.16,0.52,1.88c0,0.97-0.32,1.79-0.95,2.46s-1.5,1.09-2.59,1.26l2.41,5.12h-2.87l-2.02-4.69H95.57z M99.42,34.12
			c0.85,0,1.49-0.17,1.93-0.51c0.44-0.34,0.65-0.83,0.65-1.46c0-0.54-0.19-0.96-0.56-1.25s-0.89-0.43-1.57-0.43h-3.2l-0.71,3.66
			H99.42z"/>
		<path fill="#E6E7E8" d="M107.9,36.65c-0.04,0.21-0.06,0.47-0.06,0.78c0,0.62,0.14,1.1,0.41,1.43c0.27,0.33,0.67,0.5,1.21,0.5
			c0.43,0,0.81-0.12,1.12-0.37s0.56-0.62,0.76-1.12l2.15,0.65c-0.44,0.93-0.98,1.58-1.63,1.94s-1.5,0.54-2.56,0.54
			c-1.25,0-2.22-0.34-2.93-1.02s-1.05-1.62-1.05-2.83s0.21-2.28,0.63-3.19c0.42-0.91,1.02-1.61,1.8-2.09
			c0.78-0.49,1.67-0.73,2.69-0.73c1.22,0,2.17,0.31,2.83,0.94s1,1.52,1,2.67c0,0.58-0.07,1.21-0.21,1.89H107.9z M108.19,35.01h3.79
			l0.03-0.49c0-0.63-0.15-1.08-0.43-1.37c-0.29-0.29-0.67-0.43-1.14-0.43c-0.56,0-1.04,0.19-1.42,0.58S108.36,34.26,108.19,35.01z"
			/>
		<path fill="#E6E7E8" d="M118.23,41.02c-0.89,0-1.6-0.29-2.14-0.86c-0.54-0.57-0.8-1.37-0.8-2.38c0-1.15,0.19-2.26,0.56-3.33
			c0.38-1.07,0.9-1.89,1.58-2.45s1.49-0.84,2.43-0.84c0.76,0,1.35,0.13,1.77,0.4s0.74,0.72,0.98,1.35h0.04
			c0.05-0.24,0.1-0.46,0.14-0.65c0.04-0.2,0.09-0.37,0.14-0.53s0.09-0.29,0.13-0.39h2.37c-0.02,0.08-0.06,0.21-0.1,0.41
			c-0.04,0.2-0.1,0.45-0.16,0.76s-0.29,1.47-0.69,3.48s-0.95,4.88-1.66,8.59h-2.47l0.75-3.8l0.32-1.37h-0.04
			c-0.44,0.57-0.91,0.99-1.4,1.24S118.91,41.02,118.23,41.02z M119.32,39.32c0.74,0,1.34-0.26,1.78-0.78s0.75-1.3,0.94-2.34
			c0.04-0.18,0.06-0.34,0.08-0.5s0.04-0.3,0.04-0.45c0.01-0.14,0.01-0.28,0.01-0.4c0-0.67-0.13-1.18-0.38-1.52
			c-0.26-0.34-0.64-0.51-1.15-0.51c-0.65,0-1.17,0.19-1.55,0.56c-0.26,0.25-0.48,0.6-0.66,1.06s-0.31,0.94-0.41,1.47
			s-0.14,1.03-0.14,1.51c0,0.61,0.12,1.08,0.36,1.4C118.49,39.16,118.85,39.32,119.32,39.32z"/>
		<path fill="#E6E7E8" d="M132.48,39.21c-0.45,0.63-0.93,1.08-1.46,1.37c-0.53,0.28-1.14,0.43-1.82,0.43
			c-0.89,0-1.56-0.21-2.01-0.64s-0.68-1.05-0.68-1.85c0-0.1,0.01-0.24,0.03-0.43s0.05-0.37,0.08-0.57s0.06-0.34,0.08-0.45l1.12-5.74
			h2.45l-1.04,5.23C129.07,37.29,129,37.77,129,38c0,0.76,0.45,1.13,1.34,1.13c0.4,0,0.78-0.11,1.14-0.33
			c0.36-0.22,0.67-0.51,0.93-0.89c0.26-0.38,0.43-0.8,0.52-1.27l1.04-5.33h2.48l-1.46,7.48c-0.05,0.23-0.1,0.52-0.15,0.86
			c-0.06,0.34-0.12,0.73-0.18,1.17h-2.36c0-0.04,0.01-0.17,0.04-0.39c0.03-0.23,0.06-0.46,0.09-0.71s0.06-0.42,0.08-0.52H132.48z"/>
		<path fill="#E6E7E8" d="M139.91,36.65c-0.04,0.21-0.06,0.47-0.06,0.78c0,0.62,0.14,1.1,0.41,1.43c0.27,0.33,0.67,0.5,1.21,0.5
			c0.43,0,0.81-0.12,1.12-0.37s0.56-0.62,0.76-1.12l2.15,0.65c-0.44,0.93-0.98,1.58-1.63,1.94s-1.5,0.54-2.56,0.54
			c-1.25,0-2.22-0.34-2.93-1.02s-1.05-1.62-1.05-2.83s0.21-2.28,0.63-3.19c0.42-0.91,1.02-1.61,1.8-2.09
			c0.78-0.49,1.67-0.73,2.69-0.73c1.22,0,2.17,0.31,2.83,0.94s1,1.52,1,2.67c0,0.58-0.07,1.21-0.21,1.89H139.91z M140.2,35.01h3.79
			l0.03-0.49c0-0.63-0.15-1.08-0.43-1.37c-0.29-0.29-0.67-0.43-1.14-0.43c-0.56,0-1.04,0.19-1.42,0.58S140.36,34.26,140.2,35.01z"/>
		<path fill="#E6E7E8" d="M155.56,37.9c0,1.02-0.38,1.79-1.13,2.32c-0.75,0.53-1.85,0.79-3.29,0.79c-1.18,0-2.11-0.21-2.79-0.62
			s-1.14-1.06-1.38-1.93l2.21-0.32c0.12,0.44,0.35,0.76,0.68,0.95s0.81,0.29,1.46,0.29c1.3,0,1.95-0.4,1.95-1.2
			c0-0.3-0.12-0.53-0.36-0.7c-0.25-0.16-0.78-0.33-1.61-0.5c-0.7-0.16-1.28-0.35-1.73-0.59c-0.52-0.27-0.89-0.59-1.11-0.97
			c-0.23-0.38-0.34-0.82-0.34-1.34c0-0.94,0.37-1.66,1.1-2.15s1.79-0.75,3.15-0.75c1.21,0,2.11,0.21,2.7,0.62s0.96,1.05,1.1,1.91
			l-2.21,0.25c-0.1-0.4-0.29-0.7-0.58-0.88s-0.68-0.27-1.18-0.27c-0.6,0-1.05,0.09-1.35,0.26s-0.45,0.44-0.45,0.79
			c0,0.19,0.06,0.35,0.18,0.48s0.28,0.24,0.5,0.33c0.21,0.09,0.73,0.24,1.56,0.43c0.8,0.18,1.42,0.42,1.86,0.71
			c0.38,0.25,0.64,0.54,0.81,0.88S155.56,37.45,155.56,37.9z"/>
		<path fill="#E6E7E8" d="M160.09,40.98c-0.73,0-1.29-0.17-1.69-0.51s-0.6-0.83-0.6-1.46c0-0.43,0.05-0.89,0.14-1.38l0.9-4.62h-1.3
			l0.33-1.67h1.42l1.2-2.23h1.55l-0.42,2.23h1.78l-0.31,1.67h-1.8l-0.91,4.7c-0.06,0.34-0.1,0.6-0.1,0.78c0,0.27,0.07,0.47,0.21,0.6
			s0.32,0.2,0.56,0.2c0.2,0,0.52-0.04,0.95-0.11l-0.28,1.6C161.23,40.91,160.69,40.98,160.09,40.98z"/>
	</g>
</g>
</svg>
